<?xml version="1.0" encoding="utf-8" standalone="no"?>
<!DOCTYPE svg PUBLIC "-//W3C//DTD SVG 1.1//EN"
  "http://www.w3.org/Graphics/SVG/1.1/DTD/svg11.dtd">
<svg xmlns:xlink="http://www.w3.org/1999/xlink" width="1105.92pt" height="543.168pt" viewBox="0 0 1105.92 543.168" xmlns="http://www.w3.org/2000/svg" version="1.1">
 <metadata>
  <rdf:RDF xmlns:dc="http://purl.org/dc/elements/1.1/" xmlns:cc="http://creativecommons.org/ns#" xmlns:rdf="http://www.w3.org/1999/02/22-rdf-syntax-ns#">
   <cc:Work>
    <dc:type rdf:resource="http://purl.org/dc/dcmitype/StillImage"/>
    <dc:date>2023-12-20T23:24:32.572201</dc:date>
    <dc:format>image/svg+xml</dc:format>
    <dc:creator>
     <cc:Agent>
      <dc:title>Matplotlib v3.8.0, https://matplotlib.org/</dc:title>
     </cc:Agent>
    </dc:creator>
   </cc:Work>
  </rdf:RDF>
 </metadata>
 <defs>
  <style type="text/css">*{stroke-linejoin: round; stroke-linecap: butt}</style>
 </defs>
 <g id="figure_1">
  <g id="patch_1">
   <path d="M 0 543.168 
L 1105.92 543.168 
L 1105.92 0 
L 0 0 
z
" style="fill: #f0f0f0"/>
  </g>
  <g id="axes_1">
   <g id="patch_2">
    <path d="M 63.195429 495.576137 
L 1069.632 495.576137 
L 1069.632 23.7636 
L 63.195429 23.7636 
z
" style="fill: #f0f0f0"/>
   </g>
   <g id="matplotlib.axis_1">
    <g id="xtick_1">
     <g id="line2d_1">
      <path d="M 108.942545 495.576137 
L 108.942545 23.7636 
" clip-path="url(#pcca8e69aa7)" style="fill: none; stroke: #cbcbcb"/>
     </g>
     <g id="line2d_2"/>
     <g id="text_1">
      <!-- −1.00 -->
      <g transform="translate(87.490827 509.71395) scale(0.14 -0.14)">
       <defs>
        <path id="DejaVuSans-2212" d="M 678 2272 
L 4684 2272 
L 4684 1741 
L 678 1741 
L 678 2272 
z
" transform="scale(0.015625)"/>
        <path id="DejaVuSans-31" d="M 794 531 
L 1825 531 
L 1825 4091 
L 703 3866 
L 703 4441 
L 1819 4666 
L 2450 4666 
L 2450 531 
L 3481 531 
L 3481 0 
L 794 0 
L 794 531 
z
" transform="scale(0.015625)"/>
        <path id="DejaVuSans-2e" d="M 684 794 
L 1344 794 
L 1344 0 
L 684 0 
L 684 794 
z
" transform="scale(0.015625)"/>
        <path id="DejaVuSans-30" d="M 2034 4250 
Q 1547 4250 1301 3770 
Q 1056 3291 1056 2328 
Q 1056 1369 1301 889 
Q 1547 409 2034 409 
Q 2525 409 2770 889 
Q 3016 1369 3016 2328 
Q 3016 3291 2770 3770 
Q 2525 4250 2034 4250 
z
M 2034 4750 
Q 2819 4750 3233 4129 
Q 3647 3509 3647 2328 
Q 3647 1150 3233 529 
Q 2819 -91 2034 -91 
Q 1250 -91 836 529 
Q 422 1150 422 2328 
Q 422 3509 836 4129 
Q 1250 4750 2034 4750 
z
" transform="scale(0.015625)"/>
       </defs>
       <use xlink:href="#DejaVuSans-2212"/>
       <use xlink:href="#DejaVuSans-31" x="83.789062"/>
       <use xlink:href="#DejaVuSans-2e" x="147.412109"/>
       <use xlink:href="#DejaVuSans-30" x="179.199219"/>
       <use xlink:href="#DejaVuSans-30" x="242.822266"/>
      </g>
     </g>
    </g>
    <g id="xtick_2">
     <g id="line2d_3">
      <path d="M 223.310338 495.576137 
L 223.310338 23.7636 
" clip-path="url(#pcca8e69aa7)" style="fill: none; stroke: #cbcbcb"/>
     </g>
     <g id="line2d_4"/>
     <g id="text_2">
      <!-- −0.75 -->
      <g transform="translate(201.858619 509.71395) scale(0.14 -0.14)">
       <defs>
        <path id="DejaVuSans-37" d="M 525 4666 
L 3525 4666 
L 3525 4397 
L 1831 0 
L 1172 0 
L 2766 4134 
L 525 4134 
L 525 4666 
z
" transform="scale(0.015625)"/>
        <path id="DejaVuSans-35" d="M 691 4666 
L 3169 4666 
L 3169 4134 
L 1269 4134 
L 1269 2991 
Q 1406 3038 1543 3061 
Q 1681 3084 1819 3084 
Q 2600 3084 3056 2656 
Q 3513 2228 3513 1497 
Q 3513 744 3044 326 
Q 2575 -91 1722 -91 
Q 1428 -91 1123 -41 
Q 819 9 494 109 
L 494 744 
Q 775 591 1075 516 
Q 1375 441 1709 441 
Q 2250 441 2565 725 
Q 2881 1009 2881 1497 
Q 2881 1984 2565 2268 
Q 2250 2553 1709 2553 
Q 1456 2553 1204 2497 
Q 953 2441 691 2322 
L 691 4666 
z
" transform="scale(0.015625)"/>
       </defs>
       <use xlink:href="#DejaVuSans-2212"/>
       <use xlink:href="#DejaVuSans-30" x="83.789062"/>
       <use xlink:href="#DejaVuSans-2e" x="147.412109"/>
       <use xlink:href="#DejaVuSans-37" x="179.199219"/>
       <use xlink:href="#DejaVuSans-35" x="242.822266"/>
      </g>
     </g>
    </g>
    <g id="xtick_3">
     <g id="line2d_5">
      <path d="M 337.67813 495.576137 
L 337.67813 23.7636 
" clip-path="url(#pcca8e69aa7)" style="fill: none; stroke: #cbcbcb"/>
     </g>
     <g id="line2d_6"/>
     <g id="text_3">
      <!-- −0.50 -->
      <g transform="translate(316.226411 509.71395) scale(0.14 -0.14)">
       <use xlink:href="#DejaVuSans-2212"/>
       <use xlink:href="#DejaVuSans-30" x="83.789062"/>
       <use xlink:href="#DejaVuSans-2e" x="147.412109"/>
       <use xlink:href="#DejaVuSans-35" x="179.199219"/>
       <use xlink:href="#DejaVuSans-30" x="242.822266"/>
      </g>
     </g>
    </g>
    <g id="xtick_4">
     <g id="line2d_7">
      <path d="M 452.045922 495.576137 
L 452.045922 23.7636 
" clip-path="url(#pcca8e69aa7)" style="fill: none; stroke: #cbcbcb"/>
     </g>
     <g id="line2d_8"/>
     <g id="text_4">
      <!-- −0.25 -->
      <g transform="translate(430.594203 509.71395) scale(0.14 -0.14)">
       <defs>
        <path id="DejaVuSans-32" d="M 1228 531 
L 3431 531 
L 3431 0 
L 469 0 
L 469 531 
Q 828 903 1448 1529 
Q 2069 2156 2228 2338 
Q 2531 2678 2651 2914 
Q 2772 3150 2772 3378 
Q 2772 3750 2511 3984 
Q 2250 4219 1831 4219 
Q 1534 4219 1204 4116 
Q 875 4013 500 3803 
L 500 4441 
Q 881 4594 1212 4672 
Q 1544 4750 1819 4750 
Q 2544 4750 2975 4387 
Q 3406 4025 3406 3419 
Q 3406 3131 3298 2873 
Q 3191 2616 2906 2266 
Q 2828 2175 2409 1742 
Q 1991 1309 1228 531 
z
" transform="scale(0.015625)"/>
       </defs>
       <use xlink:href="#DejaVuSans-2212"/>
       <use xlink:href="#DejaVuSans-30" x="83.789062"/>
       <use xlink:href="#DejaVuSans-2e" x="147.412109"/>
       <use xlink:href="#DejaVuSans-32" x="179.199219"/>
       <use xlink:href="#DejaVuSans-35" x="242.822266"/>
      </g>
     </g>
    </g>
    <g id="xtick_5">
     <g id="line2d_9">
      <path d="M 566.413714 495.576137 
L 566.413714 23.7636 
" clip-path="url(#pcca8e69aa7)" style="fill: none; stroke: #cbcbcb"/>
     </g>
     <g id="line2d_10"/>
     <g id="text_5">
      <!-- 0.00 -->
      <g transform="translate(550.827777 509.71395) scale(0.14 -0.14)">
       <use xlink:href="#DejaVuSans-30"/>
       <use xlink:href="#DejaVuSans-2e" x="63.623047"/>
       <use xlink:href="#DejaVuSans-30" x="95.410156"/>
       <use xlink:href="#DejaVuSans-30" x="159.033203"/>
      </g>
     </g>
    </g>
    <g id="xtick_6">
     <g id="line2d_11">
      <path d="M 680.781506 495.576137 
L 680.781506 23.7636 
" clip-path="url(#pcca8e69aa7)" style="fill: none; stroke: #cbcbcb"/>
     </g>
     <g id="line2d_12"/>
     <g id="text_6">
      <!-- 0.25 -->
      <g transform="translate(665.195569 509.71395) scale(0.14 -0.14)">
       <use xlink:href="#DejaVuSans-30"/>
       <use xlink:href="#DejaVuSans-2e" x="63.623047"/>
       <use xlink:href="#DejaVuSans-32" x="95.410156"/>
       <use xlink:href="#DejaVuSans-35" x="159.033203"/>
      </g>
     </g>
    </g>
    <g id="xtick_7">
     <g id="line2d_13">
      <path d="M 795.149299 495.576137 
L 795.149299 23.7636 
" clip-path="url(#pcca8e69aa7)" style="fill: none; stroke: #cbcbcb"/>
     </g>
     <g id="line2d_14"/>
     <g id="text_7">
      <!-- 0.50 -->
      <g transform="translate(779.563361 509.71395) scale(0.14 -0.14)">
       <use xlink:href="#DejaVuSans-30"/>
       <use xlink:href="#DejaVuSans-2e" x="63.623047"/>
       <use xlink:href="#DejaVuSans-35" x="95.410156"/>
       <use xlink:href="#DejaVuSans-30" x="159.033203"/>
      </g>
     </g>
    </g>
    <g id="xtick_8">
     <g id="line2d_15">
      <path d="M 909.517091 495.576137 
L 909.517091 23.7636 
" clip-path="url(#pcca8e69aa7)" style="fill: none; stroke: #cbcbcb"/>
     </g>
     <g id="line2d_16"/>
     <g id="text_8">
      <!-- 0.75 -->
      <g transform="translate(893.931153 509.71395) scale(0.14 -0.14)">
       <use xlink:href="#DejaVuSans-30"/>
       <use xlink:href="#DejaVuSans-2e" x="63.623047"/>
       <use xlink:href="#DejaVuSans-37" x="95.410156"/>
       <use xlink:href="#DejaVuSans-35" x="159.033203"/>
      </g>
     </g>
    </g>
    <g id="xtick_9">
     <g id="line2d_17">
      <path d="M 1023.884883 495.576137 
L 1023.884883 23.7636 
" clip-path="url(#pcca8e69aa7)" style="fill: none; stroke: #cbcbcb"/>
     </g>
     <g id="line2d_18"/>
     <g id="text_9">
      <!-- 1.00 -->
      <g transform="translate(1008.298946 509.71395) scale(0.14 -0.14)">
       <use xlink:href="#DejaVuSans-31"/>
       <use xlink:href="#DejaVuSans-2e" x="63.623047"/>
       <use xlink:href="#DejaVuSans-30" x="95.410156"/>
       <use xlink:href="#DejaVuSans-30" x="159.033203"/>
      </g>
     </g>
    </g>
    <g id="text_10">
     <!-- x -->
     <g transform="translate(561.441964 529.390887) scale(0.168 -0.168)">
      <defs>
       <path id="DejaVuSans-78" d="M 3513 3500 
L 2247 1797 
L 3578 0 
L 2900 0 
L 1881 1375 
L 863 0 
L 184 0 
L 1544 1831 
L 300 3500 
L 978 3500 
L 1906 2253 
L 2834 3500 
L 3513 3500 
z
" transform="scale(0.015625)"/>
      </defs>
      <use xlink:href="#DejaVuSans-78"/>
     </g>
    </g>
   </g>
   <g id="matplotlib.axis_2">
    <g id="ytick_1">
     <g id="line2d_19">
      <path d="M 63.195429 482.708961 
L 1069.632 482.708961 
" clip-path="url(#pcca8e69aa7)" style="fill: none; stroke: #cbcbcb"/>
     </g>
     <g id="line2d_20"/>
     <g id="text_11">
      <!-- 0.0 -->
      <g transform="translate(37.431054 488.027867) scale(0.14 -0.14)">
       <use xlink:href="#DejaVuSans-30"/>
       <use xlink:href="#DejaVuSans-2e" x="63.623047"/>
       <use xlink:href="#DejaVuSans-30" x="95.410156"/>
      </g>
     </g>
    </g>
    <g id="ytick_2">
     <g id="line2d_21">
      <path d="M 63.195429 395.20471 
L 1069.632 395.20471 
" clip-path="url(#pcca8e69aa7)" style="fill: none; stroke: #cbcbcb"/>
     </g>
     <g id="line2d_22"/>
     <g id="text_12">
      <!-- 0.2 -->
      <g transform="translate(37.431054 400.523616) scale(0.14 -0.14)">
       <use xlink:href="#DejaVuSans-30"/>
       <use xlink:href="#DejaVuSans-2e" x="63.623047"/>
       <use xlink:href="#DejaVuSans-32" x="95.410156"/>
      </g>
     </g>
    </g>
    <g id="ytick_3">
     <g id="line2d_23">
      <path d="M 63.195429 307.700459 
L 1069.632 307.700459 
" clip-path="url(#pcca8e69aa7)" style="fill: none; stroke: #cbcbcb"/>
     </g>
     <g id="line2d_24"/>
     <g id="text_13">
      <!-- 0.4 -->
      <g transform="translate(37.431054 313.019365) scale(0.14 -0.14)">
       <defs>
        <path id="DejaVuSans-34" d="M 2419 4116 
L 825 1625 
L 2419 1625 
L 2419 4116 
z
M 2253 4666 
L 3047 4666 
L 3047 1625 
L 3713 1625 
L 3713 1100 
L 3047 1100 
L 3047 0 
L 2419 0 
L 2419 1100 
L 313 1100 
L 313 1709 
L 2253 4666 
z
" transform="scale(0.015625)"/>
       </defs>
       <use xlink:href="#DejaVuSans-30"/>
       <use xlink:href="#DejaVuSans-2e" x="63.623047"/>
       <use xlink:href="#DejaVuSans-34" x="95.410156"/>
      </g>
     </g>
    </g>
    <g id="ytick_4">
     <g id="line2d_25">
      <path d="M 63.195429 220.196208 
L 1069.632 220.196208 
" clip-path="url(#pcca8e69aa7)" style="fill: none; stroke: #cbcbcb"/>
     </g>
     <g id="line2d_26"/>
     <g id="text_14">
      <!-- 0.6 -->
      <g transform="translate(37.431054 225.515114) scale(0.14 -0.14)">
       <defs>
        <path id="DejaVuSans-36" d="M 2113 2584 
Q 1688 2584 1439 2293 
Q 1191 2003 1191 1497 
Q 1191 994 1439 701 
Q 1688 409 2113 409 
Q 2538 409 2786 701 
Q 3034 994 3034 1497 
Q 3034 2003 2786 2293 
Q 2538 2584 2113 2584 
z
M 3366 4563 
L 3366 3988 
Q 3128 4100 2886 4159 
Q 2644 4219 2406 4219 
Q 1781 4219 1451 3797 
Q 1122 3375 1075 2522 
Q 1259 2794 1537 2939 
Q 1816 3084 2150 3084 
Q 2853 3084 3261 2657 
Q 3669 2231 3669 1497 
Q 3669 778 3244 343 
Q 2819 -91 2113 -91 
Q 1303 -91 875 529 
Q 447 1150 447 2328 
Q 447 3434 972 4092 
Q 1497 4750 2381 4750 
Q 2619 4750 2861 4703 
Q 3103 4656 3366 4563 
z
" transform="scale(0.015625)"/>
       </defs>
       <use xlink:href="#DejaVuSans-30"/>
       <use xlink:href="#DejaVuSans-2e" x="63.623047"/>
       <use xlink:href="#DejaVuSans-36" x="95.410156"/>
      </g>
     </g>
    </g>
    <g id="ytick_5">
     <g id="line2d_27">
      <path d="M 63.195429 132.691957 
L 1069.632 132.691957 
" clip-path="url(#pcca8e69aa7)" style="fill: none; stroke: #cbcbcb"/>
     </g>
     <g id="line2d_28"/>
     <g id="text_15">
      <!-- 0.8 -->
      <g transform="translate(37.431054 138.010863) scale(0.14 -0.14)">
       <defs>
        <path id="DejaVuSans-38" d="M 2034 2216 
Q 1584 2216 1326 1975 
Q 1069 1734 1069 1313 
Q 1069 891 1326 650 
Q 1584 409 2034 409 
Q 2484 409 2743 651 
Q 3003 894 3003 1313 
Q 3003 1734 2745 1975 
Q 2488 2216 2034 2216 
z
M 1403 2484 
Q 997 2584 770 2862 
Q 544 3141 544 3541 
Q 544 4100 942 4425 
Q 1341 4750 2034 4750 
Q 2731 4750 3128 4425 
Q 3525 4100 3525 3541 
Q 3525 3141 3298 2862 
Q 3072 2584 2669 2484 
Q 3125 2378 3379 2068 
Q 3634 1759 3634 1313 
Q 3634 634 3220 271 
Q 2806 -91 2034 -91 
Q 1263 -91 848 271 
Q 434 634 434 1313 
Q 434 1759 690 2068 
Q 947 2378 1403 2484 
z
M 1172 3481 
Q 1172 3119 1398 2916 
Q 1625 2713 2034 2713 
Q 2441 2713 2670 2916 
Q 2900 3119 2900 3481 
Q 2900 3844 2670 4047 
Q 2441 4250 2034 4250 
Q 1625 4250 1398 4047 
Q 1172 3844 1172 3481 
z
" transform="scale(0.015625)"/>
       </defs>
       <use xlink:href="#DejaVuSans-30"/>
       <use xlink:href="#DejaVuSans-2e" x="63.623047"/>
       <use xlink:href="#DejaVuSans-38" x="95.410156"/>
      </g>
     </g>
    </g>
    <g id="ytick_6">
     <g id="line2d_29">
      <path d="M 63.195429 45.187706 
L 1069.632 45.187706 
" clip-path="url(#pcca8e69aa7)" style="fill: none; stroke: #cbcbcb"/>
     </g>
     <g id="line2d_30"/>
     <g id="text_16">
      <!-- 1.0 -->
      <g transform="translate(37.431054 50.506612) scale(0.14 -0.14)">
       <use xlink:href="#DejaVuSans-31"/>
       <use xlink:href="#DejaVuSans-2e" x="63.623047"/>
       <use xlink:href="#DejaVuSans-30" x="95.410156"/>
      </g>
     </g>
    </g>
    <g id="text_17">
     <!-- f(x), w(n, x) -->
     <g transform="translate(29.937179 308.551306) rotate(-90) scale(0.168 -0.168)">
      <defs>
       <path id="DejaVuSans-66" d="M 2375 4863 
L 2375 4384 
L 1825 4384 
Q 1516 4384 1395 4259 
Q 1275 4134 1275 3809 
L 1275 3500 
L 2222 3500 
L 2222 3053 
L 1275 3053 
L 1275 0 
L 697 0 
L 697 3053 
L 147 3053 
L 147 3500 
L 697 3500 
L 697 3744 
Q 697 4328 969 4595 
Q 1241 4863 1831 4863 
L 2375 4863 
z
" transform="scale(0.015625)"/>
       <path id="DejaVuSans-28" d="M 1984 4856 
Q 1566 4138 1362 3434 
Q 1159 2731 1159 2009 
Q 1159 1288 1364 580 
Q 1569 -128 1984 -844 
L 1484 -844 
Q 1016 -109 783 600 
Q 550 1309 550 2009 
Q 550 2706 781 3412 
Q 1013 4119 1484 4856 
L 1984 4856 
z
" transform="scale(0.015625)"/>
       <path id="DejaVuSans-29" d="M 513 4856 
L 1013 4856 
Q 1481 4119 1714 3412 
Q 1947 2706 1947 2009 
Q 1947 1309 1714 600 
Q 1481 -109 1013 -844 
L 513 -844 
Q 928 -128 1133 580 
Q 1338 1288 1338 2009 
Q 1338 2731 1133 3434 
Q 928 4138 513 4856 
z
" transform="scale(0.015625)"/>
       <path id="DejaVuSans-2c" d="M 750 794 
L 1409 794 
L 1409 256 
L 897 -744 
L 494 -744 
L 750 256 
L 750 794 
z
" transform="scale(0.015625)"/>
       <path id="DejaVuSans-20" transform="scale(0.015625)"/>
       <path id="DejaVuSans-77" d="M 269 3500 
L 844 3500 
L 1563 769 
L 2278 3500 
L 2956 3500 
L 3675 769 
L 4391 3500 
L 4966 3500 
L 4050 0 
L 3372 0 
L 2619 2869 
L 1863 0 
L 1184 0 
L 269 3500 
z
" transform="scale(0.015625)"/>
       <path id="DejaVuSans-6e" d="M 3513 2113 
L 3513 0 
L 2938 0 
L 2938 2094 
Q 2938 2591 2744 2837 
Q 2550 3084 2163 3084 
Q 1697 3084 1428 2787 
Q 1159 2491 1159 1978 
L 1159 0 
L 581 0 
L 581 3500 
L 1159 3500 
L 1159 2956 
Q 1366 3272 1645 3428 
Q 1925 3584 2291 3584 
Q 2894 3584 3203 3211 
Q 3513 2838 3513 2113 
z
" transform="scale(0.015625)"/>
      </defs>
      <use xlink:href="#DejaVuSans-66"/>
      <use xlink:href="#DejaVuSans-28" x="35.205078"/>
      <use xlink:href="#DejaVuSans-78" x="74.21875"/>
      <use xlink:href="#DejaVuSans-29" x="133.398438"/>
      <use xlink:href="#DejaVuSans-2c" x="172.412109"/>
      <use xlink:href="#DejaVuSans-20" x="204.199219"/>
      <use xlink:href="#DejaVuSans-77" x="235.986328"/>
      <use xlink:href="#DejaVuSans-28" x="317.773438"/>
      <use xlink:href="#DejaVuSans-6e" x="356.787109"/>
      <use xlink:href="#DejaVuSans-2c" x="420.166016"/>
      <use xlink:href="#DejaVuSans-20" x="451.953125"/>
      <use xlink:href="#DejaVuSans-78" x="483.740234"/>
      <use xlink:href="#DejaVuSans-29" x="542.919922"/>
     </g>
    </g>
   </g>
   <g id="line2d_31">
    <path d="M 108.942545 474.130113 
L 138.250008 472.942601 
L 163.894037 471.690892 
L 186.790492 470.360374 
L 207.855231 468.913926 
L 226.172395 467.441836 
L 242.657842 465.908689 
L 258.227431 464.241767 
L 271.965304 462.559558 
L 284.787319 460.777114 
L 296.693476 458.905786 
L 307.683774 456.962149 
L 317.758214 454.968545 
L 327.832654 452.740181 
L 336.991236 450.47948 
L 345.23396 448.22538 
L 353.476684 445.733995 
L 360.803549 443.293485 
L 368.130415 440.612194 
L 374.541422 438.044029 
L 380.95243 435.243504 
L 387.363437 432.183148 
L 392.858586 429.329508 
L 398.353735 426.239589 
L 403.848885 422.888213 
L 409.344034 419.247038 
L 413.923325 415.96843 
L 418.502616 412.445852 
L 423.081907 408.65651 
L 427.661198 404.575208 
L 432.240489 400.174098 
L 436.81978 395.422419 
L 441.399071 390.286233 
L 445.062503 385.87544 
L 448.725936 381.173878 
L 452.389369 376.159128 
L 456.052802 370.80713 
L 459.716234 365.092149 
L 463.379667 358.986774 
L 467.0431 352.461971 
L 470.706533 345.487197 
L 474.369966 338.030607 
L 478.033398 330.059379 
L 481.696831 321.540191 
L 485.360264 312.439905 
L 489.023697 302.726491 
L 492.68713 292.370276 
L 496.350562 281.345568 
L 500.013995 269.632744 
L 503.677428 257.220864 
L 507.340861 244.110883 
L 511.920152 226.768986 
L 516.499443 208.442213 
L 521.994592 185.357091 
L 529.321457 153.425509 
L 536.648323 121.620444 
L 541.227614 102.768765 
L 544.891047 88.78388 
L 547.638621 79.172852 
L 550.386196 70.486881 
L 552.217912 65.285097 
L 554.049629 60.60424 
L 555.881345 56.483939 
L 557.713061 52.960208 
L 559.544778 50.064703 
L 561.376494 47.824029 
L 562.292352 46.95604 
L 563.208211 46.259149 
L 564.124069 45.735017 
L 565.039927 45.384896 
L 565.955785 45.209624 
L 566.871643 45.209624 
L 567.787502 45.384896 
L 568.70336 45.735017 
L 569.619218 46.259149 
L 570.535076 46.95604 
L 571.450934 47.824029 
L 573.282651 50.064703 
L 575.114367 52.960208 
L 576.946084 56.483939 
L 578.7778 60.60424 
L 580.609516 65.285097 
L 582.441233 70.486881 
L 585.188807 79.172852 
L 587.936382 88.78388 
L 590.683956 99.164434 
L 594.347389 113.935445 
L 598.92668 133.405892 
L 615.412128 204.669945 
L 619.991419 223.178876 
L 624.57071 240.725859 
L 628.234143 254.008465 
L 631.897575 266.595504 
L 635.561008 278.482471 
L 639.224441 289.677659 
L 642.887874 300.198786 
L 646.551306 310.070243 
L 650.214739 319.320876 
L 653.878172 327.982257 
L 657.541605 336.087345 
L 661.205038 343.669488 
L 664.86847 350.761686 
L 668.531903 357.396064 
L 672.195336 363.603512 
L 675.858769 369.413457 
L 679.522201 374.853722 
L 683.185634 379.950463 
L 686.849067 384.728157 
L 690.5125 389.209629 
L 695.091791 394.427087 
L 699.671082 399.252846 
L 704.250373 403.721511 
L 708.829664 407.864457 
L 713.408955 411.710094 
L 717.988246 415.284129 
L 722.567537 418.609815 
L 728.062686 422.302291 
L 733.557835 425.699907 
L 739.052984 428.831573 
L 744.548133 431.722967 
L 750.959141 434.822905 
L 757.370148 437.658782 
L 763.781155 440.258593 
L 771.108021 442.972091 
L 778.434887 445.441135 
L 786.67761 447.960841 
L 794.920334 450.239821 
L 804.078916 452.524728 
L 813.237498 454.581853 
L 823.311938 456.615659 
L 834.302237 458.59716 
L 846.208393 460.503636 
L 859.030408 462.3183 
L 872.768281 464.02973 
L 887.422012 465.631138 
L 903.907459 467.201088 
L 921.308765 468.636863 
L 940.541787 470.005571 
L 962.522384 471.340693 
L 987.250555 472.607491 
L 1014.726301 473.783241 
L 1023.884883 474.130113 
L 1023.884883 474.130113 
" clip-path="url(#pcca8e69aa7)" style="fill: none; stroke-dasharray: 14.8,6.4; stroke-dashoffset: 0; stroke: #000000; stroke-width: 4"/>
   </g>
   <g id="line2d_32">
    <path d="M 108.942545 474.130113 
L 113.521836 485.107406 
L 118.101127 495.463884 
L 122.680418 505.209108 
L 127.259709 514.352638 
L 131.839 522.904036 
L 135.502433 529.325243 
L 139.165866 535.378499 
L 142.829299 541.0687 
L 144.93041 544.168 
M 275.790523 544.168 
L 281.123886 537.771225 
L 286.619035 530.795378 
L 292.114185 523.445966 
L 297.609334 515.73951 
L 304.020341 506.319421 
L 310.431349 496.462076 
L 316.842356 486.193711 
L 323.253363 475.540559 
L 330.580229 462.928015 
L 337.907094 449.886319 
L 346.149818 434.7502 
L 355.3084 417.421215 
L 365.38284 397.826311 
L 376.373139 375.929302 
L 389.195153 349.867692 
L 407.512317 312.073289 
L 435.903921 253.491762 
L 448.725936 227.557523 
L 459.716234 205.813361 
L 469.790675 186.393978 
L 478.949257 169.25395 
L 487.19198 154.311828 
L 494.518846 141.461609 
L 501.845711 129.058459 
L 508.256719 118.603222 
L 514.667726 108.54649 
L 521.078734 98.914495 
L 526.573883 91.016442 
L 532.069032 83.466237 
L 537.564181 76.2804 
L 543.05933 69.475453 
L 548.554479 63.067916 
L 553.13377 58.043798 
L 557.713061 53.316693 
L 562.292352 48.896161 
L 566.871643 44.791764 
L 571.450934 41.013063 
L 576.030225 37.569616 
L 579.693658 35.062668 
L 583.357091 32.781298 
L 587.020524 30.7304 
L 590.683956 28.91487 
L 594.347389 27.339603 
L 598.010822 26.009494 
L 601.674255 24.929438 
L 605.337688 24.10433 
L 609.00112 23.539065 
L 612.664553 23.238539 
L 616.327986 23.207645 
L 619.991419 23.451281 
L 623.654852 23.974339 
L 627.318284 24.781717 
L 630.981717 25.878308 
L 634.64515 27.269008 
L 638.308583 28.958711 
L 641.972015 30.952314 
L 645.635448 33.25471 
L 649.298881 35.870796 
L 652.962314 38.805466 
L 656.625747 42.063615 
L 660.289179 45.650138 
L 663.952612 49.569931 
L 667.616045 53.827888 
L 671.279478 58.428905 
L 674.94291 63.377877 
L 678.606343 68.679698 
L 682.269776 74.339264 
L 685.933209 80.361471 
L 689.596642 86.751212 
L 693.260074 93.513383 
L 697.839365 102.497284 
L 702.418656 112.080316 
L 706.997947 122.27204 
L 711.577238 133.082017 
L 716.156529 144.519808 
L 720.73582 156.594972 
L 725.315111 169.317071 
L 729.894402 182.695666 
L 734.473693 196.740317 
L 739.052984 211.460585 
L 743.632275 226.86603 
L 748.211566 242.966214 
L 752.790857 259.770697 
L 758.286006 280.879212 
L 763.781155 303.032207 
L 769.276305 326.246201 
L 774.771454 350.537716 
L 780.266603 375.923273 
L 785.761752 402.419392 
L 791.256901 430.042595 
L 796.752051 458.809402 
L 802.2472 488.736335 
L 807.742349 519.839913 
L 811.899804 544.168 
L 811.899804 544.168 
" clip-path="url(#pcca8e69aa7)" style="fill: none; stroke: #008fd5; stroke-width: 4"/>
   </g>
   <g id="line2d_33">
    <path d="M 108.942545 474.130113 
L 111.69012 454.6595 
L 114.437695 436.563415 
L 117.185269 419.794044 
L 119.932844 404.304432 
L 122.680418 390.048483 
L 125.427993 376.98095 
L 128.175568 365.057426 
L 130.923142 354.234342 
L 133.670717 344.468958 
L 136.418291 335.719356 
L 139.165866 327.944434 
L 141.913441 321.1039 
L 143.745157 317.043115 
L 145.576873 313.368543 
L 147.40859 310.068836 
L 149.240306 307.132803 
L 151.072022 304.549408 
L 152.903739 302.307765 
L 154.735455 300.397146 
L 156.567172 298.806972 
L 158.398888 297.526816 
L 160.230604 296.546402 
L 162.062321 295.855601 
L 163.894037 295.444436 
L 165.725754 295.303075 
L 167.55747 295.421834 
L 169.389186 295.791176 
L 171.220903 296.401706 
L 173.052619 297.244177 
L 174.884336 298.309483 
L 176.716052 299.58866 
L 178.547768 301.072888 
L 181.295343 303.664749 
L 184.042918 306.669768 
L 186.790492 310.059937 
L 189.538067 313.807947 
L 192.285641 317.887174 
L 195.949074 323.79663 
L 199.612507 330.189251 
L 203.27594 337.007517 
L 207.855231 346.044644 
L 212.434522 355.556574 
L 217.929671 367.458765 
L 225.256536 383.892838 
L 249.068849 437.874868 
L 255.479857 451.650149 
L 260.975006 462.950856 
L 265.554297 471.94123 
L 270.133588 480.492121 
L 274.712879 488.559383 
L 279.29217 496.102633 
L 282.955603 501.735158 
L 286.619035 506.991626 
L 290.282468 511.85635 
L 293.945901 516.315061 
L 297.609334 520.354879 
L 300.356908 523.102863 
L 303.104483 525.604347 
L 305.852058 527.85538 
L 308.599632 529.85242 
L 311.347207 531.592327 
L 314.094781 533.072356 
L 316.842356 534.290152 
L 319.589931 535.243741 
L 322.337505 535.931526 
L 325.08508 536.352278 
L 327.832654 536.50513 
L 330.580229 536.389573 
L 333.327803 536.005446 
L 336.075378 535.35293 
L 338.822953 534.432542 
L 341.570527 533.245129 
L 344.318102 531.791862 
L 347.065676 530.074227 
L 349.813251 528.094018 
L 352.560826 525.853334 
L 355.3084 523.354572 
L 358.055975 520.600414 
L 360.803549 517.59383 
L 364.466982 513.198034 
L 368.130415 508.367714 
L 371.793848 503.112127 
L 375.45728 497.441333 
L 379.120713 491.366157 
L 382.784146 484.898169 
L 386.447579 478.049652 
L 391.02687 468.973706 
L 395.606161 459.350265 
L 400.185452 449.20762 
L 404.764743 438.575501 
L 410.259892 425.214703 
L 415.755041 411.249988 
L 422.166048 394.272732 
L 428.577056 376.649909 
L 435.903921 355.847888 
L 444.146645 331.787374 
L 456.052802 296.250015 
L 478.949257 227.708078 
L 487.19198 203.754234 
L 494.518846 183.094994 
L 500.929853 165.643198 
L 506.425002 151.236164 
L 511.920152 137.410045 
L 517.415301 124.231435 
L 521.994592 113.790906 
L 526.573883 103.882058 
L 531.153174 94.540765 
L 534.816607 87.499846 
L 538.480039 80.861872 
L 542.143472 74.643743 
L 545.806905 68.861857 
L 549.470338 63.532092 
L 553.13377 58.66977 
L 555.881345 55.33868 
L 558.62892 52.284829 
L 561.376494 49.514014 
L 564.124069 47.031827 
L 566.871643 44.843648 
L 569.619218 42.954637 
L 572.366793 41.369729 
L 575.114367 40.093627 
L 577.861942 39.130796 
L 580.609516 38.485455 
L 583.357091 38.16157 
L 586.104665 38.162851 
L 588.85224 38.49274 
L 591.599815 39.154411 
L 594.347389 40.150756 
L 597.094964 41.484383 
L 599.842538 43.15761 
L 602.590113 45.172456 
L 605.337688 47.530635 
L 608.085262 50.233549 
L 610.832837 53.282284 
L 613.580411 56.677599 
L 616.327986 60.419923 
L 619.075561 64.509349 
L 621.823135 68.945622 
L 624.57071 73.728138 
L 628.234143 80.641714 
L 631.897575 88.165792 
L 635.561008 96.295904 
L 639.224441 105.026375 
L 642.887874 114.350294 
L 646.551306 124.259489 
L 650.214739 134.744497 
L 653.878172 145.794537 
L 658.457463 160.38306 
L 663.036754 175.808686 
L 667.616045 192.041266 
L 672.195336 209.047125 
L 677.690485 230.422131 
L 683.185634 252.785316 
L 688.680783 276.057347 
L 695.091791 304.239652 
L 701.502798 333.386568 
L 709.745522 372.004836 
L 719.819962 420.403857 
L 742.716417 530.940681 
L 745.531416 544.168 
M 863.431716 544.168 
L 865.441415 525.438356 
L 868.18899 498.163867 
L 870.936564 468.934217 
L 873.684139 437.689526 
L 876.431714 404.368959 
L 879.179288 368.910718 
L 882.842721 318.199164 
L 886.506154 263.424112 
L 890.169587 204.430962 
L 893.833019 141.061971 
L 897.496452 73.15623 
L 901.234954 -1 
L 901.234954 -1 
" clip-path="url(#pcca8e69aa7)" style="fill: none; stroke: #fc4f30; stroke-width: 4"/>
   </g>
   <g id="line2d_34">
    <path d="M 108.942545 474.130113 
L 110.774262 422.702673 
L 112.605978 377.234237 
L 114.437695 337.31264 
L 116.269411 302.545884 
L 118.101127 272.561409 
L 119.932844 247.005378 
L 121.76456 225.54199 
L 123.596277 207.852807 
L 125.427993 193.636098 
L 126.343851 187.740041 
L 127.259709 182.606203 
L 128.175568 178.201286 
L 129.091426 174.49292 
L 130.007284 171.449647 
L 130.923142 169.040899 
L 131.839 167.236983 
L 132.754859 166.009061 
L 133.670717 165.329135 
L 134.586575 165.17003 
L 135.502433 165.505375 
L 136.418291 166.309587 
L 137.33415 167.557856 
L 138.250008 169.226129 
L 139.165866 171.291091 
L 140.081724 173.730156 
L 141.913441 179.643765 
L 143.745157 186.800165 
L 145.576873 195.043199 
L 147.40859 204.226888 
L 150.156164 219.470667 
L 152.903739 236.105516 
L 156.567172 259.803423 
L 162.978179 303.338713 
L 170.305045 352.755353 
L 174.884336 381.924421 
L 178.547768 403.787187 
L 182.211201 424.087701 
L 184.958776 438.184291 
L 187.70635 451.255094 
L 190.453925 463.264463 
L 193.201499 474.190622 
L 195.949074 484.024242 
L 198.696649 492.767111 
L 200.528365 497.995102 
L 202.360081 502.748959 
L 204.191798 507.035895 
L 206.023514 510.864556 
L 207.855231 514.244883 
L 209.686947 517.187988 
L 211.518663 519.706033 
L 213.35038 521.812113 
L 215.182096 523.520149 
L 217.013813 524.844782 
L 218.845529 525.801276 
L 220.677245 526.405421 
L 222.508962 526.673449 
L 224.340678 526.621945 
L 226.172395 526.267774 
L 228.004111 525.627998 
L 229.835827 524.719813 
L 231.667544 523.560479 
L 233.49926 522.167261 
L 235.330976 520.557365 
L 238.078551 517.773613 
L 240.826126 514.597753 
L 243.5737 511.08561 
L 247.237133 505.973336 
L 250.900566 500.483528 
L 256.395715 491.795688 
L 270.133588 469.795684 
L 274.712879 462.95671 
L 278.376312 457.818992 
L 282.039744 453.034994 
L 285.703177 448.647877 
L 289.36661 444.691832 
L 292.114185 442.023331 
L 294.861759 439.619435 
L 297.609334 437.485203 
L 300.356908 435.623214 
L 303.104483 434.033673 
L 305.852058 432.714522 
L 308.599632 431.661551 
L 311.347207 430.868522 
L 314.094781 430.327288 
L 316.842356 430.027925 
L 319.589931 429.958858 
L 322.337505 430.106996 
L 325.08508 430.457859 
L 327.832654 430.995718 
L 331.496087 431.974483 
L 335.15952 433.213018 
L 338.822953 434.666162 
L 343.402244 436.712369 
L 350.729109 440.291682 
L 359.887691 444.756113 
L 364.466982 446.761745 
L 368.130415 448.172037 
L 371.793848 449.360143 
L 375.45728 450.282499 
L 378.204855 450.775 
L 380.95243 451.078409 
L 383.700004 451.177254 
L 386.447579 451.057035 
L 389.195153 450.704281 
L 391.942728 450.106601 
L 394.690303 449.252722 
L 397.437877 448.132529 
L 400.185452 446.737099 
L 402.933026 445.058725 
L 405.680601 443.090939 
L 408.428176 440.828532 
L 411.17575 438.267558 
L 413.923325 435.405349 
L 416.670899 432.24051 
L 419.418474 428.772924 
L 422.166048 425.003734 
L 424.913623 420.935342 
L 428.577056 415.051854 
L 432.240489 408.655034 
L 435.903921 401.760597 
L 439.567354 394.387872 
L 443.230787 386.559654 
L 447.810078 376.173897 
L 452.389369 365.175194 
L 456.96866 353.6283 
L 462.463809 339.148905 
L 468.874816 321.56681 
L 477.11754 298.224193 
L 497.26642 240.792617 
L 503.677428 223.365365 
L 509.172577 209.088021 
L 513.751868 197.771935 
L 518.331159 187.074275 
L 521.994592 179.015033 
L 525.658025 171.441074 
L 529.321457 164.388647 
L 532.98489 157.891574 
L 535.732465 153.402098 
L 538.480039 149.254773 
L 541.227614 145.460835 
L 543.975188 142.03057 
L 546.722763 138.973288 
L 549.470338 136.297291 
L 552.217912 134.00985 
L 554.965487 132.117183 
L 556.797203 131.077311 
L 558.62892 130.216461 
L 560.460636 129.535676 
L 562.292352 129.035778 
L 564.124069 128.717372 
L 565.955785 128.580843 
L 567.787502 128.626357 
L 569.619218 128.853859 
L 571.450934 129.263073 
L 573.282651 129.853504 
L 575.114367 130.624438 
L 576.946084 131.574943 
L 578.7778 132.703868 
L 581.525375 134.728751 
L 584.272949 137.146455 
L 587.020524 139.950406 
L 589.768098 143.132988 
L 592.515673 146.685561 
L 595.263247 150.598485 
L 598.010822 154.861155 
L 600.758397 159.462024 
L 604.421829 166.100967 
L 608.085262 173.287046 
L 611.748695 180.985814 
L 615.412128 189.160447 
L 619.991419 199.988304 
L 624.57071 211.41814 
L 630.065859 225.809205 
L 636.476866 243.336427 
L 644.71959 266.651507 
L 664.86847 324.116144 
L 671.279478 341.604299 
L 676.774627 355.978207 
L 681.353918 367.420958 
L 685.933209 378.302037 
L 690.5125 388.558039 
L 694.175933 396.274704 
L 697.839365 403.529861 
L 701.502798 410.301567 
L 705.166231 416.571384 
L 708.829664 422.324518 
L 711.577238 426.29352 
L 714.324813 429.96238 
L 717.072388 433.329115 
L 719.819962 436.393001 
L 722.567537 439.154581 
L 725.315111 441.615673 
L 728.062686 443.779372 
L 730.81026 445.650046 
L 733.557835 447.233325 
L 736.30541 448.536093 
L 739.052984 449.566463 
L 741.800559 450.333761 
L 744.548133 450.848491 
L 747.295708 451.122301 
L 750.043283 451.167951 
L 752.790857 450.999257 
L 755.538432 450.631052 
L 758.286006 450.07912 
L 761.949439 449.086368 
L 765.612872 447.838544 
L 770.192163 445.987467 
L 775.687312 443.45883 
L 794.004476 434.666162 
L 798.583767 432.881462 
L 802.2472 431.703726 
L 805.910633 430.796673 
L 808.658207 430.319326 
L 811.405782 430.034349 
L 814.153356 429.95707 
L 816.900931 430.10152 
L 819.648505 430.480299 
L 822.39608 431.104448 
L 825.143655 431.983311 
L 827.891229 433.124413 
L 830.638804 434.53333 
L 833.386378 436.213567 
L 836.133953 438.166442 
L 838.881528 440.390969 
L 841.629102 442.883753 
L 844.376677 445.638891 
L 847.124251 448.647877 
L 850.787684 453.034994 
L 854.451117 457.818992 
L 858.11455 462.95671 
L 862.693841 469.795684 
L 868.18899 478.449017 
L 882.842721 501.884836 
L 886.506154 507.291533 
L 890.169587 512.290301 
L 892.917161 515.696467 
L 895.664736 518.747891 
L 898.41231 521.388326 
L 900.244027 522.892028 
L 902.075743 524.17046 
L 903.907459 525.206378 
L 905.739176 525.982514 
L 907.570892 526.481631 
L 909.402609 526.68659 
L 911.234325 526.58042 
L 913.066041 526.146387 
L 914.897758 525.368071 
L 916.729474 524.22945 
L 918.561191 522.714987 
L 920.392907 520.809716 
L 922.224623 518.499345 
L 924.05634 515.770351 
L 925.888056 512.610093 
L 927.719773 509.006918 
L 929.551489 504.950284 
L 931.383205 500.430881 
L 933.214922 495.440765 
L 935.046638 489.973487 
L 937.794213 480.867866 
L 940.541787 470.669742 
L 943.289362 459.380891 
L 946.036936 447.014636 
L 948.784511 433.597216 
L 951.532086 419.169231 
L 955.195518 398.460085 
L 958.858951 376.240093 
L 963.438242 346.722014 
L 968.933391 309.61152 
L 977.176115 253.754361 
L 980.839548 230.43015 
L 983.587122 214.214986 
L 986.334697 199.5262 
L 988.166413 190.79521 
L 989.99813 183.07662 
L 991.829846 176.521442 
L 993.661563 171.291091 
L 994.577421 169.226129 
L 995.493279 167.557856 
L 996.409137 166.309587 
L 997.324995 165.505375 
L 998.240854 165.17003 
L 999.156712 165.329135 
L 1000.07257 166.009061 
L 1000.988428 167.236983 
L 1001.904286 169.040899 
L 1002.820145 171.449647 
L 1003.736003 174.49292 
L 1004.651861 178.201286 
L 1005.567719 182.606203 
L 1006.483577 187.740041 
L 1007.399436 193.636098 
L 1008.315294 200.328616 
L 1010.14701 216.244865 
L 1011.978727 235.782405 
L 1013.810443 259.25124 
L 1015.642159 286.978407 
L 1017.473876 319.308639 
L 1019.305592 356.605048 
L 1021.137309 399.249821 
L 1022.969025 447.644949 
L 1023.884883 474.130113 
L 1023.884883 474.130113 
" clip-path="url(#pcca8e69aa7)" style="fill: none; stroke: #e5ae38; stroke-width: 4"/>
   </g>
   <g id="line2d_35">
    <path d="M 108.942545 474.1304 
L 108.943244 -1 
M 138.45387 -1 
L 138.474132 544.168 
M 167.953669 544.168 
L 168.207179 -1 
M 195.856338 -1 
L 196.864932 301.721838 
L 197.777694 544.168 
M 225.392106 544.168 
L 227.088253 463.512199 
L 228.919969 392.319055 
L 229.835827 362.807244 
L 230.751686 337.26649 
L 231.667544 315.58822 
L 232.583402 297.633807 
L 233.49926 283.239024 
L 234.415118 272.218271 
L 235.330976 264.368588 
L 236.246835 259.473444 
L 237.162693 257.306261 
L 238.078551 257.633699 
L 238.994409 260.218673 
L 239.910267 264.8231 
L 240.826126 271.210412 
L 241.741984 279.147768 
L 243.5737 298.771586 
L 245.405417 321.97571 
L 249.068849 373.087301 
L 251.816424 410.676999 
L 253.64814 433.620423 
L 255.479857 454.115347 
L 257.311573 471.738205 
L 259.14329 486.245577 
L 260.059148 492.29901 
L 260.975006 497.55312 
L 261.890864 502.018408 
L 262.806722 505.712358 
L 263.722581 508.658668 
L 264.638439 510.886505 
L 265.554297 512.429755 
L 266.470155 513.326312 
L 267.386013 513.617371 
L 268.301872 513.346768 
L 269.21773 512.560339 
L 270.133588 511.305317 
L 271.049446 509.629772 
L 271.965304 507.58208 
L 273.797021 502.562431 
L 275.628737 496.62215 
L 278.376312 486.751526 
L 282.955603 470.224963 
L 284.787319 464.274133 
L 286.619035 458.951614 
L 288.450752 454.363185 
L 290.282468 450.572589 
L 292.114185 447.605166 
L 293.030043 446.428644 
L 293.945901 445.452297 
L 294.861759 444.670557 
L 295.777617 444.076377 
L 296.693476 443.661393 
L 297.609334 443.416099 
L 298.525192 443.330008 
L 299.44105 443.391816 
L 300.356908 443.589564 
L 302.188625 444.342675 
L 304.020341 445.486212 
L 305.852058 446.915671 
L 308.599632 449.374237 
L 313.178923 453.552954 
L 315.926498 455.700196 
L 317.758214 456.867958 
L 319.589931 457.783593 
L 321.421647 458.426052 
L 323.253363 458.786139 
L 325.08508 458.865459 
L 326.916796 458.675129 
L 328.748512 458.234322 
L 330.580229 457.568709 
L 332.411945 456.708855 
L 335.15952 455.129513 
L 338.822953 452.671192 
L 347.065676 446.953258 
L 350.729109 444.787995 
L 353.476684 443.413722 
L 356.224258 442.264555 
L 358.971833 441.327735 
L 362.635266 440.355058 
L 367.214557 439.430531 
L 375.45728 437.83199 
L 379.120713 436.864817 
L 382.784146 435.622114 
L 385.531721 434.484249 
L 389.195153 432.685107 
L 392.858586 430.581237 
L 396.522019 428.213907 
L 401.10131 424.97043 
L 407.512317 420.108422 
L 421.25019 409.308053 
L 427.661198 404.058709 
L 432.240489 400.052826 
L 435.903921 396.601733 
L 439.567354 392.864579 
L 443.230787 388.786472 
L 446.89422 384.323528 
L 450.557653 379.445303 
L 454.221085 374.135285 
L 457.884518 368.389491 
L 461.547951 362.213375 
L 465.211384 355.61749 
L 468.874816 348.612435 
L 472.538249 341.203739 
L 476.201682 333.387317 
L 479.865115 325.146101 
L 483.528548 316.448347 
L 487.19198 307.247955 
L 490.855413 297.486967 
L 494.518846 287.1002 
L 498.182279 276.021766 
L 501.845711 264.193062 
L 505.509144 251.57163 
L 509.172577 238.140228 
L 512.83601 223.91535 
L 517.415301 205.110318 
L 522.91045 181.341453 
L 538.480039 112.877031 
L 542.143472 98.230249 
L 544.891047 88.04469 
L 547.638621 78.700601 
L 550.386196 70.331566 
L 552.217912 65.355387 
L 554.049629 60.901105 
L 555.881345 56.999058 
L 557.713061 53.676165 
L 559.544778 50.955596 
L 561.376494 48.856486 
L 562.292352 48.044795 
L 563.208211 47.393698 
L 564.124069 46.904356 
L 565.039927 46.577642 
L 565.955785 46.414141 
L 566.871643 46.414145 
L 567.787502 46.577653 
L 568.70336 46.904374 
L 569.619218 47.393724 
L 570.535076 48.044829 
L 571.450934 48.856528 
L 573.282651 50.955656 
L 575.114367 53.676244 
L 576.946084 56.999159 
L 578.7778 60.90123 
L 580.609516 65.35554 
L 582.441233 70.331748 
L 584.272949 75.79646 
L 587.020524 84.829995 
L 589.768098 94.750445 
L 592.515673 105.419392 
L 596.179106 120.562123 
L 600.758397 140.489551 
L 615.412128 205.110744 
L 619.991419 223.915616 
L 623.654852 238.140324 
L 627.318284 251.571525 
L 630.981717 264.19274 
L 634.64515 276.021225 
L 638.308583 287.099453 
L 641.972015 297.486046 
L 645.635448 307.246906 
L 649.298881 316.447232 
L 652.962314 325.144989 
L 657.541605 335.379333 
L 662.120896 344.957745 
L 665.784329 352.165052 
L 669.447761 358.966937 
L 673.111194 365.354695 
L 676.774627 371.317076 
L 680.43806 376.84545 
L 684.101492 381.938583 
L 687.764925 386.606412 
L 691.428358 390.872339 
L 695.091791 394.773706 
L 698.755224 398.360319 
L 703.334515 402.49124 
L 708.829664 407.093828 
L 717.988246 414.378942 
L 729.894402 423.607974 
L 735.389551 427.586089 
L 739.052984 430.010953 
L 742.716417 432.185447 
L 746.37985 434.063652 
L 750.043283 435.621506 
L 753.706715 436.864408 
L 757.370148 437.831756 
L 761.949439 438.768801 
L 770.192163 440.355215 
L 773.855596 441.327994 
L 776.60317 442.264919 
L 779.350745 443.414227 
L 782.098319 444.788689 
L 784.845894 446.380239 
L 788.509327 448.782433 
L 798.583767 455.691272 
L 801.331342 457.163902 
L 803.163058 457.930817 
L 804.994774 458.48763 
L 806.826491 458.80601 
L 808.658207 458.863325 
L 810.489923 458.644229 
L 812.32164 458.142179 
L 814.153356 457.360819 
L 815.985073 456.315157 
L 817.816789 455.032474 
L 820.564364 452.755347 
L 827.891229 446.167556 
L 829.722946 444.86724 
L 831.554662 443.905148 
L 832.47052 443.58364 
L 833.386378 443.385664 
L 834.302237 443.323688 
L 835.218095 443.40968 
L 836.133953 443.65495 
L 837.049811 444.069991 
L 837.965669 444.664318 
L 838.881528 445.446301 
L 839.797386 446.422993 
L 840.713244 447.599966 
L 841.629102 448.981142 
L 843.460819 452.36256 
L 845.292535 456.5595 
L 847.124251 461.527932 
L 848.955968 467.183469 
L 851.703542 476.662959 
L 858.11455 499.707392 
L 859.946266 505.236784 
L 860.862124 507.610017 
L 861.777982 509.659132 
L 862.693841 511.335898 
L 863.609699 512.5919 
L 864.525557 513.379036 
L 865.441415 513.650032 
L 866.357273 513.359015 
L 867.273132 512.462112 
L 868.18899 510.918091 
L 869.104848 508.689021 
L 870.020706 505.740982 
L 870.936564 502.044775 
L 871.852423 497.57667 
L 872.768281 492.319159 
L 873.684139 486.261717 
L 875.515855 471.744435 
L 877.347572 454.109098 
L 879.179288 433.599165 
L 881.011005 410.638377 
L 883.758579 373.019026 
L 887.422012 321.864499 
L 889.253728 298.639569 
L 891.085445 278.997072 
L 892.001303 271.05165 
L 892.917161 264.657406 
L 893.833019 260.047408 
L 894.748878 257.458466 
L 895.664736 257.128911 
L 896.580594 259.296083 
L 897.496452 264.19359 
L 898.41231 272.048278 
L 899.328168 283.076948 
L 900.244027 297.482822 
L 901.159885 315.451764 
L 902.075743 337.148248 
L 902.991601 362.711138 
L 903.907459 392.249221 
L 904.823318 425.836636 
L 906.655034 505.253879 
L 907.433854 544.168 
M 935.050118 544.168 
L 936.878355 28.906171 
L 936.96912 -1 
M 964.620713 -1 
L 964.87368 544.168 
M 994.353284 544.168 
L 994.373457 -1 
L 994.373457 -1 
" clip-path="url(#pcca8e69aa7)" style="fill: none; stroke: #6d904f; stroke-width: 4"/>
   </g>
   <g id="line2d_36">
    <path d="M 108.942545 474.130113 
L 138.250008 472.942601 
L 163.894037 471.690892 
L 186.790492 470.360374 
L 207.855231 468.913926 
L 226.172395 467.441836 
L 242.657842 465.908689 
L 258.227431 464.241767 
L 271.965304 462.559558 
L 284.787319 460.777114 
L 296.693476 458.905786 
L 307.683774 456.962149 
L 317.758214 454.968545 
L 327.832654 452.740181 
L 336.991236 450.47948 
L 345.23396 448.22538 
L 353.476684 445.733995 
L 360.803549 443.293485 
L 368.130415 440.612194 
L 374.541422 438.044029 
L 380.95243 435.243504 
L 387.363437 432.183148 
L 392.858586 429.329508 
L 398.353735 426.239589 
L 403.848885 422.888213 
L 409.344034 419.247038 
L 413.923325 415.96843 
L 418.502616 412.445852 
L 423.081907 408.65651 
L 427.661198 404.575208 
L 432.240489 400.174098 
L 436.81978 395.422419 
L 441.399071 390.286233 
L 445.062503 385.87544 
L 448.725936 381.173878 
L 452.389369 376.159128 
L 456.052802 370.80713 
L 459.716234 365.092149 
L 463.379667 358.986774 
L 467.0431 352.461971 
L 470.706533 345.487197 
L 474.369966 338.030607 
L 478.033398 330.059379 
L 481.696831 321.540191 
L 485.360264 312.439905 
L 489.023697 302.726491 
L 492.68713 292.370276 
L 496.350562 281.345568 
L 500.013995 269.632744 
L 503.677428 257.220864 
L 507.340861 244.110883 
L 511.920152 226.768986 
L 516.499443 208.442213 
L 521.994592 185.357091 
L 529.321457 153.425509 
L 536.648323 121.620444 
L 541.227614 102.768765 
L 544.891047 88.78388 
L 547.638621 79.172852 
L 550.386196 70.486881 
L 552.217912 65.285097 
L 554.049629 60.60424 
L 555.881345 56.483939 
L 557.713061 52.960208 
L 559.544778 50.064703 
L 561.376494 47.824029 
L 562.292352 46.95604 
L 563.208211 46.259149 
L 564.124069 45.735017 
L 565.039927 45.384896 
L 565.955785 45.209624 
L 566.871643 45.209624 
L 567.787502 45.384896 
L 568.70336 45.735017 
L 569.619218 46.259149 
L 570.535076 46.95604 
L 571.450934 47.824029 
L 573.282651 50.064703 
L 575.114367 52.960208 
L 576.946084 56.483939 
L 578.7778 60.60424 
L 580.609516 65.285097 
L 582.441233 70.486881 
L 585.188807 79.172852 
L 587.936382 88.78388 
L 590.683956 99.164434 
L 594.347389 113.935445 
L 598.92668 133.405892 
L 615.412128 204.669945 
L 619.991419 223.178876 
L 624.57071 240.725859 
L 628.234143 254.008465 
L 631.897575 266.595504 
L 635.561008 278.482471 
L 639.224441 289.677659 
L 642.887874 300.198786 
L 646.551306 310.070243 
L 650.214739 319.320876 
L 653.878172 327.982257 
L 657.541605 336.087345 
L 661.205038 343.669488 
L 664.86847 350.761686 
L 668.531903 357.396064 
L 672.195336 363.603512 
L 675.858769 369.413457 
L 679.522201 374.853722 
L 683.185634 379.950463 
L 686.849067 384.728157 
L 690.5125 389.209629 
L 695.091791 394.427087 
L 699.671082 399.252846 
L 704.250373 403.721511 
L 708.829664 407.864457 
L 713.408955 411.710094 
L 717.988246 415.284129 
L 722.567537 418.609815 
L 728.062686 422.302291 
L 733.557835 425.699907 
L 739.052984 428.831573 
L 744.548133 431.722967 
L 750.959141 434.822905 
L 757.370148 437.658782 
L 763.781155 440.258593 
L 771.108021 442.972091 
L 778.434887 445.441135 
L 786.67761 447.960841 
L 794.920334 450.239821 
L 804.078916 452.524728 
L 813.237498 454.581853 
L 823.311938 456.615659 
L 834.302237 458.59716 
L 846.208393 460.503636 
L 859.030408 462.3183 
L 872.768281 464.02973 
L 887.422012 465.631138 
L 903.907459 467.201088 
L 921.308765 468.636863 
L 940.541787 470.005571 
L 962.522384 471.340693 
L 987.250555 472.607491 
L 1014.726301 473.783241 
L 1023.884883 474.130113 
L 1023.884883 474.130113 
" clip-path="url(#pcca8e69aa7)" style="fill: none; stroke-dasharray: 14.8,6.4; stroke-dashoffset: 0; stroke: #000000; stroke-width: 4"/>
   </g>
   <g id="patch_3">
    <path d="M 63.195429 495.576137 
L 63.195429 23.7636 
" style="fill: none; stroke: #f0f0f0; stroke-width: 3; stroke-linejoin: miter; stroke-linecap: square"/>
   </g>
   <g id="patch_4">
    <path d="M 1069.632 495.576137 
L 1069.632 23.7636 
" style="fill: none; stroke: #f0f0f0; stroke-width: 3; stroke-linejoin: miter; stroke-linecap: square"/>
   </g>
   <g id="patch_5">
    <path d="M 63.195429 495.576137 
L 1069.632 495.576137 
" style="fill: none; stroke: #f0f0f0; stroke-width: 3; stroke-linejoin: miter; stroke-linecap: square"/>
   </g>
   <g id="patch_6">
    <path d="M 63.195429 23.7636 
L 1069.632 23.7636 
" style="fill: none; stroke: #f0f0f0; stroke-width: 3; stroke-linejoin: miter; stroke-linecap: square"/>
   </g>
   <g id="legend_1">
    <g id="patch_7">
     <path d="M 520.354808 488.576137 
L 612.472621 488.576137 
Q 615.272621 488.576137 615.272621 485.776137 
L 615.272621 404.978637 
Q 615.272621 402.178637 612.472621 402.178637 
L 520.354808 402.178637 
Q 517.554808 402.178637 517.554808 404.978637 
L 517.554808 485.776137 
Q 517.554808 488.576137 520.354808 488.576137 
z
" style="fill: #f0f0f0; opacity: 0.8; stroke: #cccccc; stroke-width: 0.5; stroke-linejoin: miter"/>
    </g>
    <g id="line2d_37">
     <path d="M 523.154808 413.51645 
L 537.154808 413.51645 
L 551.154808 413.51645 
" style="fill: none; stroke: #008fd5; stroke-width: 4"/>
    </g>
    <g id="text_18">
     <!-- n = 3 -->
     <g transform="translate(562.354808 418.41645) scale(0.14 -0.14)">
      <defs>
       <path id="DejaVuSans-3d" d="M 678 2906 
L 4684 2906 
L 4684 2381 
L 678 2381 
L 678 2906 
z
M 678 1631 
L 4684 1631 
L 4684 1100 
L 678 1100 
L 678 1631 
z
" transform="scale(0.015625)"/>
       <path id="DejaVuSans-33" d="M 2597 2516 
Q 3050 2419 3304 2112 
Q 3559 1806 3559 1356 
Q 3559 666 3084 287 
Q 2609 -91 1734 -91 
Q 1441 -91 1130 -33 
Q 819 25 488 141 
L 488 750 
Q 750 597 1062 519 
Q 1375 441 1716 441 
Q 2309 441 2620 675 
Q 2931 909 2931 1356 
Q 2931 1769 2642 2001 
Q 2353 2234 1838 2234 
L 1294 2234 
L 1294 2753 
L 1863 2753 
Q 2328 2753 2575 2939 
Q 2822 3125 2822 3475 
Q 2822 3834 2567 4026 
Q 2313 4219 1838 4219 
Q 1578 4219 1281 4162 
Q 984 4106 628 3988 
L 628 4550 
Q 988 4650 1302 4700 
Q 1616 4750 1894 4750 
Q 2613 4750 3031 4423 
Q 3450 4097 3450 3541 
Q 3450 3153 3228 2886 
Q 3006 2619 2597 2516 
z
" transform="scale(0.015625)"/>
      </defs>
      <use xlink:href="#DejaVuSans-6e"/>
      <use xlink:href="#DejaVuSans-20" x="63.378906"/>
      <use xlink:href="#DejaVuSans-3d" x="95.166016"/>
      <use xlink:href="#DejaVuSans-20" x="178.955078"/>
      <use xlink:href="#DejaVuSans-33" x="210.742188"/>
     </g>
    </g>
    <g id="line2d_38">
     <path d="M 523.154808 434.065825 
L 537.154808 434.065825 
L 551.154808 434.065825 
" style="fill: none; stroke: #fc4f30; stroke-width: 4"/>
    </g>
    <g id="text_19">
     <!-- n = 5 -->
     <g transform="translate(562.354808 438.965825) scale(0.14 -0.14)">
      <use xlink:href="#DejaVuSans-6e"/>
      <use xlink:href="#DejaVuSans-20" x="63.378906"/>
      <use xlink:href="#DejaVuSans-3d" x="95.166016"/>
      <use xlink:href="#DejaVuSans-20" x="178.955078"/>
      <use xlink:href="#DejaVuSans-35" x="210.742188"/>
     </g>
    </g>
    <g id="line2d_39">
     <path d="M 523.154808 454.6152 
L 537.154808 454.6152 
L 551.154808 454.6152 
" style="fill: none; stroke: #e5ae38; stroke-width: 4"/>
    </g>
    <g id="text_20">
     <!-- n = 10 -->
     <g transform="translate(562.354808 459.5152) scale(0.14 -0.14)">
      <use xlink:href="#DejaVuSans-6e"/>
      <use xlink:href="#DejaVuSans-20" x="63.378906"/>
      <use xlink:href="#DejaVuSans-3d" x="95.166016"/>
      <use xlink:href="#DejaVuSans-20" x="178.955078"/>
      <use xlink:href="#DejaVuSans-31" x="210.742188"/>
      <use xlink:href="#DejaVuSans-30" x="274.365234"/>
     </g>
    </g>
    <g id="line2d_40">
     <path d="M 523.154808 475.164575 
L 537.154808 475.164575 
L 551.154808 475.164575 
" style="fill: none; stroke: #6d904f; stroke-width: 4"/>
    </g>
    <g id="text_21">
     <!-- n = 30 -->
     <g transform="translate(562.354808 480.064575) scale(0.14 -0.14)">
      <use xlink:href="#DejaVuSans-6e"/>
      <use xlink:href="#DejaVuSans-20" x="63.378906"/>
      <use xlink:href="#DejaVuSans-3d" x="95.166016"/>
      <use xlink:href="#DejaVuSans-20" x="178.955078"/>
      <use xlink:href="#DejaVuSans-33" x="210.742188"/>
      <use xlink:href="#DejaVuSans-30" x="274.365234"/>
     </g>
    </g>
   </g>
  </g>
 </g>
 <defs>
  <clipPath id="pcca8e69aa7">
   <rect x="63.195429" y="23.7636" width="1006.436571" height="471.812537"/>
  </clipPath>
 </defs>
</svg>
