<?xml version="1.0" encoding="utf-8" standalone="no"?>
<!DOCTYPE svg PUBLIC "-//W3C//DTD SVG 1.1//EN"
  "http://www.w3.org/Graphics/SVG/1.1/DTD/svg11.dtd">
<svg xmlns:xlink="http://www.w3.org/1999/xlink" width="1105.92pt" height="543.168pt" viewBox="0 0 1105.92 543.168" xmlns="http://www.w3.org/2000/svg" version="1.1">
 <metadata>
  <rdf:RDF xmlns:dc="http://purl.org/dc/elements/1.1/" xmlns:cc="http://creativecommons.org/ns#" xmlns:rdf="http://www.w3.org/1999/02/22-rdf-syntax-ns#">
   <cc:Work>
    <dc:type rdf:resource="http://purl.org/dc/dcmitype/StillImage"/>
    <dc:date>2023-12-20T23:25:11.941575</dc:date>
    <dc:format>image/svg+xml</dc:format>
    <dc:creator>
     <cc:Agent>
      <dc:title>Matplotlib v3.8.0, https://matplotlib.org/</dc:title>
     </cc:Agent>
    </dc:creator>
   </cc:Work>
  </rdf:RDF>
 </metadata>
 <defs>
  <style type="text/css">*{stroke-linejoin: round; stroke-linecap: butt}</style>
 </defs>
 <g id="figure_1">
  <g id="patch_1">
   <path d="M 0 543.168 
L 1105.92 543.168 
L 1105.92 0 
L 0 0 
z
" style="fill: #f0f0f0"/>
  </g>
  <g id="axes_1">
   <g id="patch_2">
    <path d="M 63.195429 500.749166 
L 1069.632 500.749166 
L 1069.632 23.7636 
L 63.195429 23.7636 
z
" style="fill: #f0f0f0"/>
   </g>
   <g id="matplotlib.axis_1">
    <g id="xtick_1">
     <g id="line2d_1">
      <path d="M 108.942545 500.749166 
L 108.942545 23.7636 
" clip-path="url(#pfaa5b00cb8)" style="fill: none; stroke: #cbcbcb"/>
     </g>
     <g id="line2d_2"/>
     <g id="text_1">
      <!-- −1.00 -->
      <g transform="translate(87.490827 514.886978) scale(0.14 -0.14)">
       <defs>
        <path id="DejaVuSans-2212" d="M 678 2272 
L 4684 2272 
L 4684 1741 
L 678 1741 
L 678 2272 
z
" transform="scale(0.015625)"/>
        <path id="DejaVuSans-31" d="M 794 531 
L 1825 531 
L 1825 4091 
L 703 3866 
L 703 4441 
L 1819 4666 
L 2450 4666 
L 2450 531 
L 3481 531 
L 3481 0 
L 794 0 
L 794 531 
z
" transform="scale(0.015625)"/>
        <path id="DejaVuSans-2e" d="M 684 794 
L 1344 794 
L 1344 0 
L 684 0 
L 684 794 
z
" transform="scale(0.015625)"/>
        <path id="DejaVuSans-30" d="M 2034 4250 
Q 1547 4250 1301 3770 
Q 1056 3291 1056 2328 
Q 1056 1369 1301 889 
Q 1547 409 2034 409 
Q 2525 409 2770 889 
Q 3016 1369 3016 2328 
Q 3016 3291 2770 3770 
Q 2525 4250 2034 4250 
z
M 2034 4750 
Q 2819 4750 3233 4129 
Q 3647 3509 3647 2328 
Q 3647 1150 3233 529 
Q 2819 -91 2034 -91 
Q 1250 -91 836 529 
Q 422 1150 422 2328 
Q 422 3509 836 4129 
Q 1250 4750 2034 4750 
z
" transform="scale(0.015625)"/>
       </defs>
       <use xlink:href="#DejaVuSans-2212"/>
       <use xlink:href="#DejaVuSans-31" x="83.789062"/>
       <use xlink:href="#DejaVuSans-2e" x="147.412109"/>
       <use xlink:href="#DejaVuSans-30" x="179.199219"/>
       <use xlink:href="#DejaVuSans-30" x="242.822266"/>
      </g>
     </g>
    </g>
    <g id="xtick_2">
     <g id="line2d_3">
      <path d="M 223.310338 500.749166 
L 223.310338 23.7636 
" clip-path="url(#pfaa5b00cb8)" style="fill: none; stroke: #cbcbcb"/>
     </g>
     <g id="line2d_4"/>
     <g id="text_2">
      <!-- −0.75 -->
      <g transform="translate(201.858619 514.886978) scale(0.14 -0.14)">
       <defs>
        <path id="DejaVuSans-37" d="M 525 4666 
L 3525 4666 
L 3525 4397 
L 1831 0 
L 1172 0 
L 2766 4134 
L 525 4134 
L 525 4666 
z
" transform="scale(0.015625)"/>
        <path id="DejaVuSans-35" d="M 691 4666 
L 3169 4666 
L 3169 4134 
L 1269 4134 
L 1269 2991 
Q 1406 3038 1543 3061 
Q 1681 3084 1819 3084 
Q 2600 3084 3056 2656 
Q 3513 2228 3513 1497 
Q 3513 744 3044 326 
Q 2575 -91 1722 -91 
Q 1428 -91 1123 -41 
Q 819 9 494 109 
L 494 744 
Q 775 591 1075 516 
Q 1375 441 1709 441 
Q 2250 441 2565 725 
Q 2881 1009 2881 1497 
Q 2881 1984 2565 2268 
Q 2250 2553 1709 2553 
Q 1456 2553 1204 2497 
Q 953 2441 691 2322 
L 691 4666 
z
" transform="scale(0.015625)"/>
       </defs>
       <use xlink:href="#DejaVuSans-2212"/>
       <use xlink:href="#DejaVuSans-30" x="83.789062"/>
       <use xlink:href="#DejaVuSans-2e" x="147.412109"/>
       <use xlink:href="#DejaVuSans-37" x="179.199219"/>
       <use xlink:href="#DejaVuSans-35" x="242.822266"/>
      </g>
     </g>
    </g>
    <g id="xtick_3">
     <g id="line2d_5">
      <path d="M 337.67813 500.749166 
L 337.67813 23.7636 
" clip-path="url(#pfaa5b00cb8)" style="fill: none; stroke: #cbcbcb"/>
     </g>
     <g id="line2d_6"/>
     <g id="text_3">
      <!-- −0.50 -->
      <g transform="translate(316.226411 514.886978) scale(0.14 -0.14)">
       <use xlink:href="#DejaVuSans-2212"/>
       <use xlink:href="#DejaVuSans-30" x="83.789062"/>
       <use xlink:href="#DejaVuSans-2e" x="147.412109"/>
       <use xlink:href="#DejaVuSans-35" x="179.199219"/>
       <use xlink:href="#DejaVuSans-30" x="242.822266"/>
      </g>
     </g>
    </g>
    <g id="xtick_4">
     <g id="line2d_7">
      <path d="M 452.045922 500.749166 
L 452.045922 23.7636 
" clip-path="url(#pfaa5b00cb8)" style="fill: none; stroke: #cbcbcb"/>
     </g>
     <g id="line2d_8"/>
     <g id="text_4">
      <!-- −0.25 -->
      <g transform="translate(430.594203 514.886978) scale(0.14 -0.14)">
       <defs>
        <path id="DejaVuSans-32" d="M 1228 531 
L 3431 531 
L 3431 0 
L 469 0 
L 469 531 
Q 828 903 1448 1529 
Q 2069 2156 2228 2338 
Q 2531 2678 2651 2914 
Q 2772 3150 2772 3378 
Q 2772 3750 2511 3984 
Q 2250 4219 1831 4219 
Q 1534 4219 1204 4116 
Q 875 4013 500 3803 
L 500 4441 
Q 881 4594 1212 4672 
Q 1544 4750 1819 4750 
Q 2544 4750 2975 4387 
Q 3406 4025 3406 3419 
Q 3406 3131 3298 2873 
Q 3191 2616 2906 2266 
Q 2828 2175 2409 1742 
Q 1991 1309 1228 531 
z
" transform="scale(0.015625)"/>
       </defs>
       <use xlink:href="#DejaVuSans-2212"/>
       <use xlink:href="#DejaVuSans-30" x="83.789062"/>
       <use xlink:href="#DejaVuSans-2e" x="147.412109"/>
       <use xlink:href="#DejaVuSans-32" x="179.199219"/>
       <use xlink:href="#DejaVuSans-35" x="242.822266"/>
      </g>
     </g>
    </g>
    <g id="xtick_5">
     <g id="line2d_9">
      <path d="M 566.413714 500.749166 
L 566.413714 23.7636 
" clip-path="url(#pfaa5b00cb8)" style="fill: none; stroke: #cbcbcb"/>
     </g>
     <g id="line2d_10"/>
     <g id="text_5">
      <!-- 0.00 -->
      <g transform="translate(550.827777 514.886978) scale(0.14 -0.14)">
       <use xlink:href="#DejaVuSans-30"/>
       <use xlink:href="#DejaVuSans-2e" x="63.623047"/>
       <use xlink:href="#DejaVuSans-30" x="95.410156"/>
       <use xlink:href="#DejaVuSans-30" x="159.033203"/>
      </g>
     </g>
    </g>
    <g id="xtick_6">
     <g id="line2d_11">
      <path d="M 680.781506 500.749166 
L 680.781506 23.7636 
" clip-path="url(#pfaa5b00cb8)" style="fill: none; stroke: #cbcbcb"/>
     </g>
     <g id="line2d_12"/>
     <g id="text_6">
      <!-- 0.25 -->
      <g transform="translate(665.195569 514.886978) scale(0.14 -0.14)">
       <use xlink:href="#DejaVuSans-30"/>
       <use xlink:href="#DejaVuSans-2e" x="63.623047"/>
       <use xlink:href="#DejaVuSans-32" x="95.410156"/>
       <use xlink:href="#DejaVuSans-35" x="159.033203"/>
      </g>
     </g>
    </g>
    <g id="xtick_7">
     <g id="line2d_13">
      <path d="M 795.149299 500.749166 
L 795.149299 23.7636 
" clip-path="url(#pfaa5b00cb8)" style="fill: none; stroke: #cbcbcb"/>
     </g>
     <g id="line2d_14"/>
     <g id="text_7">
      <!-- 0.50 -->
      <g transform="translate(779.563361 514.886978) scale(0.14 -0.14)">
       <use xlink:href="#DejaVuSans-30"/>
       <use xlink:href="#DejaVuSans-2e" x="63.623047"/>
       <use xlink:href="#DejaVuSans-35" x="95.410156"/>
       <use xlink:href="#DejaVuSans-30" x="159.033203"/>
      </g>
     </g>
    </g>
    <g id="xtick_8">
     <g id="line2d_15">
      <path d="M 909.517091 500.749166 
L 909.517091 23.7636 
" clip-path="url(#pfaa5b00cb8)" style="fill: none; stroke: #cbcbcb"/>
     </g>
     <g id="line2d_16"/>
     <g id="text_8">
      <!-- 0.75 -->
      <g transform="translate(893.931153 514.886978) scale(0.14 -0.14)">
       <use xlink:href="#DejaVuSans-30"/>
       <use xlink:href="#DejaVuSans-2e" x="63.623047"/>
       <use xlink:href="#DejaVuSans-37" x="95.410156"/>
       <use xlink:href="#DejaVuSans-35" x="159.033203"/>
      </g>
     </g>
    </g>
    <g id="xtick_9">
     <g id="line2d_17">
      <path d="M 1023.884883 500.749166 
L 1023.884883 23.7636 
" clip-path="url(#pfaa5b00cb8)" style="fill: none; stroke: #cbcbcb"/>
     </g>
     <g id="line2d_18"/>
     <g id="text_9">
      <!-- 1.00 -->
      <g transform="translate(1008.298946 514.886978) scale(0.14 -0.14)">
       <use xlink:href="#DejaVuSans-31"/>
       <use xlink:href="#DejaVuSans-2e" x="63.623047"/>
       <use xlink:href="#DejaVuSans-30" x="95.410156"/>
       <use xlink:href="#DejaVuSans-30" x="159.033203"/>
      </g>
     </g>
    </g>
    <g id="text_10">
     <!-- x -->
     <g transform="translate(561.441964 534.563916) scale(0.168 -0.168)">
      <defs>
       <path id="DejaVuSans-78" d="M 3513 3500 
L 2247 1797 
L 3578 0 
L 2900 0 
L 1881 1375 
L 863 0 
L 184 0 
L 1544 1831 
L 300 3500 
L 978 3500 
L 1906 2253 
L 2834 3500 
L 3513 3500 
z
" transform="scale(0.015625)"/>
      </defs>
      <use xlink:href="#DejaVuSans-78"/>
     </g>
    </g>
   </g>
   <g id="matplotlib.axis_2">
    <g id="ytick_1">
     <g id="line2d_19">
      <path d="M 63.195429 487.740912 
L 1069.632 487.740912 
" clip-path="url(#pfaa5b00cb8)" style="fill: none; stroke: #cbcbcb"/>
     </g>
     <g id="line2d_20"/>
     <g id="text_11">
      <!-- 0.0 -->
      <g transform="translate(37.431054 493.059818) scale(0.14 -0.14)">
       <use xlink:href="#DejaVuSans-30"/>
       <use xlink:href="#DejaVuSans-2e" x="63.623047"/>
       <use xlink:href="#DejaVuSans-30" x="95.410156"/>
      </g>
     </g>
    </g>
    <g id="ytick_2">
     <g id="line2d_21">
      <path d="M 63.195429 399.27725 
L 1069.632 399.27725 
" clip-path="url(#pfaa5b00cb8)" style="fill: none; stroke: #cbcbcb"/>
     </g>
     <g id="line2d_22"/>
     <g id="text_12">
      <!-- 0.2 -->
      <g transform="translate(37.431054 404.596156) scale(0.14 -0.14)">
       <use xlink:href="#DejaVuSans-30"/>
       <use xlink:href="#DejaVuSans-2e" x="63.623047"/>
       <use xlink:href="#DejaVuSans-32" x="95.410156"/>
      </g>
     </g>
    </g>
    <g id="ytick_3">
     <g id="line2d_23">
      <path d="M 63.195429 310.813588 
L 1069.632 310.813588 
" clip-path="url(#pfaa5b00cb8)" style="fill: none; stroke: #cbcbcb"/>
     </g>
     <g id="line2d_24"/>
     <g id="text_13">
      <!-- 0.4 -->
      <g transform="translate(37.431054 316.132494) scale(0.14 -0.14)">
       <defs>
        <path id="DejaVuSans-34" d="M 2419 4116 
L 825 1625 
L 2419 1625 
L 2419 4116 
z
M 2253 4666 
L 3047 4666 
L 3047 1625 
L 3713 1625 
L 3713 1100 
L 3047 1100 
L 3047 0 
L 2419 0 
L 2419 1100 
L 313 1100 
L 313 1709 
L 2253 4666 
z
" transform="scale(0.015625)"/>
       </defs>
       <use xlink:href="#DejaVuSans-30"/>
       <use xlink:href="#DejaVuSans-2e" x="63.623047"/>
       <use xlink:href="#DejaVuSans-34" x="95.410156"/>
      </g>
     </g>
    </g>
    <g id="ytick_4">
     <g id="line2d_25">
      <path d="M 63.195429 222.349926 
L 1069.632 222.349926 
" clip-path="url(#pfaa5b00cb8)" style="fill: none; stroke: #cbcbcb"/>
     </g>
     <g id="line2d_26"/>
     <g id="text_14">
      <!-- 0.6 -->
      <g transform="translate(37.431054 227.668833) scale(0.14 -0.14)">
       <defs>
        <path id="DejaVuSans-36" d="M 2113 2584 
Q 1688 2584 1439 2293 
Q 1191 2003 1191 1497 
Q 1191 994 1439 701 
Q 1688 409 2113 409 
Q 2538 409 2786 701 
Q 3034 994 3034 1497 
Q 3034 2003 2786 2293 
Q 2538 2584 2113 2584 
z
M 3366 4563 
L 3366 3988 
Q 3128 4100 2886 4159 
Q 2644 4219 2406 4219 
Q 1781 4219 1451 3797 
Q 1122 3375 1075 2522 
Q 1259 2794 1537 2939 
Q 1816 3084 2150 3084 
Q 2853 3084 3261 2657 
Q 3669 2231 3669 1497 
Q 3669 778 3244 343 
Q 2819 -91 2113 -91 
Q 1303 -91 875 529 
Q 447 1150 447 2328 
Q 447 3434 972 4092 
Q 1497 4750 2381 4750 
Q 2619 4750 2861 4703 
Q 3103 4656 3366 4563 
z
" transform="scale(0.015625)"/>
       </defs>
       <use xlink:href="#DejaVuSans-30"/>
       <use xlink:href="#DejaVuSans-2e" x="63.623047"/>
       <use xlink:href="#DejaVuSans-36" x="95.410156"/>
      </g>
     </g>
    </g>
    <g id="ytick_5">
     <g id="line2d_27">
      <path d="M 63.195429 133.886265 
L 1069.632 133.886265 
" clip-path="url(#pfaa5b00cb8)" style="fill: none; stroke: #cbcbcb"/>
     </g>
     <g id="line2d_28"/>
     <g id="text_15">
      <!-- 0.8 -->
      <g transform="translate(37.431054 139.205171) scale(0.14 -0.14)">
       <defs>
        <path id="DejaVuSans-38" d="M 2034 2216 
Q 1584 2216 1326 1975 
Q 1069 1734 1069 1313 
Q 1069 891 1326 650 
Q 1584 409 2034 409 
Q 2484 409 2743 651 
Q 3003 894 3003 1313 
Q 3003 1734 2745 1975 
Q 2488 2216 2034 2216 
z
M 1403 2484 
Q 997 2584 770 2862 
Q 544 3141 544 3541 
Q 544 4100 942 4425 
Q 1341 4750 2034 4750 
Q 2731 4750 3128 4425 
Q 3525 4100 3525 3541 
Q 3525 3141 3298 2862 
Q 3072 2584 2669 2484 
Q 3125 2378 3379 2068 
Q 3634 1759 3634 1313 
Q 3634 634 3220 271 
Q 2806 -91 2034 -91 
Q 1263 -91 848 271 
Q 434 634 434 1313 
Q 434 1759 690 2068 
Q 947 2378 1403 2484 
z
M 1172 3481 
Q 1172 3119 1398 2916 
Q 1625 2713 2034 2713 
Q 2441 2713 2670 2916 
Q 2900 3119 2900 3481 
Q 2900 3844 2670 4047 
Q 2441 4250 2034 4250 
Q 1625 4250 1398 4047 
Q 1172 3844 1172 3481 
z
" transform="scale(0.015625)"/>
       </defs>
       <use xlink:href="#DejaVuSans-30"/>
       <use xlink:href="#DejaVuSans-2e" x="63.623047"/>
       <use xlink:href="#DejaVuSans-38" x="95.410156"/>
      </g>
     </g>
    </g>
    <g id="ytick_6">
     <g id="line2d_29">
      <path d="M 63.195429 45.422603 
L 1069.632 45.422603 
" clip-path="url(#pfaa5b00cb8)" style="fill: none; stroke: #cbcbcb"/>
     </g>
     <g id="line2d_30"/>
     <g id="text_16">
      <!-- 1.0 -->
      <g transform="translate(37.431054 50.741509) scale(0.14 -0.14)">
       <use xlink:href="#DejaVuSans-31"/>
       <use xlink:href="#DejaVuSans-2e" x="63.623047"/>
       <use xlink:href="#DejaVuSans-30" x="95.410156"/>
      </g>
     </g>
    </g>
    <g id="text_17">
     <!-- f(x), w(n, x) -->
     <g transform="translate(29.937179 311.13782) rotate(-90) scale(0.168 -0.168)">
      <defs>
       <path id="DejaVuSans-66" d="M 2375 4863 
L 2375 4384 
L 1825 4384 
Q 1516 4384 1395 4259 
Q 1275 4134 1275 3809 
L 1275 3500 
L 2222 3500 
L 2222 3053 
L 1275 3053 
L 1275 0 
L 697 0 
L 697 3053 
L 147 3053 
L 147 3500 
L 697 3500 
L 697 3744 
Q 697 4328 969 4595 
Q 1241 4863 1831 4863 
L 2375 4863 
z
" transform="scale(0.015625)"/>
       <path id="DejaVuSans-28" d="M 1984 4856 
Q 1566 4138 1362 3434 
Q 1159 2731 1159 2009 
Q 1159 1288 1364 580 
Q 1569 -128 1984 -844 
L 1484 -844 
Q 1016 -109 783 600 
Q 550 1309 550 2009 
Q 550 2706 781 3412 
Q 1013 4119 1484 4856 
L 1984 4856 
z
" transform="scale(0.015625)"/>
       <path id="DejaVuSans-29" d="M 513 4856 
L 1013 4856 
Q 1481 4119 1714 3412 
Q 1947 2706 1947 2009 
Q 1947 1309 1714 600 
Q 1481 -109 1013 -844 
L 513 -844 
Q 928 -128 1133 580 
Q 1338 1288 1338 2009 
Q 1338 2731 1133 3434 
Q 928 4138 513 4856 
z
" transform="scale(0.015625)"/>
       <path id="DejaVuSans-2c" d="M 750 794 
L 1409 794 
L 1409 256 
L 897 -744 
L 494 -744 
L 750 256 
L 750 794 
z
" transform="scale(0.015625)"/>
       <path id="DejaVuSans-20" transform="scale(0.015625)"/>
       <path id="DejaVuSans-77" d="M 269 3500 
L 844 3500 
L 1563 769 
L 2278 3500 
L 2956 3500 
L 3675 769 
L 4391 3500 
L 4966 3500 
L 4050 0 
L 3372 0 
L 2619 2869 
L 1863 0 
L 1184 0 
L 269 3500 
z
" transform="scale(0.015625)"/>
       <path id="DejaVuSans-6e" d="M 3513 2113 
L 3513 0 
L 2938 0 
L 2938 2094 
Q 2938 2591 2744 2837 
Q 2550 3084 2163 3084 
Q 1697 3084 1428 2787 
Q 1159 2491 1159 1978 
L 1159 0 
L 581 0 
L 581 3500 
L 1159 3500 
L 1159 2956 
Q 1366 3272 1645 3428 
Q 1925 3584 2291 3584 
Q 2894 3584 3203 3211 
Q 3513 2838 3513 2113 
z
" transform="scale(0.015625)"/>
      </defs>
      <use xlink:href="#DejaVuSans-66"/>
      <use xlink:href="#DejaVuSans-28" x="35.205078"/>
      <use xlink:href="#DejaVuSans-78" x="74.21875"/>
      <use xlink:href="#DejaVuSans-29" x="133.398438"/>
      <use xlink:href="#DejaVuSans-2c" x="172.412109"/>
      <use xlink:href="#DejaVuSans-20" x="204.199219"/>
      <use xlink:href="#DejaVuSans-77" x="235.986328"/>
      <use xlink:href="#DejaVuSans-28" x="317.773438"/>
      <use xlink:href="#DejaVuSans-6e" x="356.787109"/>
      <use xlink:href="#DejaVuSans-2c" x="420.166016"/>
      <use xlink:href="#DejaVuSans-20" x="451.953125"/>
      <use xlink:href="#DejaVuSans-78" x="483.740234"/>
      <use xlink:href="#DejaVuSans-29" x="542.919922"/>
     </g>
    </g>
   </g>
   <g id="line2d_31">
    <path d="M 108.942545 479.068004 
L 138.250008 477.867471 
L 163.894037 476.602038 
L 186.790492 475.256933 
L 207.855231 473.794626 
L 226.172395 472.306396 
L 242.657842 470.756439 
L 258.227431 469.071241 
L 271.965304 467.370587 
L 284.787319 465.5686 
L 296.693476 463.676755 
L 307.683774 461.711807 
L 317.758214 459.696346 
L 327.832654 457.443549 
L 336.991236 455.158062 
L 345.23396 452.879247 
L 353.476684 450.360547 
L 360.803549 447.893278 
L 368.130415 445.182589 
L 374.541422 442.586266 
L 380.95243 439.755036 
L 387.363437 436.661126 
L 392.858586 433.776197 
L 398.353735 430.652401 
L 403.848885 427.26428 
L 409.344034 423.583182 
L 413.923325 420.268627 
L 418.502616 416.707426 
L 423.081907 412.876537 
L 427.661198 408.750488 
L 432.240489 404.301123 
L 436.81978 399.497346 
L 441.399071 394.304846 
L 445.062503 389.845693 
L 448.725936 385.092581 
L 452.389369 380.022849 
L 456.052802 374.612171 
L 459.716234 368.83453 
L 463.379667 362.662215 
L 467.0431 356.065873 
L 470.706533 349.014627 
L 474.369966 341.476281 
L 478.033398 333.417655 
L 481.696831 324.805062 
L 485.360264 315.604999 
L 489.023697 305.785085 
L 492.68713 295.315323 
L 496.350562 284.169738 
L 500.013995 272.328493 
L 503.677428 259.780527 
L 507.340861 246.526806 
L 511.920152 228.99477 
L 516.499443 210.467059 
L 521.994592 187.128828 
L 529.321457 154.847143 
L 536.648323 122.693362 
L 541.227614 103.63499 
L 544.891047 89.496772 
L 547.638621 79.780368 
L 550.386196 70.999163 
L 552.217912 65.740345 
L 554.049629 61.008167 
L 555.881345 56.84269 
L 557.713061 53.280324 
L 559.544778 50.353072 
L 561.376494 48.087832 
L 562.292352 47.210326 
L 563.208211 46.505794 
L 564.124069 45.975915 
L 565.039927 45.621955 
L 565.955785 45.444762 
L 566.871643 45.444762 
L 567.787502 45.621955 
L 568.70336 45.975915 
L 569.619218 46.505794 
L 570.535076 47.210326 
L 571.450934 48.087832 
L 573.282651 50.353072 
L 575.114367 53.280324 
L 576.946084 56.84269 
L 578.7778 61.008167 
L 580.609516 65.740345 
L 582.441233 70.999163 
L 585.188807 79.780368 
L 587.936382 89.496772 
L 590.683956 99.991141 
L 594.347389 114.924104 
L 598.92668 134.608028 
L 615.412128 206.653431 
L 619.991419 225.365298 
L 624.57071 243.104668 
L 628.234143 256.532907 
L 631.897575 269.257952 
L 635.561008 281.27525 
L 639.224441 292.593183 
L 642.887874 303.229666 
L 646.551306 313.209355 
L 650.214739 322.561414 
L 653.878172 331.317759 
L 657.541605 339.511713 
L 661.205038 347.176988 
L 664.86847 354.346946 
L 668.531903 361.054064 
L 672.195336 367.329571 
L 675.858769 373.203218 
L 679.522201 378.70313 
L 683.185634 383.855753 
L 686.849067 388.685831 
L 690.5125 393.216438 
L 695.091791 398.491101 
L 699.671082 403.36977 
L 704.250373 407.887431 
L 708.829664 412.075801 
L 713.408955 415.963602 
L 717.988246 419.576823 
L 722.567537 422.938973 
L 728.062686 426.671934 
L 733.557835 430.106802 
L 739.052984 433.272803 
L 744.548133 436.195899 
L 750.959141 439.329826 
L 757.370148 442.196795 
L 763.781155 444.825111 
L 771.108021 447.56836 
L 778.434887 450.064476 
L 785.761752 452.341368 
L 794.004476 454.670849 
L 803.163058 457.00562 
L 812.32164 459.106947 
L 822.39608 461.183773 
L 833.386378 463.206505 
L 845.292535 465.151977 
L 858.11455 467.003114 
L 871.852423 468.748331 
L 886.506154 470.380788 
L 902.991601 471.980615 
L 920.392907 473.443196 
L 939.625929 474.836972 
L 961.606526 476.196061 
L 985.418839 477.441289 
L 1011.978727 478.608003 
L 1023.884883 479.068004 
L 1023.884883 479.068004 
" clip-path="url(#pfaa5b00cb8)" style="fill: none; stroke-dasharray: 14.8,6.4; stroke-dashoffset: 0; stroke: #000000; stroke-width: 4"/>
   </g>
   <g id="line2d_32">
    <path d="M 108.942545 486.52408 
L 129.091426 481.282687 
L 149.240306 476.277343 
L 169.389186 471.508051 
L 189.538067 466.974809 
L 209.686947 462.677617 
L 229.835827 458.616476 
L 249.984708 454.791386 
L 270.133588 451.202345 
L 290.282468 447.849356 
L 309.51549 444.868975 
L 328.748512 442.103673 
L 347.981535 439.55345 
L 367.214557 437.218306 
L 386.447579 435.098241 
L 405.680601 433.193255 
L 424.913623 431.503348 
L 444.146645 430.02852 
L 463.379667 428.768772 
L 482.612689 427.724102 
L 501.845711 426.894511 
L 521.078734 426.28 
L 540.311756 425.880567 
L 559.544778 425.696214 
L 578.7778 425.726939 
L 598.010822 425.972744 
L 617.243844 426.433628 
L 636.476866 427.10959 
L 655.709888 428.000632 
L 674.94291 429.106753 
L 694.175933 430.427953 
L 713.408955 431.964232 
L 732.641977 433.71559 
L 751.874999 435.682027 
L 771.108021 437.863543 
L 790.341043 440.260138 
L 809.574065 442.871812 
L 828.807087 445.698565 
L 848.04011 448.740397 
L 867.273132 451.997309 
L 887.422012 455.639997 
L 907.570892 459.518735 
L 927.719773 463.633524 
L 947.868653 467.984364 
L 968.017533 472.571253 
L 988.166413 477.394194 
L 1008.315294 482.453185 
L 1023.884883 486.52408 
L 1023.884883 486.52408 
" clip-path="url(#pfaa5b00cb8)" style="fill: none; stroke: #008fd5; stroke-width: 4"/>
   </g>
   <g id="line2d_33">
    <path d="M 108.942545 472.780809 
L 114.437695 475.016007 
L 119.932844 476.994375 
L 125.427993 478.724297 
L 130.923142 480.214051 
L 136.418291 481.471816 
L 141.913441 482.505666 
L 147.40859 483.323573 
L 152.903739 483.933408 
L 158.398888 484.342936 
L 164.809895 484.577776 
L 171.220903 484.5624 
L 177.63191 484.308613 
L 184.042918 483.828031 
L 190.453925 483.132079 
L 196.864932 482.23199 
L 204.191798 480.967516 
L 211.518663 479.467018 
L 218.845529 477.746356 
L 227.088253 475.566776 
L 235.330976 473.149832 
L 244.489558 470.211607 
L 253.64814 467.034595 
L 263.722581 463.296778 
L 274.712879 458.968991 
L 286.619035 454.035961 
L 300.356908 448.096863 
L 317.758214 440.312589 
L 380.036571 412.189559 
L 394.690303 405.947414 
L 407.512317 400.716171 
L 419.418474 396.087405 
L 430.408772 392.036111 
L 441.399071 388.219116 
L 451.473511 384.942699 
L 461.547951 381.893343 
L 471.622391 379.083685 
L 480.780973 376.747133 
L 489.939555 374.625972 
L 499.098137 372.727203 
L 508.256719 371.057038 
L 517.415301 369.620895 
L 526.573883 368.423404 
L 535.732465 367.468402 
L 544.891047 366.758934 
L 553.13377 366.332225 
L 561.376494 366.107332 
L 569.619218 366.084831 
L 577.861942 366.26478 
L 586.104665 366.646717 
L 594.347389 367.229663 
L 603.505971 368.111288 
L 612.664553 369.2364 
L 621.823135 370.601397 
L 630.981717 372.201888 
L 640.140299 374.032692 
L 649.298881 376.087834 
L 658.457463 378.360551 
L 668.531903 381.102797 
L 678.606343 384.087985 
L 688.680783 387.303796 
L 699.671082 391.059107 
L 710.66138 395.053743 
L 722.567537 399.627274 
L 735.389551 404.806764 
L 749.127424 410.605808 
L 764.697014 417.426587 
L 784.845894 426.517311 
L 831.554662 447.69335 
L 846.208393 454.035961 
L 859.030408 459.338566 
L 870.020706 463.64621 
L 880.095146 467.362254 
L 889.253728 470.516635 
L 898.41231 473.429442 
L 906.655034 475.821064 
L 914.897758 477.972945 
L 922.224623 479.666942 
L 929.551489 481.138811 
L 936.878355 482.372652 
L 943.289362 483.244259 
L 949.700369 483.910136 
L 956.111377 484.359023 
L 962.522384 484.579466 
L 968.933391 484.559824 
L 975.344399 484.288265 
L 980.839548 483.845887 
L 986.334697 483.201916 
L 991.829846 482.348567 
L 997.324995 481.277955 
L 1002.820145 479.982089 
L 1008.315294 478.452877 
L 1013.810443 476.682125 
L 1019.305592 474.661537 
L 1023.884883 472.780809 
L 1023.884883 472.780809 
" clip-path="url(#pfaa5b00cb8)" style="fill: none; stroke: #fc4f30; stroke-width: 4"/>
   </g>
   <g id="line2d_34">
    <path d="M 108.942545 506.314256 
L 110.774262 494.128171 
L 112.605978 483.785585 
L 114.437695 475.12616 
L 116.269411 467.998775 
L 118.101127 462.261154 
L 119.932844 457.779507 
L 120.848702 455.970098 
L 121.76456 454.428178 
L 122.680418 453.139255 
L 123.596277 452.089303 
L 124.512135 451.264754 
L 125.427993 450.652484 
L 126.343851 450.239807 
L 127.259709 450.014463 
L 128.175568 449.964612 
L 129.091426 450.078818 
L 130.007284 450.346048 
L 130.923142 450.755657 
L 132.754859 451.961326 
L 134.586575 453.618129 
L 136.418291 455.654052 
L 138.250008 458.002498 
L 140.997582 461.978107 
L 144.661015 467.839866 
L 155.651313 486.008058 
L 158.398888 490.106816 
L 161.146463 493.869461 
L 163.894037 497.241681 
L 166.641612 500.181481 
L 168.473328 501.885462 
L 170.305045 503.376738 
L 172.136761 504.650556 
L 173.968477 505.703882 
L 175.800194 506.535278 
L 177.63191 507.144779 
L 179.463627 507.533781 
L 181.295343 507.704925 
L 183.127059 507.661998 
L 184.958776 507.409826 
L 186.790492 506.954178 
L 188.622208 506.301677 
L 190.453925 505.459707 
L 192.285641 504.436334 
L 195.033216 502.580241 
L 197.78079 500.36698 
L 200.528365 497.830037 
L 203.27594 495.004504 
L 206.939372 490.850964 
L 210.602805 486.336619 
L 215.182096 480.320958 
L 222.508962 470.234746 
L 230.751686 458.93132 
L 235.330976 452.973294 
L 239.910267 447.408817 
L 243.5737 443.315889 
L 247.237133 439.595841 
L 249.984708 437.076409 
L 252.732282 434.806238 
L 255.479857 432.798495 
L 258.227431 431.064118 
L 260.975006 429.611829 
L 263.722581 428.448158 
L 266.470155 427.577475 
L 269.21773 427.002042 
L 271.965304 426.722057 
L 274.712879 426.735721 
L 277.460453 427.039305 
L 280.208028 427.627226 
L 282.955603 428.492122 
L 285.703177 429.624947 
L 288.450752 431.015052 
L 291.198326 432.650285 
L 293.945901 434.517085 
L 296.693476 436.600583 
L 300.356908 439.687725 
L 304.020341 443.090303 
L 308.599632 447.719605 
L 313.178923 452.680817 
L 319.589931 459.999146 
L 335.15952 477.974604 
L 339.738811 482.87691 
L 344.318102 487.421895 
L 347.981535 490.735396 
L 351.644967 493.710529 
L 354.392542 495.692351 
L 357.140117 497.439835 
L 359.887691 498.935449 
L 362.635266 500.16253 
L 365.38284 501.105337 
L 368.130415 501.749107 
L 370.877989 502.080095 
L 373.625564 502.085617 
L 375.45728 501.902717 
L 377.288997 501.56684 
L 379.120713 501.07506 
L 380.95243 500.42468 
L 382.784146 499.613242 
L 385.531721 498.089298 
L 388.279295 496.191532 
L 391.02687 493.914682 
L 393.774444 491.254722 
L 396.522019 488.208878 
L 399.269594 484.775623 
L 402.017168 480.95468 
L 404.764743 476.747019 
L 407.512317 472.154849 
L 410.259892 467.181602 
L 413.007466 461.831925 
L 416.670899 454.123727 
L 420.334332 445.773909 
L 423.997765 436.80314 
L 427.661198 427.235566 
L 431.32463 417.098669 
L 435.903921 403.673944 
L 440.483212 389.474266 
L 445.062503 374.572923 
L 450.557653 355.877458 
L 456.96866 333.131966 
L 464.295525 306.214829 
L 475.285824 264.841123 
L 488.107839 216.74831 
L 495.434704 190.180859 
L 500.929853 171.012661 
L 506.425002 152.68342 
L 511.004293 138.168183 
L 515.583584 124.439587 
L 519.247017 114.080789 
L 522.91045 104.321756 
L 526.573883 95.201576 
L 530.237316 86.756829 
L 532.98489 80.887024 
L 535.732465 75.429553 
L 538.480039 70.396763 
L 541.227614 65.80005 
L 543.975188 61.649824 
L 546.722763 57.955493 
L 549.470338 54.72543 
L 552.217912 51.966963 
L 554.049629 50.393117 
L 555.881345 49.033261 
L 557.713061 47.888764 
L 559.544778 46.960784 
L 561.376494 46.250255 
L 563.208211 45.757895 
L 565.039927 45.4842 
L 566.871643 45.429447 
L 568.70336 45.593692 
L 570.535076 45.976767 
L 572.366793 46.578288 
L 574.198509 47.397646 
L 576.030225 48.434015 
L 577.861942 49.68635 
L 579.693658 51.153386 
L 581.525375 52.833644 
L 583.357091 54.72543 
L 586.104665 57.955493 
L 588.85224 61.649824 
L 591.599815 65.80005 
L 594.347389 70.396763 
L 597.094964 75.429553 
L 599.842538 80.887024 
L 602.590113 86.756829 
L 606.253546 95.201576 
L 609.916979 104.321756 
L 613.580411 114.080789 
L 617.243844 124.439587 
L 621.823135 138.168183 
L 626.402426 152.68342 
L 630.981717 167.895016 
L 636.476866 186.935056 
L 642.887874 210.017666 
L 651.130597 240.641895 
L 674.94291 329.814032 
L 681.353918 352.684703 
L 686.849067 371.515349 
L 692.344216 389.474266 
L 696.923507 403.673944 
L 701.502798 417.098669 
L 705.166231 427.235566 
L 708.829664 436.80314 
L 712.493097 445.773909 
L 716.156529 454.123727 
L 719.819962 461.831925 
L 722.567537 467.181602 
L 725.315111 472.154849 
L 728.062686 476.747019 
L 730.81026 480.95468 
L 733.557835 484.775623 
L 736.30541 488.208878 
L 739.052984 491.254722 
L 741.800559 493.914682 
L 744.548133 496.191532 
L 747.295708 498.089298 
L 750.043283 499.613242 
L 752.790857 500.769854 
L 754.622574 501.340612 
L 756.45429 501.754089 
L 758.286006 502.013097 
L 760.117723 502.120677 
L 762.865297 502.005324 
L 765.612872 501.568614 
L 768.360446 500.823586 
L 771.108021 499.784331 
L 773.855596 498.465944 
L 776.60317 496.884477 
L 779.350745 495.056891 
L 782.098319 493.000996 
L 785.761752 489.936916 
L 789.425185 486.546189 
L 793.088618 482.87691 
L 797.667909 477.974604 
L 803.163058 471.761436 
L 822.39608 449.669583 
L 826.975371 444.896192 
L 830.638804 441.352277 
L 834.302237 438.102079 
L 837.965669 435.188277 
L 840.713244 433.24753 
L 843.460819 431.533535 
L 846.208393 430.060299 
L 848.955968 428.840455 
L 851.703542 427.885162 
L 854.451117 427.204014 
L 857.198691 426.804941 
L 859.946266 426.694129 
L 862.693841 426.875934 
L 865.441415 427.352807 
L 868.18899 428.125221 
L 870.936564 429.19161 
L 873.684139 430.548311 
L 876.431714 432.189519 
L 879.179288 434.107245 
L 881.926863 436.291293 
L 884.674437 438.729239 
L 887.422012 441.406428 
L 891.085445 445.318677 
L 894.748878 449.579907 
L 899.328168 455.316035 
L 904.823318 462.643003 
L 922.224623 486.336619 
L 925.888056 490.850964 
L 929.551489 495.004504 
L 932.299064 497.830037 
L 935.046638 500.36698 
L 937.794213 502.580241 
L 940.541787 504.436334 
L 942.373504 505.459707 
L 944.20522 506.301677 
L 946.036936 506.954178 
L 947.868653 507.409826 
L 949.700369 507.661998 
L 951.532086 507.704925 
L 953.363802 507.533781 
L 955.195518 507.144779 
L 957.027235 506.535278 
L 958.858951 505.703882 
L 960.690668 504.650556 
L 962.522384 503.376738 
L 964.3541 501.885462 
L 966.185817 500.181481 
L 968.933391 497.241681 
L 971.680966 493.869461 
L 974.428541 490.106816 
L 977.176115 486.008058 
L 980.839548 480.1396 
L 992.745704 460.602032 
L 995.493279 456.793167 
L 997.324995 454.592986 
L 999.156712 452.737966 
L 1000.988428 451.29738 
L 1001.904286 450.755657 
L 1002.820145 450.346048 
L 1003.736003 450.078818 
L 1004.651861 449.964612 
L 1005.567719 450.014463 
L 1006.483577 450.239807 
L 1007.399436 450.652484 
L 1008.315294 451.264754 
L 1009.231152 452.089303 
L 1010.14701 453.139255 
L 1011.062868 454.428178 
L 1011.978727 455.970098 
L 1012.894585 457.779507 
L 1013.810443 459.871374 
L 1014.726301 462.261154 
L 1016.558018 467.998775 
L 1018.389734 475.12616 
L 1020.22145 483.785585 
L 1022.053167 494.128171 
L 1023.884883 506.314256 
L 1023.884883 506.314256 
" clip-path="url(#pfaa5b00cb8)" style="fill: none; stroke: #e5ae38; stroke-width: 4"/>
   </g>
   <g id="line2d_35">
    <path d="M 108.942545 480.620627 
L 109.858404 478.440786 
L 110.774262 477.544428 
L 111.69012 477.45487 
L 112.605978 477.822524 
L 115.353553 479.556475 
L 116.269411 479.966767 
L 117.185269 480.214949 
L 118.101127 480.296536 
L 119.016986 480.223786 
L 120.848702 479.711874 
L 123.596277 478.47508 
L 126.343851 477.316233 
L 128.175568 476.818843 
L 130.007284 476.604851 
L 131.839 476.664182 
L 133.670717 476.946938 
L 136.418291 477.627107 
L 140.997582 478.78674 
L 143.745157 479.160013 
L 145.576873 479.205642 
L 147.40859 479.08288 
L 150.156164 478.615254 
L 152.903739 477.893928 
L 161.146463 475.477697 
L 163.894037 474.95822 
L 166.641612 474.687125 
L 169.389186 474.668612 
L 172.136761 474.871582 
L 175.800194 475.384179 
L 184.042918 476.66818 
L 186.790492 476.886434 
L 189.538067 476.92087 
L 192.285641 476.754657 
L 195.033216 476.392102 
L 198.696649 475.645595 
L 203.27594 474.428733 
L 211.518663 472.170557 
L 215.182096 471.414535 
L 218.845529 470.91637 
L 222.508962 470.698368 
L 226.172395 470.741642 
L 230.751686 471.077425 
L 243.5737 472.279887 
L 247.237133 472.313228 
L 250.900566 472.096177 
L 254.563999 471.610359 
L 258.227431 470.866763 
L 261.890864 469.903032 
L 267.386013 468.177673 
L 277.460453 464.916649 
L 282.039744 463.71985 
L 285.703177 462.984541 
L 289.36661 462.467559 
L 293.030043 462.163607 
L 297.609334 462.039671 
L 304.020341 462.165613 
L 311.347207 462.318442 
L 315.926498 462.181652 
L 319.589931 461.847969 
L 323.253363 461.269455 
L 326.916796 460.423132 
L 330.580229 459.305531 
L 334.243662 457.932528 
L 337.907094 456.337637 
L 342.486385 454.106311 
L 360.803549 444.843355 
L 365.38284 442.965686 
L 369.962131 441.370489 
L 374.541422 440.037771 
L 380.036571 438.692075 
L 390.111012 436.324162 
L 393.774444 435.260151 
L 397.437877 433.970471 
L 401.10131 432.388335 
L 403.848885 430.975671 
L 406.596459 429.34831 
L 409.344034 427.492924 
L 412.091608 425.401705 
L 414.839183 423.07254 
L 417.586757 420.508973 
L 421.25019 416.742405 
L 424.913623 412.609983 
L 428.577056 408.158571 
L 433.156347 402.230581 
L 438.651496 394.736111 
L 447.810078 381.780035 
L 460.632093 363.273871 
L 466.127242 355.011119 
L 470.706533 347.726345 
L 474.369966 341.492503 
L 478.033398 334.770685 
L 480.780973 329.335065 
L 483.528548 323.504054 
L 486.276122 317.228207 
L 489.023697 310.462028 
L 491.771271 303.165707 
L 494.518846 295.306797 
L 497.26642 286.861787 
L 500.013995 277.817527 
L 502.76157 268.172453 
L 506.425002 254.398718 
L 510.088435 239.641184 
L 513.751868 224.006651 
L 518.331159 203.463167 
L 524.742166 173.547972 
L 532.98489 135.12636 
L 537.564181 114.928292 
L 541.227614 99.884626 
L 543.975188 89.45367 
L 546.722763 79.890145 
L 549.470338 71.309454 
L 551.302054 66.187579 
L 553.13377 61.578037 
L 554.965487 57.506606 
L 556.797203 53.996235 
L 558.62892 51.066838 
L 560.460636 48.735129 
L 562.292352 47.014467 
L 563.208211 46.386508 
L 564.124069 45.914744 
L 565.039927 45.599856 
L 565.955785 45.442298 
L 566.871643 45.442297 
L 567.787502 45.599853 
L 568.70336 45.91474 
L 569.619218 46.386502 
L 570.535076 47.014459 
L 571.450934 47.797707 
L 573.282651 49.825346 
L 575.114367 52.457778 
L 576.946084 55.679953 
L 578.7778 59.473534 
L 580.609516 63.817068 
L 582.441233 68.686166 
L 584.272949 74.053715 
L 587.020524 82.974269 
L 589.768098 92.840186 
L 592.515673 103.533241 
L 596.179106 118.860249 
L 600.758397 139.30288 
L 607.169404 169.230006 
L 615.412128 207.645397 
L 619.991419 227.99001 
L 623.654852 243.41771 
L 627.318284 257.937597 
L 630.981717 271.453835 
L 634.64515 283.913962 
L 637.392724 292.557813 
L 640.140299 300.609964 
L 642.887874 308.090622 
L 645.635448 315.029424 
L 648.383023 321.463906 
L 651.130597 327.437861 
L 653.878172 332.999613 
L 657.541605 339.862595 
L 661.205038 346.207064 
L 665.784329 353.590172 
L 671.279478 361.921519 
L 679.522201 373.905545 
L 693.260074 393.459122 
L 699.671082 402.230578 
L 704.250373 408.158567 
L 707.913806 412.609978 
L 711.577238 416.742401 
L 715.240671 420.508969 
L 717.988246 423.072538 
L 720.73582 425.401703 
L 723.483395 427.492923 
L 726.230969 429.348309 
L 728.978544 430.975671 
L 731.726119 432.388336 
L 734.473693 433.604754 
L 738.137126 434.961647 
L 741.800559 436.075368 
L 746.37985 437.236048 
L 760.117723 440.542513 
L 764.697014 441.974917 
L 769.276305 443.683262 
L 773.855596 445.669305 
L 779.350745 448.356334 
L 795.836192 456.754731 
L 799.499625 458.298155 
L 803.163058 459.609807 
L 806.826491 460.660341 
L 810.489923 461.438618 
L 814.153356 461.953031 
L 817.816789 462.231267 
L 822.39608 462.317076 
L 829.722946 462.137152 
L 836.133953 462.045326 
L 840.713244 462.220776 
L 844.376677 462.576244 
L 848.04011 463.148214 
L 851.703542 463.936213 
L 856.282833 465.186995 
L 861.777982 466.949994 
L 870.020706 469.634265 
L 874.599997 470.866794 
L 878.26343 471.610393 
L 881.926863 472.096215 
L 885.590296 472.313269 
L 889.253728 472.279929 
L 893.833019 471.960565 
L 907.570892 470.708815 
L 911.234325 470.726998 
L 914.897758 471.014818 
L 918.561191 471.581192 
L 922.224623 472.393262 
L 927.719773 473.902505 
L 934.13078 475.645616 
L 937.794213 476.392126 
L 940.541787 476.754684 
L 943.289362 476.9209 
L 946.036936 476.886467 
L 949.700369 476.560634 
L 954.27966 475.852385 
L 959.774809 474.979057 
L 962.522384 474.714084 
L 965.269959 474.653783 
L 968.017533 474.839253 
L 970.765108 475.278829 
L 973.512682 475.941802 
L 978.091973 477.333946 
L 981.755406 478.397159 
L 984.502981 478.961927 
L 986.334697 479.164818 
L 988.166413 479.204119 
L 989.99813 479.074215 
L 992.745704 478.592789 
L 997.324995 477.379915 
L 1000.07257 476.781889 
L 1001.904286 476.602774 
L 1003.736003 476.675956 
L 1005.567719 477.033532 
L 1007.399436 477.659442 
L 1012.894585 480.019376 
L 1013.810443 480.223773 
L 1014.726301 480.296534 
L 1015.642159 480.214927 
L 1016.558018 479.966759 
L 1017.473876 479.556455 
L 1021.137309 477.454907 
L 1022.053167 477.544428 
L 1022.969025 478.440795 
L 1023.884883 480.620637 
L 1023.884883 480.620637 
" clip-path="url(#pfaa5b00cb8)" style="fill: none; stroke: #6d904f; stroke-width: 4"/>
   </g>
   <g id="line2d_36">
    <path d="M 108.942545 479.068004 
L 138.250008 477.867471 
L 163.894037 476.602038 
L 186.790492 475.256933 
L 207.855231 473.794626 
L 226.172395 472.306396 
L 242.657842 470.756439 
L 258.227431 469.071241 
L 271.965304 467.370587 
L 284.787319 465.5686 
L 296.693476 463.676755 
L 307.683774 461.711807 
L 317.758214 459.696346 
L 327.832654 457.443549 
L 336.991236 455.158062 
L 345.23396 452.879247 
L 353.476684 450.360547 
L 360.803549 447.893278 
L 368.130415 445.182589 
L 374.541422 442.586266 
L 380.95243 439.755036 
L 387.363437 436.661126 
L 392.858586 433.776197 
L 398.353735 430.652401 
L 403.848885 427.26428 
L 409.344034 423.583182 
L 413.923325 420.268627 
L 418.502616 416.707426 
L 423.081907 412.876537 
L 427.661198 408.750488 
L 432.240489 404.301123 
L 436.81978 399.497346 
L 441.399071 394.304846 
L 445.062503 389.845693 
L 448.725936 385.092581 
L 452.389369 380.022849 
L 456.052802 374.612171 
L 459.716234 368.83453 
L 463.379667 362.662215 
L 467.0431 356.065873 
L 470.706533 349.014627 
L 474.369966 341.476281 
L 478.033398 333.417655 
L 481.696831 324.805062 
L 485.360264 315.604999 
L 489.023697 305.785085 
L 492.68713 295.315323 
L 496.350562 284.169738 
L 500.013995 272.328493 
L 503.677428 259.780527 
L 507.340861 246.526806 
L 511.920152 228.99477 
L 516.499443 210.467059 
L 521.994592 187.128828 
L 529.321457 154.847143 
L 536.648323 122.693362 
L 541.227614 103.63499 
L 544.891047 89.496772 
L 547.638621 79.780368 
L 550.386196 70.999163 
L 552.217912 65.740345 
L 554.049629 61.008167 
L 555.881345 56.84269 
L 557.713061 53.280324 
L 559.544778 50.353072 
L 561.376494 48.087832 
L 562.292352 47.210326 
L 563.208211 46.505794 
L 564.124069 45.975915 
L 565.039927 45.621955 
L 565.955785 45.444762 
L 566.871643 45.444762 
L 567.787502 45.621955 
L 568.70336 45.975915 
L 569.619218 46.505794 
L 570.535076 47.210326 
L 571.450934 48.087832 
L 573.282651 50.353072 
L 575.114367 53.280324 
L 576.946084 56.84269 
L 578.7778 61.008167 
L 580.609516 65.740345 
L 582.441233 70.999163 
L 585.188807 79.780368 
L 587.936382 89.496772 
L 590.683956 99.991141 
L 594.347389 114.924104 
L 598.92668 134.608028 
L 615.412128 206.653431 
L 619.991419 225.365298 
L 624.57071 243.104668 
L 628.234143 256.532907 
L 631.897575 269.257952 
L 635.561008 281.27525 
L 639.224441 292.593183 
L 642.887874 303.229666 
L 646.551306 313.209355 
L 650.214739 322.561414 
L 653.878172 331.317759 
L 657.541605 339.511713 
L 661.205038 347.176988 
L 664.86847 354.346946 
L 668.531903 361.054064 
L 672.195336 367.329571 
L 675.858769 373.203218 
L 679.522201 378.70313 
L 683.185634 383.855753 
L 686.849067 388.685831 
L 690.5125 393.216438 
L 695.091791 398.491101 
L 699.671082 403.36977 
L 704.250373 407.887431 
L 708.829664 412.075801 
L 713.408955 415.963602 
L 717.988246 419.576823 
L 722.567537 422.938973 
L 728.062686 426.671934 
L 733.557835 430.106802 
L 739.052984 433.272803 
L 744.548133 436.195899 
L 750.959141 439.329826 
L 757.370148 442.196795 
L 763.781155 444.825111 
L 771.108021 447.56836 
L 778.434887 450.064476 
L 785.761752 452.341368 
L 794.004476 454.670849 
L 803.163058 457.00562 
L 812.32164 459.106947 
L 822.39608 461.183773 
L 833.386378 463.206505 
L 845.292535 465.151977 
L 858.11455 467.003114 
L 871.852423 468.748331 
L 886.506154 470.380788 
L 902.991601 471.980615 
L 920.392907 473.443196 
L 939.625929 474.836972 
L 961.606526 476.196061 
L 985.418839 477.441289 
L 1011.978727 478.608003 
L 1023.884883 479.068004 
L 1023.884883 479.068004 
" clip-path="url(#pfaa5b00cb8)" style="fill: none; stroke-dasharray: 14.8,6.4; stroke-dashoffset: 0; stroke: #000000; stroke-width: 4"/>
   </g>
   <g id="patch_3">
    <path d="M 63.195429 500.749166 
L 63.195429 23.7636 
" style="fill: none; stroke: #f0f0f0; stroke-width: 3; stroke-linejoin: miter; stroke-linecap: square"/>
   </g>
   <g id="patch_4">
    <path d="M 1069.632 500.749166 
L 1069.632 23.7636 
" style="fill: none; stroke: #f0f0f0; stroke-width: 3; stroke-linejoin: miter; stroke-linecap: square"/>
   </g>
   <g id="patch_5">
    <path d="M 63.195429 500.749166 
L 1069.632 500.749166 
" style="fill: none; stroke: #f0f0f0; stroke-width: 3; stroke-linejoin: miter; stroke-linecap: square"/>
   </g>
   <g id="patch_6">
    <path d="M 63.195429 23.7636 
L 1069.632 23.7636 
" style="fill: none; stroke: #f0f0f0; stroke-width: 3; stroke-linejoin: miter; stroke-linecap: square"/>
   </g>
   <g id="legend_1">
    <g id="patch_7">
     <path d="M 967.714187 117.1611 
L 1059.832 117.1611 
Q 1062.632 117.1611 1062.632 114.3611 
L 1062.632 33.5636 
Q 1062.632 30.7636 1059.832 30.7636 
L 967.714187 30.7636 
Q 964.914187 30.7636 964.914187 33.5636 
L 964.914187 114.3611 
Q 964.914187 117.1611 967.714187 117.1611 
z
" style="fill: #f0f0f0; opacity: 0.8; stroke: #cccccc; stroke-width: 0.5; stroke-linejoin: miter"/>
    </g>
    <g id="line2d_37">
     <path d="M 970.514187 42.101412 
L 984.514187 42.101412 
L 998.514187 42.101412 
" style="fill: none; stroke: #008fd5; stroke-width: 4"/>
    </g>
    <g id="text_18">
     <!-- n = 3 -->
     <g transform="translate(1009.714187 47.001412) scale(0.14 -0.14)">
      <defs>
       <path id="DejaVuSans-3d" d="M 678 2906 
L 4684 2906 
L 4684 2381 
L 678 2381 
L 678 2906 
z
M 678 1631 
L 4684 1631 
L 4684 1100 
L 678 1100 
L 678 1631 
z
" transform="scale(0.015625)"/>
       <path id="DejaVuSans-33" d="M 2597 2516 
Q 3050 2419 3304 2112 
Q 3559 1806 3559 1356 
Q 3559 666 3084 287 
Q 2609 -91 1734 -91 
Q 1441 -91 1130 -33 
Q 819 25 488 141 
L 488 750 
Q 750 597 1062 519 
Q 1375 441 1716 441 
Q 2309 441 2620 675 
Q 2931 909 2931 1356 
Q 2931 1769 2642 2001 
Q 2353 2234 1838 2234 
L 1294 2234 
L 1294 2753 
L 1863 2753 
Q 2328 2753 2575 2939 
Q 2822 3125 2822 3475 
Q 2822 3834 2567 4026 
Q 2313 4219 1838 4219 
Q 1578 4219 1281 4162 
Q 984 4106 628 3988 
L 628 4550 
Q 988 4650 1302 4700 
Q 1616 4750 1894 4750 
Q 2613 4750 3031 4423 
Q 3450 4097 3450 3541 
Q 3450 3153 3228 2886 
Q 3006 2619 2597 2516 
z
" transform="scale(0.015625)"/>
      </defs>
      <use xlink:href="#DejaVuSans-6e"/>
      <use xlink:href="#DejaVuSans-20" x="63.378906"/>
      <use xlink:href="#DejaVuSans-3d" x="95.166016"/>
      <use xlink:href="#DejaVuSans-20" x="178.955078"/>
      <use xlink:href="#DejaVuSans-33" x="210.742188"/>
     </g>
    </g>
    <g id="line2d_38">
     <path d="M 970.514187 62.650787 
L 984.514187 62.650787 
L 998.514187 62.650787 
" style="fill: none; stroke: #fc4f30; stroke-width: 4"/>
    </g>
    <g id="text_19">
     <!-- n = 5 -->
     <g transform="translate(1009.714187 67.550787) scale(0.14 -0.14)">
      <use xlink:href="#DejaVuSans-6e"/>
      <use xlink:href="#DejaVuSans-20" x="63.378906"/>
      <use xlink:href="#DejaVuSans-3d" x="95.166016"/>
      <use xlink:href="#DejaVuSans-20" x="178.955078"/>
      <use xlink:href="#DejaVuSans-35" x="210.742188"/>
     </g>
    </g>
    <g id="line2d_39">
     <path d="M 970.514187 83.200162 
L 984.514187 83.200162 
L 998.514187 83.200162 
" style="fill: none; stroke: #e5ae38; stroke-width: 4"/>
    </g>
    <g id="text_20">
     <!-- n = 10 -->
     <g transform="translate(1009.714187 88.100162) scale(0.14 -0.14)">
      <use xlink:href="#DejaVuSans-6e"/>
      <use xlink:href="#DejaVuSans-20" x="63.378906"/>
      <use xlink:href="#DejaVuSans-3d" x="95.166016"/>
      <use xlink:href="#DejaVuSans-20" x="178.955078"/>
      <use xlink:href="#DejaVuSans-31" x="210.742188"/>
      <use xlink:href="#DejaVuSans-30" x="274.365234"/>
     </g>
    </g>
    <g id="line2d_40">
     <path d="M 970.514187 103.749537 
L 984.514187 103.749537 
L 998.514187 103.749537 
" style="fill: none; stroke: #6d904f; stroke-width: 4"/>
    </g>
    <g id="text_21">
     <!-- n = 30 -->
     <g transform="translate(1009.714187 108.649537) scale(0.14 -0.14)">
      <use xlink:href="#DejaVuSans-6e"/>
      <use xlink:href="#DejaVuSans-20" x="63.378906"/>
      <use xlink:href="#DejaVuSans-3d" x="95.166016"/>
      <use xlink:href="#DejaVuSans-20" x="178.955078"/>
      <use xlink:href="#DejaVuSans-33" x="210.742188"/>
      <use xlink:href="#DejaVuSans-30" x="274.365234"/>
     </g>
    </g>
   </g>
  </g>
 </g>
 <defs>
  <clipPath id="pfaa5b00cb8">
   <rect x="63.195429" y="23.7636" width="1006.436571" height="476.985566"/>
  </clipPath>
 </defs>
</svg>
