<?xml version="1.0" encoding="utf-8" standalone="no"?>
<!DOCTYPE svg PUBLIC "-//W3C//DTD SVG 1.1//EN"
  "http://www.w3.org/Graphics/SVG/1.1/DTD/svg11.dtd">
<svg xmlns:xlink="http://www.w3.org/1999/xlink" width="1105.92pt" height="543.168pt" viewBox="0 0 1105.92 543.168" xmlns="http://www.w3.org/2000/svg" version="1.1">
 <metadata>
  <rdf:RDF xmlns:dc="http://purl.org/dc/elements/1.1/" xmlns:cc="http://creativecommons.org/ns#" xmlns:rdf="http://www.w3.org/1999/02/22-rdf-syntax-ns#">
   <cc:Work>
    <dc:type rdf:resource="http://purl.org/dc/dcmitype/StillImage"/>
    <dc:date>2023-12-12T16:48:58.643857</dc:date>
    <dc:format>image/svg+xml</dc:format>
    <dc:creator>
     <cc:Agent>
      <dc:title>Matplotlib v3.8.0, https://matplotlib.org/</dc:title>
     </cc:Agent>
    </dc:creator>
   </cc:Work>
  </rdf:RDF>
 </metadata>
 <defs>
  <style type="text/css">*{stroke-linejoin: round; stroke-linecap: butt}</style>
 </defs>
 <g id="figure_1">
  <g id="patch_1">
   <path d="M 0 543.168 
L 1105.92 543.168 
L 1105.92 0 
L 0 0 
z
" style="fill: #f0f0f0"/>
  </g>
  <g id="axes_1">
   <g id="patch_2">
    <path d="M 88.4736 505.14624 
L 1050.624 505.14624 
L 1050.624 65.18016 
L 88.4736 65.18016 
z
" style="fill: #f0f0f0"/>
   </g>
   <g id="matplotlib.axis_1">
    <g id="xtick_1">
     <g id="line2d_1">
      <path d="M 132.207709 505.14624 
L 132.207709 65.18016 
" clip-path="url(#p6b943d8958)" style="fill: none; stroke: #cbcbcb"/>
     </g>
     <g id="line2d_2"/>
     <g id="text_1">
      <!-- 0 -->
      <g transform="translate(127.753959 519.284053) scale(0.14 -0.14)">
       <defs>
        <path id="DejaVuSans-30" d="M 2034 4250 
Q 1547 4250 1301 3770 
Q 1056 3291 1056 2328 
Q 1056 1369 1301 889 
Q 1547 409 2034 409 
Q 2525 409 2770 889 
Q 3016 1369 3016 2328 
Q 3016 3291 2770 3770 
Q 2525 4250 2034 4250 
z
M 2034 4750 
Q 2819 4750 3233 4129 
Q 3647 3509 3647 2328 
Q 3647 1150 3233 529 
Q 2819 -91 2034 -91 
Q 1250 -91 836 529 
Q 422 1150 422 2328 
Q 422 3509 836 4129 
Q 1250 4750 2034 4750 
z
" transform="scale(0.015625)"/>
       </defs>
       <use xlink:href="#DejaVuSans-30"/>
      </g>
     </g>
    </g>
    <g id="xtick_2">
     <g id="line2d_3">
      <path d="M 287.018715 505.14624 
L 287.018715 65.18016 
" clip-path="url(#p6b943d8958)" style="fill: none; stroke: #cbcbcb"/>
     </g>
     <g id="line2d_4"/>
     <g id="text_2">
      <!-- 20 -->
      <g transform="translate(278.111215 519.284053) scale(0.14 -0.14)">
       <defs>
        <path id="DejaVuSans-32" d="M 1228 531 
L 3431 531 
L 3431 0 
L 469 0 
L 469 531 
Q 828 903 1448 1529 
Q 2069 2156 2228 2338 
Q 2531 2678 2651 2914 
Q 2772 3150 2772 3378 
Q 2772 3750 2511 3984 
Q 2250 4219 1831 4219 
Q 1534 4219 1204 4116 
Q 875 4013 500 3803 
L 500 4441 
Q 881 4594 1212 4672 
Q 1544 4750 1819 4750 
Q 2544 4750 2975 4387 
Q 3406 4025 3406 3419 
Q 3406 3131 3298 2873 
Q 3191 2616 2906 2266 
Q 2828 2175 2409 1742 
Q 1991 1309 1228 531 
z
" transform="scale(0.015625)"/>
       </defs>
       <use xlink:href="#DejaVuSans-32"/>
       <use xlink:href="#DejaVuSans-30" x="63.623047"/>
      </g>
     </g>
    </g>
    <g id="xtick_3">
     <g id="line2d_5">
      <path d="M 441.82972 505.14624 
L 441.82972 65.18016 
" clip-path="url(#p6b943d8958)" style="fill: none; stroke: #cbcbcb"/>
     </g>
     <g id="line2d_6"/>
     <g id="text_3">
      <!-- 40 -->
      <g transform="translate(432.92222 519.284053) scale(0.14 -0.14)">
       <defs>
        <path id="DejaVuSans-34" d="M 2419 4116 
L 825 1625 
L 2419 1625 
L 2419 4116 
z
M 2253 4666 
L 3047 4666 
L 3047 1625 
L 3713 1625 
L 3713 1100 
L 3047 1100 
L 3047 0 
L 2419 0 
L 2419 1100 
L 313 1100 
L 313 1709 
L 2253 4666 
z
" transform="scale(0.015625)"/>
       </defs>
       <use xlink:href="#DejaVuSans-34"/>
       <use xlink:href="#DejaVuSans-30" x="63.623047"/>
      </g>
     </g>
    </g>
    <g id="xtick_4">
     <g id="line2d_7">
      <path d="M 596.640726 505.14624 
L 596.640726 65.18016 
" clip-path="url(#p6b943d8958)" style="fill: none; stroke: #cbcbcb"/>
     </g>
     <g id="line2d_8"/>
     <g id="text_4">
      <!-- 60 -->
      <g transform="translate(587.733226 519.284053) scale(0.14 -0.14)">
       <defs>
        <path id="DejaVuSans-36" d="M 2113 2584 
Q 1688 2584 1439 2293 
Q 1191 2003 1191 1497 
Q 1191 994 1439 701 
Q 1688 409 2113 409 
Q 2538 409 2786 701 
Q 3034 994 3034 1497 
Q 3034 2003 2786 2293 
Q 2538 2584 2113 2584 
z
M 3366 4563 
L 3366 3988 
Q 3128 4100 2886 4159 
Q 2644 4219 2406 4219 
Q 1781 4219 1451 3797 
Q 1122 3375 1075 2522 
Q 1259 2794 1537 2939 
Q 1816 3084 2150 3084 
Q 2853 3084 3261 2657 
Q 3669 2231 3669 1497 
Q 3669 778 3244 343 
Q 2819 -91 2113 -91 
Q 1303 -91 875 529 
Q 447 1150 447 2328 
Q 447 3434 972 4092 
Q 1497 4750 2381 4750 
Q 2619 4750 2861 4703 
Q 3103 4656 3366 4563 
z
" transform="scale(0.015625)"/>
       </defs>
       <use xlink:href="#DejaVuSans-36"/>
       <use xlink:href="#DejaVuSans-30" x="63.623047"/>
      </g>
     </g>
    </g>
    <g id="xtick_5">
     <g id="line2d_9">
      <path d="M 751.451732 505.14624 
L 751.451732 65.18016 
" clip-path="url(#p6b943d8958)" style="fill: none; stroke: #cbcbcb"/>
     </g>
     <g id="line2d_10"/>
     <g id="text_5">
      <!-- 80 -->
      <g transform="translate(742.544232 519.284053) scale(0.14 -0.14)">
       <defs>
        <path id="DejaVuSans-38" d="M 2034 2216 
Q 1584 2216 1326 1975 
Q 1069 1734 1069 1313 
Q 1069 891 1326 650 
Q 1584 409 2034 409 
Q 2484 409 2743 651 
Q 3003 894 3003 1313 
Q 3003 1734 2745 1975 
Q 2488 2216 2034 2216 
z
M 1403 2484 
Q 997 2584 770 2862 
Q 544 3141 544 3541 
Q 544 4100 942 4425 
Q 1341 4750 2034 4750 
Q 2731 4750 3128 4425 
Q 3525 4100 3525 3541 
Q 3525 3141 3298 2862 
Q 3072 2584 2669 2484 
Q 3125 2378 3379 2068 
Q 3634 1759 3634 1313 
Q 3634 634 3220 271 
Q 2806 -91 2034 -91 
Q 1263 -91 848 271 
Q 434 634 434 1313 
Q 434 1759 690 2068 
Q 947 2378 1403 2484 
z
M 1172 3481 
Q 1172 3119 1398 2916 
Q 1625 2713 2034 2713 
Q 2441 2713 2670 2916 
Q 2900 3119 2900 3481 
Q 2900 3844 2670 4047 
Q 2441 4250 2034 4250 
Q 1625 4250 1398 4047 
Q 1172 3844 1172 3481 
z
" transform="scale(0.015625)"/>
       </defs>
       <use xlink:href="#DejaVuSans-38"/>
       <use xlink:href="#DejaVuSans-30" x="63.623047"/>
      </g>
     </g>
    </g>
    <g id="xtick_6">
     <g id="line2d_11">
      <path d="M 906.262737 505.14624 
L 906.262737 65.18016 
" clip-path="url(#p6b943d8958)" style="fill: none; stroke: #cbcbcb"/>
     </g>
     <g id="line2d_12"/>
     <g id="text_6">
      <!-- 100 -->
      <g transform="translate(892.901487 519.284053) scale(0.14 -0.14)">
       <defs>
        <path id="DejaVuSans-31" d="M 794 531 
L 1825 531 
L 1825 4091 
L 703 3866 
L 703 4441 
L 1819 4666 
L 2450 4666 
L 2450 531 
L 3481 531 
L 3481 0 
L 794 0 
L 794 531 
z
" transform="scale(0.015625)"/>
       </defs>
       <use xlink:href="#DejaVuSans-31"/>
       <use xlink:href="#DejaVuSans-30" x="63.623047"/>
       <use xlink:href="#DejaVuSans-30" x="127.246094"/>
      </g>
     </g>
    </g>
    <g id="text_7">
     <!-- k -->
     <g transform="translate(564.684675 538.96099) scale(0.168 -0.168)">
      <defs>
       <path id="DejaVuSans-6b" d="M 581 4863 
L 1159 4863 
L 1159 1991 
L 2875 3500 
L 3609 3500 
L 1753 1863 
L 3688 0 
L 2938 0 
L 1159 1709 
L 1159 0 
L 581 0 
L 581 4863 
z
" transform="scale(0.015625)"/>
      </defs>
      <use xlink:href="#DejaVuSans-6b"/>
     </g>
    </g>
   </g>
   <g id="matplotlib.axis_2">
    <g id="ytick_1">
     <g id="line2d_13">
      <path d="M 88.4736 443.835927 
L 1050.624 443.835927 
" clip-path="url(#p6b943d8958)" style="fill: none; stroke: #cbcbcb"/>
     </g>
     <g id="line2d_14"/>
     <g id="text_8">
      <!-- $\mathdefault{10^{-9}}$ -->
      <g transform="translate(52.0736 449.154833) scale(0.14 -0.14)">
       <defs>
        <path id="DejaVuSans-2212" d="M 678 2272 
L 4684 2272 
L 4684 1741 
L 678 1741 
L 678 2272 
z
" transform="scale(0.015625)"/>
        <path id="DejaVuSans-39" d="M 703 97 
L 703 672 
Q 941 559 1184 500 
Q 1428 441 1663 441 
Q 2288 441 2617 861 
Q 2947 1281 2994 2138 
Q 2813 1869 2534 1725 
Q 2256 1581 1919 1581 
Q 1219 1581 811 2004 
Q 403 2428 403 3163 
Q 403 3881 828 4315 
Q 1253 4750 1959 4750 
Q 2769 4750 3195 4129 
Q 3622 3509 3622 2328 
Q 3622 1225 3098 567 
Q 2575 -91 1691 -91 
Q 1453 -91 1209 -44 
Q 966 3 703 97 
z
M 1959 2075 
Q 2384 2075 2632 2365 
Q 2881 2656 2881 3163 
Q 2881 3666 2632 3958 
Q 2384 4250 1959 4250 
Q 1534 4250 1286 3958 
Q 1038 3666 1038 3163 
Q 1038 2656 1286 2365 
Q 1534 2075 1959 2075 
z
" transform="scale(0.015625)"/>
       </defs>
       <use xlink:href="#DejaVuSans-31" transform="translate(0 0.765625)"/>
       <use xlink:href="#DejaVuSans-30" transform="translate(63.623047 0.765625)"/>
       <use xlink:href="#DejaVuSans-2212" transform="translate(128.203125 39.046875) scale(0.7)"/>
       <use xlink:href="#DejaVuSans-39" transform="translate(186.855469 39.046875) scale(0.7)"/>
      </g>
     </g>
    </g>
    <g id="ytick_2">
     <g id="line2d_15">
      <path d="M 88.4736 360.09068 
L 1050.624 360.09068 
" clip-path="url(#p6b943d8958)" style="fill: none; stroke: #cbcbcb"/>
     </g>
     <g id="line2d_16"/>
     <g id="text_9">
      <!-- $\mathdefault{10^{-7}}$ -->
      <g transform="translate(52.0736 365.409587) scale(0.14 -0.14)">
       <defs>
        <path id="DejaVuSans-37" d="M 525 4666 
L 3525 4666 
L 3525 4397 
L 1831 0 
L 1172 0 
L 2766 4134 
L 525 4134 
L 525 4666 
z
" transform="scale(0.015625)"/>
       </defs>
       <use xlink:href="#DejaVuSans-31" transform="translate(0 0.684375)"/>
       <use xlink:href="#DejaVuSans-30" transform="translate(63.623047 0.684375)"/>
       <use xlink:href="#DejaVuSans-2212" transform="translate(128.203125 38.965625) scale(0.7)"/>
       <use xlink:href="#DejaVuSans-37" transform="translate(186.855469 38.965625) scale(0.7)"/>
      </g>
     </g>
    </g>
    <g id="ytick_3">
     <g id="line2d_17">
      <path d="M 88.4736 276.345434 
L 1050.624 276.345434 
" clip-path="url(#p6b943d8958)" style="fill: none; stroke: #cbcbcb"/>
     </g>
     <g id="line2d_18"/>
     <g id="text_10">
      <!-- $\mathdefault{10^{-5}}$ -->
      <g transform="translate(52.0736 281.66434) scale(0.14 -0.14)">
       <defs>
        <path id="DejaVuSans-35" d="M 691 4666 
L 3169 4666 
L 3169 4134 
L 1269 4134 
L 1269 2991 
Q 1406 3038 1543 3061 
Q 1681 3084 1819 3084 
Q 2600 3084 3056 2656 
Q 3513 2228 3513 1497 
Q 3513 744 3044 326 
Q 2575 -91 1722 -91 
Q 1428 -91 1123 -41 
Q 819 9 494 109 
L 494 744 
Q 775 591 1075 516 
Q 1375 441 1709 441 
Q 2250 441 2565 725 
Q 2881 1009 2881 1497 
Q 2881 1984 2565 2268 
Q 2250 2553 1709 2553 
Q 1456 2553 1204 2497 
Q 953 2441 691 2322 
L 691 4666 
z
" transform="scale(0.015625)"/>
       </defs>
       <use xlink:href="#DejaVuSans-31" transform="translate(0 0.684375)"/>
       <use xlink:href="#DejaVuSans-30" transform="translate(63.623047 0.684375)"/>
       <use xlink:href="#DejaVuSans-2212" transform="translate(128.203125 38.965625) scale(0.7)"/>
       <use xlink:href="#DejaVuSans-35" transform="translate(186.855469 38.965625) scale(0.7)"/>
      </g>
     </g>
    </g>
    <g id="ytick_4">
     <g id="line2d_19">
      <path d="M 88.4736 192.600187 
L 1050.624 192.600187 
" clip-path="url(#p6b943d8958)" style="fill: none; stroke: #cbcbcb"/>
     </g>
     <g id="line2d_20"/>
     <g id="text_11">
      <!-- $\mathdefault{10^{-3}}$ -->
      <g transform="translate(52.0736 197.919093) scale(0.14 -0.14)">
       <defs>
        <path id="DejaVuSans-33" d="M 2597 2516 
Q 3050 2419 3304 2112 
Q 3559 1806 3559 1356 
Q 3559 666 3084 287 
Q 2609 -91 1734 -91 
Q 1441 -91 1130 -33 
Q 819 25 488 141 
L 488 750 
Q 750 597 1062 519 
Q 1375 441 1716 441 
Q 2309 441 2620 675 
Q 2931 909 2931 1356 
Q 2931 1769 2642 2001 
Q 2353 2234 1838 2234 
L 1294 2234 
L 1294 2753 
L 1863 2753 
Q 2328 2753 2575 2939 
Q 2822 3125 2822 3475 
Q 2822 3834 2567 4026 
Q 2313 4219 1838 4219 
Q 1578 4219 1281 4162 
Q 984 4106 628 3988 
L 628 4550 
Q 988 4650 1302 4700 
Q 1616 4750 1894 4750 
Q 2613 4750 3031 4423 
Q 3450 4097 3450 3541 
Q 3450 3153 3228 2886 
Q 3006 2619 2597 2516 
z
" transform="scale(0.015625)"/>
       </defs>
       <use xlink:href="#DejaVuSans-31" transform="translate(0 0.765625)"/>
       <use xlink:href="#DejaVuSans-30" transform="translate(63.623047 0.765625)"/>
       <use xlink:href="#DejaVuSans-2212" transform="translate(128.203125 39.046875) scale(0.7)"/>
       <use xlink:href="#DejaVuSans-33" transform="translate(186.855469 39.046875) scale(0.7)"/>
      </g>
     </g>
    </g>
    <g id="ytick_5">
     <g id="line2d_21">
      <path d="M 88.4736 108.85494 
L 1050.624 108.85494 
" clip-path="url(#p6b943d8958)" style="fill: none; stroke: #cbcbcb"/>
     </g>
     <g id="line2d_22"/>
     <g id="text_12">
      <!-- $\mathdefault{10^{-1}}$ -->
      <g transform="translate(52.0736 114.173847) scale(0.14 -0.14)">
       <use xlink:href="#DejaVuSans-31" transform="translate(0 0.684375)"/>
       <use xlink:href="#DejaVuSans-30" transform="translate(63.623047 0.684375)"/>
       <use xlink:href="#DejaVuSans-2212" transform="translate(128.203125 38.965625) scale(0.7)"/>
       <use xlink:href="#DejaVuSans-31" transform="translate(186.855469 38.965625) scale(0.7)"/>
      </g>
     </g>
    </g>
    <g id="text_13">
     <!-- ||y_k-1 - y_k|| -->
     <g transform="translate(44.112475 341.298825) rotate(-90) scale(0.168 -0.168)">
      <defs>
       <path id="DejaVuSans-7c" d="M 1344 4891 
L 1344 -1509 
L 813 -1509 
L 813 4891 
L 1344 4891 
z
" transform="scale(0.015625)"/>
       <path id="DejaVuSans-79" d="M 2059 -325 
Q 1816 -950 1584 -1140 
Q 1353 -1331 966 -1331 
L 506 -1331 
L 506 -850 
L 844 -850 
Q 1081 -850 1212 -737 
Q 1344 -625 1503 -206 
L 1606 56 
L 191 3500 
L 800 3500 
L 1894 763 
L 2988 3500 
L 3597 3500 
L 2059 -325 
z
" transform="scale(0.015625)"/>
       <path id="DejaVuSans-5f" d="M 3263 -1063 
L 3263 -1509 
L -63 -1509 
L -63 -1063 
L 3263 -1063 
z
" transform="scale(0.015625)"/>
       <path id="DejaVuSans-2d" d="M 313 2009 
L 1997 2009 
L 1997 1497 
L 313 1497 
L 313 2009 
z
" transform="scale(0.015625)"/>
       <path id="DejaVuSans-20" transform="scale(0.015625)"/>
      </defs>
      <use xlink:href="#DejaVuSans-7c"/>
      <use xlink:href="#DejaVuSans-7c" x="33.691406"/>
      <use xlink:href="#DejaVuSans-79" x="67.382812"/>
      <use xlink:href="#DejaVuSans-5f" x="126.5625"/>
      <use xlink:href="#DejaVuSans-6b" x="176.5625"/>
      <use xlink:href="#DejaVuSans-2d" x="234.472656"/>
      <use xlink:href="#DejaVuSans-31" x="270.556641"/>
      <use xlink:href="#DejaVuSans-20" x="334.179688"/>
      <use xlink:href="#DejaVuSans-2d" x="365.966797"/>
      <use xlink:href="#DejaVuSans-20" x="402.050781"/>
      <use xlink:href="#DejaVuSans-79" x="433.837891"/>
      <use xlink:href="#DejaVuSans-5f" x="493.017578"/>
      <use xlink:href="#DejaVuSans-6b" x="543.017578"/>
      <use xlink:href="#DejaVuSans-7c" x="600.927734"/>
      <use xlink:href="#DejaVuSans-7c" x="634.619141"/>
     </g>
    </g>
   </g>
   <g id="line2d_23">
    <path d="M 132.207709 85.178618 
L 139.948259 113.084476 
L 147.68881 124.478657 
L 155.42936 133.107859 
L 163.16991 141.083277 
L 170.91046 148.556249 
L 178.651011 155.374364 
L 186.391561 161.408301 
L 194.132111 166.647207 
L 201.872662 171.205895 
L 209.613212 175.262174 
L 217.353762 178.986493 
L 225.094312 182.507451 
L 232.834863 185.909591 
L 240.575413 189.244238 
L 248.315963 192.541162 
L 256.056514 195.817195 
L 263.797064 199.08172 
L 271.537614 202.339924 
L 279.278164 205.594663 
L 287.018715 208.847504 
L 294.759265 212.099309 
L 302.499815 215.350546 
L 310.240366 218.601474 
L 317.980916 221.852233 
L 325.721466 225.1029 
L 333.462016 228.353518 
L 341.202567 231.604108 
L 348.943117 234.854684 
L 356.683667 238.105252 
L 364.424218 241.355816 
L 372.164768 244.606378 
L 379.905318 247.856939 
L 387.645868 251.107498 
L 395.386419 254.358058 
L 403.126969 257.608618 
L 410.867519 260.859177 
L 418.60807 264.109736 
L 426.34862 267.360296 
L 434.08917 270.610855 
L 441.82972 273.861414 
L 449.570271 277.111974 
L 457.310821 280.362533 
L 465.051371 283.613093 
L 472.791921 286.863652 
L 480.532472 290.114211 
L 488.273022 293.364771 
L 496.013572 296.61533 
L 503.754123 299.865889 
L 511.494673 303.116449 
L 519.235223 306.367008 
L 526.975773 309.617568 
L 534.716324 312.868127 
L 542.456874 316.118686 
L 550.197424 319.369246 
L 557.937975 322.619805 
L 565.678525 325.870364 
L 573.419075 329.120924 
L 581.159625 332.371483 
L 588.900176 335.622043 
L 596.640726 338.872602 
L 604.381276 342.123161 
L 612.121827 345.373721 
L 619.862377 348.62428 
L 627.602927 351.874839 
L 635.343477 355.125399 
L 643.084028 358.375958 
L 650.824578 361.626518 
L 658.565128 364.877077 
L 666.305679 368.127636 
L 674.046229 371.378196 
L 681.786779 374.628755 
L 689.527329 377.879314 
L 697.26788 381.129874 
L 705.00843 384.380433 
L 712.74898 387.630993 
L 720.48953 390.881552 
L 728.230081 394.132111 
L 735.970631 397.382671 
L 743.711181 400.63323 
L 751.451732 403.88379 
L 759.192282 407.134349 
L 766.932832 410.384908 
L 774.673382 413.635468 
L 782.413933 416.886027 
L 790.154483 420.136586 
L 797.895033 423.387146 
L 805.635584 426.637705 
L 813.376134 429.888264 
L 821.116684 433.138824 
L 828.857234 436.389383 
L 836.597785 439.639943 
L 844.338335 442.890503 
L 852.078885 446.141061 
L 859.819436 449.391621 
L 867.559986 452.642179 
L 875.300536 455.89274 
L 883.041086 459.143299 
L 890.781637 462.393858 
L 898.522187 465.644418 
L 906.262737 468.894973 
L 914.003288 472.145535 
L 921.743838 475.39609 
L 929.484388 478.646659 
L 937.224938 481.897215 
L 944.965489 485.147782 
" clip-path="url(#p6b943d8958)" style="fill: none; stroke: #008fd5; stroke-width: 4"/>
   </g>
   <g id="line2d_24">
    <path d="M 132.207709 87.508943 
L 139.948259 130.239855 
L 147.68881 143.737301 
L 155.42936 149.955135 
L 163.16991 154.50653 
L 170.91046 158.499287 
L 178.651011 162.179187 
L 186.391561 165.672949 
L 194.132111 169.058995 
L 201.872662 172.384222 
L 209.613212 175.675638 
L 217.353762 178.948433 
L 225.094312 182.211036 
L 232.834863 185.468087 
L 240.575413 188.722124 
L 248.315963 191.974533 
L 256.056514 195.226066 
L 263.797064 198.477131 
L 271.537614 201.727948 
L 279.278164 204.978635 
L 287.018715 208.229255 
L 294.759265 211.47984 
L 302.499815 214.730409 
L 310.240366 217.980971 
L 317.980916 221.231529 
L 325.721466 224.482086 
L 333.462016 227.732643 
L 341.202567 230.983201 
L 348.943117 234.233758 
L 356.683667 237.484316 
L 364.424218 240.734875 
L 372.164768 243.985433 
L 379.905318 247.235992 
L 387.645868 250.486551 
L 395.386419 253.73711 
L 403.126969 256.98767 
L 410.867519 260.238229 
L 418.60807 263.488788 
L 426.34862 266.739347 
L 434.08917 269.989907 
L 441.82972 273.240466 
L 449.570271 276.491025 
L 457.310821 279.741585 
L 465.051371 282.992144 
L 472.791921 286.242704 
L 480.532472 289.493263 
L 488.273022 292.743822 
L 496.013572 295.994382 
L 503.754123 299.244941 
L 511.494673 302.4955 
L 519.235223 305.74606 
L 526.975773 308.996619 
L 534.716324 312.247179 
L 542.456874 315.497738 
L 550.197424 318.748297 
L 557.937975 321.998857 
L 565.678525 325.249416 
L 573.419075 328.499975 
L 581.159625 331.750535 
L 588.900176 335.001094 
L 596.640726 338.251654 
L 604.381276 341.502213 
L 612.121827 344.752772 
L 619.862377 348.003332 
L 627.602927 351.253891 
L 635.343477 354.50445 
L 643.084028 357.75501 
L 650.824578 361.005569 
L 658.565128 364.256129 
L 666.305679 367.506688 
L 674.046229 370.757247 
L 681.786779 374.007807 
L 689.527329 377.258366 
L 697.26788 380.508925 
L 705.00843 383.759485 
L 712.74898 387.010044 
L 720.48953 390.260604 
L 728.230081 393.511163 
L 735.970631 396.761722 
L 743.711181 400.012282 
L 751.451732 403.262841 
L 759.192282 406.5134 
L 766.932832 409.76396 
L 774.673382 413.014519 
L 782.413933 416.265079 
L 790.154483 419.515638 
L 797.895033 422.766197 
L 805.635584 426.016757 
L 813.376134 429.267316 
L 821.116684 432.517875 
L 828.857234 435.768435 
L 836.597785 439.018994 
L 844.338335 442.269554 
L 852.078885 445.520113 
L 859.819436 448.770672 
L 867.559986 452.021232 
L 875.300536 455.271792 
L 883.041086 458.522352 
L 890.781637 461.772908 
L 898.522187 465.023471 
L 906.262737 468.274029 
L 914.003288 471.524588 
L 921.743838 474.775148 
L 929.484388 478.025706 
L 937.224938 481.276265 
L 944.965489 484.526834 
" clip-path="url(#p6b943d8958)" style="fill: none; stroke: #fc4f30; stroke-width: 4"/>
   </g>
   <g id="line2d_25">
    <path d="M 132.207709 107.323413 
L 139.948259 119.754049 
L 147.68881 122.974405 
L 155.42936 126.122522 
L 163.16991 129.258723 
L 170.91046 132.405243 
L 178.651011 135.569622 
L 186.391561 138.75251 
L 194.132111 141.951685 
L 201.872662 145.164091 
L 209.613212 148.386758 
L 217.353762 151.61715 
L 225.094312 154.853244 
L 232.834863 158.093491 
L 240.575413 161.336731 
L 248.315963 164.582112 
L 256.056514 167.829018 
L 263.797064 171.077005 
L 271.537614 174.325755 
L 279.278164 177.575044 
L 287.018715 180.824712 
L 294.759265 184.074646 
L 302.499815 187.324768 
L 310.240366 190.57502 
L 317.980916 193.825365 
L 325.721466 197.075774 
L 333.462016 200.326228 
L 341.202567 203.576714 
L 348.943117 206.827222 
L 356.683667 210.077745 
L 364.424218 213.328279 
L 372.164768 216.578821 
L 379.905318 219.829368 
L 387.645868 223.079918 
L 395.386419 226.330472 
L 403.126969 229.581027 
L 410.867519 232.831583 
L 418.60807 236.082141 
L 426.34862 239.332699 
L 434.08917 242.583257 
L 441.82972 245.833816 
L 449.570271 249.084375 
L 457.310821 252.334934 
L 465.051371 255.585493 
L 472.791921 258.836052 
L 480.532472 262.086611 
L 488.273022 265.337171 
L 496.013572 268.58773 
L 503.754123 271.838289 
L 511.494673 275.088849 
L 519.235223 278.339408 
L 526.975773 281.589967 
L 534.716324 284.840527 
L 542.456874 288.091086 
L 550.197424 291.341645 
L 557.937975 294.592205 
L 565.678525 297.842764 
L 573.419075 301.093323 
L 581.159625 304.343883 
L 588.900176 307.594442 
L 596.640726 310.845002 
L 604.381276 314.095561 
L 612.121827 317.34612 
L 619.862377 320.59668 
L 627.602927 323.847239 
L 635.343477 327.097799 
L 643.084028 330.348358 
L 650.824578 333.598917 
L 658.565128 336.849477 
L 666.305679 340.100036 
L 674.046229 343.350595 
L 681.786779 346.601155 
L 689.527329 349.851714 
L 697.26788 353.102274 
L 705.00843 356.352833 
L 712.74898 359.603392 
L 720.48953 362.853952 
L 728.230081 366.104511 
L 735.970631 369.35507 
L 743.711181 372.60563 
L 751.451732 375.856189 
L 759.192282 379.106749 
L 766.932832 382.357308 
L 774.673382 385.607867 
L 782.413933 388.858427 
L 790.154483 392.108986 
L 797.895033 395.359545 
L 805.635584 398.610105 
L 813.376134 401.860664 
L 821.116684 405.111224 
L 828.857234 408.361783 
L 836.597785 411.612342 
L 844.338335 414.862902 
L 852.078885 418.113461 
L 859.819436 421.36402 
L 867.559986 424.61458 
L 875.300536 427.865139 
L 883.041086 431.115699 
L 890.781637 434.366258 
L 898.522187 437.616817 
L 906.262737 440.867377 
L 914.003288 444.117938 
L 921.743838 447.368496 
L 929.484388 450.619055 
L 937.224938 453.869614 
L 944.965489 457.120174 
L 952.706039 460.370733 
L 960.446589 463.621291 
L 968.18714 466.871851 
L 975.92769 470.122412 
L 983.66824 473.37297 
L 991.40879 476.623532 
L 999.149341 479.874084 
L 1006.889891 483.124651 
" clip-path="url(#p6b943d8958)" style="fill: none; stroke: #e5ae38; stroke-width: 4"/>
   </g>
   <g id="line2d_26">
    <path d="M 132.207709 96.39301 
L 139.948259 127.095791 
L 147.68881 130.297392 
L 155.42936 133.397531 
L 163.16991 136.533572 
L 170.91046 139.702529 
L 178.651011 142.895444 
L 186.391561 146.1054 
L 194.132111 149.327413 
L 201.872662 152.557928 
L 209.613212 155.794427 
L 217.353762 159.035131 
L 225.094312 162.278785 
L 232.834863 165.524509 
L 240.575413 168.771683 
L 248.315963 172.019873 
L 256.056514 175.268774 
L 263.797064 178.518173 
L 271.537614 181.76792 
L 279.278164 185.017912 
L 287.018715 188.268074 
L 294.759265 191.518355 
L 302.499815 194.76872 
L 310.240366 198.019144 
L 317.980916 201.269608 
L 325.721466 204.520101 
L 333.462016 207.770614 
L 341.202567 211.021141 
L 348.943117 214.271677 
L 356.683667 217.522221 
L 364.424218 220.772769 
L 372.164768 224.02332 
L 379.905318 227.273874 
L 387.645868 230.52443 
L 395.386419 233.774987 
L 403.126969 237.025544 
L 410.867519 240.276102 
L 418.60807 243.526661 
L 426.34862 246.777219 
L 434.08917 250.027778 
L 441.82972 253.278337 
L 449.570271 256.528897 
L 457.310821 259.779456 
L 465.051371 263.030015 
L 472.791921 266.280574 
L 480.532472 269.531134 
L 488.273022 272.781693 
L 496.013572 276.032252 
L 503.754123 279.282812 
L 511.494673 282.533371 
L 519.235223 285.783931 
L 526.975773 289.03449 
L 534.716324 292.285049 
L 542.456874 295.535609 
L 550.197424 298.786168 
L 557.937975 302.036727 
L 565.678525 305.287287 
L 573.419075 308.537846 
L 581.159625 311.788406 
L 588.900176 315.038965 
L 596.640726 318.289524 
L 604.381276 321.540084 
L 612.121827 324.790643 
L 619.862377 328.041202 
L 627.602927 331.291762 
L 635.343477 334.542321 
L 643.084028 337.792881 
L 650.824578 341.04344 
L 658.565128 344.293999 
L 666.305679 347.544559 
L 674.046229 350.795118 
L 681.786779 354.045677 
L 689.527329 357.296237 
L 697.26788 360.546796 
L 705.00843 363.797356 
L 712.74898 367.047915 
L 720.48953 370.298474 
L 728.230081 373.549034 
L 735.970631 376.799593 
L 743.711181 380.050152 
L 751.451732 383.300712 
L 759.192282 386.551271 
L 766.932832 389.801831 
L 774.673382 393.05239 
L 782.413933 396.302949 
L 790.154483 399.553509 
L 797.895033 402.804068 
L 805.635584 406.054628 
L 813.376134 409.305187 
L 821.116684 412.555746 
L 828.857234 415.806306 
L 836.597785 419.056865 
L 844.338335 422.307424 
L 852.078885 425.557984 
L 859.819436 428.808543 
L 867.559986 432.059103 
L 875.300536 435.309662 
L 883.041086 438.560222 
L 890.781637 441.810782 
L 898.522187 445.06134 
L 906.262737 448.311899 
L 914.003288 451.562459 
L 921.743838 454.813018 
L 929.484388 458.06358 
L 937.224938 461.314136 
L 944.965489 464.564695 
L 952.706039 467.815254 
L 960.446589 471.065817 
L 968.18714 474.316373 
L 975.92769 477.566936 
L 983.66824 480.817502 
L 991.40879 484.068051 
" clip-path="url(#p6b943d8958)" style="fill: none; stroke: #6d904f; stroke-width: 4"/>
   </g>
   <g id="line2d_27">
    <path d="M 132.207709 93.715605 
L 139.948259 112.506445 
L 147.68881 120.183272 
L 155.42936 127.280386 
L 163.16991 133.731902 
L 170.91046 139.419009 
L 178.651011 144.360856 
L 186.391561 148.694771 
L 194.132111 152.598106 
L 201.872662 156.225816 
L 209.613212 159.688437 
L 217.353762 163.056172 
L 225.094312 166.370714 
L 232.834863 169.655893 
L 240.575413 172.925027 
L 248.315963 176.185462 
L 256.056514 179.441212 
L 263.797064 182.694459 
L 271.537614 185.946381 
L 279.278164 189.197609 
L 287.018715 192.448481 
L 294.759265 195.699174 
L 302.499815 198.949779 
L 310.240366 202.200346 
L 317.980916 205.450896 
L 325.721466 208.701441 
L 333.462016 211.951986 
L 341.202567 215.202533 
L 348.943117 218.453083 
L 356.683667 221.703635 
L 364.424218 224.954189 
L 372.164768 228.204744 
L 379.905318 231.4553 
L 387.645868 234.705857 
L 395.386419 237.956415 
L 403.126969 241.206973 
L 410.867519 244.457532 
L 418.60807 247.708091 
L 426.34862 250.95865 
L 434.08917 254.209209 
L 441.82972 257.459768 
L 449.570271 260.710327 
L 457.310821 263.960887 
L 465.051371 267.211446 
L 472.791921 270.462005 
L 480.532472 273.712565 
L 488.273022 276.963124 
L 496.013572 280.213683 
L 503.754123 283.464243 
L 511.494673 286.714802 
L 519.235223 289.965362 
L 526.975773 293.215921 
L 534.716324 296.46648 
L 542.456874 299.71704 
L 550.197424 302.967599 
L 557.937975 306.218158 
L 565.678525 309.468718 
L 573.419075 312.719277 
L 581.159625 315.969837 
L 588.900176 319.220396 
L 596.640726 322.470955 
L 604.381276 325.721515 
L 612.121827 328.972074 
L 619.862377 332.222633 
L 627.602927 335.473193 
L 635.343477 338.723752 
L 643.084028 341.974312 
L 650.824578 345.224871 
L 658.565128 348.47543 
L 666.305679 351.72599 
L 674.046229 354.976549 
L 681.786779 358.227109 
L 689.527329 361.477668 
L 697.26788 364.728227 
L 705.00843 367.978787 
L 712.74898 371.229346 
L 720.48953 374.479905 
L 728.230081 377.730465 
L 735.970631 380.981024 
L 743.711181 384.231584 
L 751.451732 387.482143 
L 759.192282 390.732702 
L 766.932832 393.983262 
L 774.673382 397.233821 
L 782.413933 400.48438 
L 790.154483 403.73494 
L 797.895033 406.985499 
L 805.635584 410.236059 
L 813.376134 413.486618 
L 821.116684 416.737177 
L 828.857234 419.987737 
L 836.597785 423.238296 
L 844.338335 426.488855 
L 852.078885 429.739415 
L 859.819436 432.989974 
L 867.559986 436.240534 
L 875.300536 439.491093 
L 883.041086 442.741652 
L 890.781637 445.992211 
L 898.522187 449.242771 
L 906.262737 452.493332 
L 914.003288 455.743891 
L 921.743838 458.994448 
L 929.484388 462.245009 
L 937.224938 465.495568 
L 944.965489 468.746127 
L 952.706039 471.996688 
L 960.446589 475.247244 
L 968.18714 478.497808 
L 975.92769 481.748362 
L 983.66824 484.998926 
" clip-path="url(#p6b943d8958)" style="fill: none; stroke: #8b8b8b; stroke-width: 4"/>
   </g>
   <g id="patch_3">
    <path d="M 88.4736 505.14624 
L 88.4736 65.18016 
" style="fill: none; stroke: #f0f0f0; stroke-width: 3; stroke-linejoin: miter; stroke-linecap: square"/>
   </g>
   <g id="patch_4">
    <path d="M 1050.624 505.14624 
L 1050.624 65.18016 
" style="fill: none; stroke: #f0f0f0; stroke-width: 3; stroke-linejoin: miter; stroke-linecap: square"/>
   </g>
   <g id="patch_5">
    <path d="M 88.4736 505.14624 
L 1050.624 505.14624 
" style="fill: none; stroke: #f0f0f0; stroke-width: 3; stroke-linejoin: miter; stroke-linecap: square"/>
   </g>
   <g id="patch_6">
    <path d="M 88.4736 65.18016 
L 1050.624 65.18016 
" style="fill: none; stroke: #f0f0f0; stroke-width: 3; stroke-linejoin: miter; stroke-linecap: square"/>
   </g>
  </g>
 </g>
 <defs>
  <clipPath id="p6b943d8958">
   <rect x="88.4736" y="65.18016" width="962.1504" height="439.96608"/>
  </clipPath>
 </defs>
</svg>
