<?xml version="1.0" encoding="utf-8" standalone="no"?>
<!DOCTYPE svg PUBLIC "-//W3C//DTD SVG 1.1//EN"
  "http://www.w3.org/Graphics/SVG/1.1/DTD/svg11.dtd">
<svg xmlns:xlink="http://www.w3.org/1999/xlink" width="1105.92pt" height="543.168pt" viewBox="0 0 1105.92 543.168" xmlns="http://www.w3.org/2000/svg" version="1.1">
 <metadata>
  <rdf:RDF xmlns:dc="http://purl.org/dc/elements/1.1/" xmlns:cc="http://creativecommons.org/ns#" xmlns:rdf="http://www.w3.org/1999/02/22-rdf-syntax-ns#">
   <cc:Work>
    <dc:type rdf:resource="http://purl.org/dc/dcmitype/StillImage"/>
    <dc:date>2023-12-12T17:21:12.006434</dc:date>
    <dc:format>image/svg+xml</dc:format>
    <dc:creator>
     <cc:Agent>
      <dc:title>Matplotlib v3.8.0, https://matplotlib.org/</dc:title>
     </cc:Agent>
    </dc:creator>
   </cc:Work>
  </rdf:RDF>
 </metadata>
 <defs>
  <style type="text/css">*{stroke-linejoin: round; stroke-linecap: butt}</style>
 </defs>
 <g id="figure_1">
  <g id="patch_1">
   <path d="M 0 543.168 
L 1105.92 543.168 
L 1105.92 0 
L 0 0 
z
" style="fill: #f0f0f0"/>
  </g>
  <g id="axes_1">
   <g id="patch_2">
    <path d="M 48.449829 505.14624 
L 1036.405029 505.14624 
L 1036.405029 65.18016 
L 48.449829 65.18016 
z
" style="fill: #f0f0f0"/>
   </g>
   <g id="matplotlib.axis_1">
    <g id="xtick_1">
     <g id="line2d_1">
      <path d="M 93.356883 505.14624 
L 93.356883 65.18016 
" clip-path="url(#paffa366afb)" style="fill: none; stroke: #cbcbcb"/>
     </g>
     <g id="line2d_2"/>
     <g id="text_1">
      <!-- 0 -->
      <g transform="translate(88.903133 519.284053) scale(0.14 -0.14)">
       <defs>
        <path id="DejaVuSans-30" d="M 2034 4250 
Q 1547 4250 1301 3770 
Q 1056 3291 1056 2328 
Q 1056 1369 1301 889 
Q 1547 409 2034 409 
Q 2525 409 2770 889 
Q 3016 1369 3016 2328 
Q 3016 3291 2770 3770 
Q 2525 4250 2034 4250 
z
M 2034 4750 
Q 2819 4750 3233 4129 
Q 3647 3509 3647 2328 
Q 3647 1150 3233 529 
Q 2819 -91 2034 -91 
Q 1250 -91 836 529 
Q 422 1150 422 2328 
Q 422 3509 836 4129 
Q 1250 4750 2034 4750 
z
" transform="scale(0.015625)"/>
       </defs>
       <use xlink:href="#DejaVuSans-30"/>
      </g>
     </g>
    </g>
    <g id="xtick_2">
     <g id="line2d_3">
      <path d="M 223.522259 505.14624 
L 223.522259 65.18016 
" clip-path="url(#paffa366afb)" style="fill: none; stroke: #cbcbcb"/>
     </g>
     <g id="line2d_4"/>
     <g id="text_2">
      <!-- 10 -->
      <g transform="translate(214.614759 519.284053) scale(0.14 -0.14)">
       <defs>
        <path id="DejaVuSans-31" d="M 794 531 
L 1825 531 
L 1825 4091 
L 703 3866 
L 703 4441 
L 1819 4666 
L 2450 4666 
L 2450 531 
L 3481 531 
L 3481 0 
L 794 0 
L 794 531 
z
" transform="scale(0.015625)"/>
       </defs>
       <use xlink:href="#DejaVuSans-31"/>
       <use xlink:href="#DejaVuSans-30" x="63.623047"/>
      </g>
     </g>
    </g>
    <g id="xtick_3">
     <g id="line2d_5">
      <path d="M 353.687634 505.14624 
L 353.687634 65.18016 
" clip-path="url(#paffa366afb)" style="fill: none; stroke: #cbcbcb"/>
     </g>
     <g id="line2d_6"/>
     <g id="text_3">
      <!-- 20 -->
      <g transform="translate(344.780134 519.284053) scale(0.14 -0.14)">
       <defs>
        <path id="DejaVuSans-32" d="M 1228 531 
L 3431 531 
L 3431 0 
L 469 0 
L 469 531 
Q 828 903 1448 1529 
Q 2069 2156 2228 2338 
Q 2531 2678 2651 2914 
Q 2772 3150 2772 3378 
Q 2772 3750 2511 3984 
Q 2250 4219 1831 4219 
Q 1534 4219 1204 4116 
Q 875 4013 500 3803 
L 500 4441 
Q 881 4594 1212 4672 
Q 1544 4750 1819 4750 
Q 2544 4750 2975 4387 
Q 3406 4025 3406 3419 
Q 3406 3131 3298 2873 
Q 3191 2616 2906 2266 
Q 2828 2175 2409 1742 
Q 1991 1309 1228 531 
z
" transform="scale(0.015625)"/>
       </defs>
       <use xlink:href="#DejaVuSans-32"/>
       <use xlink:href="#DejaVuSans-30" x="63.623047"/>
      </g>
     </g>
    </g>
    <g id="xtick_4">
     <g id="line2d_7">
      <path d="M 483.85301 505.14624 
L 483.85301 65.18016 
" clip-path="url(#paffa366afb)" style="fill: none; stroke: #cbcbcb"/>
     </g>
     <g id="line2d_8"/>
     <g id="text_4">
      <!-- 30 -->
      <g transform="translate(474.94551 519.284053) scale(0.14 -0.14)">
       <defs>
        <path id="DejaVuSans-33" d="M 2597 2516 
Q 3050 2419 3304 2112 
Q 3559 1806 3559 1356 
Q 3559 666 3084 287 
Q 2609 -91 1734 -91 
Q 1441 -91 1130 -33 
Q 819 25 488 141 
L 488 750 
Q 750 597 1062 519 
Q 1375 441 1716 441 
Q 2309 441 2620 675 
Q 2931 909 2931 1356 
Q 2931 1769 2642 2001 
Q 2353 2234 1838 2234 
L 1294 2234 
L 1294 2753 
L 1863 2753 
Q 2328 2753 2575 2939 
Q 2822 3125 2822 3475 
Q 2822 3834 2567 4026 
Q 2313 4219 1838 4219 
Q 1578 4219 1281 4162 
Q 984 4106 628 3988 
L 628 4550 
Q 988 4650 1302 4700 
Q 1616 4750 1894 4750 
Q 2613 4750 3031 4423 
Q 3450 4097 3450 3541 
Q 3450 3153 3228 2886 
Q 3006 2619 2597 2516 
z
" transform="scale(0.015625)"/>
       </defs>
       <use xlink:href="#DejaVuSans-33"/>
       <use xlink:href="#DejaVuSans-30" x="63.623047"/>
      </g>
     </g>
    </g>
    <g id="xtick_5">
     <g id="line2d_9">
      <path d="M 614.018385 505.14624 
L 614.018385 65.18016 
" clip-path="url(#paffa366afb)" style="fill: none; stroke: #cbcbcb"/>
     </g>
     <g id="line2d_10"/>
     <g id="text_5">
      <!-- 40 -->
      <g transform="translate(605.110885 519.284053) scale(0.14 -0.14)">
       <defs>
        <path id="DejaVuSans-34" d="M 2419 4116 
L 825 1625 
L 2419 1625 
L 2419 4116 
z
M 2253 4666 
L 3047 4666 
L 3047 1625 
L 3713 1625 
L 3713 1100 
L 3047 1100 
L 3047 0 
L 2419 0 
L 2419 1100 
L 313 1100 
L 313 1709 
L 2253 4666 
z
" transform="scale(0.015625)"/>
       </defs>
       <use xlink:href="#DejaVuSans-34"/>
       <use xlink:href="#DejaVuSans-30" x="63.623047"/>
      </g>
     </g>
    </g>
    <g id="xtick_6">
     <g id="line2d_11">
      <path d="M 744.183761 505.14624 
L 744.183761 65.18016 
" clip-path="url(#paffa366afb)" style="fill: none; stroke: #cbcbcb"/>
     </g>
     <g id="line2d_12"/>
     <g id="text_6">
      <!-- 50 -->
      <g transform="translate(735.276261 519.284053) scale(0.14 -0.14)">
       <defs>
        <path id="DejaVuSans-35" d="M 691 4666 
L 3169 4666 
L 3169 4134 
L 1269 4134 
L 1269 2991 
Q 1406 3038 1543 3061 
Q 1681 3084 1819 3084 
Q 2600 3084 3056 2656 
Q 3513 2228 3513 1497 
Q 3513 744 3044 326 
Q 2575 -91 1722 -91 
Q 1428 -91 1123 -41 
Q 819 9 494 109 
L 494 744 
Q 775 591 1075 516 
Q 1375 441 1709 441 
Q 2250 441 2565 725 
Q 2881 1009 2881 1497 
Q 2881 1984 2565 2268 
Q 2250 2553 1709 2553 
Q 1456 2553 1204 2497 
Q 953 2441 691 2322 
L 691 4666 
z
" transform="scale(0.015625)"/>
       </defs>
       <use xlink:href="#DejaVuSans-35"/>
       <use xlink:href="#DejaVuSans-30" x="63.623047"/>
      </g>
     </g>
    </g>
    <g id="xtick_7">
     <g id="line2d_13">
      <path d="M 874.349136 505.14624 
L 874.349136 65.18016 
" clip-path="url(#paffa366afb)" style="fill: none; stroke: #cbcbcb"/>
     </g>
     <g id="line2d_14"/>
     <g id="text_7">
      <!-- 60 -->
      <g transform="translate(865.441636 519.284053) scale(0.14 -0.14)">
       <defs>
        <path id="DejaVuSans-36" d="M 2113 2584 
Q 1688 2584 1439 2293 
Q 1191 2003 1191 1497 
Q 1191 994 1439 701 
Q 1688 409 2113 409 
Q 2538 409 2786 701 
Q 3034 994 3034 1497 
Q 3034 2003 2786 2293 
Q 2538 2584 2113 2584 
z
M 3366 4563 
L 3366 3988 
Q 3128 4100 2886 4159 
Q 2644 4219 2406 4219 
Q 1781 4219 1451 3797 
Q 1122 3375 1075 2522 
Q 1259 2794 1537 2939 
Q 1816 3084 2150 3084 
Q 2853 3084 3261 2657 
Q 3669 2231 3669 1497 
Q 3669 778 3244 343 
Q 2819 -91 2113 -91 
Q 1303 -91 875 529 
Q 447 1150 447 2328 
Q 447 3434 972 4092 
Q 1497 4750 2381 4750 
Q 2619 4750 2861 4703 
Q 3103 4656 3366 4563 
z
" transform="scale(0.015625)"/>
       </defs>
       <use xlink:href="#DejaVuSans-36"/>
       <use xlink:href="#DejaVuSans-30" x="63.623047"/>
      </g>
     </g>
    </g>
    <g id="xtick_8">
     <g id="line2d_15">
      <path d="M 1004.514512 505.14624 
L 1004.514512 65.18016 
" clip-path="url(#paffa366afb)" style="fill: none; stroke: #cbcbcb"/>
     </g>
     <g id="line2d_16"/>
     <g id="text_8">
      <!-- 70 -->
      <g transform="translate(995.607012 519.284053) scale(0.14 -0.14)">
       <defs>
        <path id="DejaVuSans-37" d="M 525 4666 
L 3525 4666 
L 3525 4397 
L 1831 0 
L 1172 0 
L 2766 4134 
L 525 4134 
L 525 4666 
z
" transform="scale(0.015625)"/>
       </defs>
       <use xlink:href="#DejaVuSans-37"/>
       <use xlink:href="#DejaVuSans-30" x="63.623047"/>
      </g>
     </g>
    </g>
    <g id="text_9">
     <!-- i -->
     <g transform="translate(540.093804 538.96099) scale(0.168 -0.168)">
      <defs>
       <path id="DejaVuSans-69" d="M 603 3500 
L 1178 3500 
L 1178 0 
L 603 0 
L 603 3500 
z
M 603 4863 
L 1178 4863 
L 1178 4134 
L 603 4134 
L 603 4863 
z
" transform="scale(0.015625)"/>
      </defs>
      <use xlink:href="#DejaVuSans-69"/>
     </g>
    </g>
   </g>
   <g id="matplotlib.axis_2">
    <g id="ytick_1">
     <g id="line2d_17">
      <path d="M 48.449829 489.226929 
L 1036.405029 489.226929 
" clip-path="url(#paffa366afb)" style="fill: none; stroke: #cbcbcb"/>
     </g>
     <g id="line2d_18"/>
     <g id="text_10">
      <!-- 2 -->
      <g transform="translate(36.042329 494.545835) scale(0.14 -0.14)">
       <use xlink:href="#DejaVuSans-32"/>
      </g>
     </g>
    </g>
    <g id="ytick_2">
     <g id="line2d_19">
      <path d="M 48.449829 437.040445 
L 1036.405029 437.040445 
" clip-path="url(#paffa366afb)" style="fill: none; stroke: #cbcbcb"/>
     </g>
     <g id="line2d_20"/>
     <g id="text_11">
      <!-- 3 -->
      <g transform="translate(36.042329 442.359351) scale(0.14 -0.14)">
       <use xlink:href="#DejaVuSans-33"/>
      </g>
     </g>
    </g>
    <g id="ytick_3">
     <g id="line2d_21">
      <path d="M 48.449829 384.85396 
L 1036.405029 384.85396 
" clip-path="url(#paffa366afb)" style="fill: none; stroke: #cbcbcb"/>
     </g>
     <g id="line2d_22"/>
     <g id="text_12">
      <!-- 4 -->
      <g transform="translate(36.042329 390.172866) scale(0.14 -0.14)">
       <use xlink:href="#DejaVuSans-34"/>
      </g>
     </g>
    </g>
    <g id="ytick_4">
     <g id="line2d_23">
      <path d="M 48.449829 332.667476 
L 1036.405029 332.667476 
" clip-path="url(#paffa366afb)" style="fill: none; stroke: #cbcbcb"/>
     </g>
     <g id="line2d_24"/>
     <g id="text_13">
      <!-- 5 -->
      <g transform="translate(36.042329 337.986382) scale(0.14 -0.14)">
       <use xlink:href="#DejaVuSans-35"/>
      </g>
     </g>
    </g>
    <g id="ytick_5">
     <g id="line2d_25">
      <path d="M 48.449829 280.480991 
L 1036.405029 280.480991 
" clip-path="url(#paffa366afb)" style="fill: none; stroke: #cbcbcb"/>
     </g>
     <g id="line2d_26"/>
     <g id="text_14">
      <!-- 6 -->
      <g transform="translate(36.042329 285.799898) scale(0.14 -0.14)">
       <use xlink:href="#DejaVuSans-36"/>
      </g>
     </g>
    </g>
    <g id="ytick_6">
     <g id="line2d_27">
      <path d="M 48.449829 228.294507 
L 1036.405029 228.294507 
" clip-path="url(#paffa366afb)" style="fill: none; stroke: #cbcbcb"/>
     </g>
     <g id="line2d_28"/>
     <g id="text_15">
      <!-- 7 -->
      <g transform="translate(36.042329 233.613413) scale(0.14 -0.14)">
       <use xlink:href="#DejaVuSans-37"/>
      </g>
     </g>
    </g>
    <g id="ytick_7">
     <g id="line2d_29">
      <path d="M 48.449829 176.108023 
L 1036.405029 176.108023 
" clip-path="url(#paffa366afb)" style="fill: none; stroke: #cbcbcb"/>
     </g>
     <g id="line2d_30"/>
     <g id="text_16">
      <!-- 8 -->
      <g transform="translate(36.042329 181.426929) scale(0.14 -0.14)">
       <defs>
        <path id="DejaVuSans-38" d="M 2034 2216 
Q 1584 2216 1326 1975 
Q 1069 1734 1069 1313 
Q 1069 891 1326 650 
Q 1584 409 2034 409 
Q 2484 409 2743 651 
Q 3003 894 3003 1313 
Q 3003 1734 2745 1975 
Q 2488 2216 2034 2216 
z
M 1403 2484 
Q 997 2584 770 2862 
Q 544 3141 544 3541 
Q 544 4100 942 4425 
Q 1341 4750 2034 4750 
Q 2731 4750 3128 4425 
Q 3525 4100 3525 3541 
Q 3525 3141 3298 2862 
Q 3072 2584 2669 2484 
Q 3125 2378 3379 2068 
Q 3634 1759 3634 1313 
Q 3634 634 3220 271 
Q 2806 -91 2034 -91 
Q 1263 -91 848 271 
Q 434 634 434 1313 
Q 434 1759 690 2068 
Q 947 2378 1403 2484 
z
M 1172 3481 
Q 1172 3119 1398 2916 
Q 1625 2713 2034 2713 
Q 2441 2713 2670 2916 
Q 2900 3119 2900 3481 
Q 2900 3844 2670 4047 
Q 2441 4250 2034 4250 
Q 1625 4250 1398 4047 
Q 1172 3844 1172 3481 
z
" transform="scale(0.015625)"/>
       </defs>
       <use xlink:href="#DejaVuSans-38"/>
      </g>
     </g>
    </g>
    <g id="ytick_8">
     <g id="line2d_31">
      <path d="M 48.449829 123.921538 
L 1036.405029 123.921538 
" clip-path="url(#paffa366afb)" style="fill: none; stroke: #cbcbcb"/>
     </g>
     <g id="line2d_32"/>
     <g id="text_17">
      <!-- 9 -->
      <g transform="translate(36.042329 129.240445) scale(0.14 -0.14)">
       <defs>
        <path id="DejaVuSans-39" d="M 703 97 
L 703 672 
Q 941 559 1184 500 
Q 1428 441 1663 441 
Q 2288 441 2617 861 
Q 2947 1281 2994 2138 
Q 2813 1869 2534 1725 
Q 2256 1581 1919 1581 
Q 1219 1581 811 2004 
Q 403 2428 403 3163 
Q 403 3881 828 4315 
Q 1253 4750 1959 4750 
Q 2769 4750 3195 4129 
Q 3622 3509 3622 2328 
Q 3622 1225 3098 567 
Q 2575 -91 1691 -91 
Q 1453 -91 1209 -44 
Q 966 3 703 97 
z
M 1959 2075 
Q 2384 2075 2632 2365 
Q 2881 2656 2881 3163 
Q 2881 3666 2632 3958 
Q 2384 4250 1959 4250 
Q 1534 4250 1286 3958 
Q 1038 3666 1038 3163 
Q 1038 2656 1286 2365 
Q 1534 2075 1959 2075 
z
" transform="scale(0.015625)"/>
       </defs>
       <use xlink:href="#DejaVuSans-39"/>
      </g>
     </g>
    </g>
    <g id="ytick_9">
     <g id="line2d_33">
      <path d="M 48.449829 71.735054 
L 1036.405029 71.735054 
" clip-path="url(#paffa366afb)" style="fill: none; stroke: #cbcbcb"/>
     </g>
     <g id="line2d_34"/>
     <g id="text_18">
      <!-- 10 -->
      <g transform="translate(27.134829 77.05396) scale(0.14 -0.14)">
       <use xlink:href="#DejaVuSans-31"/>
       <use xlink:href="#DejaVuSans-30" x="63.623047"/>
      </g>
     </g>
    </g>
    <g id="text_19">
     <!-- A_i_(j,j) -->
     <g transform="translate(19.173704 315.53445) rotate(-90) scale(0.168 -0.168)">
      <defs>
       <path id="DejaVuSans-41" d="M 2188 4044 
L 1331 1722 
L 3047 1722 
L 2188 4044 
z
M 1831 4666 
L 2547 4666 
L 4325 0 
L 3669 0 
L 3244 1197 
L 1141 1197 
L 716 0 
L 50 0 
L 1831 4666 
z
" transform="scale(0.015625)"/>
       <path id="DejaVuSans-5f" d="M 3263 -1063 
L 3263 -1509 
L -63 -1509 
L -63 -1063 
L 3263 -1063 
z
" transform="scale(0.015625)"/>
       <path id="DejaVuSans-28" d="M 1984 4856 
Q 1566 4138 1362 3434 
Q 1159 2731 1159 2009 
Q 1159 1288 1364 580 
Q 1569 -128 1984 -844 
L 1484 -844 
Q 1016 -109 783 600 
Q 550 1309 550 2009 
Q 550 2706 781 3412 
Q 1013 4119 1484 4856 
L 1984 4856 
z
" transform="scale(0.015625)"/>
       <path id="DejaVuSans-6a" d="M 603 3500 
L 1178 3500 
L 1178 -63 
Q 1178 -731 923 -1031 
Q 669 -1331 103 -1331 
L -116 -1331 
L -116 -844 
L 38 -844 
Q 366 -844 484 -692 
Q 603 -541 603 -63 
L 603 3500 
z
M 603 4863 
L 1178 4863 
L 1178 4134 
L 603 4134 
L 603 4863 
z
" transform="scale(0.015625)"/>
       <path id="DejaVuSans-2c" d="M 750 794 
L 1409 794 
L 1409 256 
L 897 -744 
L 494 -744 
L 750 256 
L 750 794 
z
" transform="scale(0.015625)"/>
       <path id="DejaVuSans-29" d="M 513 4856 
L 1013 4856 
Q 1481 4119 1714 3412 
Q 1947 2706 1947 2009 
Q 1947 1309 1714 600 
Q 1481 -109 1013 -844 
L 513 -844 
Q 928 -128 1133 580 
Q 1338 1288 1338 2009 
Q 1338 2731 1133 3434 
Q 928 4138 513 4856 
z
" transform="scale(0.015625)"/>
      </defs>
      <use xlink:href="#DejaVuSans-41"/>
      <use xlink:href="#DejaVuSans-5f" x="68.408203"/>
      <use xlink:href="#DejaVuSans-69" x="118.408203"/>
      <use xlink:href="#DejaVuSans-5f" x="146.191406"/>
      <use xlink:href="#DejaVuSans-28" x="196.191406"/>
      <use xlink:href="#DejaVuSans-6a" x="235.205078"/>
      <use xlink:href="#DejaVuSans-2c" x="262.988281"/>
      <use xlink:href="#DejaVuSans-6a" x="294.775391"/>
      <use xlink:href="#DejaVuSans-29" x="322.558594"/>
     </g>
    </g>
   </g>
   <g id="line2d_35">
    <path d="M 93.356883 176.108023 
L 106.373421 164.064988 
L 119.389958 154.58432 
L 132.406496 146.10261 
L 145.423033 137.945044 
L 158.439571 129.901371 
L 171.456108 122.090128 
L 184.472646 114.793823 
L 197.489184 108.299648 
L 210.505721 102.792988 
L 223.522259 98.323147 
L 236.538796 94.825466 
L 249.555334 92.167464 
L 262.571871 90.192596 
L 275.588409 88.749894 
L 288.604946 87.708978 
L 301.621484 86.964691 
L 314.638021 86.435934 
L 327.654559 86.06202 
L 340.671097 85.798466 
L 353.687634 85.613127 
L 366.704172 85.483001 
L 379.720709 85.391745 
L 392.737247 85.327799 
L 405.753784 85.283015 
L 418.770322 85.251663 
L 431.786859 85.229721 
L 444.803397 85.214368 
L 457.819935 85.203625 
L 470.836472 85.19611 
L 483.85301 85.190853 
L 496.869547 85.187176 
L 509.886085 85.184604 
L 522.902622 85.182805 
L 535.91916 85.181547 
L 548.935697 85.180666 
L 561.952235 85.180051 
L 574.968772 85.17962 
L 587.98531 85.179319 
L 601.001848 85.179108 
L 614.018385 85.178961 
L 627.034923 85.178858 
L 640.05146 85.178786 
L 653.067998 85.178735 
L 666.084535 85.1787 
L 679.101073 85.178676 
L 692.11761 85.178658 
L 705.134148 85.178646 
L 718.150685 85.178638 
L 731.167223 85.178632 
L 744.183761 85.178628 
L 757.200298 85.178625 
L 770.216836 85.178623 
L 783.233373 85.178621 
L 796.249911 85.17862 
L 809.266448 85.17862 
L 822.282986 85.178619 
L 835.299523 85.178619 
L 848.316061 85.178619 
L 861.332599 85.178619 
L 874.349136 85.178618 
L 887.365674 85.178618 
L 900.382211 85.178618 
L 913.398749 85.178618 
L 926.415286 85.178618 
L 939.431824 85.178618 
L 952.448361 85.178618 
L 965.464899 85.178618 
L 978.481436 85.178618 
L 991.497974 85.178618 
" clip-path="url(#paffa366afb)" style="fill: none; stroke: #008fd5; stroke-width: 4"/>
   </g>
   <g id="line2d_36">
    <path d="M 93.356883 228.294507 
L 106.373421 187.595037 
L 119.389958 160.424614 
L 132.406496 141.862712 
L 145.423033 133.459939 
L 158.439571 132.628945 
L 171.456108 135.96944 
L 184.472646 141.051026 
L 197.489184 146.441941 
L 210.505721 151.391011 
L 223.522259 155.574399 
L 236.538796 158.922689 
L 249.555334 161.501797 
L 262.571871 163.434585 
L 275.588409 164.854675 
L 288.604946 165.883372 
L 301.621484 166.621029 
L 314.638021 167.146178 
L 327.654559 167.518124 
L 340.671097 167.780604 
L 353.687634 167.965357 
L 366.704172 168.095161 
L 379.720709 168.186241 
L 392.737247 168.250091 
L 405.753784 168.294822 
L 418.770322 168.326145 
L 431.786859 168.348071 
L 444.803397 168.363416 
L 457.819935 168.374153 
L 470.836472 168.381666 
L 483.85301 168.386921 
L 496.869547 168.390598 
L 509.886085 168.393169 
L 522.902622 168.394968 
L 535.91916 168.396227 
L 548.935697 168.397107 
L 561.952235 168.397722 
L 574.968772 168.398153 
L 587.98531 168.398454 
L 601.001848 168.398665 
L 614.018385 168.398812 
L 627.034923 168.398915 
L 640.05146 168.398987 
L 653.067998 168.399037 
L 666.084535 168.399073 
L 679.101073 168.399097 
L 692.11761 168.399115 
L 705.134148 168.399127 
L 718.150685 168.399135 
L 731.167223 168.399141 
L 744.183761 168.399145 
L 757.200298 168.399148 
L 770.216836 168.39915 
L 783.233373 168.399151 
L 796.249911 168.399152 
L 809.266448 168.399153 
L 822.282986 168.399154 
L 835.299523 168.399154 
L 848.316061 168.399154 
L 861.332599 168.399154 
L 874.349136 168.399154 
L 887.365674 168.399155 
L 900.382211 168.399155 
L 913.398749 168.399155 
L 926.415286 168.399155 
L 939.431824 168.399155 
L 952.448361 168.399155 
L 965.464899 168.399155 
L 978.481436 168.399155 
L 991.497974 168.399155 
" clip-path="url(#paffa366afb)" style="fill: none; stroke: #fc4f30; stroke-width: 4"/>
   </g>
   <g id="line2d_37">
    <path d="M 93.356883 280.480991 
L 106.373421 203.016302 
L 119.389958 219.551491 
L 132.406496 244.658121 
L 145.423033 261.022323 
L 158.439571 269.875643 
L 171.456108 274.343966 
L 184.472646 276.558403 
L 197.489184 277.661631 
L 210.505721 278.219217 
L 223.522259 278.505669 
L 236.538796 278.65506 
L 249.555334 278.733955 
L 262.571871 278.776034 
L 275.588409 278.798646 
L 288.604946 278.810866 
L 301.621484 278.817496 
L 314.638021 278.821103 
L 327.654559 278.823071 
L 340.671097 278.824145 
L 353.687634 278.824732 
L 366.704172 278.825054 
L 379.720709 278.82523 
L 392.737247 278.825326 
L 405.753784 278.825379 
L 418.770322 278.825408 
L 431.786859 278.825423 
L 444.803397 278.825432 
L 457.819935 278.825437 
L 470.836472 278.825439 
L 483.85301 278.825441 
L 496.869547 278.825442 
L 509.886085 278.825442 
L 522.902622 278.825442 
L 535.91916 278.825442 
L 548.935697 278.825442 
L 561.952235 278.825443 
L 574.968772 278.825443 
L 587.98531 278.825443 
L 601.001848 278.825443 
L 614.018385 278.825443 
L 627.034923 278.825443 
L 640.05146 278.825443 
L 653.067998 278.825443 
L 666.084535 278.825443 
L 679.101073 278.825443 
L 692.11761 278.825443 
L 705.134148 278.825443 
L 718.150685 278.825443 
L 731.167223 278.825443 
L 744.183761 278.825443 
L 757.200298 278.825443 
L 770.216836 278.825443 
L 783.233373 278.825443 
L 796.249911 278.825443 
L 809.266448 278.825443 
L 822.282986 278.825443 
L 835.299523 278.825443 
L 848.316061 278.825443 
L 861.332599 278.825443 
L 874.349136 278.825443 
L 887.365674 278.825443 
L 900.382211 278.825443 
L 913.398749 278.825443 
L 926.415286 278.825443 
L 939.431824 278.825443 
L 952.448361 278.825443 
L 965.464899 278.825443 
L 978.481436 278.825443 
L 991.497974 278.825443 
" clip-path="url(#paffa366afb)" style="fill: none; stroke: #e5ae38; stroke-width: 4"/>
   </g>
   <g id="line2d_38">
    <path d="M 93.356883 332.667476 
L 106.373421 462.87467 
L 119.389958 482.990573 
L 132.406496 484.927554 
L 145.423033 485.123692 
L 158.439571 485.145039 
L 171.456108 485.147463 
L 184.472646 485.147744 
L 197.489184 485.147777 
L 210.505721 485.147781 
L 223.522259 485.147782 
L 236.538796 485.147782 
L 249.555334 485.147782 
L 262.571871 485.147782 
L 275.588409 485.147782 
L 288.604946 485.147782 
L 301.621484 485.147782 
L 314.638021 485.147782 
L 327.654559 485.147782 
L 340.671097 485.147782 
L 353.687634 485.147782 
L 366.704172 485.147782 
L 379.720709 485.147782 
L 392.737247 485.147782 
L 405.753784 485.147782 
L 418.770322 485.147782 
L 431.786859 485.147782 
L 444.803397 485.147782 
L 457.819935 485.147782 
L 470.836472 485.147782 
L 483.85301 485.147782 
L 496.869547 485.147782 
L 509.886085 485.147782 
L 522.902622 485.147782 
L 535.91916 485.147782 
L 548.935697 485.147782 
L 561.952235 485.147782 
L 574.968772 485.147782 
L 587.98531 485.147782 
L 601.001848 485.147782 
L 614.018385 485.147782 
L 627.034923 485.147782 
L 640.05146 485.147782 
L 653.067998 485.147782 
L 666.084535 485.147782 
L 679.101073 485.147782 
L 692.11761 485.147782 
L 705.134148 485.147782 
L 718.150685 485.147782 
L 731.167223 485.147782 
L 744.183761 485.147782 
L 757.200298 485.147782 
L 770.216836 485.147782 
L 783.233373 485.147782 
L 796.249911 485.147782 
L 809.266448 485.147782 
L 822.282986 485.147782 
L 835.299523 485.147782 
L 848.316061 485.147782 
L 861.332599 485.147782 
L 874.349136 485.147782 
L 887.365674 485.147782 
L 900.382211 485.147782 
L 913.398749 485.147782 
L 926.415286 485.147782 
L 939.431824 485.147782 
L 952.448361 485.147782 
L 965.464899 485.147782 
L 978.481436 485.147782 
L 991.497974 485.147782 
" clip-path="url(#paffa366afb)" style="fill: none; stroke: #6d904f; stroke-width: 4"/>
   </g>
   <g id="patch_3">
    <path d="M 48.449829 505.14624 
L 48.449829 65.18016 
" style="fill: none; stroke: #f0f0f0; stroke-width: 3; stroke-linejoin: miter; stroke-linecap: square"/>
   </g>
   <g id="patch_4">
    <path d="M 1036.405029 505.14624 
L 1036.405029 65.18016 
" style="fill: none; stroke: #f0f0f0; stroke-width: 3; stroke-linejoin: miter; stroke-linecap: square"/>
   </g>
   <g id="patch_5">
    <path d="M 48.449829 505.14624 
L 1036.405029 505.14624 
" style="fill: none; stroke: #f0f0f0; stroke-width: 3; stroke-linejoin: miter; stroke-linecap: square"/>
   </g>
   <g id="patch_6">
    <path d="M 48.449829 65.18016 
L 1036.405029 65.18016 
" style="fill: none; stroke: #f0f0f0; stroke-width: 3; stroke-linejoin: miter; stroke-linecap: square"/>
   </g>
  </g>
  <g id="axes_2">
   <g id="matplotlib.axis_3">
    <g id="ytick_10">
     <g id="line2d_39">
      <path d="M 48.449829 466.775289 
L 1036.405029 466.775289 
" clip-path="url(#paffa366afb)" style="fill: none; stroke-dasharray: 3.7,1.6; stroke-dashoffset: 0; stroke: #cbcbcb"/>
     </g>
     <g id="line2d_40"/>
     <g id="text_20">
      <!-- $\mathdefault{10^{-30}}$ -->
      <g transform="translate(1039.905029 472.094195) scale(0.14 -0.14)">
       <defs>
        <path id="DejaVuSans-2212" d="M 678 2272 
L 4684 2272 
L 4684 1741 
L 678 1741 
L 678 2272 
z
" transform="scale(0.015625)"/>
       </defs>
       <use xlink:href="#DejaVuSans-31" transform="translate(0 0.765625)"/>
       <use xlink:href="#DejaVuSans-30" transform="translate(63.623047 0.765625)"/>
       <use xlink:href="#DejaVuSans-2212" transform="translate(128.203125 39.046875) scale(0.7)"/>
       <use xlink:href="#DejaVuSans-33" transform="translate(186.855469 39.046875) scale(0.7)"/>
       <use xlink:href="#DejaVuSans-30" transform="translate(231.391602 39.046875) scale(0.7)"/>
      </g>
     </g>
    </g>
    <g id="ytick_11">
     <g id="line2d_41">
      <path d="M 48.449829 416.692256 
L 1036.405029 416.692256 
" clip-path="url(#paffa366afb)" style="fill: none; stroke-dasharray: 3.7,1.6; stroke-dashoffset: 0; stroke: #cbcbcb"/>
     </g>
     <g id="line2d_42"/>
     <g id="text_21">
      <!-- $\mathdefault{10^{-26}}$ -->
      <g transform="translate(1039.905029 422.011162) scale(0.14 -0.14)">
       <use xlink:href="#DejaVuSans-31" transform="translate(0 0.765625)"/>
       <use xlink:href="#DejaVuSans-30" transform="translate(63.623047 0.765625)"/>
       <use xlink:href="#DejaVuSans-2212" transform="translate(128.203125 39.046875) scale(0.7)"/>
       <use xlink:href="#DejaVuSans-32" transform="translate(186.855469 39.046875) scale(0.7)"/>
       <use xlink:href="#DejaVuSans-36" transform="translate(231.391602 39.046875) scale(0.7)"/>
      </g>
     </g>
    </g>
    <g id="ytick_12">
     <g id="line2d_43">
      <path d="M 48.449829 366.609222 
L 1036.405029 366.609222 
" clip-path="url(#paffa366afb)" style="fill: none; stroke-dasharray: 3.7,1.6; stroke-dashoffset: 0; stroke: #cbcbcb"/>
     </g>
     <g id="line2d_44"/>
     <g id="text_22">
      <!-- $\mathdefault{10^{-22}}$ -->
      <g transform="translate(1039.905029 371.928128) scale(0.14 -0.14)">
       <use xlink:href="#DejaVuSans-31" transform="translate(0 0.765625)"/>
       <use xlink:href="#DejaVuSans-30" transform="translate(63.623047 0.765625)"/>
       <use xlink:href="#DejaVuSans-2212" transform="translate(128.203125 39.046875) scale(0.7)"/>
       <use xlink:href="#DejaVuSans-32" transform="translate(186.855469 39.046875) scale(0.7)"/>
       <use xlink:href="#DejaVuSans-32" transform="translate(231.391602 39.046875) scale(0.7)"/>
      </g>
     </g>
    </g>
    <g id="ytick_13">
     <g id="line2d_45">
      <path d="M 48.449829 316.526189 
L 1036.405029 316.526189 
" clip-path="url(#paffa366afb)" style="fill: none; stroke-dasharray: 3.7,1.6; stroke-dashoffset: 0; stroke: #cbcbcb"/>
     </g>
     <g id="line2d_46"/>
     <g id="text_23">
      <!-- $\mathdefault{10^{-18}}$ -->
      <g transform="translate(1039.905029 321.845095) scale(0.14 -0.14)">
       <use xlink:href="#DejaVuSans-31" transform="translate(0 0.765625)"/>
       <use xlink:href="#DejaVuSans-30" transform="translate(63.623047 0.765625)"/>
       <use xlink:href="#DejaVuSans-2212" transform="translate(128.203125 39.046875) scale(0.7)"/>
       <use xlink:href="#DejaVuSans-31" transform="translate(186.855469 39.046875) scale(0.7)"/>
       <use xlink:href="#DejaVuSans-38" transform="translate(231.391602 39.046875) scale(0.7)"/>
      </g>
     </g>
    </g>
    <g id="ytick_14">
     <g id="line2d_47">
      <path d="M 48.449829 266.443155 
L 1036.405029 266.443155 
" clip-path="url(#paffa366afb)" style="fill: none; stroke-dasharray: 3.7,1.6; stroke-dashoffset: 0; stroke: #cbcbcb"/>
     </g>
     <g id="line2d_48"/>
     <g id="text_24">
      <!-- $\mathdefault{10^{-14}}$ -->
      <g transform="translate(1039.905029 271.762061) scale(0.14 -0.14)">
       <use xlink:href="#DejaVuSans-31" transform="translate(0 0.684375)"/>
       <use xlink:href="#DejaVuSans-30" transform="translate(63.623047 0.684375)"/>
       <use xlink:href="#DejaVuSans-2212" transform="translate(128.203125 38.965625) scale(0.7)"/>
       <use xlink:href="#DejaVuSans-31" transform="translate(186.855469 38.965625) scale(0.7)"/>
       <use xlink:href="#DejaVuSans-34" transform="translate(231.391602 38.965625) scale(0.7)"/>
      </g>
     </g>
    </g>
    <g id="ytick_15">
     <g id="line2d_49">
      <path d="M 48.449829 216.360122 
L 1036.405029 216.360122 
" clip-path="url(#paffa366afb)" style="fill: none; stroke-dasharray: 3.7,1.6; stroke-dashoffset: 0; stroke: #cbcbcb"/>
     </g>
     <g id="line2d_50"/>
     <g id="text_25">
      <!-- $\mathdefault{10^{-10}}$ -->
      <g transform="translate(1039.905029 221.679028) scale(0.14 -0.14)">
       <use xlink:href="#DejaVuSans-31" transform="translate(0 0.765625)"/>
       <use xlink:href="#DejaVuSans-30" transform="translate(63.623047 0.765625)"/>
       <use xlink:href="#DejaVuSans-2212" transform="translate(128.203125 39.046875) scale(0.7)"/>
       <use xlink:href="#DejaVuSans-31" transform="translate(186.855469 39.046875) scale(0.7)"/>
       <use xlink:href="#DejaVuSans-30" transform="translate(231.391602 39.046875) scale(0.7)"/>
      </g>
     </g>
    </g>
    <g id="ytick_16">
     <g id="line2d_51">
      <path d="M 48.449829 166.277088 
L 1036.405029 166.277088 
" clip-path="url(#paffa366afb)" style="fill: none; stroke-dasharray: 3.7,1.6; stroke-dashoffset: 0; stroke: #cbcbcb"/>
     </g>
     <g id="line2d_52"/>
     <g id="text_26">
      <!-- $\mathdefault{10^{-6}}$ -->
      <g transform="translate(1039.905029 171.595995) scale(0.14 -0.14)">
       <use xlink:href="#DejaVuSans-31" transform="translate(0 0.765625)"/>
       <use xlink:href="#DejaVuSans-30" transform="translate(63.623047 0.765625)"/>
       <use xlink:href="#DejaVuSans-2212" transform="translate(128.203125 39.046875) scale(0.7)"/>
       <use xlink:href="#DejaVuSans-36" transform="translate(186.855469 39.046875) scale(0.7)"/>
      </g>
     </g>
    </g>
    <g id="ytick_17">
     <g id="line2d_53">
      <path d="M 48.449829 116.194055 
L 1036.405029 116.194055 
" clip-path="url(#paffa366afb)" style="fill: none; stroke-dasharray: 3.7,1.6; stroke-dashoffset: 0; stroke: #cbcbcb"/>
     </g>
     <g id="line2d_54"/>
     <g id="text_27">
      <!-- $\mathdefault{10^{-2}}$ -->
      <g transform="translate(1039.905029 121.512961) scale(0.14 -0.14)">
       <use xlink:href="#DejaVuSans-31" transform="translate(0 0.765625)"/>
       <use xlink:href="#DejaVuSans-30" transform="translate(63.623047 0.765625)"/>
       <use xlink:href="#DejaVuSans-2212" transform="translate(128.203125 39.046875) scale(0.7)"/>
       <use xlink:href="#DejaVuSans-32" transform="translate(186.855469 39.046875) scale(0.7)"/>
      </g>
     </g>
    </g>
    <g id="ytick_18">
     <g id="line2d_55">
      <path d="M 48.449829 66.111021 
L 1036.405029 66.111021 
" clip-path="url(#paffa366afb)" style="fill: none; stroke-dasharray: 3.7,1.6; stroke-dashoffset: 0; stroke: #cbcbcb"/>
     </g>
     <g id="line2d_56"/>
     <g id="text_28">
      <!-- $\mathdefault{10^{2}}$ -->
      <g transform="translate(1039.905029 71.429928) scale(0.14 -0.14)">
       <use xlink:href="#DejaVuSans-31" transform="translate(0 0.765625)"/>
       <use xlink:href="#DejaVuSans-30" transform="translate(63.623047 0.765625)"/>
       <use xlink:href="#DejaVuSans-32" transform="translate(128.203125 39.046875) scale(0.7)"/>
      </g>
     </g>
    </g>
    <g id="text_29">
     <!-- A_i_(j,j-k) -->
     <g transform="translate(1095.730404 323.429138) rotate(-90) scale(0.168 -0.168)">
      <defs>
       <path id="DejaVuSans-2d" d="M 313 2009 
L 1997 2009 
L 1997 1497 
L 313 1497 
L 313 2009 
z
" transform="scale(0.015625)"/>
       <path id="DejaVuSans-6b" d="M 581 4863 
L 1159 4863 
L 1159 1991 
L 2875 3500 
L 3609 3500 
L 1753 1863 
L 3688 0 
L 2938 0 
L 1159 1709 
L 1159 0 
L 581 0 
L 581 4863 
z
" transform="scale(0.015625)"/>
      </defs>
      <use xlink:href="#DejaVuSans-41"/>
      <use xlink:href="#DejaVuSans-5f" x="68.408203"/>
      <use xlink:href="#DejaVuSans-69" x="118.408203"/>
      <use xlink:href="#DejaVuSans-5f" x="146.191406"/>
      <use xlink:href="#DejaVuSans-28" x="196.191406"/>
      <use xlink:href="#DejaVuSans-6a" x="235.205078"/>
      <use xlink:href="#DejaVuSans-2c" x="262.988281"/>
      <use xlink:href="#DejaVuSans-6a" x="294.775391"/>
      <use xlink:href="#DejaVuSans-2d" x="322.558594"/>
      <use xlink:href="#DejaVuSans-6b" x="358.642578"/>
      <use xlink:href="#DejaVuSans-29" x="416.552734"/>
     </g>
    </g>
   </g>
   <g id="line2d_57">
    <path clip-path="url(#paffa366afb)" style="fill: none; stroke-dasharray: 14.8,6.4; stroke-dashoffset: 0; stroke: #008fd5; stroke-width: 4"/>
   </g>
   <g id="line2d_58">
    <path clip-path="url(#paffa366afb)" style="fill: none; stroke-dasharray: 14.8,6.4; stroke-dashoffset: 0; stroke: #fc4f30; stroke-width: 4"/>
   </g>
   <g id="line2d_59">
    <path clip-path="url(#paffa366afb)" style="fill: none; stroke-dasharray: 14.8,6.4; stroke-dashoffset: 0; stroke: #e5ae38; stroke-width: 4"/>
   </g>
   <g id="line2d_60">
    <path d="M 93.356883 91.152538 
L 106.373421 91.836743 
L 119.389958 92.14193 
L 132.406496 92.228634 
L 145.423033 92.219034 
L 158.439571 92.230743 
L 171.456108 92.340064 
L 184.472646 92.58209 
L 197.489184 92.963439 
L 210.505721 93.473925 
L 223.522259 94.095114 
L 236.538796 94.806132 
L 249.555334 95.587154 
L 262.571871 96.421127 
L 275.588409 97.294281 
L 288.604946 98.195966 
L 301.621484 99.118186 
L 314.638021 100.055065 
L 327.654559 101.002347 
L 340.671097 101.956978 
L 353.687634 102.916788 
L 366.704172 103.880238 
L 379.720709 104.846244 
L 392.737247 105.814042 
L 405.753784 106.783095 
L 418.770322 107.753028 
L 431.786859 108.723576 
L 444.803397 109.694556 
L 457.819935 110.665836 
L 470.836472 111.637328 
L 483.85301 112.608967 
L 496.869547 113.58071 
L 509.886085 114.552524 
L 522.902622 115.52439 
L 535.91916 116.49629 
L 548.935697 117.468215 
L 561.952235 118.440158 
L 574.968772 119.412113 
L 587.98531 120.384076 
L 601.001848 121.356045 
L 614.018385 122.328018 
L 627.034923 123.299994 
L 640.05146 124.271972 
L 653.067998 125.243951 
L 666.084535 126.215932 
L 679.101073 127.187913 
L 692.11761 128.159895 
L 705.134148 129.131877 
L 718.150685 130.103859 
L 731.167223 131.075841 
L 744.183761 132.047824 
L 757.200298 133.019806 
L 770.216836 133.991789 
L 783.233373 134.963772 
L 796.249911 135.935754 
L 809.266448 136.907737 
L 822.282986 137.87972 
L 835.299523 138.851703 
L 848.316061 139.823685 
L 861.332599 140.795668 
L 874.349136 141.767651 
L 887.365674 142.739634 
L 900.382211 143.711616 
L 913.398749 144.683599 
L 926.415286 145.655582 
L 939.431824 146.627565 
L 952.448361 147.599548 
L 965.464899 148.57153 
L 978.481436 149.543513 
L 991.497974 150.515496 
" clip-path="url(#paffa366afb)" style="fill: none; stroke-dasharray: 14.8,6.4; stroke-dashoffset: 0; stroke: #6d904f; stroke-width: 4"/>
   </g>
   <g id="line2d_61">
    <path d="M 93.356883 87.383414 
L 106.373421 88.303186 
L 119.389958 88.836846 
L 132.406496 89.950457 
L 145.423033 91.543311 
L 158.439571 93.383729 
L 171.456108 95.311382 
L 184.472646 97.241218 
L 197.489184 99.135676 
L 210.505721 100.982871 
L 223.522259 102.783577 
L 236.538796 104.543975 
L 249.555334 106.271797 
L 262.571871 107.974434 
L 275.588409 109.658173 
L 288.604946 111.328019 
L 301.621484 112.987801 
L 314.638021 114.640363 
L 327.654559 116.287784 
L 340.671097 117.931563 
L 353.687634 119.57277 
L 366.704172 121.212167 
L 379.720709 122.850292 
L 392.737247 124.487523 
L 405.753784 126.124129 
L 418.770322 127.760295 
L 431.786859 129.396155 
L 444.803397 131.031799 
L 457.819935 132.667292 
L 470.836472 134.30268 
L 483.85301 135.937994 
L 496.869547 137.573257 
L 509.886085 139.208484 
L 522.902622 140.843685 
L 535.91916 142.478869 
L 548.935697 144.11404 
L 561.952235 145.749203 
L 574.968772 147.38436 
L 587.98531 149.019512 
L 601.001848 150.654661 
L 614.018385 152.289809 
L 627.034923 153.924955 
L 640.05146 155.5601 
L 653.067998 157.195244 
L 666.084535 158.830388 
L 679.101073 160.465531 
L 692.11761 162.100674 
L 705.134148 163.735817 
L 718.150685 165.37096 
L 731.167223 167.006103 
L 744.183761 168.641246 
L 757.200298 170.276388 
L 770.216836 171.911531 
L 783.233373 173.546674 
L 796.249911 175.181816 
L 809.266448 176.816959 
L 822.282986 178.452102 
L 835.299523 180.087244 
L 848.316061 181.722387 
L 861.332599 183.357529 
L 874.349136 184.992672 
L 887.365674 186.627815 
L 900.382211 188.262957 
L 913.398749 189.8981 
L 926.415286 191.533242 
L 939.431824 193.168385 
L 952.448361 194.803528 
L 965.464899 196.43867 
L 978.481436 198.073813 
L 991.497974 199.708956 
" clip-path="url(#paffa366afb)" style="fill: none; stroke-dasharray: 14.8,6.4; stroke-dashoffset: 0; stroke: #8b8b8b; stroke-width: 4"/>
   </g>
   <g id="line2d_62">
    <path d="M 93.356883 85.178618 
L 106.373421 89.149542 
L 119.389958 95.60378 
L 132.406496 102.010601 
L 145.423033 108.156888 
L 158.439571 114.133892 
L 171.456108 120.020521 
L 184.472646 125.861497 
L 197.489184 131.679622 
L 210.505721 137.48621 
L 223.522259 143.28689 
L 236.538796 149.084499 
L 249.555334 154.88049 
L 262.571871 160.675622 
L 275.588409 166.470292 
L 288.604946 172.264713 
L 301.621484 178.058998 
L 314.638021 183.853211 
L 327.654559 189.647383 
L 340.671097 195.441534 
L 353.687634 201.235673 
L 366.704172 207.029805 
L 379.720709 212.823934 
L 392.737247 218.61806 
L 405.753784 224.412186 
L 418.770322 230.206311 
L 431.786859 236.000436 
L 444.803397 241.79456 
L 457.819935 247.588685 
L 470.836472 253.382809 
L 483.85301 259.176933 
L 496.869547 264.971058 
L 509.886085 270.765182 
L 522.902622 276.559306 
L 535.91916 282.353431 
L 548.935697 288.147555 
L 561.952235 293.941679 
L 574.968772 299.735804 
L 587.98531 305.529928 
L 601.001848 311.324052 
L 614.018385 317.118177 
L 627.034923 322.912301 
L 640.05146 328.706425 
L 653.067998 334.50055 
L 666.084535 340.294674 
L 679.101073 346.088798 
L 692.11761 351.882923 
L 705.134148 357.677047 
L 718.150685 363.471171 
L 731.167223 369.265296 
L 744.183761 375.05942 
L 757.200298 380.853544 
L 770.216836 386.647668 
L 783.233373 392.441793 
L 796.249911 398.235917 
L 809.266448 404.030041 
L 822.282986 409.824166 
L 835.299523 415.61829 
L 848.316061 421.412414 
L 861.332599 427.206539 
L 874.349136 433.000663 
L 887.365674 438.794787 
L 900.382211 444.588912 
L 913.398749 450.383036 
L 926.415286 456.17716 
L 939.431824 461.971285 
L 952.448361 467.765409 
L 965.464899 473.559533 
L 978.481436 479.353658 
L 991.497974 485.147782 
" clip-path="url(#paffa366afb)" style="fill: none; stroke-dasharray: 14.8,6.4; stroke-dashoffset: 0; stroke: #810f7c; stroke-width: 4"/>
   </g>
   <g id="patch_7">
    <path d="M 48.449829 505.14624 
L 48.449829 65.18016 
" style="fill: none; stroke: #f0f0f0; stroke-width: 3; stroke-linejoin: miter; stroke-linecap: square"/>
   </g>
   <g id="patch_8">
    <path d="M 1036.405029 505.14624 
L 1036.405029 65.18016 
" style="fill: none; stroke: #f0f0f0; stroke-width: 3; stroke-linejoin: miter; stroke-linecap: square"/>
   </g>
   <g id="patch_9">
    <path d="M 48.449829 505.14624 
L 1036.405029 505.14624 
" style="fill: none; stroke: #f0f0f0; stroke-width: 3; stroke-linejoin: miter; stroke-linecap: square"/>
   </g>
   <g id="patch_10">
    <path d="M 48.449829 65.18016 
L 1036.405029 65.18016 
" style="fill: none; stroke: #f0f0f0; stroke-width: 3; stroke-linejoin: miter; stroke-linecap: square"/>
   </g>
  </g>
 </g>
 <defs>
  <clipPath id="paffa366afb">
   <rect x="48.449829" y="65.18016" width="987.9552" height="439.96608"/>
  </clipPath>
 </defs>
</svg>
