<?xml version="1.0" encoding="utf-8" standalone="no"?>
<!DOCTYPE svg PUBLIC "-//W3C//DTD SVG 1.1//EN"
  "http://www.w3.org/Graphics/SVG/1.1/DTD/svg11.dtd">
<svg xmlns:xlink="http://www.w3.org/1999/xlink" width="1105.92pt" height="543.168pt" viewBox="0 0 1105.92 543.168" xmlns="http://www.w3.org/2000/svg" version="1.1">
 <metadata>
  <rdf:RDF xmlns:dc="http://purl.org/dc/elements/1.1/" xmlns:cc="http://creativecommons.org/ns#" xmlns:rdf="http://www.w3.org/1999/02/22-rdf-syntax-ns#">
   <cc:Work>
    <dc:type rdf:resource="http://purl.org/dc/dcmitype/StillImage"/>
    <dc:date>2023-12-28T02:40:29.951140</dc:date>
    <dc:format>image/svg+xml</dc:format>
    <dc:creator>
     <cc:Agent>
      <dc:title>Matplotlib v3.8.0, https://matplotlib.org/</dc:title>
     </cc:Agent>
    </dc:creator>
   </cc:Work>
  </rdf:RDF>
 </metadata>
 <defs>
  <style type="text/css">*{stroke-linejoin: round; stroke-linecap: butt}</style>
 </defs>
 <g id="figure_1">
  <g id="patch_1">
   <path d="M 0 543.168 
L 1105.92 543.168 
L 1105.92 0 
L 0 0 
z
" style="fill: #f0f0f0"/>
  </g>
  <g id="axes_1">
   <g id="patch_2">
    <path d="M 88.4736 505.14624 
L 1050.624 505.14624 
L 1050.624 65.18016 
L 88.4736 65.18016 
z
" style="fill: #f0f0f0"/>
   </g>
   <g id="matplotlib.axis_1">
    <g id="xtick_1">
     <g id="line2d_1">
      <path d="M 132.207709 505.14624 
L 132.207709 65.18016 
" clip-path="url(#p1c748f7c8a)" style="fill: none; stroke: #cbcbcb"/>
     </g>
     <g id="line2d_2"/>
     <g id="text_1">
      <!-- 0 -->
      <g transform="translate(127.753959 519.284053) scale(0.14 -0.14)">
       <defs>
        <path id="DejaVuSans-30" d="M 2034 4250 
Q 1547 4250 1301 3770 
Q 1056 3291 1056 2328 
Q 1056 1369 1301 889 
Q 1547 409 2034 409 
Q 2525 409 2770 889 
Q 3016 1369 3016 2328 
Q 3016 3291 2770 3770 
Q 2525 4250 2034 4250 
z
M 2034 4750 
Q 2819 4750 3233 4129 
Q 3647 3509 3647 2328 
Q 3647 1150 3233 529 
Q 2819 -91 2034 -91 
Q 1250 -91 836 529 
Q 422 1150 422 2328 
Q 422 3509 836 4129 
Q 1250 4750 2034 4750 
z
" transform="scale(0.015625)"/>
       </defs>
       <use xlink:href="#DejaVuSans-30"/>
      </g>
     </g>
    </g>
    <g id="xtick_2">
     <g id="line2d_3">
      <path d="M 308.91118 505.14624 
L 308.91118 65.18016 
" clip-path="url(#p1c748f7c8a)" style="fill: none; stroke: #cbcbcb"/>
     </g>
     <g id="line2d_4"/>
     <g id="text_2">
      <!-- 2 -->
      <g transform="translate(304.45743 519.284053) scale(0.14 -0.14)">
       <defs>
        <path id="DejaVuSans-32" d="M 1228 531 
L 3431 531 
L 3431 0 
L 469 0 
L 469 531 
Q 828 903 1448 1529 
Q 2069 2156 2228 2338 
Q 2531 2678 2651 2914 
Q 2772 3150 2772 3378 
Q 2772 3750 2511 3984 
Q 2250 4219 1831 4219 
Q 1534 4219 1204 4116 
Q 875 4013 500 3803 
L 500 4441 
Q 881 4594 1212 4672 
Q 1544 4750 1819 4750 
Q 2544 4750 2975 4387 
Q 3406 4025 3406 3419 
Q 3406 3131 3298 2873 
Q 3191 2616 2906 2266 
Q 2828 2175 2409 1742 
Q 1991 1309 1228 531 
z
" transform="scale(0.015625)"/>
       </defs>
       <use xlink:href="#DejaVuSans-32"/>
      </g>
     </g>
    </g>
    <g id="xtick_3">
     <g id="line2d_5">
      <path d="M 485.614651 505.14624 
L 485.614651 65.18016 
" clip-path="url(#p1c748f7c8a)" style="fill: none; stroke: #cbcbcb"/>
     </g>
     <g id="line2d_6"/>
     <g id="text_3">
      <!-- 4 -->
      <g transform="translate(481.160901 519.284053) scale(0.14 -0.14)">
       <defs>
        <path id="DejaVuSans-34" d="M 2419 4116 
L 825 1625 
L 2419 1625 
L 2419 4116 
z
M 2253 4666 
L 3047 4666 
L 3047 1625 
L 3713 1625 
L 3713 1100 
L 3047 1100 
L 3047 0 
L 2419 0 
L 2419 1100 
L 313 1100 
L 313 1709 
L 2253 4666 
z
" transform="scale(0.015625)"/>
       </defs>
       <use xlink:href="#DejaVuSans-34"/>
      </g>
     </g>
    </g>
    <g id="xtick_4">
     <g id="line2d_7">
      <path d="M 662.318122 505.14624 
L 662.318122 65.18016 
" clip-path="url(#p1c748f7c8a)" style="fill: none; stroke: #cbcbcb"/>
     </g>
     <g id="line2d_8"/>
     <g id="text_4">
      <!-- 6 -->
      <g transform="translate(657.864372 519.284053) scale(0.14 -0.14)">
       <defs>
        <path id="DejaVuSans-36" d="M 2113 2584 
Q 1688 2584 1439 2293 
Q 1191 2003 1191 1497 
Q 1191 994 1439 701 
Q 1688 409 2113 409 
Q 2538 409 2786 701 
Q 3034 994 3034 1497 
Q 3034 2003 2786 2293 
Q 2538 2584 2113 2584 
z
M 3366 4563 
L 3366 3988 
Q 3128 4100 2886 4159 
Q 2644 4219 2406 4219 
Q 1781 4219 1451 3797 
Q 1122 3375 1075 2522 
Q 1259 2794 1537 2939 
Q 1816 3084 2150 3084 
Q 2853 3084 3261 2657 
Q 3669 2231 3669 1497 
Q 3669 778 3244 343 
Q 2819 -91 2113 -91 
Q 1303 -91 875 529 
Q 447 1150 447 2328 
Q 447 3434 972 4092 
Q 1497 4750 2381 4750 
Q 2619 4750 2861 4703 
Q 3103 4656 3366 4563 
z
" transform="scale(0.015625)"/>
       </defs>
       <use xlink:href="#DejaVuSans-36"/>
      </g>
     </g>
    </g>
    <g id="xtick_5">
     <g id="line2d_9">
      <path d="M 839.021593 505.14624 
L 839.021593 65.18016 
" clip-path="url(#p1c748f7c8a)" style="fill: none; stroke: #cbcbcb"/>
     </g>
     <g id="line2d_10"/>
     <g id="text_5">
      <!-- 8 -->
      <g transform="translate(834.567843 519.284053) scale(0.14 -0.14)">
       <defs>
        <path id="DejaVuSans-38" d="M 2034 2216 
Q 1584 2216 1326 1975 
Q 1069 1734 1069 1313 
Q 1069 891 1326 650 
Q 1584 409 2034 409 
Q 2484 409 2743 651 
Q 3003 894 3003 1313 
Q 3003 1734 2745 1975 
Q 2488 2216 2034 2216 
z
M 1403 2484 
Q 997 2584 770 2862 
Q 544 3141 544 3541 
Q 544 4100 942 4425 
Q 1341 4750 2034 4750 
Q 2731 4750 3128 4425 
Q 3525 4100 3525 3541 
Q 3525 3141 3298 2862 
Q 3072 2584 2669 2484 
Q 3125 2378 3379 2068 
Q 3634 1759 3634 1313 
Q 3634 634 3220 271 
Q 2806 -91 2034 -91 
Q 1263 -91 848 271 
Q 434 634 434 1313 
Q 434 1759 690 2068 
Q 947 2378 1403 2484 
z
M 1172 3481 
Q 1172 3119 1398 2916 
Q 1625 2713 2034 2713 
Q 2441 2713 2670 2916 
Q 2900 3119 2900 3481 
Q 2900 3844 2670 4047 
Q 2441 4250 2034 4250 
Q 1625 4250 1398 4047 
Q 1172 3844 1172 3481 
z
" transform="scale(0.015625)"/>
       </defs>
       <use xlink:href="#DejaVuSans-38"/>
      </g>
     </g>
    </g>
    <g id="xtick_6">
     <g id="line2d_11">
      <path d="M 1015.725064 505.14624 
L 1015.725064 65.18016 
" clip-path="url(#p1c748f7c8a)" style="fill: none; stroke: #cbcbcb"/>
     </g>
     <g id="line2d_12"/>
     <g id="text_6">
      <!-- 10 -->
      <g transform="translate(1006.817564 519.284053) scale(0.14 -0.14)">
       <defs>
        <path id="DejaVuSans-31" d="M 794 531 
L 1825 531 
L 1825 4091 
L 703 3866 
L 703 4441 
L 1819 4666 
L 2450 4666 
L 2450 531 
L 3481 531 
L 3481 0 
L 794 0 
L 794 531 
z
" transform="scale(0.015625)"/>
       </defs>
       <use xlink:href="#DejaVuSans-31"/>
       <use xlink:href="#DejaVuSans-30" x="63.623047"/>
      </g>
     </g>
    </g>
    <g id="text_7">
     <!-- x -->
     <g transform="translate(564.57705 538.96099) scale(0.168 -0.168)">
      <defs>
       <path id="DejaVuSans-78" d="M 3513 3500 
L 2247 1797 
L 3578 0 
L 2900 0 
L 1881 1375 
L 863 0 
L 184 0 
L 1544 1831 
L 300 3500 
L 978 3500 
L 1906 2253 
L 2834 3500 
L 3513 3500 
z
" transform="scale(0.015625)"/>
      </defs>
      <use xlink:href="#DejaVuSans-78"/>
     </g>
    </g>
   </g>
   <g id="matplotlib.axis_2">
    <g id="ytick_1">
     <g id="line2d_13">
      <path d="M 88.4736 487.486603 
L 1050.624 487.486603 
" clip-path="url(#p1c748f7c8a)" style="fill: none; stroke: #cbcbcb"/>
     </g>
     <g id="line2d_14"/>
     <g id="text_8">
      <!-- −5.0 -->
      <g transform="translate(50.977663 492.805509) scale(0.14 -0.14)">
       <defs>
        <path id="DejaVuSans-2212" d="M 678 2272 
L 4684 2272 
L 4684 1741 
L 678 1741 
L 678 2272 
z
" transform="scale(0.015625)"/>
        <path id="DejaVuSans-35" d="M 691 4666 
L 3169 4666 
L 3169 4134 
L 1269 4134 
L 1269 2991 
Q 1406 3038 1543 3061 
Q 1681 3084 1819 3084 
Q 2600 3084 3056 2656 
Q 3513 2228 3513 1497 
Q 3513 744 3044 326 
Q 2575 -91 1722 -91 
Q 1428 -91 1123 -41 
Q 819 9 494 109 
L 494 744 
Q 775 591 1075 516 
Q 1375 441 1709 441 
Q 2250 441 2565 725 
Q 2881 1009 2881 1497 
Q 2881 1984 2565 2268 
Q 2250 2553 1709 2553 
Q 1456 2553 1204 2497 
Q 953 2441 691 2322 
L 691 4666 
z
" transform="scale(0.015625)"/>
        <path id="DejaVuSans-2e" d="M 684 794 
L 1344 794 
L 1344 0 
L 684 0 
L 684 794 
z
" transform="scale(0.015625)"/>
       </defs>
       <use xlink:href="#DejaVuSans-2212"/>
       <use xlink:href="#DejaVuSans-35" x="83.789062"/>
       <use xlink:href="#DejaVuSans-2e" x="147.412109"/>
       <use xlink:href="#DejaVuSans-30" x="179.199219"/>
      </g>
     </g>
    </g>
    <g id="ytick_2">
     <g id="line2d_15">
      <path d="M 88.4736 432.459992 
L 1050.624 432.459992 
" clip-path="url(#p1c748f7c8a)" style="fill: none; stroke: #cbcbcb"/>
     </g>
     <g id="line2d_16"/>
     <g id="text_9">
      <!-- −2.5 -->
      <g transform="translate(50.977663 437.778898) scale(0.14 -0.14)">
       <use xlink:href="#DejaVuSans-2212"/>
       <use xlink:href="#DejaVuSans-32" x="83.789062"/>
       <use xlink:href="#DejaVuSans-2e" x="147.412109"/>
       <use xlink:href="#DejaVuSans-35" x="179.199219"/>
      </g>
     </g>
    </g>
    <g id="ytick_3">
     <g id="line2d_17">
      <path d="M 88.4736 377.433381 
L 1050.624 377.433381 
" clip-path="url(#p1c748f7c8a)" style="fill: none; stroke: #cbcbcb"/>
     </g>
     <g id="line2d_18"/>
     <g id="text_10">
      <!-- 0.0 -->
      <g transform="translate(62.709225 382.752287) scale(0.14 -0.14)">
       <use xlink:href="#DejaVuSans-30"/>
       <use xlink:href="#DejaVuSans-2e" x="63.623047"/>
       <use xlink:href="#DejaVuSans-30" x="95.410156"/>
      </g>
     </g>
    </g>
    <g id="ytick_4">
     <g id="line2d_19">
      <path d="M 88.4736 322.40677 
L 1050.624 322.40677 
" clip-path="url(#p1c748f7c8a)" style="fill: none; stroke: #cbcbcb"/>
     </g>
     <g id="line2d_20"/>
     <g id="text_11">
      <!-- 2.5 -->
      <g transform="translate(62.709225 327.725676) scale(0.14 -0.14)">
       <use xlink:href="#DejaVuSans-32"/>
       <use xlink:href="#DejaVuSans-2e" x="63.623047"/>
       <use xlink:href="#DejaVuSans-35" x="95.410156"/>
      </g>
     </g>
    </g>
    <g id="ytick_5">
     <g id="line2d_21">
      <path d="M 88.4736 267.380159 
L 1050.624 267.380159 
" clip-path="url(#p1c748f7c8a)" style="fill: none; stroke: #cbcbcb"/>
     </g>
     <g id="line2d_22"/>
     <g id="text_12">
      <!-- 5.0 -->
      <g transform="translate(62.709225 272.699065) scale(0.14 -0.14)">
       <use xlink:href="#DejaVuSans-35"/>
       <use xlink:href="#DejaVuSans-2e" x="63.623047"/>
       <use xlink:href="#DejaVuSans-30" x="95.410156"/>
      </g>
     </g>
    </g>
    <g id="ytick_6">
     <g id="line2d_23">
      <path d="M 88.4736 212.353548 
L 1050.624 212.353548 
" clip-path="url(#p1c748f7c8a)" style="fill: none; stroke: #cbcbcb"/>
     </g>
     <g id="line2d_24"/>
     <g id="text_13">
      <!-- 7.5 -->
      <g transform="translate(62.709225 217.672454) scale(0.14 -0.14)">
       <defs>
        <path id="DejaVuSans-37" d="M 525 4666 
L 3525 4666 
L 3525 4397 
L 1831 0 
L 1172 0 
L 2766 4134 
L 525 4134 
L 525 4666 
z
" transform="scale(0.015625)"/>
       </defs>
       <use xlink:href="#DejaVuSans-37"/>
       <use xlink:href="#DejaVuSans-2e" x="63.623047"/>
       <use xlink:href="#DejaVuSans-35" x="95.410156"/>
      </g>
     </g>
    </g>
    <g id="ytick_7">
     <g id="line2d_25">
      <path d="M 88.4736 157.326937 
L 1050.624 157.326937 
" clip-path="url(#p1c748f7c8a)" style="fill: none; stroke: #cbcbcb"/>
     </g>
     <g id="line2d_26"/>
     <g id="text_14">
      <!-- 10.0 -->
      <g transform="translate(53.801725 162.645843) scale(0.14 -0.14)">
       <use xlink:href="#DejaVuSans-31"/>
       <use xlink:href="#DejaVuSans-30" x="63.623047"/>
       <use xlink:href="#DejaVuSans-2e" x="127.246094"/>
       <use xlink:href="#DejaVuSans-30" x="159.033203"/>
      </g>
     </g>
    </g>
    <g id="ytick_8">
     <g id="line2d_27">
      <path d="M 88.4736 102.300326 
L 1050.624 102.300326 
" clip-path="url(#p1c748f7c8a)" style="fill: none; stroke: #cbcbcb"/>
     </g>
     <g id="line2d_28"/>
     <g id="text_15">
      <!-- 12.5 -->
      <g transform="translate(53.801725 107.619232) scale(0.14 -0.14)">
       <use xlink:href="#DejaVuSans-31"/>
       <use xlink:href="#DejaVuSans-32" x="63.623047"/>
       <use xlink:href="#DejaVuSans-2e" x="127.246094"/>
       <use xlink:href="#DejaVuSans-35" x="159.033203"/>
      </g>
     </g>
    </g>
    <g id="text_16">
     <!-- f(x) -->
     <g transform="translate(43.483788 299.646637) rotate(-90) scale(0.168 -0.168)">
      <defs>
       <path id="DejaVuSans-66" d="M 2375 4863 
L 2375 4384 
L 1825 4384 
Q 1516 4384 1395 4259 
Q 1275 4134 1275 3809 
L 1275 3500 
L 2222 3500 
L 2222 3053 
L 1275 3053 
L 1275 0 
L 697 0 
L 697 3053 
L 147 3053 
L 147 3500 
L 697 3500 
L 697 3744 
Q 697 4328 969 4595 
Q 1241 4863 1831 4863 
L 2375 4863 
z
" transform="scale(0.015625)"/>
       <path id="DejaVuSans-28" d="M 1984 4856 
Q 1566 4138 1362 3434 
Q 1159 2731 1159 2009 
Q 1159 1288 1364 580 
Q 1569 -128 1984 -844 
L 1484 -844 
Q 1016 -109 783 600 
Q 550 1309 550 2009 
Q 550 2706 781 3412 
Q 1013 4119 1484 4856 
L 1984 4856 
z
" transform="scale(0.015625)"/>
       <path id="DejaVuSans-29" d="M 513 4856 
L 1013 4856 
Q 1481 4119 1714 3412 
Q 1947 2706 1947 2009 
Q 1947 1309 1714 600 
Q 1481 -109 1013 -844 
L 513 -844 
Q 928 -128 1133 580 
Q 1338 1288 1338 2009 
Q 1338 2731 1133 3434 
Q 928 4138 513 4856 
z
" transform="scale(0.015625)"/>
      </defs>
      <use xlink:href="#DejaVuSans-66"/>
      <use xlink:href="#DejaVuSans-28" x="35.205078"/>
      <use xlink:href="#DejaVuSans-78" x="74.21875"/>
      <use xlink:href="#DejaVuSans-29" x="133.398438"/>
     </g>
    </g>
   </g>
   <g id="line2d_29">
    <path d="M 132.207709 185.465719 
L 133.083267 185.894019 
L 133.958825 186.476587 
L 134.834382 187.213017 
L 136.585498 189.14378 
L 138.336613 191.674913 
L 140.087729 194.788655 
L 141.838844 198.461071 
L 143.58996 202.662301 
L 145.341075 207.356868 
L 147.967748 215.233296 
L 150.594422 223.969572 
L 154.096653 236.644896 
L 159.349999 256.894785 
L 164.603345 277.108416 
L 168.105576 289.711164 
L 170.73225 298.3577 
L 173.358923 306.104264 
L 175.110038 310.684569 
L 176.861154 314.745077 
L 178.612269 318.246253 
L 180.363385 321.15389 
L 182.1145 323.439459 
L 182.990058 324.341677 
L 183.865616 325.080399 
L 184.741173 325.653774 
L 185.616731 326.060352 
L 186.492289 326.299085 
L 187.367847 326.369331 
L 188.243404 326.270856 
L 189.118962 326.003832 
L 189.99452 325.568842 
L 190.870078 324.966875 
L 191.745635 324.199325 
L 193.496751 322.175062 
L 195.247866 319.515166 
L 196.998982 316.244932 
L 198.750097 312.3956 
L 200.501213 308.004052 
L 202.252328 303.112466 
L 204.879001 294.941702 
L 207.505675 285.929832 
L 211.007906 272.945872 
L 218.012368 245.570869 
L 222.390156 229.032304 
L 225.016829 219.839393 
L 227.643503 211.442878 
L 229.394618 206.379453 
L 231.145734 201.801832 
L 232.896849 197.754886 
L 234.647965 194.278397 
L 236.39908 191.406668 
L 238.150196 189.168198 
L 239.025753 188.293683 
L 239.901311 187.585402 
L 240.776869 187.04517 
L 241.652427 186.674402 
L 242.527984 186.474102 
L 243.403542 186.444869 
L 244.2791 186.586889 
L 245.154657 186.899939 
L 246.030215 187.383383 
L 246.905773 188.03618 
L 247.781331 188.856881 
L 249.532446 190.994199 
L 251.283562 193.775803 
L 253.034677 197.176007 
L 254.785793 201.163227 
L 256.536908 205.700298 
L 258.288024 210.744838 
L 260.914697 219.158758 
L 263.54137 228.430379 
L 267.043601 241.787848 
L 273.172505 266.484837 
L 277.550294 283.849367 
L 281.052525 296.807544 
L 283.679198 305.67042 
L 286.305871 313.600519 
L 288.056987 318.290933 
L 289.808102 322.456676 
L 291.559218 326.062927 
L 293.310333 329.080575 
L 295.061449 331.486506 
L 296.812564 333.263827 
L 297.688122 333.913223 
L 298.56368 334.402033 
L 299.439237 334.729959 
L 300.314795 334.897111 
L 301.190353 334.904008 
L 302.065911 334.751576 
L 302.941468 334.441146 
L 303.817026 333.97445 
L 304.692584 333.353617 
L 305.568142 332.581169 
L 307.319257 330.593431 
L 309.070372 328.038984 
L 310.821488 324.951353 
L 312.572603 321.369506 
L 314.323719 317.337474 
L 316.950392 310.552918 
L 319.577065 303.047075 
L 323.079296 292.261618 
L 332.710431 261.973556 
L 335.337105 254.574126 
L 337.963778 247.936957 
L 339.714893 244.028149 
L 341.466009 240.591316 
L 343.217124 237.672231 
L 344.96824 235.311755 
L 346.719355 233.545427 
L 347.594913 232.894632 
L 348.470471 232.403114 
L 349.346029 232.073672 
L 350.221586 231.908714 
L 351.097144 231.910256 
L 351.972702 232.079914 
L 352.848259 232.4189 
L 353.723817 232.928019 
L 354.599375 233.607667 
L 355.474933 234.457829 
L 357.226048 236.667594 
L 358.977164 239.549023 
L 360.728279 243.08736 
L 362.479395 247.261529 
L 364.23051 252.044331 
L 365.981626 257.402709 
L 368.608299 266.433626 
L 371.234972 276.519924 
L 373.861645 287.4872 
L 377.363876 303.144184 
L 383.49278 331.969977 
L 388.746127 356.301004 
L 392.248358 371.409561 
L 394.875031 381.815552 
L 397.501704 391.22777 
L 399.25282 396.871964 
L 401.003935 401.963837 
L 402.755051 406.468447 
L 404.506166 410.356605 
L 406.257282 413.605157 
L 408.008397 416.197205 
L 409.759513 418.122266 
L 410.63507 418.833181 
L 411.510628 419.376371 
L 412.386186 419.752364 
L 413.261743 419.962094 
L 414.137301 420.006901 
L 415.012859 419.888525 
L 415.888417 419.609105 
L 416.763974 419.171171 
L 417.639532 418.577638 
L 418.51509 417.8318 
L 420.266205 415.898221 
L 422.017321 413.404005 
L 423.768436 410.388148 
L 425.519552 406.894685 
L 427.270667 402.97225 
L 429.897341 396.400663 
L 432.524014 389.176016 
L 436.901802 376.248768 
L 443.030707 357.985861 
L 445.65738 350.70536 
L 448.284053 344.052514 
L 450.035169 340.060354 
L 451.786284 336.483501 
L 453.5374 333.369388 
L 455.288515 330.760728 
L 457.03963 328.695087 
L 458.790746 327.204511 
L 459.666304 326.683299 
L 460.541861 326.315209 
L 461.417419 326.102562 
L 462.292977 326.047284 
L 463.168535 326.150901 
L 464.044092 326.414537 
L 464.91965 326.838908 
L 465.795208 327.424323 
L 466.670766 328.170681 
L 468.421881 330.143784 
L 470.172997 332.749261 
L 471.924112 335.971719 
L 473.675228 339.78948 
L 475.426343 344.174781 
L 477.177458 349.094047 
L 479.804132 357.387272 
L 482.430805 366.639884 
L 485.057478 376.676463 
L 488.559709 390.940502 
L 499.94196 438.372817 
L 502.568633 448.246122 
L 505.195306 457.276166 
L 507.821979 465.279784 
L 509.573095 469.964259 
L 511.32421 474.0779 
L 513.075326 477.583899 
L 514.826441 480.451089 
L 516.577557 482.654245 
L 517.453114 483.500615 
L 518.328672 484.174333 
L 519.20423 484.674016 
L 520.079788 484.998688 
L 520.955345 485.147782 
L 521.830903 485.121141 
L 522.706461 484.919019 
L 523.582019 484.542079 
L 524.457576 483.991391 
L 525.333134 483.268432 
L 526.208692 482.375081 
L 527.959807 480.086694 
L 529.710923 477.149088 
L 531.462038 473.591149 
L 533.213154 469.44751 
L 534.964269 464.758205 
L 536.715385 459.568277 
L 539.342058 450.954371 
L 541.968731 441.510728 
L 545.470962 427.977098 
L 557.728771 379.240728 
L 560.355444 369.950052 
L 562.982117 361.505567 
L 564.733232 356.428203 
L 566.484348 351.843471 
L 568.235463 347.789136 
L 569.986579 344.297415 
L 571.737694 341.394664 
L 573.48881 339.101121 
L 575.239925 337.430711 
L 576.115483 336.831771 
L 576.991041 336.390908 
L 577.866599 336.108036 
L 578.742156 335.982663 
L 579.617714 336.013887 
L 580.493272 336.200401 
L 581.368829 336.5405 
L 582.244387 337.032076 
L 583.119945 337.672633 
L 584.87106 339.388779 
L 586.622176 341.661374 
L 588.373291 344.457074 
L 590.124407 347.737086 
L 591.875522 351.457548 
L 594.502196 357.756851 
L 597.128869 364.756426 
L 600.6311 374.835009 
L 609.386677 400.601517 
L 612.01335 407.593724 
L 614.640024 413.870899 
L 616.391139 417.563276 
L 618.142255 420.800262 
L 619.89337 423.533853 
L 621.644486 425.720735 
L 623.395601 427.322712 
L 624.271159 427.89392 
L 625.146716 428.307088 
L 626.022274 428.559043 
L 626.897832 428.646991 
L 627.77339 428.568528 
L 628.648947 428.321641 
L 629.524505 427.904722 
L 630.400063 427.316561 
L 631.275621 426.556359 
L 632.151178 425.623723 
L 633.902294 423.241629 
L 635.653409 420.175338 
L 637.404525 416.436416 
L 639.15564 412.042829 
L 640.906756 407.018774 
L 642.657871 401.394443 
L 644.408987 395.205739 
L 647.03566 384.956111 
L 649.662333 373.690362 
L 653.164564 357.404719 
L 657.542353 335.693262 
L 666.29793 291.621542 
L 669.800161 275.200909 
L 672.426834 263.793515 
L 675.053508 253.365332 
L 677.680181 244.073613 
L 679.431296 238.576757 
L 681.182412 233.676381 
L 682.933527 229.398782 
L 684.684643 225.764103 
L 686.435758 222.786145 
L 688.186874 220.472237 
L 689.062431 219.564805 
L 689.937989 218.82317 
L 690.813547 218.24641 
L 691.689105 217.833196 
L 692.564662 217.581799 
L 693.44022 217.490092 
L 694.315778 217.555555 
L 695.191336 217.775285 
L 696.066893 218.145997 
L 696.942451 218.664041 
L 698.693567 220.125716 
L 700.444682 222.124062 
L 702.195798 224.617586 
L 703.946913 227.559969 
L 705.698029 230.900525 
L 708.324702 236.537676 
L 710.951375 242.749679 
L 715.329164 253.806735 
L 720.58251 266.987584 
L 723.209183 273.034836 
L 725.835857 278.444292 
L 727.586972 281.601897 
L 729.338087 284.339692 
L 731.089203 286.610235 
L 732.840318 288.370804 
L 733.715876 289.047892 
L 734.591434 289.583816 
L 735.466992 289.974745 
L 736.342549 290.217209 
L 737.218107 290.308117 
L 738.093665 290.244755 
L 738.969223 290.024801 
L 739.84478 289.646325 
L 740.720338 289.107799 
L 741.595896 288.408096 
L 742.471454 287.546496 
L 744.222569 285.336765 
L 745.973685 282.481017 
L 747.7248 278.988182 
L 749.475915 274.873623 
L 751.227031 270.158996 
L 752.978146 264.872039 
L 754.729262 259.046303 
L 757.355935 249.384307 
L 759.982608 238.751996 
L 763.484839 223.372093 
L 767.862628 202.876014 
L 776.618205 161.470654 
L 780.120436 146.204398 
L 782.74711 135.700526 
L 785.373783 126.212666 
L 787.124898 120.532991 
L 788.876014 115.419649 
L 790.627129 110.909502 
L 792.378245 107.033775 
L 794.12936 103.817753 
L 795.880476 101.280533 
L 796.756033 100.270702 
L 797.631591 99.434839 
L 798.507149 98.773518 
L 799.382707 98.286904 
L 800.258264 97.974751 
L 801.133822 97.836403 
L 802.00938 97.870799 
L 802.884938 98.076468 
L 803.760495 98.45154 
L 804.636053 98.993747 
L 805.511611 99.700431 
L 806.387169 100.568546 
L 808.138284 102.775016 
L 809.8894 105.581414 
L 811.640515 108.950414 
L 813.39163 112.839473 
L 815.142746 117.201251 
L 817.769419 124.516174 
L 820.396092 132.587609 
L 823.898323 144.170258 
L 833.529458 176.844813 
L 836.156132 184.946429 
L 838.782805 192.315291 
L 840.53392 196.731725 
L 842.285036 200.694935 
L 844.036151 204.161949 
L 845.787267 207.094972 
L 847.538382 209.461749 
L 849.289498 211.235884 
L 850.165056 211.89413 
L 851.040613 212.3971 
L 851.916171 212.743248 
L 852.791729 212.93143 
L 853.667286 212.96091 
L 854.542844 212.831358 
L 855.418402 212.542855 
L 856.29396 212.095888 
L 857.169517 211.491353 
L 858.045075 210.730552 
L 859.796191 208.747355 
L 861.547306 206.164653 
L 863.298422 203.006974 
L 865.049537 199.304769 
L 866.800653 195.094116 
L 868.551768 190.416362 
L 871.178441 182.626206 
L 873.805114 174.064062 
L 877.307345 161.781628 
L 888.689596 120.852218 
L 891.316269 112.476613 
L 893.942943 104.936104 
L 895.694058 100.462446 
L 897.445173 96.488134 
L 899.196289 93.056526 
L 900.947404 90.205861 
L 902.69852 87.968882 
L 903.574078 87.089174 
L 904.449635 86.372512 
L 905.325193 85.821309 
L 906.200751 85.437581 
L 907.076309 85.222946 
L 907.951866 85.178618 
L 908.827424 85.305405 
L 909.702982 85.603706 
L 910.57854 86.07351 
L 911.454097 86.714395 
L 912.329655 87.52553 
L 913.205213 88.505679 
L 914.956328 90.966046 
L 916.707444 94.077581 
L 918.458559 97.816137 
L 920.209675 102.15157 
L 921.96079 107.048023 
L 923.711906 112.464276 
L 926.338579 121.461007 
L 928.965252 131.347907 
L 932.467483 145.578608 
L 937.720829 168.14797 
L 942.974176 190.602578 
L 946.476407 204.636154 
L 949.10308 214.320261 
L 951.729753 223.075425 
L 953.480869 228.313632 
L 955.231984 233.022052 
L 956.9831 237.162859 
L 958.734215 240.703814 
L 960.485331 243.618577 
L 962.236446 245.886959 
L 963.112004 246.774178 
L 963.987562 247.495112 
L 964.863119 248.049043 
L 965.738677 248.43566 
L 966.614235 248.655064 
L 967.489793 248.707764 
L 968.36535 248.594676 
L 969.240908 248.317123 
L 970.116466 247.876829 
L 970.992024 247.275914 
L 971.867581 246.516892 
L 973.618697 244.536503 
L 975.369812 241.96334 
L 977.120928 238.830853 
L 978.872043 235.17792 
L 980.623159 231.048467 
L 983.249832 224.068119 
L 985.876505 216.306408 
L 989.378736 205.085155 
L 1000.760987 167.598197 
L 1003.38766 160.003608 
L 1006.014333 153.227512 
L 1006.889891 151.180851 
L 1006.889891 151.180851 
" clip-path="url(#p1c748f7c8a)" style="fill: none; stroke: #008fd5; stroke-width: 4"/>
   </g>
   <g id="line2d_30">
    <defs>
     <path id="m36b1ac3b7a" d="M 0 1.5 
C 0.397805 1.5 0.77937 1.341951 1.06066 1.06066 
C 1.341951 0.77937 1.5 0.397805 1.5 0 
C 1.5 -0.397805 1.341951 -0.77937 1.06066 -1.06066 
C 0.77937 -1.341951 0.397805 -1.5 0 -1.5 
C -0.397805 -1.5 -0.77937 -1.341951 -1.06066 -1.06066 
C -1.341951 -0.77937 -1.5 -0.397805 -1.5 0 
C -1.5 0.397805 -1.341951 0.77937 -1.06066 1.06066 
C -0.77937 1.341951 -0.397805 1.5 0 1.5 
z
" style="stroke: #fc4f30"/>
    </defs>
    <g clip-path="url(#p1c748f7c8a)">
     <use xlink:href="#m36b1ac3b7a" x="132.207709" y="185.212058" style="fill: #fc4f30; stroke: #fc4f30"/>
     <use xlink:href="#m36b1ac3b7a" x="141.042883" y="197.092595" style="fill: #fc4f30; stroke: #fc4f30"/>
     <use xlink:href="#m36b1ac3b7a" x="149.878056" y="229.543932" style="fill: #fc4f30; stroke: #fc4f30"/>
     <use xlink:href="#m36b1ac3b7a" x="158.71323" y="263.007709" style="fill: #fc4f30; stroke: #fc4f30"/>
     <use xlink:href="#m36b1ac3b7a" x="167.548403" y="272.907395" style="fill: #fc4f30; stroke: #fc4f30"/>
     <use xlink:href="#m36b1ac3b7a" x="176.383577" y="335.830064" style="fill: #fc4f30; stroke: #fc4f30"/>
     <use xlink:href="#m36b1ac3b7a" x="185.21875" y="325.600935" style="fill: #fc4f30; stroke: #fc4f30"/>
     <use xlink:href="#m36b1ac3b7a" x="194.053924" y="310.600439" style="fill: #fc4f30; stroke: #fc4f30"/>
     <use xlink:href="#m36b1ac3b7a" x="202.889098" y="286.180468" style="fill: #fc4f30; stroke: #fc4f30"/>
     <use xlink:href="#m36b1ac3b7a" x="211.724271" y="253.225706" style="fill: #fc4f30; stroke: #fc4f30"/>
     <use xlink:href="#m36b1ac3b7a" x="220.559445" y="237.260038" style="fill: #fc4f30; stroke: #fc4f30"/>
     <use xlink:href="#m36b1ac3b7a" x="229.394618" y="193.22677" style="fill: #fc4f30; stroke: #fc4f30"/>
     <use xlink:href="#m36b1ac3b7a" x="238.229792" y="179.975997" style="fill: #fc4f30; stroke: #fc4f30"/>
     <use xlink:href="#m36b1ac3b7a" x="247.064965" y="200.993188" style="fill: #fc4f30; stroke: #fc4f30"/>
     <use xlink:href="#m36b1ac3b7a" x="255.900139" y="209.826091" style="fill: #fc4f30; stroke: #fc4f30"/>
     <use xlink:href="#m36b1ac3b7a" x="264.735312" y="229.784049" style="fill: #fc4f30; stroke: #fc4f30"/>
     <use xlink:href="#m36b1ac3b7a" x="273.570486" y="270.735141" style="fill: #fc4f30; stroke: #fc4f30"/>
     <use xlink:href="#m36b1ac3b7a" x="282.40566" y="305.0763" style="fill: #fc4f30; stroke: #fc4f30"/>
     <use xlink:href="#m36b1ac3b7a" x="291.240833" y="337.142104" style="fill: #fc4f30; stroke: #fc4f30"/>
     <use xlink:href="#m36b1ac3b7a" x="300.076007" y="342.858917" style="fill: #fc4f30; stroke: #fc4f30"/>
     <use xlink:href="#m36b1ac3b7a" x="308.91118" y="322.799528" style="fill: #fc4f30; stroke: #fc4f30"/>
     <use xlink:href="#m36b1ac3b7a" x="317.746354" y="311.151574" style="fill: #fc4f30; stroke: #fc4f30"/>
     <use xlink:href="#m36b1ac3b7a" x="326.581527" y="269.708187" style="fill: #fc4f30; stroke: #fc4f30"/>
     <use xlink:href="#m36b1ac3b7a" x="335.416701" y="251.272248" style="fill: #fc4f30; stroke: #fc4f30"/>
     <use xlink:href="#m36b1ac3b7a" x="344.251874" y="251.474287" style="fill: #fc4f30; stroke: #fc4f30"/>
     <use xlink:href="#m36b1ac3b7a" x="353.087048" y="238.953664" style="fill: #fc4f30; stroke: #fc4f30"/>
     <use xlink:href="#m36b1ac3b7a" x="361.922221" y="231.326428" style="fill: #fc4f30; stroke: #fc4f30"/>
     <use xlink:href="#m36b1ac3b7a" x="370.757395" y="284.65494" style="fill: #fc4f30; stroke: #fc4f30"/>
     <use xlink:href="#m36b1ac3b7a" x="379.592569" y="304.164167" style="fill: #fc4f30; stroke: #fc4f30"/>
     <use xlink:href="#m36b1ac3b7a" x="388.427742" y="357.316728" style="fill: #fc4f30; stroke: #fc4f30"/>
     <use xlink:href="#m36b1ac3b7a" x="397.262916" y="389.991937" style="fill: #fc4f30; stroke: #fc4f30"/>
     <use xlink:href="#m36b1ac3b7a" x="406.098089" y="426.167695" style="fill: #fc4f30; stroke: #fc4f30"/>
     <use xlink:href="#m36b1ac3b7a" x="414.933263" y="432.452406" style="fill: #fc4f30; stroke: #fc4f30"/>
     <use xlink:href="#m36b1ac3b7a" x="423.768436" y="423.718514" style="fill: #fc4f30; stroke: #fc4f30"/>
     <use xlink:href="#m36b1ac3b7a" x="432.60361" y="384.752184" style="fill: #fc4f30; stroke: #fc4f30"/>
     <use xlink:href="#m36b1ac3b7a" x="441.438783" y="365.645219" style="fill: #fc4f30; stroke: #fc4f30"/>
     <use xlink:href="#m36b1ac3b7a" x="450.273957" y="344.145647" style="fill: #fc4f30; stroke: #fc4f30"/>
     <use xlink:href="#m36b1ac3b7a" x="459.109131" y="326.095196" style="fill: #fc4f30; stroke: #fc4f30"/>
     <use xlink:href="#m36b1ac3b7a" x="467.944304" y="330.211303" style="fill: #fc4f30; stroke: #fc4f30"/>
     <use xlink:href="#m36b1ac3b7a" x="476.779478" y="359.408949" style="fill: #fc4f30; stroke: #fc4f30"/>
     <use xlink:href="#m36b1ac3b7a" x="485.614651" y="388.639246" style="fill: #fc4f30; stroke: #fc4f30"/>
     <use xlink:href="#m36b1ac3b7a" x="494.449825" y="420.620591" style="fill: #fc4f30; stroke: #fc4f30"/>
     <use xlink:href="#m36b1ac3b7a" x="503.284998" y="451.765061" style="fill: #fc4f30; stroke: #fc4f30"/>
     <use xlink:href="#m36b1ac3b7a" x="512.120172" y="466.884924" style="fill: #fc4f30; stroke: #fc4f30"/>
     <use xlink:href="#m36b1ac3b7a" x="520.955345" y="474.883193" style="fill: #fc4f30; stroke: #fc4f30"/>
     <use xlink:href="#m36b1ac3b7a" x="529.790519" y="475.596366" style="fill: #fc4f30; stroke: #fc4f30"/>
     <use xlink:href="#m36b1ac3b7a" x="538.625693" y="442.828176" style="fill: #fc4f30; stroke: #fc4f30"/>
     <use xlink:href="#m36b1ac3b7a" x="547.460866" y="410.716999" style="fill: #fc4f30; stroke: #fc4f30"/>
     <use xlink:href="#m36b1ac3b7a" x="556.29604" y="372.31141" style="fill: #fc4f30; stroke: #fc4f30"/>
     <use xlink:href="#m36b1ac3b7a" x="565.131213" y="362.940258" style="fill: #fc4f30; stroke: #fc4f30"/>
     <use xlink:href="#m36b1ac3b7a" x="573.966387" y="327.318259" style="fill: #fc4f30; stroke: #fc4f30"/>
     <use xlink:href="#m36b1ac3b7a" x="582.80156" y="345.00828" style="fill: #fc4f30; stroke: #fc4f30"/>
     <use xlink:href="#m36b1ac3b7a" x="591.636734" y="341.029612" style="fill: #fc4f30; stroke: #fc4f30"/>
     <use xlink:href="#m36b1ac3b7a" x="600.471907" y="380.723002" style="fill: #fc4f30; stroke: #fc4f30"/>
     <use xlink:href="#m36b1ac3b7a" x="609.307081" y="409.674408" style="fill: #fc4f30; stroke: #fc4f30"/>
     <use xlink:href="#m36b1ac3b7a" x="618.142255" y="428.500674" style="fill: #fc4f30; stroke: #fc4f30"/>
     <use xlink:href="#m36b1ac3b7a" x="626.977428" y="432.155684" style="fill: #fc4f30; stroke: #fc4f30"/>
     <use xlink:href="#m36b1ac3b7a" x="635.812602" y="420.313543" style="fill: #fc4f30; stroke: #fc4f30"/>
     <use xlink:href="#m36b1ac3b7a" x="644.647775" y="388.352458" style="fill: #fc4f30; stroke: #fc4f30"/>
     <use xlink:href="#m36b1ac3b7a" x="653.482949" y="350.935194" style="fill: #fc4f30; stroke: #fc4f30"/>
     <use xlink:href="#m36b1ac3b7a" x="662.318122" y="317.026095" style="fill: #fc4f30; stroke: #fc4f30"/>
     <use xlink:href="#m36b1ac3b7a" x="671.153296" y="254.069256" style="fill: #fc4f30; stroke: #fc4f30"/>
     <use xlink:href="#m36b1ac3b7a" x="679.988469" y="227.877561" style="fill: #fc4f30; stroke: #fc4f30"/>
     <use xlink:href="#m36b1ac3b7a" x="688.823643" y="205.275006" style="fill: #fc4f30; stroke: #fc4f30"/>
     <use xlink:href="#m36b1ac3b7a" x="697.658817" y="249.597084" style="fill: #fc4f30; stroke: #fc4f30"/>
     <use xlink:href="#m36b1ac3b7a" x="706.49399" y="232.5943" style="fill: #fc4f30; stroke: #fc4f30"/>
     <use xlink:href="#m36b1ac3b7a" x="715.329164" y="263.97804" style="fill: #fc4f30; stroke: #fc4f30"/>
     <use xlink:href="#m36b1ac3b7a" x="724.164337" y="274.535651" style="fill: #fc4f30; stroke: #fc4f30"/>
     <use xlink:href="#m36b1ac3b7a" x="732.999511" y="270.539624" style="fill: #fc4f30; stroke: #fc4f30"/>
     <use xlink:href="#m36b1ac3b7a" x="741.834684" y="291.15176" style="fill: #fc4f30; stroke: #fc4f30"/>
     <use xlink:href="#m36b1ac3b7a" x="750.669858" y="265.318336" style="fill: #fc4f30; stroke: #fc4f30"/>
     <use xlink:href="#m36b1ac3b7a" x="759.505031" y="228.026052" style="fill: #fc4f30; stroke: #fc4f30"/>
     <use xlink:href="#m36b1ac3b7a" x="768.340205" y="206.383858" style="fill: #fc4f30; stroke: #fc4f30"/>
     <use xlink:href="#m36b1ac3b7a" x="777.175379" y="163.516309" style="fill: #fc4f30; stroke: #fc4f30"/>
     <use xlink:href="#m36b1ac3b7a" x="786.010552" y="111.753607" style="fill: #fc4f30; stroke: #fc4f30"/>
     <use xlink:href="#m36b1ac3b7a" x="794.845726" y="105.674248" style="fill: #fc4f30; stroke: #fc4f30"/>
     <use xlink:href="#m36b1ac3b7a" x="803.680899" y="102.443773" style="fill: #fc4f30; stroke: #fc4f30"/>
     <use xlink:href="#m36b1ac3b7a" x="812.516073" y="111.475812" style="fill: #fc4f30; stroke: #fc4f30"/>
     <use xlink:href="#m36b1ac3b7a" x="821.351246" y="134.941028" style="fill: #fc4f30; stroke: #fc4f30"/>
     <use xlink:href="#m36b1ac3b7a" x="830.18642" y="176.043796" style="fill: #fc4f30; stroke: #fc4f30"/>
     <use xlink:href="#m36b1ac3b7a" x="839.021593" y="184.009314" style="fill: #fc4f30; stroke: #fc4f30"/>
     <use xlink:href="#m36b1ac3b7a" x="847.856767" y="226.55116" style="fill: #fc4f30; stroke: #fc4f30"/>
     <use xlink:href="#m36b1ac3b7a" x="856.69194" y="209.959095" style="fill: #fc4f30; stroke: #fc4f30"/>
     <use xlink:href="#m36b1ac3b7a" x="865.527114" y="188.145439" style="fill: #fc4f30; stroke: #fc4f30"/>
     <use xlink:href="#m36b1ac3b7a" x="874.362288" y="183.035393" style="fill: #fc4f30; stroke: #fc4f30"/>
     <use xlink:href="#m36b1ac3b7a" x="883.197461" y="120.224221" style="fill: #fc4f30; stroke: #fc4f30"/>
     <use xlink:href="#m36b1ac3b7a" x="892.032635" y="97.796882" style="fill: #fc4f30; stroke: #fc4f30"/>
     <use xlink:href="#m36b1ac3b7a" x="900.867808" y="94.046827" style="fill: #fc4f30; stroke: #fc4f30"/>
     <use xlink:href="#m36b1ac3b7a" x="909.702982" y="85.896877" style="fill: #fc4f30; stroke: #fc4f30"/>
     <use xlink:href="#m36b1ac3b7a" x="918.538155" y="94.235765" style="fill: #fc4f30; stroke: #fc4f30"/>
     <use xlink:href="#m36b1ac3b7a" x="927.373329" y="129.34844" style="fill: #fc4f30; stroke: #fc4f30"/>
     <use xlink:href="#m36b1ac3b7a" x="936.208502" y="157.852775" style="fill: #fc4f30; stroke: #fc4f30"/>
     <use xlink:href="#m36b1ac3b7a" x="945.043676" y="216.414848" style="fill: #fc4f30; stroke: #fc4f30"/>
     <use xlink:href="#m36b1ac3b7a" x="953.87885" y="248.485969" style="fill: #fc4f30; stroke: #fc4f30"/>
     <use xlink:href="#m36b1ac3b7a" x="962.714023" y="256.41328" style="fill: #fc4f30; stroke: #fc4f30"/>
     <use xlink:href="#m36b1ac3b7a" x="971.549197" y="232.497395" style="fill: #fc4f30; stroke: #fc4f30"/>
     <use xlink:href="#m36b1ac3b7a" x="980.38437" y="205.478038" style="fill: #fc4f30; stroke: #fc4f30"/>
     <use xlink:href="#m36b1ac3b7a" x="989.219544" y="215.782696" style="fill: #fc4f30; stroke: #fc4f30"/>
     <use xlink:href="#m36b1ac3b7a" x="998.054717" y="195.190338" style="fill: #fc4f30; stroke: #fc4f30"/>
     <use xlink:href="#m36b1ac3b7a" x="1006.889891" y="141.788699" style="fill: #fc4f30; stroke: #fc4f30"/>
    </g>
   </g>
   <g id="patch_3">
    <path d="M 88.4736 505.14624 
L 88.4736 65.18016 
" style="fill: none; stroke: #f0f0f0; stroke-width: 3; stroke-linejoin: miter; stroke-linecap: square"/>
   </g>
   <g id="patch_4">
    <path d="M 1050.624 505.14624 
L 1050.624 65.18016 
" style="fill: none; stroke: #f0f0f0; stroke-width: 3; stroke-linejoin: miter; stroke-linecap: square"/>
   </g>
   <g id="patch_5">
    <path d="M 88.4736 505.14624 
L 1050.624 505.14624 
" style="fill: none; stroke: #f0f0f0; stroke-width: 3; stroke-linejoin: miter; stroke-linecap: square"/>
   </g>
   <g id="patch_6">
    <path d="M 88.4736 65.18016 
L 1050.624 65.18016 
" style="fill: none; stroke: #f0f0f0; stroke-width: 3; stroke-linejoin: miter; stroke-linecap: square"/>
   </g>
  </g>
 </g>
 <defs>
  <clipPath id="p1c748f7c8a">
   <rect x="88.4736" y="65.18016" width="962.1504" height="439.96608"/>
  </clipPath>
 </defs>
</svg>
