<?xml version="1.0" encoding="utf-8" standalone="no"?>
<!DOCTYPE svg PUBLIC "-//W3C//DTD SVG 1.1//EN"
  "http://www.w3.org/Graphics/SVG/1.1/DTD/svg11.dtd">
<svg xmlns:xlink="http://www.w3.org/1999/xlink" width="1105.92pt" height="543.168pt" viewBox="0 0 1105.92 543.168" xmlns="http://www.w3.org/2000/svg" version="1.1">
 <metadata>
  <rdf:RDF xmlns:dc="http://purl.org/dc/elements/1.1/" xmlns:cc="http://creativecommons.org/ns#" xmlns:rdf="http://www.w3.org/1999/02/22-rdf-syntax-ns#">
   <cc:Work>
    <dc:type rdf:resource="http://purl.org/dc/dcmitype/StillImage"/>
    <dc:date>2023-12-28T00:13:28.261772</dc:date>
    <dc:format>image/svg+xml</dc:format>
    <dc:creator>
     <cc:Agent>
      <dc:title>Matplotlib v3.8.0, https://matplotlib.org/</dc:title>
     </cc:Agent>
    </dc:creator>
   </cc:Work>
  </rdf:RDF>
 </metadata>
 <defs>
  <style type="text/css">*{stroke-linejoin: round; stroke-linecap: butt}</style>
 </defs>
 <g id="figure_1">
  <g id="patch_1">
   <path d="M 0 543.168 
L 1105.92 543.168 
L 1105.92 0 
L 0 0 
z
" style="fill: #f0f0f0"/>
  </g>
  <g id="axes_1">
   <g id="patch_2">
    <path d="M 88.4736 505.14624 
L 1050.624 505.14624 
L 1050.624 65.18016 
L 88.4736 65.18016 
z
" style="fill: #f0f0f0"/>
   </g>
   <g id="matplotlib.axis_1">
    <g id="xtick_1">
     <g id="line2d_1">
      <path d="M 116.664711 505.14624 
L 116.664711 65.18016 
" clip-path="url(#pb84df9285c)" style="fill: none; stroke: #cbcbcb"/>
     </g>
     <g id="line2d_2"/>
     <g id="text_1">
      <!-- 1 -->
      <g transform="translate(112.210961 519.284053) scale(0.14 -0.14)">
       <defs>
        <path id="DejaVuSans-31" d="M 794 531 
L 1825 531 
L 1825 4091 
L 703 3866 
L 703 4441 
L 1819 4666 
L 2450 4666 
L 2450 531 
L 3481 531 
L 3481 0 
L 794 0 
L 794 531 
z
" transform="scale(0.015625)"/>
       </defs>
       <use xlink:href="#DejaVuSans-31"/>
      </g>
     </g>
    </g>
    <g id="xtick_2">
     <g id="line2d_3">
      <path d="M 272.094687 505.14624 
L 272.094687 65.18016 
" clip-path="url(#pb84df9285c)" style="fill: none; stroke: #cbcbcb"/>
     </g>
     <g id="line2d_4"/>
     <g id="text_2">
      <!-- 2 -->
      <g transform="translate(267.640937 519.284053) scale(0.14 -0.14)">
       <defs>
        <path id="DejaVuSans-32" d="M 1228 531 
L 3431 531 
L 3431 0 
L 469 0 
L 469 531 
Q 828 903 1448 1529 
Q 2069 2156 2228 2338 
Q 2531 2678 2651 2914 
Q 2772 3150 2772 3378 
Q 2772 3750 2511 3984 
Q 2250 4219 1831 4219 
Q 1534 4219 1204 4116 
Q 875 4013 500 3803 
L 500 4441 
Q 881 4594 1212 4672 
Q 1544 4750 1819 4750 
Q 2544 4750 2975 4387 
Q 3406 4025 3406 3419 
Q 3406 3131 3298 2873 
Q 3191 2616 2906 2266 
Q 2828 2175 2409 1742 
Q 1991 1309 1228 531 
z
" transform="scale(0.015625)"/>
       </defs>
       <use xlink:href="#DejaVuSans-32"/>
      </g>
     </g>
    </g>
    <g id="xtick_3">
     <g id="line2d_5">
      <path d="M 427.524663 505.14624 
L 427.524663 65.18016 
" clip-path="url(#pb84df9285c)" style="fill: none; stroke: #cbcbcb"/>
     </g>
     <g id="line2d_6"/>
     <g id="text_3">
      <!-- 3 -->
      <g transform="translate(423.070913 519.284053) scale(0.14 -0.14)">
       <defs>
        <path id="DejaVuSans-33" d="M 2597 2516 
Q 3050 2419 3304 2112 
Q 3559 1806 3559 1356 
Q 3559 666 3084 287 
Q 2609 -91 1734 -91 
Q 1441 -91 1130 -33 
Q 819 25 488 141 
L 488 750 
Q 750 597 1062 519 
Q 1375 441 1716 441 
Q 2309 441 2620 675 
Q 2931 909 2931 1356 
Q 2931 1769 2642 2001 
Q 2353 2234 1838 2234 
L 1294 2234 
L 1294 2753 
L 1863 2753 
Q 2328 2753 2575 2939 
Q 2822 3125 2822 3475 
Q 2822 3834 2567 4026 
Q 2313 4219 1838 4219 
Q 1578 4219 1281 4162 
Q 984 4106 628 3988 
L 628 4550 
Q 988 4650 1302 4700 
Q 1616 4750 1894 4750 
Q 2613 4750 3031 4423 
Q 3450 4097 3450 3541 
Q 3450 3153 3228 2886 
Q 3006 2619 2597 2516 
z
" transform="scale(0.015625)"/>
       </defs>
       <use xlink:href="#DejaVuSans-33"/>
      </g>
     </g>
    </g>
    <g id="xtick_4">
     <g id="line2d_7">
      <path d="M 582.954639 505.14624 
L 582.954639 65.18016 
" clip-path="url(#pb84df9285c)" style="fill: none; stroke: #cbcbcb"/>
     </g>
     <g id="line2d_8"/>
     <g id="text_4">
      <!-- 4 -->
      <g transform="translate(578.500889 519.284053) scale(0.14 -0.14)">
       <defs>
        <path id="DejaVuSans-34" d="M 2419 4116 
L 825 1625 
L 2419 1625 
L 2419 4116 
z
M 2253 4666 
L 3047 4666 
L 3047 1625 
L 3713 1625 
L 3713 1100 
L 3047 1100 
L 3047 0 
L 2419 0 
L 2419 1100 
L 313 1100 
L 313 1709 
L 2253 4666 
z
" transform="scale(0.015625)"/>
       </defs>
       <use xlink:href="#DejaVuSans-34"/>
      </g>
     </g>
    </g>
    <g id="xtick_5">
     <g id="line2d_9">
      <path d="M 738.384615 505.14624 
L 738.384615 65.18016 
" clip-path="url(#pb84df9285c)" style="fill: none; stroke: #cbcbcb"/>
     </g>
     <g id="line2d_10"/>
     <g id="text_5">
      <!-- 5 -->
      <g transform="translate(733.930865 519.284053) scale(0.14 -0.14)">
       <defs>
        <path id="DejaVuSans-35" d="M 691 4666 
L 3169 4666 
L 3169 4134 
L 1269 4134 
L 1269 2991 
Q 1406 3038 1543 3061 
Q 1681 3084 1819 3084 
Q 2600 3084 3056 2656 
Q 3513 2228 3513 1497 
Q 3513 744 3044 326 
Q 2575 -91 1722 -91 
Q 1428 -91 1123 -41 
Q 819 9 494 109 
L 494 744 
Q 775 591 1075 516 
Q 1375 441 1709 441 
Q 2250 441 2565 725 
Q 2881 1009 2881 1497 
Q 2881 1984 2565 2268 
Q 2250 2553 1709 2553 
Q 1456 2553 1204 2497 
Q 953 2441 691 2322 
L 691 4666 
z
" transform="scale(0.015625)"/>
       </defs>
       <use xlink:href="#DejaVuSans-35"/>
      </g>
     </g>
    </g>
    <g id="xtick_6">
     <g id="line2d_11">
      <path d="M 893.814591 505.14624 
L 893.814591 65.18016 
" clip-path="url(#pb84df9285c)" style="fill: none; stroke: #cbcbcb"/>
     </g>
     <g id="line2d_12"/>
     <g id="text_6">
      <!-- 6 -->
      <g transform="translate(889.360841 519.284053) scale(0.14 -0.14)">
       <defs>
        <path id="DejaVuSans-36" d="M 2113 2584 
Q 1688 2584 1439 2293 
Q 1191 2003 1191 1497 
Q 1191 994 1439 701 
Q 1688 409 2113 409 
Q 2538 409 2786 701 
Q 3034 994 3034 1497 
Q 3034 2003 2786 2293 
Q 2538 2584 2113 2584 
z
M 3366 4563 
L 3366 3988 
Q 3128 4100 2886 4159 
Q 2644 4219 2406 4219 
Q 1781 4219 1451 3797 
Q 1122 3375 1075 2522 
Q 1259 2794 1537 2939 
Q 1816 3084 2150 3084 
Q 2853 3084 3261 2657 
Q 3669 2231 3669 1497 
Q 3669 778 3244 343 
Q 2819 -91 2113 -91 
Q 1303 -91 875 529 
Q 447 1150 447 2328 
Q 447 3434 972 4092 
Q 1497 4750 2381 4750 
Q 2619 4750 2861 4703 
Q 3103 4656 3366 4563 
z
" transform="scale(0.015625)"/>
       </defs>
       <use xlink:href="#DejaVuSans-36"/>
      </g>
     </g>
    </g>
    <g id="xtick_7">
     <g id="line2d_13">
      <path d="M 1049.244567 505.14624 
L 1049.244567 65.18016 
" clip-path="url(#pb84df9285c)" style="fill: none; stroke: #cbcbcb"/>
     </g>
     <g id="line2d_14"/>
     <g id="text_7">
      <!-- 7 -->
      <g transform="translate(1044.790817 519.284053) scale(0.14 -0.14)">
       <defs>
        <path id="DejaVuSans-37" d="M 525 4666 
L 3525 4666 
L 3525 4397 
L 1831 0 
L 1172 0 
L 2766 4134 
L 525 4134 
L 525 4666 
z
" transform="scale(0.015625)"/>
       </defs>
       <use xlink:href="#DejaVuSans-37"/>
      </g>
     </g>
    </g>
    <g id="text_8">
     <!-- x -->
     <g transform="translate(564.57705 538.96099) scale(0.168 -0.168)">
      <defs>
       <path id="DejaVuSans-78" d="M 3513 3500 
L 2247 1797 
L 3578 0 
L 2900 0 
L 1881 1375 
L 863 0 
L 184 0 
L 1544 1831 
L 300 3500 
L 978 3500 
L 1906 2253 
L 2834 3500 
L 3513 3500 
z
" transform="scale(0.015625)"/>
      </defs>
      <use xlink:href="#DejaVuSans-78"/>
     </g>
    </g>
   </g>
   <g id="matplotlib.axis_2">
    <g id="ytick_1">
     <g id="line2d_15">
      <path d="M 88.4736 460.193014 
L 1050.624 460.193014 
" clip-path="url(#pb84df9285c)" style="fill: none; stroke: #cbcbcb"/>
     </g>
     <g id="line2d_16"/>
     <g id="text_9">
      <!-- 20 -->
      <g transform="translate(67.1586 465.51192) scale(0.14 -0.14)">
       <defs>
        <path id="DejaVuSans-30" d="M 2034 4250 
Q 1547 4250 1301 3770 
Q 1056 3291 1056 2328 
Q 1056 1369 1301 889 
Q 1547 409 2034 409 
Q 2525 409 2770 889 
Q 3016 1369 3016 2328 
Q 3016 3291 2770 3770 
Q 2525 4250 2034 4250 
z
M 2034 4750 
Q 2819 4750 3233 4129 
Q 3647 3509 3647 2328 
Q 3647 1150 3233 529 
Q 2819 -91 2034 -91 
Q 1250 -91 836 529 
Q 422 1150 422 2328 
Q 422 3509 836 4129 
Q 1250 4750 2034 4750 
z
" transform="scale(0.015625)"/>
       </defs>
       <use xlink:href="#DejaVuSans-32"/>
       <use xlink:href="#DejaVuSans-30" x="63.623047"/>
      </g>
     </g>
    </g>
    <g id="ytick_2">
     <g id="line2d_17">
      <path d="M 88.4736 393.910783 
L 1050.624 393.910783 
" clip-path="url(#pb84df9285c)" style="fill: none; stroke: #cbcbcb"/>
     </g>
     <g id="line2d_18"/>
     <g id="text_10">
      <!-- 40 -->
      <g transform="translate(67.1586 399.229689) scale(0.14 -0.14)">
       <use xlink:href="#DejaVuSans-34"/>
       <use xlink:href="#DejaVuSans-30" x="63.623047"/>
      </g>
     </g>
    </g>
    <g id="ytick_3">
     <g id="line2d_19">
      <path d="M 88.4736 327.628552 
L 1050.624 327.628552 
" clip-path="url(#pb84df9285c)" style="fill: none; stroke: #cbcbcb"/>
     </g>
     <g id="line2d_20"/>
     <g id="text_11">
      <!-- 60 -->
      <g transform="translate(67.1586 332.947459) scale(0.14 -0.14)">
       <use xlink:href="#DejaVuSans-36"/>
       <use xlink:href="#DejaVuSans-30" x="63.623047"/>
      </g>
     </g>
    </g>
    <g id="ytick_4">
     <g id="line2d_21">
      <path d="M 88.4736 261.346322 
L 1050.624 261.346322 
" clip-path="url(#pb84df9285c)" style="fill: none; stroke: #cbcbcb"/>
     </g>
     <g id="line2d_22"/>
     <g id="text_12">
      <!-- 80 -->
      <g transform="translate(67.1586 266.665228) scale(0.14 -0.14)">
       <defs>
        <path id="DejaVuSans-38" d="M 2034 2216 
Q 1584 2216 1326 1975 
Q 1069 1734 1069 1313 
Q 1069 891 1326 650 
Q 1584 409 2034 409 
Q 2484 409 2743 651 
Q 3003 894 3003 1313 
Q 3003 1734 2745 1975 
Q 2488 2216 2034 2216 
z
M 1403 2484 
Q 997 2584 770 2862 
Q 544 3141 544 3541 
Q 544 4100 942 4425 
Q 1341 4750 2034 4750 
Q 2731 4750 3128 4425 
Q 3525 4100 3525 3541 
Q 3525 3141 3298 2862 
Q 3072 2584 2669 2484 
Q 3125 2378 3379 2068 
Q 3634 1759 3634 1313 
Q 3634 634 3220 271 
Q 2806 -91 2034 -91 
Q 1263 -91 848 271 
Q 434 634 434 1313 
Q 434 1759 690 2068 
Q 947 2378 1403 2484 
z
M 1172 3481 
Q 1172 3119 1398 2916 
Q 1625 2713 2034 2713 
Q 2441 2713 2670 2916 
Q 2900 3119 2900 3481 
Q 2900 3844 2670 4047 
Q 2441 4250 2034 4250 
Q 1625 4250 1398 4047 
Q 1172 3844 1172 3481 
z
" transform="scale(0.015625)"/>
       </defs>
       <use xlink:href="#DejaVuSans-38"/>
       <use xlink:href="#DejaVuSans-30" x="63.623047"/>
      </g>
     </g>
    </g>
    <g id="ytick_5">
     <g id="line2d_23">
      <path d="M 88.4736 195.064091 
L 1050.624 195.064091 
" clip-path="url(#pb84df9285c)" style="fill: none; stroke: #cbcbcb"/>
     </g>
     <g id="line2d_24"/>
     <g id="text_13">
      <!-- 100 -->
      <g transform="translate(58.2511 200.382997) scale(0.14 -0.14)">
       <use xlink:href="#DejaVuSans-31"/>
       <use xlink:href="#DejaVuSans-30" x="63.623047"/>
       <use xlink:href="#DejaVuSans-30" x="127.246094"/>
      </g>
     </g>
    </g>
    <g id="ytick_6">
     <g id="line2d_25">
      <path d="M 88.4736 128.78186 
L 1050.624 128.78186 
" clip-path="url(#pb84df9285c)" style="fill: none; stroke: #cbcbcb"/>
     </g>
     <g id="line2d_26"/>
     <g id="text_14">
      <!-- 120 -->
      <g transform="translate(58.2511 134.100766) scale(0.14 -0.14)">
       <use xlink:href="#DejaVuSans-31"/>
       <use xlink:href="#DejaVuSans-32" x="63.623047"/>
       <use xlink:href="#DejaVuSans-30" x="127.246094"/>
      </g>
     </g>
    </g>
    <g id="text_15">
     <!-- f(x) -->
     <g transform="translate(50.757225 299.646637) rotate(-90) scale(0.168 -0.168)">
      <defs>
       <path id="DejaVuSans-66" d="M 2375 4863 
L 2375 4384 
L 1825 4384 
Q 1516 4384 1395 4259 
Q 1275 4134 1275 3809 
L 1275 3500 
L 2222 3500 
L 2222 3053 
L 1275 3053 
L 1275 0 
L 697 0 
L 697 3053 
L 147 3053 
L 147 3500 
L 697 3500 
L 697 3744 
Q 697 4328 969 4595 
Q 1241 4863 1831 4863 
L 2375 4863 
z
" transform="scale(0.015625)"/>
       <path id="DejaVuSans-28" d="M 1984 4856 
Q 1566 4138 1362 3434 
Q 1159 2731 1159 2009 
Q 1159 1288 1364 580 
Q 1569 -128 1984 -844 
L 1484 -844 
Q 1016 -109 783 600 
Q 550 1309 550 2009 
Q 550 2706 781 3412 
Q 1013 4119 1484 4856 
L 1984 4856 
z
" transform="scale(0.015625)"/>
       <path id="DejaVuSans-29" d="M 513 4856 
L 1013 4856 
Q 1481 4119 1714 3412 
Q 1947 2706 1947 2009 
Q 1947 1309 1714 600 
Q 1481 -109 1013 -844 
L 513 -844 
Q 928 -128 1133 580 
Q 1338 1288 1338 2009 
Q 1338 2731 1133 3434 
Q 928 4138 513 4856 
z
" transform="scale(0.015625)"/>
      </defs>
      <use xlink:href="#DejaVuSans-66"/>
      <use xlink:href="#DejaVuSans-28" x="35.205078"/>
      <use xlink:href="#DejaVuSans-78" x="74.21875"/>
      <use xlink:href="#DejaVuSans-29" x="133.398438"/>
     </g>
    </g>
   </g>
   <g id="line2d_27">
    <path d="M 132.207709 456.702644 
L 141.838844 453.912164 
L 151.469979 451.367991 
L 161.101114 449.072835 
L 169.856692 447.204105 
L 178.612269 445.543741 
L 187.367847 444.092076 
L 196.123424 442.848823 
L 204.879001 441.813059 
L 213.634579 440.983197 
L 223.265714 440.305455 
L 232.896849 439.870155 
L 242.527984 439.672335 
L 252.159119 439.706026 
L 261.790255 439.964255 
L 271.42139 440.43906 
L 281.928083 441.193497 
L 292.434775 442.182111 
L 302.941468 443.390677 
L 314.323719 444.930171 
L 325.70597 446.688295 
L 337.963778 448.799875 
L 351.972702 451.451825 
L 367.732741 454.68147 
L 386.995011 458.879216 
L 449.159611 472.64057 
L 464.044092 475.591998 
L 477.177458 477.965811 
L 488.559709 479.80877 
L 499.94196 481.419596 
L 510.448653 482.673724 
L 520.079788 483.60609 
L 529.710923 484.312203 
L 538.4665 484.743129 
L 547.222078 484.959982 
L 555.977655 484.950481 
L 564.733232 484.702784 
L 572.613252 484.266799 
L 580.493272 483.620732 
L 588.373291 482.757002 
L 596.253311 481.668396 
L 604.133331 480.348085 
L 612.01335 478.789641 
L 619.89337 476.987048 
L 627.77339 474.934717 
L 635.653409 472.627499 
L 643.533429 470.060691 
L 650.537891 467.557718 
L 657.542353 464.843611 
L 664.546815 461.915995 
L 671.551277 458.772796 
L 678.555739 455.412244 
L 686.435758 451.37 
L 694.315778 447.049192 
L 702.195798 442.448687 
L 710.075817 437.567842 
L 717.955837 432.406509 
L 725.835857 426.965027 
L 733.715876 421.244223 
L 741.595896 415.245406 
L 749.475915 408.970362 
L 757.355935 402.421345 
L 765.235955 395.601071 
L 773.991532 387.708713 
L 782.74711 379.490373 
L 791.502687 370.951685 
L 800.258264 362.098916 
L 809.013842 352.938938 
L 817.769419 343.479204 
L 827.400554 332.73685 
L 837.031689 321.652877 
L 846.662825 310.239388 
L 857.169517 297.427516 
L 867.67621 284.256095 
L 878.182903 270.743293 
L 889.565154 255.74106 
L 901.822962 239.189876 
L 914.080771 222.260119 
L 927.214137 203.737803 
L 941.22306 183.588159 
L 956.107542 161.789273 
L 972.743139 137.02163 
L 991.129852 109.244947 
L 1006.889891 85.178618 
L 1006.889891 85.178618 
" clip-path="url(#pb84df9285c)" style="fill: none; stroke-dasharray: 14.8,6.4; stroke-dashoffset: 0; stroke: #008000; stroke-width: 4"/>
   </g>
   <g id="line2d_28">
    <path d="M 132.207709 456.441819 
L 141.838844 453.632333 
L 151.469979 451.071185 
L 161.101114 448.761033 
L 169.856692 446.880346 
L 178.612269 445.209591 
L 187.367847 443.749069 
L 196.123424 442.498467 
L 204.879001 441.456833 
L 213.634579 440.622555 
L 222.390156 439.99335 
L 232.021291 439.534521 
L 241.652427 439.315316 
L 251.283562 439.329817 
L 260.914697 439.5711 
L 270.545832 440.031245 
L 280.176967 440.70135 
L 290.68366 441.660219 
L 301.190353 442.843129 
L 312.572603 444.359598 
L 323.954854 446.09981 
L 336.212662 448.197973 
L 349.346029 450.670103 
L 364.23051 453.702866 
L 381.741665 457.504771 
L 408.883955 463.659615 
L 437.77736 470.147907 
L 454.412957 473.656198 
L 468.421881 476.388526 
L 480.679689 478.562513 
L 492.06194 480.363496 
L 502.568633 481.811933 
L 513.075326 483.029949 
L 522.706461 483.923744 
L 532.337596 484.586111 
L 541.093173 484.972839 
L 549.848751 485.141348 
L 558.604328 485.079436 
L 567.359906 484.775356 
L 575.239925 484.285316 
L 583.119945 483.582146 
L 590.999965 482.658356 
L 598.879984 481.506831 
L 606.760004 480.12085 
L 614.640024 478.494095 
L 622.520043 476.620668 
L 630.400063 474.495105 
L 638.280083 472.112385 
L 645.284544 469.774826 
L 652.289006 467.227567 
L 659.293468 464.468003 
L 666.29793 461.493827 
L 673.302392 458.303033 
L 680.306854 454.893919 
L 688.186874 450.795979 
L 696.066893 446.418449 
L 703.946913 441.7603 
L 711.826933 436.821001 
L 719.706952 431.600513 
L 727.586972 426.099287 
L 735.466992 420.318264 
L 743.347011 414.258866 
L 751.227031 407.922992 
L 759.107051 401.313011 
L 766.98707 394.431754 
L 775.742648 386.471754 
L 784.498225 378.186043 
L 793.253802 369.580411 
L 802.00938 360.661274 
L 810.764957 351.435655 
L 820.396092 340.942572 
L 830.027228 330.098734 
L 839.658363 318.915776 
L 849.289498 307.406043 
L 859.796191 294.492568 
L 870.302884 281.223353 
L 881.685134 266.468312 
L 893.067385 251.3417 
L 905.325193 234.664707 
L 917.583001 217.617921 
L 930.716368 198.980286 
L 944.725291 178.719414 
L 960.485331 155.516632 
L 977.996486 129.309753 
L 997.258756 100.073328 
L 1006.889891 85.331267 
L 1006.889891 85.331267 
" clip-path="url(#pb84df9285c)" style="fill: none; stroke: #008fd5; stroke-width: 4"/>
   </g>
   <g id="line2d_29">
    <defs>
     <path id="mb7410c1c47" d="M 0 1.5 
C 0.397805 1.5 0.77937 1.341951 1.06066 1.06066 
C 1.341951 0.77937 1.5 0.397805 1.5 0 
C 1.5 -0.397805 1.341951 -0.77937 1.06066 -1.06066 
C 0.77937 -1.341951 0.397805 -1.5 0 -1.5 
C -0.397805 -1.5 -0.77937 -1.341951 -1.06066 -1.06066 
C -1.341951 -0.77937 -1.5 -0.397805 -1.5 0 
C -1.5 0.397805 -1.341951 0.77937 -1.06066 1.06066 
C -0.77937 1.341951 -0.397805 1.5 0 1.5 
z
" style="stroke: #fc4f30"/>
    </defs>
    <g clip-path="url(#pb84df9285c)">
     <use xlink:href="#mb7410c1c47" x="132.207709" y="455.573717" style="fill: #fc4f30; stroke: #fc4f30"/>
     <use xlink:href="#mb7410c1c47" x="149.305006" y="452.633669" style="fill: #fc4f30; stroke: #fc4f30"/>
     <use xlink:href="#mb7410c1c47" x="168.112034" y="446.760905" style="fill: #fc4f30; stroke: #fc4f30"/>
     <use xlink:href="#mb7410c1c47" x="188.799763" y="443.979749" style="fill: #fc4f30; stroke: #fc4f30"/>
     <use xlink:href="#mb7410c1c47" x="211.556266" y="440.755175" style="fill: #fc4f30; stroke: #fc4f30"/>
     <use xlink:href="#mb7410c1c47" x="236.588419" y="438.573588" style="fill: #fc4f30; stroke: #fc4f30"/>
     <use xlink:href="#mb7410c1c47" x="264.123788" y="439.936465" style="fill: #fc4f30; stroke: #fc4f30"/>
     <use xlink:href="#mb7410c1c47" x="294.412693" y="443.360449" style="fill: #fc4f30; stroke: #fc4f30"/>
     <use xlink:href="#mb7410c1c47" x="327.730488" y="446.905752" style="fill: #fc4f30; stroke: #fc4f30"/>
     <use xlink:href="#mb7410c1c47" x="364.380064" y="452.924551" style="fill: #fc4f30; stroke: #fc4f30"/>
     <use xlink:href="#mb7410c1c47" x="404.694597" y="463.546285" style="fill: #fc4f30; stroke: #fc4f30"/>
     <use xlink:href="#mb7410c1c47" x="449.040583" y="471.115392" style="fill: #fc4f30; stroke: #fc4f30"/>
     <use xlink:href="#mb7410c1c47" x="497.821167" y="482.429082" style="fill: #fc4f30; stroke: #fc4f30"/>
     <use xlink:href="#mb7410c1c47" x="551.479811" y="483.636261" style="fill: #fc4f30; stroke: #fc4f30"/>
     <use xlink:href="#mb7410c1c47" x="610.504318" y="478.452661" style="fill: #fc4f30; stroke: #fc4f30"/>
     <use xlink:href="#mb7410c1c47" x="675.431276" y="458.386702" style="fill: #fc4f30; stroke: #fc4f30"/>
     <use xlink:href="#mb7410c1c47" x="746.85093" y="412.559379" style="fill: #fc4f30; stroke: #fc4f30"/>
     <use xlink:href="#mb7410c1c47" x="825.41255" y="335.319541" style="fill: #fc4f30; stroke: #fc4f30"/>
     <use xlink:href="#mb7410c1c47" x="911.830331" y="224.899862" style="fill: #fc4f30; stroke: #fc4f30"/>
     <use xlink:href="#mb7410c1c47" x="1006.889891" y="85.514844" style="fill: #fc4f30; stroke: #fc4f30"/>
    </g>
   </g>
   <g id="patch_3">
    <path d="M 88.4736 505.14624 
L 88.4736 65.18016 
" style="fill: none; stroke: #f0f0f0; stroke-width: 3; stroke-linejoin: miter; stroke-linecap: square"/>
   </g>
   <g id="patch_4">
    <path d="M 1050.624 505.14624 
L 1050.624 65.18016 
" style="fill: none; stroke: #f0f0f0; stroke-width: 3; stroke-linejoin: miter; stroke-linecap: square"/>
   </g>
   <g id="patch_5">
    <path d="M 88.4736 505.14624 
L 1050.624 505.14624 
" style="fill: none; stroke: #f0f0f0; stroke-width: 3; stroke-linejoin: miter; stroke-linecap: square"/>
   </g>
   <g id="patch_6">
    <path d="M 88.4736 65.18016 
L 1050.624 65.18016 
" style="fill: none; stroke: #f0f0f0; stroke-width: 3; stroke-linejoin: miter; stroke-linecap: square"/>
   </g>
  </g>
 </g>
 <defs>
  <clipPath id="pb84df9285c">
   <rect x="88.4736" y="65.18016" width="962.1504" height="439.96608"/>
  </clipPath>
 </defs>
</svg>
