<?xml version="1.0" encoding="utf-8" standalone="no"?>
<!DOCTYPE svg PUBLIC "-//W3C//DTD SVG 1.1//EN"
  "http://www.w3.org/Graphics/SVG/1.1/DTD/svg11.dtd">
<svg xmlns:xlink="http://www.w3.org/1999/xlink" width="1105.92pt" height="543.168pt" viewBox="0 0 1105.92 543.168" xmlns="http://www.w3.org/2000/svg" version="1.1">
 <metadata>
  <rdf:RDF xmlns:dc="http://purl.org/dc/elements/1.1/" xmlns:cc="http://creativecommons.org/ns#" xmlns:rdf="http://www.w3.org/1999/02/22-rdf-syntax-ns#">
   <cc:Work>
    <dc:type rdf:resource="http://purl.org/dc/dcmitype/StillImage"/>
    <dc:date>2023-10-19T13:47:28.322433</dc:date>
    <dc:format>image/svg+xml</dc:format>
    <dc:creator>
     <cc:Agent>
      <dc:title>Matplotlib v3.8.0, https://matplotlib.org/</dc:title>
     </cc:Agent>
    </dc:creator>
   </cc:Work>
  </rdf:RDF>
 </metadata>
 <defs>
  <style type="text/css">*{stroke-linejoin: round; stroke-linecap: butt}</style>
 </defs>
 <g id="figure_1">
  <g id="patch_1">
   <path d="M 0 543.168 
L 1105.92 543.168 
L 1105.92 0 
L 0 0 
z
" style="fill: #f0f0f0"/>
  </g>
  <g id="axes_1">
   <g id="patch_2">
    <path d="M 88.4736 505.14624 
L 1050.624 505.14624 
L 1050.624 65.18016 
L 88.4736 65.18016 
z
" style="fill: #f0f0f0"/>
   </g>
   <g id="matplotlib.axis_1">
    <g id="xtick_1">
     <g id="line2d_1">
      <path d="M 173.859242 505.14624 
L 173.859242 65.18016 
" clip-path="url(#pa4f6850c6f)" style="fill: none; stroke: #cbcbcb"/>
     </g>
     <g id="line2d_2"/>
     <g id="text_1">
      <!-- $\mathdefault{10^{-17}}$ -->
      <g transform="translate(154.329242 519.284053) scale(0.14 -0.14)">
       <defs>
        <path id="DejaVuSans-31" d="M 794 531 
L 1825 531 
L 1825 4091 
L 703 3866 
L 703 4441 
L 1819 4666 
L 2450 4666 
L 2450 531 
L 3481 531 
L 3481 0 
L 794 0 
L 794 531 
z
" transform="scale(0.015625)"/>
        <path id="DejaVuSans-30" d="M 2034 4250 
Q 1547 4250 1301 3770 
Q 1056 3291 1056 2328 
Q 1056 1369 1301 889 
Q 1547 409 2034 409 
Q 2525 409 2770 889 
Q 3016 1369 3016 2328 
Q 3016 3291 2770 3770 
Q 2525 4250 2034 4250 
z
M 2034 4750 
Q 2819 4750 3233 4129 
Q 3647 3509 3647 2328 
Q 3647 1150 3233 529 
Q 2819 -91 2034 -91 
Q 1250 -91 836 529 
Q 422 1150 422 2328 
Q 422 3509 836 4129 
Q 1250 4750 2034 4750 
z
" transform="scale(0.015625)"/>
        <path id="DejaVuSans-2212" d="M 678 2272 
L 4684 2272 
L 4684 1741 
L 678 1741 
L 678 2272 
z
" transform="scale(0.015625)"/>
        <path id="DejaVuSans-37" d="M 525 4666 
L 3525 4666 
L 3525 4397 
L 1831 0 
L 1172 0 
L 2766 4134 
L 525 4134 
L 525 4666 
z
" transform="scale(0.015625)"/>
       </defs>
       <use xlink:href="#DejaVuSans-31" transform="translate(0 0.684375)"/>
       <use xlink:href="#DejaVuSans-30" transform="translate(63.623047 0.684375)"/>
       <use xlink:href="#DejaVuSans-2212" transform="translate(128.203125 38.965625) scale(0.7)"/>
       <use xlink:href="#DejaVuSans-31" transform="translate(186.855469 38.965625) scale(0.7)"/>
       <use xlink:href="#DejaVuSans-37" transform="translate(231.391602 38.965625) scale(0.7)"/>
      </g>
     </g>
    </g>
    <g id="xtick_2">
     <g id="line2d_3">
      <path d="M 298.813839 505.14624 
L 298.813839 65.18016 
" clip-path="url(#pa4f6850c6f)" style="fill: none; stroke: #cbcbcb"/>
     </g>
     <g id="line2d_4"/>
     <g id="text_2">
      <!-- $\mathdefault{10^{-14}}$ -->
      <g transform="translate(279.283839 519.284053) scale(0.14 -0.14)">
       <defs>
        <path id="DejaVuSans-34" d="M 2419 4116 
L 825 1625 
L 2419 1625 
L 2419 4116 
z
M 2253 4666 
L 3047 4666 
L 3047 1625 
L 3713 1625 
L 3713 1100 
L 3047 1100 
L 3047 0 
L 2419 0 
L 2419 1100 
L 313 1100 
L 313 1709 
L 2253 4666 
z
" transform="scale(0.015625)"/>
       </defs>
       <use xlink:href="#DejaVuSans-31" transform="translate(0 0.684375)"/>
       <use xlink:href="#DejaVuSans-30" transform="translate(63.623047 0.684375)"/>
       <use xlink:href="#DejaVuSans-2212" transform="translate(128.203125 38.965625) scale(0.7)"/>
       <use xlink:href="#DejaVuSans-31" transform="translate(186.855469 38.965625) scale(0.7)"/>
       <use xlink:href="#DejaVuSans-34" transform="translate(231.391602 38.965625) scale(0.7)"/>
      </g>
     </g>
    </g>
    <g id="xtick_3">
     <g id="line2d_5">
      <path d="M 423.768436 505.14624 
L 423.768436 65.18016 
" clip-path="url(#pa4f6850c6f)" style="fill: none; stroke: #cbcbcb"/>
     </g>
     <g id="line2d_6"/>
     <g id="text_3">
      <!-- $\mathdefault{10^{-11}}$ -->
      <g transform="translate(404.238436 519.284053) scale(0.14 -0.14)">
       <use xlink:href="#DejaVuSans-31" transform="translate(0 0.684375)"/>
       <use xlink:href="#DejaVuSans-30" transform="translate(63.623047 0.684375)"/>
       <use xlink:href="#DejaVuSans-2212" transform="translate(128.203125 38.965625) scale(0.7)"/>
       <use xlink:href="#DejaVuSans-31" transform="translate(186.855469 38.965625) scale(0.7)"/>
       <use xlink:href="#DejaVuSans-31" transform="translate(231.391602 38.965625) scale(0.7)"/>
      </g>
     </g>
    </g>
    <g id="xtick_4">
     <g id="line2d_7">
      <path d="M 548.723034 505.14624 
L 548.723034 65.18016 
" clip-path="url(#pa4f6850c6f)" style="fill: none; stroke: #cbcbcb"/>
     </g>
     <g id="line2d_8"/>
     <g id="text_4">
      <!-- $\mathdefault{10^{-8}}$ -->
      <g transform="translate(532.273034 519.284053) scale(0.14 -0.14)">
       <defs>
        <path id="DejaVuSans-38" d="M 2034 2216 
Q 1584 2216 1326 1975 
Q 1069 1734 1069 1313 
Q 1069 891 1326 650 
Q 1584 409 2034 409 
Q 2484 409 2743 651 
Q 3003 894 3003 1313 
Q 3003 1734 2745 1975 
Q 2488 2216 2034 2216 
z
M 1403 2484 
Q 997 2584 770 2862 
Q 544 3141 544 3541 
Q 544 4100 942 4425 
Q 1341 4750 2034 4750 
Q 2731 4750 3128 4425 
Q 3525 4100 3525 3541 
Q 3525 3141 3298 2862 
Q 3072 2584 2669 2484 
Q 3125 2378 3379 2068 
Q 3634 1759 3634 1313 
Q 3634 634 3220 271 
Q 2806 -91 2034 -91 
Q 1263 -91 848 271 
Q 434 634 434 1313 
Q 434 1759 690 2068 
Q 947 2378 1403 2484 
z
M 1172 3481 
Q 1172 3119 1398 2916 
Q 1625 2713 2034 2713 
Q 2441 2713 2670 2916 
Q 2900 3119 2900 3481 
Q 2900 3844 2670 4047 
Q 2441 4250 2034 4250 
Q 1625 4250 1398 4047 
Q 1172 3844 1172 3481 
z
" transform="scale(0.015625)"/>
       </defs>
       <use xlink:href="#DejaVuSans-31" transform="translate(0 0.765625)"/>
       <use xlink:href="#DejaVuSans-30" transform="translate(63.623047 0.765625)"/>
       <use xlink:href="#DejaVuSans-2212" transform="translate(128.203125 39.046875) scale(0.7)"/>
       <use xlink:href="#DejaVuSans-38" transform="translate(186.855469 39.046875) scale(0.7)"/>
      </g>
     </g>
    </g>
    <g id="xtick_5">
     <g id="line2d_9">
      <path d="M 673.677631 505.14624 
L 673.677631 65.18016 
" clip-path="url(#pa4f6850c6f)" style="fill: none; stroke: #cbcbcb"/>
     </g>
     <g id="line2d_10"/>
     <g id="text_5">
      <!-- $\mathdefault{10^{-5}}$ -->
      <g transform="translate(657.227631 519.284053) scale(0.14 -0.14)">
       <defs>
        <path id="DejaVuSans-35" d="M 691 4666 
L 3169 4666 
L 3169 4134 
L 1269 4134 
L 1269 2991 
Q 1406 3038 1543 3061 
Q 1681 3084 1819 3084 
Q 2600 3084 3056 2656 
Q 3513 2228 3513 1497 
Q 3513 744 3044 326 
Q 2575 -91 1722 -91 
Q 1428 -91 1123 -41 
Q 819 9 494 109 
L 494 744 
Q 775 591 1075 516 
Q 1375 441 1709 441 
Q 2250 441 2565 725 
Q 2881 1009 2881 1497 
Q 2881 1984 2565 2268 
Q 2250 2553 1709 2553 
Q 1456 2553 1204 2497 
Q 953 2441 691 2322 
L 691 4666 
z
" transform="scale(0.015625)"/>
       </defs>
       <use xlink:href="#DejaVuSans-31" transform="translate(0 0.684375)"/>
       <use xlink:href="#DejaVuSans-30" transform="translate(63.623047 0.684375)"/>
       <use xlink:href="#DejaVuSans-2212" transform="translate(128.203125 38.965625) scale(0.7)"/>
       <use xlink:href="#DejaVuSans-35" transform="translate(186.855469 38.965625) scale(0.7)"/>
      </g>
     </g>
    </g>
    <g id="xtick_6">
     <g id="line2d_11">
      <path d="M 798.632229 505.14624 
L 798.632229 65.18016 
" clip-path="url(#pa4f6850c6f)" style="fill: none; stroke: #cbcbcb"/>
     </g>
     <g id="line2d_12"/>
     <g id="text_6">
      <!-- $\mathdefault{10^{-2}}$ -->
      <g transform="translate(782.182229 519.284053) scale(0.14 -0.14)">
       <defs>
        <path id="DejaVuSans-32" d="M 1228 531 
L 3431 531 
L 3431 0 
L 469 0 
L 469 531 
Q 828 903 1448 1529 
Q 2069 2156 2228 2338 
Q 2531 2678 2651 2914 
Q 2772 3150 2772 3378 
Q 2772 3750 2511 3984 
Q 2250 4219 1831 4219 
Q 1534 4219 1204 4116 
Q 875 4013 500 3803 
L 500 4441 
Q 881 4594 1212 4672 
Q 1544 4750 1819 4750 
Q 2544 4750 2975 4387 
Q 3406 4025 3406 3419 
Q 3406 3131 3298 2873 
Q 3191 2616 2906 2266 
Q 2828 2175 2409 1742 
Q 1991 1309 1228 531 
z
" transform="scale(0.015625)"/>
       </defs>
       <use xlink:href="#DejaVuSans-31" transform="translate(0 0.765625)"/>
       <use xlink:href="#DejaVuSans-30" transform="translate(63.623047 0.765625)"/>
       <use xlink:href="#DejaVuSans-2212" transform="translate(128.203125 39.046875) scale(0.7)"/>
       <use xlink:href="#DejaVuSans-32" transform="translate(186.855469 39.046875) scale(0.7)"/>
      </g>
     </g>
    </g>
    <g id="xtick_7">
     <g id="line2d_13">
      <path d="M 923.586826 505.14624 
L 923.586826 65.18016 
" clip-path="url(#pa4f6850c6f)" style="fill: none; stroke: #cbcbcb"/>
     </g>
     <g id="line2d_14"/>
     <g id="text_7">
      <!-- $\mathdefault{10^{1}}$ -->
      <g transform="translate(911.266826 519.284053) scale(0.14 -0.14)">
       <use xlink:href="#DejaVuSans-31" transform="translate(0 0.684375)"/>
       <use xlink:href="#DejaVuSans-30" transform="translate(63.623047 0.684375)"/>
       <use xlink:href="#DejaVuSans-31" transform="translate(128.203125 38.965625) scale(0.7)"/>
      </g>
     </g>
    </g>
    <g id="xtick_8">
     <g id="line2d_15">
      <path d="M 1048.541423 505.14624 
L 1048.541423 65.18016 
" clip-path="url(#pa4f6850c6f)" style="fill: none; stroke: #cbcbcb"/>
     </g>
     <g id="line2d_16"/>
     <g id="text_8">
      <!-- $\mathdefault{10^{4}}$ -->
      <g transform="translate(1036.221423 519.284053) scale(0.14 -0.14)">
       <use xlink:href="#DejaVuSans-31" transform="translate(0 0.684375)"/>
       <use xlink:href="#DejaVuSans-30" transform="translate(63.623047 0.684375)"/>
       <use xlink:href="#DejaVuSans-34" transform="translate(128.203125 38.965625) scale(0.7)"/>
      </g>
     </g>
    </g>
    <g id="text_9">
     <!-- h -->
     <g transform="translate(564.2253 538.96099) scale(0.168 -0.168)">
      <defs>
       <path id="DejaVuSans-68" d="M 3513 2113 
L 3513 0 
L 2938 0 
L 2938 2094 
Q 2938 2591 2744 2837 
Q 2550 3084 2163 3084 
Q 1697 3084 1428 2787 
Q 1159 2491 1159 1978 
L 1159 0 
L 581 0 
L 581 4863 
L 1159 4863 
L 1159 2956 
Q 1366 3272 1645 3428 
Q 1925 3584 2291 3584 
Q 2894 3584 3203 3211 
Q 3513 2838 3513 2113 
z
" transform="scale(0.015625)"/>
      </defs>
      <use xlink:href="#DejaVuSans-68"/>
     </g>
    </g>
   </g>
   <g id="matplotlib.axis_2">
    <g id="ytick_1">
     <g id="line2d_17">
      <path d="M 88.4736 446.05495 
L 1050.624 446.05495 
" clip-path="url(#pa4f6850c6f)" style="fill: none; stroke: #cbcbcb"/>
     </g>
     <g id="line2d_18"/>
     <g id="text_10">
      <!-- $\mathdefault{10^{-12}}$ -->
      <g transform="translate(45.9136 451.373857) scale(0.14 -0.14)">
       <use xlink:href="#DejaVuSans-31" transform="translate(0 0.765625)"/>
       <use xlink:href="#DejaVuSans-30" transform="translate(63.623047 0.765625)"/>
       <use xlink:href="#DejaVuSans-2212" transform="translate(128.203125 39.046875) scale(0.7)"/>
       <use xlink:href="#DejaVuSans-31" transform="translate(186.855469 39.046875) scale(0.7)"/>
       <use xlink:href="#DejaVuSans-32" transform="translate(231.391602 39.046875) scale(0.7)"/>
      </g>
     </g>
    </g>
    <g id="ytick_2">
     <g id="line2d_19">
      <path d="M 88.4736 385.753418 
L 1050.624 385.753418 
" clip-path="url(#pa4f6850c6f)" style="fill: none; stroke: #cbcbcb"/>
     </g>
     <g id="line2d_20"/>
     <g id="text_11">
      <!-- $\mathdefault{10^{-10}}$ -->
      <g transform="translate(45.9136 391.072324) scale(0.14 -0.14)">
       <use xlink:href="#DejaVuSans-31" transform="translate(0 0.765625)"/>
       <use xlink:href="#DejaVuSans-30" transform="translate(63.623047 0.765625)"/>
       <use xlink:href="#DejaVuSans-2212" transform="translate(128.203125 39.046875) scale(0.7)"/>
       <use xlink:href="#DejaVuSans-31" transform="translate(186.855469 39.046875) scale(0.7)"/>
       <use xlink:href="#DejaVuSans-30" transform="translate(231.391602 39.046875) scale(0.7)"/>
      </g>
     </g>
    </g>
    <g id="ytick_3">
     <g id="line2d_21">
      <path d="M 88.4736 325.451885 
L 1050.624 325.451885 
" clip-path="url(#pa4f6850c6f)" style="fill: none; stroke: #cbcbcb"/>
     </g>
     <g id="line2d_22"/>
     <g id="text_12">
      <!-- $\mathdefault{10^{-8}}$ -->
      <g transform="translate(52.0736 330.770792) scale(0.14 -0.14)">
       <use xlink:href="#DejaVuSans-31" transform="translate(0 0.765625)"/>
       <use xlink:href="#DejaVuSans-30" transform="translate(63.623047 0.765625)"/>
       <use xlink:href="#DejaVuSans-2212" transform="translate(128.203125 39.046875) scale(0.7)"/>
       <use xlink:href="#DejaVuSans-38" transform="translate(186.855469 39.046875) scale(0.7)"/>
      </g>
     </g>
    </g>
    <g id="ytick_4">
     <g id="line2d_23">
      <path d="M 88.4736 265.150353 
L 1050.624 265.150353 
" clip-path="url(#pa4f6850c6f)" style="fill: none; stroke: #cbcbcb"/>
     </g>
     <g id="line2d_24"/>
     <g id="text_13">
      <!-- $\mathdefault{10^{-6}}$ -->
      <g transform="translate(52.0736 270.469259) scale(0.14 -0.14)">
       <defs>
        <path id="DejaVuSans-36" d="M 2113 2584 
Q 1688 2584 1439 2293 
Q 1191 2003 1191 1497 
Q 1191 994 1439 701 
Q 1688 409 2113 409 
Q 2538 409 2786 701 
Q 3034 994 3034 1497 
Q 3034 2003 2786 2293 
Q 2538 2584 2113 2584 
z
M 3366 4563 
L 3366 3988 
Q 3128 4100 2886 4159 
Q 2644 4219 2406 4219 
Q 1781 4219 1451 3797 
Q 1122 3375 1075 2522 
Q 1259 2794 1537 2939 
Q 1816 3084 2150 3084 
Q 2853 3084 3261 2657 
Q 3669 2231 3669 1497 
Q 3669 778 3244 343 
Q 2819 -91 2113 -91 
Q 1303 -91 875 529 
Q 447 1150 447 2328 
Q 447 3434 972 4092 
Q 1497 4750 2381 4750 
Q 2619 4750 2861 4703 
Q 3103 4656 3366 4563 
z
" transform="scale(0.015625)"/>
       </defs>
       <use xlink:href="#DejaVuSans-31" transform="translate(0 0.765625)"/>
       <use xlink:href="#DejaVuSans-30" transform="translate(63.623047 0.765625)"/>
       <use xlink:href="#DejaVuSans-2212" transform="translate(128.203125 39.046875) scale(0.7)"/>
       <use xlink:href="#DejaVuSans-36" transform="translate(186.855469 39.046875) scale(0.7)"/>
      </g>
     </g>
    </g>
    <g id="ytick_5">
     <g id="line2d_25">
      <path d="M 88.4736 204.84882 
L 1050.624 204.84882 
" clip-path="url(#pa4f6850c6f)" style="fill: none; stroke: #cbcbcb"/>
     </g>
     <g id="line2d_26"/>
     <g id="text_14">
      <!-- $\mathdefault{10^{-4}}$ -->
      <g transform="translate(52.0736 210.167727) scale(0.14 -0.14)">
       <use xlink:href="#DejaVuSans-31" transform="translate(0 0.684375)"/>
       <use xlink:href="#DejaVuSans-30" transform="translate(63.623047 0.684375)"/>
       <use xlink:href="#DejaVuSans-2212" transform="translate(128.203125 38.965625) scale(0.7)"/>
       <use xlink:href="#DejaVuSans-34" transform="translate(186.855469 38.965625) scale(0.7)"/>
      </g>
     </g>
    </g>
    <g id="ytick_6">
     <g id="line2d_27">
      <path d="M 88.4736 144.547288 
L 1050.624 144.547288 
" clip-path="url(#pa4f6850c6f)" style="fill: none; stroke: #cbcbcb"/>
     </g>
     <g id="line2d_28"/>
     <g id="text_15">
      <!-- $\mathdefault{10^{-2}}$ -->
      <g transform="translate(52.0736 149.866194) scale(0.14 -0.14)">
       <use xlink:href="#DejaVuSans-31" transform="translate(0 0.765625)"/>
       <use xlink:href="#DejaVuSans-30" transform="translate(63.623047 0.765625)"/>
       <use xlink:href="#DejaVuSans-2212" transform="translate(128.203125 39.046875) scale(0.7)"/>
       <use xlink:href="#DejaVuSans-32" transform="translate(186.855469 39.046875) scale(0.7)"/>
      </g>
     </g>
    </g>
    <g id="ytick_7">
     <g id="line2d_29">
      <path d="M 88.4736 84.245755 
L 1050.624 84.245755 
" clip-path="url(#pa4f6850c6f)" style="fill: none; stroke: #cbcbcb"/>
     </g>
     <g id="line2d_30"/>
     <g id="text_16">
      <!-- $\mathdefault{10^{0}}$ -->
      <g transform="translate(60.3336 89.564661) scale(0.14 -0.14)">
       <use xlink:href="#DejaVuSans-31" transform="translate(0 0.765625)"/>
       <use xlink:href="#DejaVuSans-30" transform="translate(63.623047 0.765625)"/>
       <use xlink:href="#DejaVuSans-30" transform="translate(128.203125 39.046875) scale(0.7)"/>
      </g>
     </g>
    </g>
    <g id="text_17">
     <!-- E(Df) -->
     <g transform="translate(38.419725 306.450638) rotate(-90) scale(0.168 -0.168)">
      <defs>
       <path id="DejaVuSans-45" d="M 628 4666 
L 3578 4666 
L 3578 4134 
L 1259 4134 
L 1259 2753 
L 3481 2753 
L 3481 2222 
L 1259 2222 
L 1259 531 
L 3634 531 
L 3634 0 
L 628 0 
L 628 4666 
z
" transform="scale(0.015625)"/>
       <path id="DejaVuSans-28" d="M 1984 4856 
Q 1566 4138 1362 3434 
Q 1159 2731 1159 2009 
Q 1159 1288 1364 580 
Q 1569 -128 1984 -844 
L 1484 -844 
Q 1016 -109 783 600 
Q 550 1309 550 2009 
Q 550 2706 781 3412 
Q 1013 4119 1484 4856 
L 1984 4856 
z
" transform="scale(0.015625)"/>
       <path id="DejaVuSans-44" d="M 1259 4147 
L 1259 519 
L 2022 519 
Q 2988 519 3436 956 
Q 3884 1394 3884 2338 
Q 3884 3275 3436 3711 
Q 2988 4147 2022 4147 
L 1259 4147 
z
M 628 4666 
L 1925 4666 
Q 3281 4666 3915 4102 
Q 4550 3538 4550 2338 
Q 4550 1131 3912 565 
Q 3275 0 1925 0 
L 628 0 
L 628 4666 
z
" transform="scale(0.015625)"/>
       <path id="DejaVuSans-66" d="M 2375 4863 
L 2375 4384 
L 1825 4384 
Q 1516 4384 1395 4259 
Q 1275 4134 1275 3809 
L 1275 3500 
L 2222 3500 
L 2222 3053 
L 1275 3053 
L 1275 0 
L 697 0 
L 697 3053 
L 147 3053 
L 147 3500 
L 697 3500 
L 697 3744 
Q 697 4328 969 4595 
Q 1241 4863 1831 4863 
L 2375 4863 
z
" transform="scale(0.015625)"/>
       <path id="DejaVuSans-29" d="M 513 4856 
L 1013 4856 
Q 1481 4119 1714 3412 
Q 1947 2706 1947 2009 
Q 1947 1309 1714 600 
Q 1481 -109 1013 -844 
L 513 -844 
Q 928 -128 1133 580 
Q 1338 1288 1338 2009 
Q 1338 2731 1133 3434 
Q 928 4138 513 4856 
z
" transform="scale(0.015625)"/>
      </defs>
      <use xlink:href="#DejaVuSans-45"/>
      <use xlink:href="#DejaVuSans-28" x="63.183594"/>
      <use xlink:href="#DejaVuSans-44" x="102.197266"/>
      <use xlink:href="#DejaVuSans-66" x="179.199219"/>
      <use xlink:href="#DejaVuSans-29" x="214.404297"/>
     </g>
    </g>
   </g>
   <g id="line2d_31">
    <path d="M 1006.889891 96.227973 
L 999.009871 96.299769 
L 998.134314 96.20202 
L 997.258756 96.28141 
L 995.50764 96.23166 
L 984.12539 96.271732 
L 983.249832 96.179483 
L 982.374274 96.288006 
L 977.996486 96.230609 
L 977.120928 96.413224 
L 974.494255 96.369282 
L 973.618697 96.392191 
L 972.743139 96.101427 
L 971.867581 96.10971 
L 970.992024 96.254349 
L 970.116466 96.156733 
L 969.240908 96.347035 
L 967.489793 96.022821 
L 965.738677 96.176334 
L 964.863119 96.494431 
L 963.987562 96.127628 
L 963.112004 96.022541 
L 962.236446 96.493016 
L 961.360888 96.090752 
L 960.485331 95.996813 
L 958.734215 96.140071 
L 957.858657 96.501211 
L 956.9831 96.339187 
L 956.107542 95.835579 
L 955.231984 96.706103 
L 954.356427 96.282984 
L 953.480869 96.333565 
L 951.729753 96.190444 
L 950.854196 96.745752 
L 949.978638 97.036021 
L 949.10308 96.514416 
L 948.227522 96.218227 
L 947.351965 96.136052 
L 946.476407 97.173404 
L 945.600849 95.493315 
L 944.725291 96.273645 
L 943.849734 96.557084 
L 942.974176 96.200748 
L 942.098618 96.139723 
L 941.22306 95.523254 
L 940.347503 97.062727 
L 939.471945 96.131455 
L 938.596387 96.084334 
L 937.720829 97.194429 
L 936.845272 97.642554 
L 935.969714 94.900485 
L 935.094156 96.874954 
L 934.218599 95.003446 
L 933.343041 96.649503 
L 932.467483 95.763874 
L 931.591925 96.361772 
L 930.716368 95.519306 
L 929.84081 95.968246 
L 928.965252 95.164105 
L 928.089694 95.427166 
L 927.214137 95.856504 
L 926.338579 98.966608 
L 925.463021 98.896356 
L 924.587463 95.68934 
L 923.711906 94.777357 
L 922.836348 97.552131 
L 921.96079 96.844241 
L 921.085232 95.180432 
L 920.209675 95.594541 
L 918.458559 96.813166 
L 917.583001 96.630328 
L 916.707444 94.581424 
L 915.831886 96.394025 
L 914.956328 98.578581 
L 914.080771 93.142198 
L 913.205213 101.3627 
L 912.329655 92.528756 
L 911.454097 99.425042 
L 910.57854 97.642445 
L 909.702982 91.16555 
L 908.827424 103.097512 
L 907.951866 100.733638 
L 907.076309 90.415461 
L 906.200751 92.51497 
L 905.325193 105.293115 
L 904.449635 109.298408 
L 903.574078 96.110925 
L 902.69852 89.728963 
L 901.822962 89.119613 
L 900.947404 92.948313 
L 900.071847 101.046326 
L 899.196289 113.345687 
L 898.320731 120.16249 
L 896.569616 101.223532 
L 895.694058 95.205952 
L 894.8185 91.465167 
L 893.942943 89.247518 
L 893.067385 88.093925 
L 892.191827 87.713561 
L 891.316269 87.911935 
L 890.440712 88.552864 
L 889.565154 89.537489 
L 888.689596 90.791989 
L 886.938481 93.897787 
L 885.187365 97.551565 
L 882.560692 103.638463 
L 878.182903 114.500524 
L 871.178441 131.924435 
L 866.800653 142.221124 
L 863.298422 149.971046 
L 859.796191 157.251889 
L 856.29396 164.076714 
L 852.791729 170.491804 
L 848.41394 178.034645 
L 843.160594 186.566364 
L 837.031689 196.053981 
L 828.276112 209.139009 
L 813.39163 230.895268 
L 766.98707 298.127737 
L 691.689105 407.167576 
L 690.813547 408.667179 
L 688.186874 412.351099 
L 687.311316 413.766544 
L 686.435758 414.650903 
L 685.5602 416.270893 
L 684.684643 416.870394 
L 683.809085 418.707083 
L 682.933527 419.895123 
L 682.05797 420.744937 
L 681.182412 422.760542 
L 680.306854 423.685113 
L 679.431296 425.082922 
L 678.555739 425.523505 
L 677.680181 427.161703 
L 676.804623 426.471991 
L 675.929065 429.807028 
L 675.053508 434.140173 
L 674.17795 432.82079 
L 673.302392 434.458269 
L 672.426834 434.33919 
L 671.551277 436.0784 
L 670.675719 438.541248 
L 669.800161 442.91677 
L 668.924603 434.198239 
L 668.049046 439.448728 
L 667.173488 437.144273 
L 666.29793 459.43314 
L 665.422372 441.418599 
L 664.546815 482.254681 
L 663.671257 441.468688 
L 662.795699 444.35161 
L 661.920142 463.629095 
L 661.044584 460.624545 
L 660.169026 455.185426 
L 659.293468 448.116694 
L 658.417911 439.603248 
L 657.542353 446.31364 
L 656.666795 454.32256 
L 655.791237 457.390148 
L 654.91568 447.401469 
L 654.040122 485.147782 
L 653.164564 447.219067 
L 652.289006 440.347441 
L 651.413449 452.835817 
L 650.537891 435.035961 
L 649.662333 438.943772 
L 648.786775 453.334412 
L 647.911218 458.961186 
L 647.03566 434.948522 
L 646.160102 436.097754 
L 645.284544 436.114075 
L 644.408987 438.528968 
L 643.533429 430.850684 
L 642.657871 436.166573 
L 641.782314 455.298315 
L 640.906756 432.530628 
L 640.031198 469.461969 
L 639.15564 426.931057 
L 638.280083 437.129926 
L 637.404525 431.231964 
L 636.528967 430.424996 
L 635.653409 427.878342 
L 634.777852 427.462212 
L 633.902294 421.636064 
L 633.026736 463.084215 
L 632.151178 431.908067 
L 631.275621 425.391132 
L 630.400063 425.480541 
L 629.524505 450.32761 
L 628.648947 431.67088 
L 627.77339 455.381032 
L 626.897832 423.925119 
L 626.022274 420.752093 
L 625.146716 421.108998 
L 624.271159 439.726846 
L 623.395601 429.045064 
L 622.520043 427.570015 
L 621.644486 448.660451 
L 620.768928 424.71325 
L 619.89337 426.598698 
L 619.017812 418.649316 
L 618.142255 433.857942 
L 617.266697 417.384632 
L 616.391139 414.694041 
L 615.515581 426.36733 
L 614.640024 433.520682 
L 613.764466 436.49762 
L 612.888908 414.992659 
L 612.01335 432.892684 
L 611.137793 435.418104 
L 610.262235 402.312626 
L 609.386677 430.068983 
L 608.511119 412.796468 
L 607.635562 427.318566 
L 606.760004 407.588129 
L 605.884446 409.428389 
L 605.008888 405.630188 
L 604.133331 431.775007 
L 603.257773 429.539088 
L 602.382215 415.118215 
L 601.506657 410.185116 
L 600.6311 404.573292 
L 599.755542 405.005911 
L 598.879984 404.934323 
L 598.004427 398.83088 
L 597.128869 399.282192 
L 596.253311 401.518006 
L 595.377753 392.906502 
L 594.502196 415.842037 
L 593.626638 418.731235 
L 592.75108 403.202504 
L 591.875522 403.484282 
L 590.999965 449.458557 
L 590.124407 412.89574 
L 589.248849 415.956988 
L 588.373291 399.804363 
L 587.497734 422.53126 
L 586.622176 402.480519 
L 585.746618 424.349018 
L 584.87106 401.295362 
L 583.995503 430.860931 
L 583.119945 405.486929 
L 582.244387 397.8821 
L 581.368829 403.046324 
L 580.493272 403.131661 
L 579.617714 391.184941 
L 578.742156 394.352119 
L 577.866599 393.698794 
L 576.991041 380.956135 
L 576.115483 378.592786 
L 575.239925 382.501792 
L 574.364368 385.146877 
L 573.48881 375.127167 
L 572.613252 374.427042 
L 571.737694 380.548215 
L 569.986579 405.058288 
L 569.111021 380.296891 
L 568.235463 389.505092 
L 567.359906 386.443213 
L 566.484348 403.303216 
L 565.60879 384.62501 
L 564.733232 369.495065 
L 563.857675 380.31874 
L 562.982117 388.454511 
L 561.231001 367.380018 
L 560.355444 385.152243 
L 559.479886 388.056906 
L 558.604328 375.46096 
L 557.728771 382.165374 
L 556.853213 393.442544 
L 555.977655 367.208153 
L 555.102097 418.084559 
L 554.22654 362.71574 
L 553.350982 379.922701 
L 552.475424 394.005756 
L 551.599866 382.458541 
L 550.724309 363.458786 
L 549.848751 370.637914 
L 548.973193 369.65614 
L 548.097635 381.182487 
L 547.222078 397.338709 
L 546.34652 370.082676 
L 545.470962 361.519402 
L 544.595404 388.997999 
L 543.719847 359.278362 
L 542.844289 369.420526 
L 541.093173 358.102847 
L 540.217616 373.31957 
L 539.342058 365.467595 
L 538.4665 361.80807 
L 537.590943 359.366153 
L 536.715385 362.456669 
L 535.839827 358.430778 
L 534.964269 362.816832 
L 534.088712 354.918904 
L 533.213154 361.895482 
L 532.337596 356.441806 
L 531.462038 369.512721 
L 530.586481 362.586305 
L 529.710923 357.046945 
L 528.835365 347.649022 
L 527.959807 358.356862 
L 527.08425 345.416062 
L 526.208692 344.541107 
L 525.333134 355.678796 
L 524.457576 346.982011 
L 523.582019 348.595189 
L 522.706461 342.779873 
L 521.830903 342.126942 
L 520.955345 361.11608 
L 520.079788 356.6005 
L 519.20423 344.558958 
L 518.328672 348.641468 
L 517.453114 347.137772 
L 516.577557 339.564741 
L 515.701999 352.023558 
L 514.826441 333.636197 
L 513.950884 346.652276 
L 513.075326 352.843587 
L 512.199768 348.071664 
L 511.32421 344.996186 
L 510.448653 348.429058 
L 509.573095 355.573385 
L 508.697537 346.473466 
L 507.821979 345.031408 
L 506.946422 358.997218 
L 506.070864 339.39296 
L 505.195306 340.430032 
L 504.319748 336.589513 
L 503.444191 347.14002 
L 502.568633 342.257329 
L 501.693075 344.805863 
L 500.817517 328.659969 
L 499.94196 340.368694 
L 499.066402 323.376149 
L 498.190844 335.509986 
L 497.315286 342.065787 
L 496.439729 325.005677 
L 495.564171 342.035608 
L 494.688613 325.081353 
L 493.813056 325.610259 
L 492.937498 338.600256 
L 492.06194 334.731242 
L 491.186382 327.399549 
L 490.310825 325.070334 
L 489.435267 330.195605 
L 488.559709 327.228446 
L 487.684151 332.228772 
L 486.808594 320.217785 
L 485.933036 330.982032 
L 485.057478 368.439297 
L 484.18192 329.567103 
L 483.306363 326.90503 
L 481.555247 344.020172 
L 480.679689 316.128751 
L 479.804132 330.790473 
L 478.928574 328.622558 
L 478.053016 312.554735 
L 477.177458 320.476065 
L 476.301901 336.302942 
L 475.426343 311.200153 
L 474.550785 344.844072 
L 473.675228 309.042507 
L 472.79967 310.385746 
L 471.924112 315.899764 
L 471.048554 316.916559 
L 470.172997 319.2113 
L 469.297439 304.681716 
L 468.421881 356.459429 
L 467.546323 315.624301 
L 466.670766 315.945911 
L 465.795208 296.999404 
L 464.91965 331.620786 
L 464.044092 339.184081 
L 463.168535 308.666768 
L 462.292977 300.488773 
L 461.417419 311.549812 
L 460.541861 303.485389 
L 459.666304 306.930494 
L 458.790746 316.923538 
L 457.915188 293.158722 
L 457.03963 293.092522 
L 456.164073 295.588269 
L 455.288515 309.195729 
L 454.412957 376.800323 
L 453.5374 301.702031 
L 452.661842 292.646935 
L 451.786284 304.202439 
L 450.910726 300.479228 
L 450.035169 297.796483 
L 449.159611 286.962033 
L 448.284053 308.1739 
L 447.408495 287.26864 
L 446.532938 314.110232 
L 445.65738 287.791853 
L 444.781822 319.893967 
L 443.906264 300.904091 
L 443.030707 319.74276 
L 442.155149 293.800976 
L 441.279591 286.805472 
L 440.404033 297.067841 
L 439.528476 285.468214 
L 438.652918 317.725122 
L 437.77736 293.340668 
L 436.901802 299.9051 
L 436.026245 284.08304 
L 435.150687 288.440839 
L 434.275129 288.552376 
L 433.399571 282.600272 
L 432.524014 273.991811 
L 431.648456 290.250006 
L 430.772898 282.283486 
L 429.897341 283.063133 
L 429.021783 297.660294 
L 428.146225 279.158583 
L 427.270667 285.236166 
L 426.39511 279.554116 
L 425.519552 285.96511 
L 424.643994 293.648706 
L 423.768436 295.204054 
L 422.892879 291.105638 
L 422.017321 290.708415 
L 421.141763 280.918543 
L 420.266205 273.307178 
L 419.390648 275.879897 
L 418.51509 270.226512 
L 417.639532 265.552365 
L 416.763974 296.177032 
L 415.888417 298.721786 
L 415.012859 289.566426 
L 414.137301 306.576802 
L 413.261743 270.451518 
L 412.386186 262.095804 
L 411.510628 267.353449 
L 410.63507 276.415356 
L 409.759513 260.533956 
L 408.883955 266.393815 
L 408.008397 285.201363 
L 407.132839 265.216987 
L 406.257282 292.679528 
L 405.381724 269.974634 
L 404.506166 267.578407 
L 403.630608 260.646545 
L 402.755051 283.116896 
L 401.879493 262.605739 
L 401.003935 258.122634 
L 400.128377 260.340723 
L 399.25282 265.966876 
L 398.377262 256.246257 
L 397.501704 286.112245 
L 396.626146 266.824625 
L 395.750589 259.180821 
L 394.875031 256.916595 
L 393.999473 271.018168 
L 393.123915 255.15778 
L 392.248358 254.367107 
L 391.3728 256.420504 
L 390.497242 259.108436 
L 389.621685 248.959744 
L 388.746127 248.184091 
L 387.870569 251.706102 
L 386.995011 257.861587 
L 386.119454 244.748209 
L 385.243896 292.503617 
L 384.368338 265.37573 
L 383.49278 249.340825 
L 382.617223 264.150923 
L 381.741665 272.273769 
L 380.866107 241.764218 
L 379.990549 249.219259 
L 379.114992 240.069945 
L 378.239434 255.482097 
L 377.363876 240.058019 
L 376.488318 245.733354 
L 375.612761 255.933944 
L 374.737203 241.569734 
L 373.861645 250.212671 
L 372.986087 239.108862 
L 372.11053 292.748669 
L 371.234972 235.522156 
L 370.359414 270.615824 
L 369.483857 236.834755 
L 368.608299 237.360719 
L 367.732741 245.065635 
L 366.857183 230.021028 
L 365.981626 250.89729 
L 365.106068 231.045432 
L 364.23051 227.510004 
L 363.354952 264.890225 
L 362.479395 232.141351 
L 361.603837 247.182901 
L 360.728279 247.814497 
L 359.852721 236.018472 
L 358.977164 231.291371 
L 358.101606 219.292909 
L 357.226048 226.17068 
L 356.35049 237.417916 
L 355.474933 226.00186 
L 354.599375 233.837771 
L 353.723817 215.508602 
L 352.848259 249.353032 
L 351.972702 221.621238 
L 351.097144 228.746142 
L 350.221586 219.850503 
L 349.346029 215.96525 
L 348.470471 217.970219 
L 347.594913 212.792729 
L 346.719355 262.626706 
L 345.843798 223.805259 
L 344.96824 220.521665 
L 344.092682 222.061335 
L 343.217124 217.92603 
L 342.341567 211.066849 
L 341.466009 240.269878 
L 340.590451 219.809141 
L 339.714893 210.254405 
L 338.839336 223.552241 
L 337.963778 218.379951 
L 337.08822 215.133289 
L 336.212662 210.578114 
L 335.337105 204.729313 
L 334.461547 232.992222 
L 333.585989 219.139933 
L 332.710431 208.113961 
L 331.834874 282.325303 
L 330.959316 209.381848 
L 330.083758 217.37815 
L 329.2082 207.677669 
L 328.332643 222.55677 
L 327.457085 225.622964 
L 326.581527 237.919689 
L 325.70597 203.102448 
L 324.830412 211.270648 
L 323.954854 202.310773 
L 323.079296 207.481145 
L 322.203739 209.73882 
L 321.328181 217.501237 
L 320.452623 198.152843 
L 319.577065 199.481803 
L 318.701508 192.834051 
L 317.82595 196.200693 
L 316.950392 198.215999 
L 316.074834 194.464178 
L 315.199277 200.356815 
L 314.323719 213.825156 
L 313.448161 240.509042 
L 312.572603 219.915975 
L 311.697046 194.024387 
L 310.821488 203.59289 
L 309.94593 192.859782 
L 309.070372 196.705697 
L 308.194815 195.558007 
L 307.319257 189.908536 
L 306.443699 189.231801 
L 305.568142 181.681633 
L 304.692584 199.192603 
L 303.817026 191.530948 
L 302.941468 195.773471 
L 302.065911 192.408454 
L 301.190353 207.895338 
L 300.314795 182.967109 
L 299.439237 197.467898 
L 298.56368 186.238338 
L 297.688122 182.376327 
L 296.812564 192.660651 
L 295.937006 198.956755 
L 295.061449 188.537296 
L 294.185891 184.585737 
L 293.310333 182.260082 
L 292.434775 189.517562 
L 291.559218 195.399469 
L 290.68366 182.018995 
L 289.808102 185.334141 
L 288.932544 173.258975 
L 288.056987 176.505506 
L 287.181429 187.227633 
L 286.305871 179.92783 
L 285.430314 175.501862 
L 284.554756 175.138009 
L 283.679198 234.034033 
L 282.80364 170.893423 
L 281.928083 166.913643 
L 281.052525 186.005005 
L 280.176967 167.043228 
L 279.301409 171.276414 
L 278.425852 166.236906 
L 276.674736 192.496047 
L 275.799178 191.421892 
L 274.923621 179.734926 
L 274.048063 161.511681 
L 273.172505 194.89803 
L 272.296947 169.905274 
L 271.42139 180.961207 
L 270.545832 162.108538 
L 269.670274 167.635329 
L 268.794716 158.738234 
L 267.919159 169.275921 
L 267.043601 199.486007 
L 266.168043 173.344381 
L 265.292486 158.381283 
L 264.416928 164.178355 
L 263.54137 164.261877 
L 262.665812 164.75749 
L 261.790255 151.354051 
L 260.914697 164.782926 
L 260.039139 197.707196 
L 259.163581 164.969186 
L 258.288024 153.095279 
L 257.412466 148.290207 
L 256.536908 162.351522 
L 255.66135 156.974349 
L 254.785793 147.725028 
L 253.910235 174.519769 
L 253.034677 151.950943 
L 252.159119 168.02324 
L 251.283562 173.061858 
L 250.408004 158.247616 
L 249.532446 148.074718 
L 248.656888 152.069757 
L 247.781331 145.589859 
L 246.905773 147.112579 
L 246.030215 147.360293 
L 245.154657 142.883871 
L 244.2791 158.485032 
L 243.403542 146.529197 
L 242.527984 163.665848 
L 241.652427 148.941661 
L 240.776869 141.817704 
L 239.901311 151.854742 
L 239.025753 142.165855 
L 238.150196 148.790718 
L 237.274638 150.031219 
L 236.39908 137.592956 
L 235.523522 165.819684 
L 234.647965 139.913899 
L 233.772407 153.969681 
L 232.896849 139.347638 
L 232.021291 155.879212 
L 231.145734 132.953902 
L 230.270176 138.304078 
L 229.394618 160.695077 
L 228.51906 143.388573 
L 227.643503 146.901643 
L 226.767945 130.792027 
L 225.892387 130.90425 
L 225.016829 144.638623 
L 224.141272 145.359665 
L 223.265714 130.299505 
L 222.390156 135.355518 
L 221.514599 170.706506 
L 220.639041 136.564421 
L 219.763483 126.68213 
L 218.887925 132.308343 
L 218.012368 149.396042 
L 217.13681 141.548441 
L 216.261252 128.906296 
L 215.385694 122.349757 
L 214.510137 119.128758 
L 213.634579 122.634915 
L 212.759021 127.728545 
L 211.883463 136.780749 
L 211.007906 177.174937 
L 210.132348 135.026787 
L 209.25679 125.900792 
L 208.381232 126.562128 
L 207.505675 134.445705 
L 206.630117 160.846165 
L 205.754559 137.755288 
L 204.879001 127.256258 
L 204.003444 121.276302 
L 203.127886 117.013364 
L 202.252328 113.662208 
L 201.376771 110.877214 
L 200.501213 108.47792 
L 199.625655 109.15674 
L 197.87454 111.606612 
L 196.998982 113.141149 
L 196.123424 114.972223 
L 195.247866 117.216815 
L 194.372309 120.07764 
L 193.496751 123.954955 
L 192.621193 129.833694 
L 191.745635 141.661957 
L 190.870078 149.716995 
L 189.99452 131.592995 
L 189.118962 123.994018 
L 188.243404 119.019657 
L 187.367847 115.268356 
L 186.492289 112.227004 
L 184.741173 107.398944 
L 182.990058 103.56935 
L 181.238943 100.343521 
L 180.363385 98.890412 
L 179.487827 96.25443 
L 132.207709 96.25443 
L 132.207709 96.25443 
" clip-path="url(#pa4f6850c6f)" style="fill: none; stroke: #00bfbf; stroke-width: 4"/>
   </g>
   <g id="line2d_32">
    <path d="M 1006.889891 96.227582 
L 999.009871 96.299967 
L 998.134314 96.201909 
L 997.258756 96.280887 
L 995.50764 96.232094 
L 984.12539 96.272254 
L 983.249832 96.180194 
L 981.498716 96.28449 
L 980.623159 96.203817 
L 979.747601 96.291425 
L 977.996486 96.230353 
L 977.120928 96.413249 
L 974.494255 96.369042 
L 973.618697 96.392022 
L 972.743139 96.101497 
L 971.867581 96.110024 
L 970.992024 96.25453 
L 970.116466 96.156467 
L 969.240908 96.347223 
L 967.489793 96.022737 
L 965.738677 96.176508 
L 964.863119 96.494481 
L 963.987562 96.127444 
L 963.112004 96.022636 
L 962.236446 96.493201 
L 961.360888 96.090746 
L 960.485331 95.996659 
L 958.734215 96.139901 
L 957.858657 96.50136 
L 956.9831 96.339238 
L 956.107542 95.835629 
L 955.231984 96.706086 
L 954.356427 96.282952 
L 953.480869 96.333664 
L 951.729753 96.190395 
L 950.854196 96.745709 
L 949.978638 97.036025 
L 949.10308 96.514452 
L 948.227522 96.218248 
L 947.351965 96.136102 
L 946.476407 97.173411 
L 945.600849 95.493285 
L 944.725291 96.273674 
L 943.849734 96.557034 
L 942.974176 96.200758 
L 942.098618 96.139719 
L 941.22306 95.523258 
L 940.347503 97.062772 
L 939.471945 96.131424 
L 938.596387 96.084347 
L 937.720829 97.194384 
L 936.845272 97.642533 
L 935.969714 94.900511 
L 935.094156 96.874957 
L 934.218599 95.003414 
L 933.343041 96.649494 
L 932.467483 95.763827 
L 931.591925 96.361783 
L 930.716368 95.519295 
L 929.84081 95.968258 
L 928.965252 95.164112 
L 928.089694 95.42715 
L 927.214137 95.85652 
L 926.338579 98.966616 
L 925.463021 98.896364 
L 924.587463 95.68933 
L 923.711906 94.777366 
L 922.836348 97.552139 
L 921.96079 96.844223 
L 921.085232 95.180439 
L 920.209675 95.594551 
L 918.458559 96.813178 
L 917.583001 96.630331 
L 916.707444 94.581416 
L 915.831886 96.394032 
L 914.956328 98.578582 
L 914.080771 93.142192 
L 913.205213 101.362718 
L 912.329655 92.528746 
L 911.454097 99.425043 
L 910.57854 97.642457 
L 909.702982 91.16555 
L 908.827424 103.097506 
L 907.951866 100.733634 
L 907.076309 90.415462 
L 906.200751 92.514975 
L 905.325193 105.293121 
L 904.449635 109.29841 
L 903.574078 96.11093 
L 902.69852 89.728961 
L 901.822962 89.119613 
L 900.947404 92.948315 
L 900.071847 101.046318 
L 899.196289 113.345678 
L 898.320731 120.162501 
L 896.569616 101.223532 
L 895.694058 95.20595 
L 894.8185 91.465167 
L 893.942943 89.247518 
L 893.067385 88.093924 
L 892.191827 87.713561 
L 891.316269 87.911934 
L 890.440712 88.552862 
L 889.565154 89.537486 
L 888.689596 90.791988 
L 886.938481 93.897786 
L 885.187365 97.551565 
L 882.560692 103.638463 
L 878.182903 114.50052 
L 871.178441 131.924421 
L 866.800653 142.221101 
L 863.298422 149.970996 
L 859.796191 157.251978 
L 856.29396 164.076788 
L 851.916171 172.039148 
L 847.538382 179.490061 
L 842.285036 187.946001 
L 836.156132 197.376943 
L 826.524997 211.729473 
L 810.764957 234.711821 
L 809.8894 235.826904 
L 809.013842 237.322509 
L 807.262726 239.888169 
L 806.387169 241.388011 
L 805.511611 242.585279 
L 804.636053 243.523565 
L 802.884938 246.539343 
L 802.00938 247.516984 
L 801.133822 247.8251 
L 800.258264 250.721056 
L 799.382707 250.088357 
L 798.507149 251.522999 
L 797.631591 254.27374 
L 796.756033 253.610595 
L 795.880476 258.919882 
L 795.004918 255.901333 
L 794.12936 259.668332 
L 793.253802 257.110898 
L 792.378245 260.192174 
L 791.502687 265.771456 
L 790.627129 269.538455 
L 789.751571 270.095743 
L 788.876014 263.181064 
L 788.000456 270.677809 
L 787.124898 267.996167 
L 786.249341 278.61474 
L 785.373783 263.521195 
L 784.498225 290.0784 
L 783.622667 281.002115 
L 782.74711 282.381738 
L 781.871552 264.598046 
L 780.995994 263.521195 
L 780.120436 302.076596 
L 779.244879 271.92583 
L 778.369321 281.002115 
L 778.361629 544.168 
M 776.626414 544.168 
L 776.618205 263.181064 
L 775.742648 279.754094 
L 774.86709 274.053903 
L 773.991532 265.368522 
L 773.115974 272.59748 
L 772.240417 276.596243 
L 771.364859 262.210671 
L 770.489301 263.521195 
L 769.613743 274.847741 
L 768.738186 281.002115 
L 767.862628 267.519958 
L 766.98707 261.307257 
L 766.111513 293.000311 
L 765.235955 287.691025 
L 764.360397 261.601524 
L 763.484839 278.61474 
L 762.609282 271.92583 
L 761.733724 269.538455 
L 760.858166 281.002115 
L 759.982608 270.677809 
L 759.107051 267.519958 
L 758.231493 254.104779 
L 757.355935 251.522999 
L 756.480377 265.368522 
L 755.60482 259.927634 
L 754.729262 268.49035 
L 753.853704 254.618347 
L 752.978146 260.192174 
L 752.102589 252.674889 
L 751.227031 275.692828 
L 750.351473 282.381738 
L 749.475915 311.152881 
L 748.600358 263.521195 
L 747.7248 251.250191 
L 746.849242 256.095327 
L 745.973685 250.851349 
L 745.098127 252.979422 
L 744.222569 251.115889 
L 743.347011 268.49035 
L 742.471454 244.944824 
L 741.595896 256.901385 
L 740.720338 247.415869 
L 739.84478 243.749985 
L 738.969223 267.996167 
L 738.093665 238.040842 
L 737.218107 240.586698 
L 736.342549 264.598046 
L 735.466992 245.197455 
L 734.591434 235.7854 
L 733.715876 243.98039 
L 732.840318 234.078402 
L 731.964761 239.011235 
L 731.089203 238.905635 
L 730.213645 231.782277 
L 729.338087 231.214817 
L 728.46253 233.097621 
L 727.586972 240.70683 
L 726.711414 240.646626 
L 725.835857 247.117127 
L 724.960299 252.377279 
L 724.084741 256.492154 
L 723.209183 227.676321 
L 722.333626 230.503768 
L 721.458068 231.273405 
L 720.58251 229.339062 
L 719.706952 226.688413 
L 718.831395 223.476005 
L 717.955837 227.83341 
L 717.080279 263.521195 
L 716.204721 228.084135 
L 715.329164 240.116896 
L 714.453606 231.904941 
L 713.578048 225.750567 
L 712.70249 235.33734 
L 711.826933 221.9932 
L 710.951375 222.138532 
L 710.075817 219.123423 
L 709.200259 225.093367 
L 708.324702 222.599595 
L 707.449144 267.060461 
L 706.573586 234.981816 
L 705.698029 214.39163 
L 704.822471 220.31353 
L 703.946913 233.336015 
L 703.071355 231.691027 
L 702.195798 228.576549 
L 701.32024 211.862142 
L 700.444682 217.174762 
L 699.569124 246.825048 
L 698.693567 213.365319 
L 697.818009 235.62069 
L 696.942451 207.454365 
L 696.066893 216.127428 
L 695.191336 208.093477 
L 694.315778 213.508181 
L 693.44022 240.232776 
L 692.564662 204.63763 
L 691.689105 206.406993 
L 690.813547 205.202601 
L 689.937989 214.911346 
L 689.062431 223.108925 
L 688.186874 206.804159 
L 687.311316 233.370429 
L 686.435758 202.173679 
L 685.5602 202.414479 
L 684.684643 208.681452 
L 683.809085 230.983054 
L 682.933527 198.835961 
L 682.05797 197.997964 
L 681.182412 211.307354 
L 680.306854 211.842156 
L 679.431296 197.736939 
L 678.555739 207.046526 
L 677.680181 200.581998 
L 676.804623 200.806469 
L 675.929065 226.792254 
L 675.053508 209.817003 
L 674.17795 213.246211 
L 673.302392 196.506654 
L 672.426834 198.572358 
L 671.551277 194.170974 
L 670.675719 189.188013 
L 669.800161 191.012259 
L 668.924603 229.882043 
L 668.049046 190.68671 
L 667.173488 188.534312 
L 665.422372 197.343902 
L 664.546815 205.218648 
L 663.671257 215.638033 
L 662.795699 190.330371 
L 661.920142 186.85701 
L 661.044584 192.933002 
L 660.169026 222.404266 
L 659.293468 238.853152 
L 658.417911 185.271994 
L 657.542353 212.666401 
L 656.666795 210.568138 
L 655.791237 182.69552 
L 654.91568 194.064361 
L 654.040122 180.122944 
L 653.164564 199.269596 
L 652.289006 182.447047 
L 651.413449 235.178136 
L 650.537891 182.093595 
L 649.662333 195.807482 
L 648.786775 172.671477 
L 647.911218 172.01846 
L 647.03566 188.433664 
L 646.160102 173.400769 
L 645.284544 175.385204 
L 644.408987 195.289625 
L 643.533429 179.583802 
L 642.657871 179.537413 
L 641.782314 190.863888 
L 640.906756 171.362545 
L 640.031198 167.145921 
L 639.15564 166.361874 
L 638.280083 178.801204 
L 637.404525 169.123163 
L 636.528967 188.137367 
L 635.653409 214.214894 
L 634.777852 179.540237 
L 633.902294 163.347176 
L 633.026736 186.105652 
L 632.151178 162.613057 
L 630.400063 164.298356 
L 629.524505 160.234058 
L 628.648947 163.806485 
L 627.77339 187.726746 
L 626.897832 157.860547 
L 626.022274 171.452389 
L 625.146716 174.016937 
L 624.271159 161.987363 
L 623.395601 158.681602 
L 622.520043 159.297549 
L 621.644486 165.115749 
L 620.768928 196.403872 
L 619.89337 157.661861 
L 619.017812 157.421006 
L 618.142255 166.196714 
L 617.266697 155.462443 
L 616.391139 156.914007 
L 615.515581 176.031791 
L 614.640024 153.117064 
L 613.764466 148.467753 
L 612.01335 158.10135 
L 611.137793 161.190613 
L 610.262235 160.492087 
L 609.386677 156.208564 
L 607.635562 144.855162 
L 606.760004 145.123579 
L 605.884446 154.720946 
L 605.008888 166.480925 
L 604.133331 144.573316 
L 603.257773 145.432472 
L 602.382215 174.26262 
L 601.506657 140.666651 
L 600.6311 151.896643 
L 599.755542 145.016198 
L 598.879984 144.953293 
L 598.004427 145.833237 
L 597.128869 144.150981 
L 596.253311 141.738893 
L 595.377753 149.568904 
L 594.502196 135.191237 
L 593.626638 168.350742 
L 592.75108 136.765695 
L 591.875522 138.411266 
L 590.999965 160.089777 
L 590.124407 133.627145 
L 589.248849 135.87417 
L 588.373291 182.913673 
L 587.497734 135.964001 
L 586.622176 128.815396 
L 585.746618 139.171685 
L 584.87106 156.553362 
L 583.995503 133.07419 
L 583.119945 125.172869 
L 582.244387 131.900987 
L 581.368829 147.885321 
L 580.493272 142.505643 
L 579.617714 129.28053 
L 578.742156 122.586594 
L 577.866599 125.466579 
L 576.991041 132.420799 
L 576.115483 149.836758 
L 575.239925 141.300983 
L 574.364368 128.806831 
L 573.48881 122.286395 
L 572.613252 117.771704 
L 571.737694 119.849575 
L 570.862137 123.63423 
L 569.986579 129.310397 
L 568.235463 152.721972 
L 567.359906 132.318838 
L 566.484348 124.415545 
L 565.60879 119.320876 
L 564.733232 115.505174 
L 563.857675 112.423751 
L 562.982117 111.070638 
L 562.106559 112.510937 
L 561.231001 114.21519 
L 560.355444 116.280174 
L 559.479886 118.867384 
L 558.604328 122.277665 
L 557.728771 127.17934 
L 556.853213 135.65529 
L 555.977655 176.41632 
L 555.102097 136.211149 
L 554.22654 126.506611 
L 553.350982 120.773186 
L 552.475424 116.630278 
L 551.599866 113.350062 
L 550.724309 110.611884 
L 548.973193 106.150665 
L 547.222078 102.534382 
L 545.470962 99.447513 
L 543.719847 96.722313 
L 542.844289 96.254429 
L 132.207709 96.254429 
L 132.207709 96.254429 
" clip-path="url(#pa4f6850c6f)" style="fill: none; stroke: #bf00bf; stroke-width: 4"/>
   </g>
   <g id="line2d_33">
    <path d="M 1006.889891 96.232029 
L 1002.512102 96.220937 
L 1001.636544 96.274138 
L 1000.760987 96.211873 
L 999.009871 96.301276 
L 998.134314 96.200527 
L 997.258756 96.308059 
L 994.632083 96.20749 
L 993.756525 96.319092 
L 992.880967 96.31676 
L 992.005409 96.195404 
L 988.503178 96.218172 
L 987.627621 96.166562 
L 986.752063 96.344593 
L 985.876505 96.157559 
L 985.000947 96.314319 
L 984.12539 96.172667 
L 983.249832 96.163543 
L 982.374274 96.376884 
L 980.623159 96.109929 
L 979.747601 96.330819 
L 978.872043 96.384976 
L 977.996486 96.104811 
L 977.120928 96.416568 
L 976.24537 96.4008 
L 975.369812 96.120072 
L 974.494255 96.437007 
L 973.618697 96.358673 
L 972.743139 96.04105 
L 970.992024 96.244513 
L 970.116466 96.032955 
L 969.240908 96.338445 
L 968.36535 96.287204 
L 967.489793 96.050502 
L 966.614235 96.099725 
L 965.738677 96.02347 
L 964.863119 96.459149 
L 963.987562 96.106182 
L 963.112004 95.88106 
L 962.236446 96.415365 
L 961.360888 95.857096 
L 960.485331 96.003556 
L 958.734215 95.815612 
L 957.858657 96.436359 
L 956.9831 96.005441 
L 956.107542 95.716163 
L 955.231984 96.559854 
L 954.356427 96.719443 
L 953.480869 96.589387 
L 952.605311 95.902783 
L 951.729753 96.494878 
L 950.854196 96.903544 
L 949.978638 97.006578 
L 949.10308 95.950684 
L 948.227522 96.932245 
L 947.351965 95.534331 
L 946.476407 97.144939 
L 945.600849 95.434508 
L 944.725291 95.298794 
L 943.849734 96.143975 
L 942.974176 95.469975 
L 942.098618 96.249438 
L 941.22306 95.81525 
L 940.347503 97.299669 
L 939.471945 94.954755 
L 938.596387 97.280679 
L 936.845272 97.847533 
L 935.969714 94.898641 
L 935.094156 96.318565 
L 934.218599 94.52619 
L 932.467483 95.775498 
L 931.591925 95.383992 
L 930.716368 95.60811 
L 929.84081 94.210836 
L 928.965252 94.008243 
L 928.089694 96.26376 
L 927.214137 95.314421 
L 926.338579 98.921736 
L 925.463021 99.287841 
L 924.587463 96.985531 
L 923.711906 93.305433 
L 922.836348 100.006842 
L 921.96079 93.953577 
L 921.085232 93.63325 
L 920.209675 96.326908 
L 919.334117 97.288105 
L 918.458559 95.723809 
L 917.583001 92.760652 
L 916.707444 93.177556 
L 915.831886 101.400621 
L 914.956328 95.086195 
L 914.080771 94.34954 
L 913.205213 99.300136 
L 912.329655 93.750489 
L 911.454097 96.268821 
L 910.57854 100.291033 
L 909.702982 90.459666 
L 908.827424 101.089417 
L 907.951866 101.402497 
L 907.076309 90.285829 
L 906.200751 92.485036 
L 905.325193 105.976842 
L 904.449635 106.489094 
L 903.574078 93.578562 
L 902.69852 88.531077 
L 901.822962 89.706594 
L 900.947404 96.456542 
L 900.071847 110.494994 
L 899.196289 130.085336 
L 898.320731 113.424603 
L 897.445173 99.604532 
L 896.569616 92.078213 
L 895.694058 87.895795 
L 894.8185 85.798672 
L 893.942943 85.178618 
L 893.067385 85.721611 
L 892.191827 87.285719 
L 891.316269 89.872331 
L 890.440712 93.67354 
L 889.565154 99.294367 
L 888.689596 108.862134 
L 887.814038 169.867271 
L 886.938481 110.725168 
L 886.062923 102.553536 
L 885.187365 98.274086 
L 884.311807 95.609277 
L 883.43625 93.839739 
L 882.560692 92.640253 
L 881.685134 91.834208 
L 880.809576 91.314209 
L 879.934019 91.009766 
L 879.058461 90.872022 
L 877.307345 90.964616 
L 875.55623 91.402495 
L 873.805114 92.072546 
L 871.178441 93.363119 
L 867.67621 95.407496 
L 863.298422 98.24209 
L 856.29396 103.067749 
L 842.285036 113.059952 
L 799.382707 144.060299 
L 572.613252 308.155167 
L 571.737694 308.960057 
L 569.986579 310.178671 
L 566.484348 312.735481 
L 565.60879 313.274041 
L 564.733232 314.227972 
L 562.982117 315.218194 
L 562.106559 315.935798 
L 561.231001 316.235001 
L 559.479886 318.103641 
L 558.604328 318.276385 
L 557.728771 319.210593 
L 556.853213 319.765385 
L 555.977655 320.100486 
L 555.102097 321.148848 
L 554.22654 321.393358 
L 553.350982 322.56211 
L 552.475424 323.179486 
L 551.599866 324.418874 
L 550.724309 324.07417 
L 549.848751 325.730911 
L 548.973193 325.109268 
L 548.097635 327.070892 
L 547.222078 327.258307 
L 546.34652 328.410135 
L 545.470962 327.538866 
L 544.595404 328.499191 
L 543.719847 330.963251 
L 542.844289 331.348239 
L 541.968731 329.944189 
L 541.093173 334.547428 
L 540.217616 333.780669 
L 539.342058 332.776742 
L 538.4665 336.59271 
L 537.590943 338.317109 
L 536.715385 339.385167 
L 535.839827 334.399908 
L 534.964269 337.857342 
L 534.088712 341.925259 
L 533.213154 339.309653 
L 532.337596 339.150369 
L 531.462038 344.375571 
L 530.586481 344.983626 
L 529.710923 337.872666 
L 528.835365 334.6314 
L 527.959807 351.419526 
L 527.08425 339.871987 
L 526.208692 335.237408 
L 525.333134 372.746704 
L 524.457576 362.189637 
L 523.582019 370.729401 
L 522.706461 337.049422 
L 521.830903 336.403268 
L 520.955345 344.887084 
L 520.079788 356.6005 
L 519.20423 363.426517 
L 518.328672 348.641468 
L 517.453114 347.137772 
L 516.577557 339.564741 
L 515.701999 357.905841 
L 514.826441 333.636197 
L 513.950884 346.652276 
L 513.075326 338.386014 
L 512.199768 339.392296 
L 511.32421 344.996186 
L 510.448653 353.78314 
L 509.573095 346.401867 
L 508.697537 346.473466 
L 507.821979 333.113762 
L 506.946422 336.609624 
L 506.070864 375.527889 
L 505.195306 340.430032 
L 504.319748 327.874082 
L 503.444191 324.953343 
L 502.568633 331.861656 
L 501.693075 330.213128 
L 500.817517 322.291766 
L 499.94196 346.893259 
L 499.066402 323.376149 
L 497.315286 326.704585 
L 496.439729 318.822248 
L 495.564171 326.300235 
L 494.688613 339.549292 
L 493.813056 325.610259 
L 492.937498 337.730843 
L 492.06194 341.079938 
L 491.186382 372.806619 
L 490.310825 317.00674 
L 489.435267 330.195605 
L 488.559709 317.477953 
L 487.684151 336.896003 
L 486.808594 313.169073 
L 485.933036 311.564306 
L 485.057478 314.093567 
L 484.18192 334.543576 
L 483.306363 309.136433 
L 482.430805 335.544027 
L 481.555247 323.287642 
L 480.679689 333.384576 
L 479.804132 326.813079 
L 478.928574 327.43924 
L 478.053016 328.81194 
L 477.177458 304.157241 
L 475.426343 325.176985 
L 474.550785 317.277436 
L 473.675228 302.662613 
L 472.79967 310.385746 
L 471.924112 305.769766 
L 471.048554 331.655662 
L 470.172997 324.723687 
L 469.297439 315.830084 
L 468.421881 302.052349 
L 467.546323 325.897171 
L 466.670766 323.385583 
L 465.795208 292.716811 
L 464.91965 306.688363 
L 464.044092 309.453429 
L 463.168535 340.130983 
L 462.292977 294.229217 
L 461.417419 320.700422 
L 460.541861 295.43822 
L 459.666304 296.852158 
L 458.790746 300.115965 
L 457.915188 300.893298 
L 457.03963 293.092522 
L 456.164073 295.588269 
L 455.288515 295.924495 
L 454.412957 301.235609 
L 453.5374 333.081366 
L 452.661842 286.711222 
L 451.786284 292.442953 
L 450.910726 284.852962 
L 450.035169 288.834382 
L 449.159611 282.088625 
L 448.284053 308.1739 
L 447.408495 287.26864 
L 446.532938 314.110232 
L 445.65738 277.671348 
L 444.781822 296.210061 
L 443.906264 300.904091 
L 443.030707 319.74276 
L 442.155149 283.964152 
L 441.279591 302.089016 
L 440.404033 304.135063 
L 439.528476 285.468214 
L 438.652918 317.725122 
L 436.901802 295.632225 
L 436.026245 276.770253 
L 435.150687 278.756259 
L 434.275129 312.610802 
L 433.399571 301.976104 
L 432.524014 281.125562 
L 431.648456 278.11655 
L 430.772898 309.165751 
L 429.897341 274.178093 
L 429.021783 271.784618 
L 428.146225 299.839129 
L 427.270667 274.185836 
L 426.39511 309.890673 
L 425.519552 285.96511 
L 424.643994 285.150481 
L 423.768436 275.673689 
L 422.892879 274.176469 
L 422.017321 273.607181 
L 421.141763 269.800268 
L 420.266205 273.307178 
L 419.390648 266.78508 
L 418.51509 263.405927 
L 417.639532 265.552365 
L 416.763974 271.74059 
L 415.888417 271.550861 
L 415.012859 269.490061 
L 414.137301 271.135318 
L 413.261743 305.213335 
L 412.386186 256.651948 
L 411.510628 267.353449 
L 410.63507 276.415356 
L 409.759513 297.800792 
L 408.883955 253.207937 
L 408.008397 285.201363 
L 407.132839 292.416675 
L 406.257282 292.679528 
L 405.381724 258.588567 
L 404.506166 287.932956 
L 403.630608 248.660895 
L 402.755051 261.103357 
L 401.879493 304.132307 
L 401.003935 274.515321 
L 400.128377 252.020533 
L 399.25282 265.966876 
L 398.377262 256.246257 
L 397.501704 258.326955 
L 396.626146 253.493756 
L 395.750589 303.075446 
L 394.875031 248.416959 
L 393.999473 263.207585 
L 393.123915 282.941781 
L 392.248358 254.367107 
L 391.3728 256.420504 
L 390.497242 259.108436 
L 389.621685 242.280682 
L 387.870569 282.406424 
L 386.995011 266.463509 
L 386.119454 267.880898 
L 385.243896 250.580627 
L 384.368338 255.557465 
L 383.49278 240.520116 
L 382.617223 254.269696 
L 381.741665 250.932799 
L 380.866107 254.545948 
L 379.990549 239.159939 
L 378.239434 240.861115 
L 377.363876 254.657534 
L 376.488318 245.733354 
L 374.737203 233.431874 
L 373.861645 253.98055 
L 372.986087 259.33599 
L 372.11053 232.673938 
L 371.234972 249.608103 
L 370.359414 241.716974 
L 369.483857 236.834755 
L 368.608299 264.77841 
L 367.732741 250.555519 
L 366.857183 224.270155 
L 365.981626 233.243495 
L 365.106068 224.433202 
L 364.23051 237.295565 
L 363.354952 264.890225 
L 362.479395 237.745476 
L 361.603837 239.973772 
L 359.852721 219.361945 
L 358.977164 231.291371 
L 358.101606 225.859426 
L 357.226048 226.17068 
L 356.35049 237.417916 
L 355.474933 234.506333 
L 354.599375 233.837771 
L 353.723817 211.32665 
L 352.848259 230.449119 
L 351.972702 235.790045 
L 351.097144 228.746142 
L 350.221586 233.090195 
L 349.346029 280.199498 
L 348.470471 211.75786 
L 347.594913 208.117441 
L 346.719355 213.841782 
L 345.843798 223.805259 
L 344.96824 212.149471 
L 344.092682 212.617396 
L 343.217124 217.92603 
L 342.341567 220.218228 
L 341.466009 217.00711 
L 340.590451 210.219018 
L 339.714893 200.583388 
L 338.839336 211.123635 
L 337.963778 246.175847 
L 337.08822 206.610957 
L 336.212662 203.786392 
L 335.337105 196.235694 
L 334.461547 232.992222 
L 333.585989 207.081539 
L 332.710431 223.178188 
L 331.834874 212.526115 
L 330.959316 209.381848 
L 330.083758 217.37815 
L 329.2082 214.265198 
L 328.332643 216.212257 
L 327.457085 225.622964 
L 326.581527 207.328483 
L 325.70597 196.257988 
L 324.830412 200.11222 
L 323.954854 195.270479 
L 323.079296 197.709171 
L 322.203739 198.367166 
L 321.328181 200.632678 
L 320.452623 215.891942 
L 319.577065 192.299021 
L 316.950392 217.294769 
L 316.074834 206.611704 
L 315.199277 191.312419 
L 314.323719 195.932184 
L 312.572603 201.361852 
L 311.697046 186.736844 
L 310.821488 203.59289 
L 309.94593 211.039112 
L 309.070372 196.705697 
L 308.194815 195.558007 
L 307.319257 205.358349 
L 306.443699 182.357595 
L 305.568142 177.209357 
L 304.692584 205.294679 
L 303.817026 191.530948 
L 302.941468 188.357693 
L 302.065911 177.00765 
L 301.190353 183.03065 
L 300.314795 172.637377 
L 299.439237 176.88757 
L 298.56368 178.188447 
L 297.688122 196.999757 
L 296.812564 183.225267 
L 295.937006 192.854557 
L 294.185891 224.758114 
L 293.310333 206.086874 
L 292.434775 177.358876 
L 291.559218 178.928763 
L 290.68366 182.018995 
L 289.808102 201.725271 
L 288.932544 183.334755 
L 288.056987 193.262379 
L 287.181429 174.133144 
L 286.305871 179.92783 
L 285.430314 194.924512 
L 284.554756 195.524656 
L 283.679198 177.781057 
L 282.80364 183.867274 
L 281.928083 175.652506 
L 281.052525 186.005005 
L 280.176967 177.262097 
L 279.301409 191.445242 
L 278.425852 177.023001 
L 277.550294 167.147957 
L 276.674736 175.748772 
L 275.799178 175.240214 
L 274.923621 165.751034 
L 274.048063 170.544003 
L 273.172505 168.175777 
L 272.296947 160.555799 
L 271.42139 164.390767 
L 270.545832 175.233311 
L 269.670274 224.260249 
L 268.794716 168.879969 
L 267.919159 169.275921 
L 267.043601 166.581999 
L 265.292486 151.930449 
L 264.416928 206.210607 
L 263.54137 154.553328 
L 262.665812 185.967939 
L 261.790255 159.224257 
L 260.914697 153.750405 
L 260.039139 159.749298 
L 259.163581 164.969186 
L 258.288024 146.727892 
L 257.412466 156.247703 
L 256.536908 162.351522 
L 255.66135 148.070873 
L 254.785793 156.915128 
L 253.910235 174.519769 
L 253.034677 171.03741 
L 252.159119 150.723132 
L 251.283562 151.379119 
L 250.408004 158.247616 
L 249.532446 163.517715 
L 248.656888 208.14216 
L 247.781331 139.183804 
L 246.905773 147.112579 
L 246.030215 139.693932 
L 245.154657 154.66914 
L 244.2791 157.841213 
L 243.403542 172.617353 
L 242.527984 144.399453 
L 241.652427 148.941661 
L 240.776869 141.817704 
L 239.901311 159.120944 
L 239.025753 134.554318 
L 238.150196 161.727731 
L 237.274638 157.084996 
L 236.39908 131.092547 
L 235.523522 145.21106 
L 234.647965 139.913899 
L 233.772407 153.969681 
L 232.896849 130.997927 
L 232.021291 144.921309 
L 231.145734 145.053139 
L 230.270176 129.54291 
L 229.394618 140.921683 
L 228.51906 131.145996 
L 227.643503 145.376667 
L 226.767945 144.587054 
L 225.892387 124.037377 
L 225.016829 129.969502 
L 224.141272 142.016663 
L 223.265714 149.054554 
L 222.390156 135.355518 
L 221.514599 170.706506 
L 220.639041 136.564421 
L 219.763483 126.68213 
L 218.887925 122.404632 
L 218.012368 127.373612 
L 217.13681 136.047779 
L 216.261252 192.045093 
L 215.385694 135.774096 
L 214.510137 113.591839 
L 213.634579 115.518233 
L 212.759021 117.900623 
L 211.883463 120.977953 
L 211.007906 125.244315 
L 210.132348 132.026627 
L 209.25679 148.337798 
L 208.381232 115.639038 
L 207.505675 118.052904 
L 206.630117 121.180517 
L 205.754559 125.539858 
L 204.879001 132.551892 
L 204.003444 150.364957 
L 203.127886 141.02087 
L 202.252328 128.692874 
L 201.376771 122.213586 
L 200.501213 117.717537 
L 199.625655 103.337482 
L 197.87454 104.329217 
L 196.123424 105.516425 
L 194.372309 106.96241 
L 192.621193 108.765263 
L 190.870078 111.089124 
L 189.99452 112.532599 
L 189.118962 114.241088 
L 188.243404 116.312012 
L 187.367847 118.908111 
L 186.492289 122.333158 
L 185.616731 127.264131 
L 184.741173 135.825864 
L 183.865616 181.187883 
L 182.990058 136.017806 
L 182.1145 126.409541 
L 181.238943 120.707355 
L 180.363385 116.579886 
L 179.487827 96.25443 
L 132.207709 96.25443 
L 132.207709 96.25443 
" clip-path="url(#pa4f6850c6f)" style="fill: none; stroke: #0000ff; stroke-width: 4"/>
   </g>
   <g id="line2d_34">
    <path d="M 1006.889891 96.231424 
L 1000.760987 96.210694 
L 999.009871 96.30169 
L 998.134314 96.20029 
L 997.258756 96.308032 
L 994.632083 96.20669 
L 993.756525 96.319084 
L 992.880967 96.316417 
L 992.005409 96.195097 
L 988.503178 96.218199 
L 987.627621 96.166695 
L 986.752063 96.345115 
L 985.876505 96.156842 
L 985.000947 96.314384 
L 984.12539 96.17374 
L 983.249832 96.164801 
L 982.374274 96.376871 
L 980.623159 96.109939 
L 979.747601 96.331324 
L 978.872043 96.384834 
L 977.996486 96.104743 
L 977.120928 96.416533 
L 976.24537 96.400734 
L 975.369812 96.119902 
L 974.494255 96.43704 
L 973.618697 96.358343 
L 972.743139 96.041157 
L 970.992024 96.244895 
L 970.116466 96.032909 
L 969.240908 96.338768 
L 968.36535 96.287172 
L 967.489793 96.050475 
L 966.614235 96.099474 
L 965.738677 96.023581 
L 964.863119 96.459064 
L 963.987562 96.10601 
L 963.112004 95.881034 
L 962.236446 96.415751 
L 961.360888 95.857004 
L 960.485331 96.003409 
L 958.734215 95.815594 
L 957.858657 96.436344 
L 956.9831 96.005564 
L 956.107542 95.716153 
L 955.231984 96.559794 
L 954.356427 96.719406 
L 953.480869 96.589526 
L 952.605311 95.902862 
L 951.729753 96.494728 
L 950.854196 96.903535 
L 949.978638 97.006578 
L 949.10308 95.950754 
L 948.227522 96.932254 
L 947.351965 95.534337 
L 946.476407 97.144959 
L 945.600849 95.434517 
L 944.725291 95.298841 
L 943.849734 96.143886 
L 942.974176 95.469947 
L 942.098618 96.249484 
L 941.22306 95.815226 
L 940.347503 97.299677 
L 939.471945 94.954756 
L 938.596387 97.280681 
L 936.845272 97.847526 
L 935.969714 94.898692 
L 935.094156 96.318613 
L 934.218599 94.526185 
L 932.467483 95.775429 
L 931.591925 95.384004 
L 930.716368 95.608096 
L 929.84081 94.210849 
L 928.965252 94.00825 
L 928.089694 96.263729 
L 927.214137 95.314448 
L 926.338579 98.921751 
L 925.463021 99.287853 
L 924.587463 96.98553 
L 923.711906 93.305433 
L 922.836348 100.006847 
L 921.96079 93.953549 
L 921.085232 93.633266 
L 920.209675 96.326894 
L 919.334117 97.288077 
L 918.458559 95.723817 
L 917.583001 92.760656 
L 916.707444 93.177544 
L 915.831886 101.40062 
L 914.956328 95.086194 
L 914.080771 94.349533 
L 913.205213 99.300165 
L 912.329655 93.750469 
L 911.454097 96.26883 
L 910.57854 100.291031 
L 909.702982 90.459668 
L 908.827424 101.089422 
L 907.951866 101.402476 
L 907.076309 90.285829 
L 906.200751 92.485046 
L 905.325193 105.976845 
L 904.449635 106.4891 
L 903.574078 93.578568 
L 902.69852 88.531076 
L 901.822962 89.706594 
L 900.947404 96.456544 
L 900.071847 110.494972 
L 899.196289 130.085335 
L 898.320731 113.424629 
L 897.445173 99.604543 
L 896.569616 92.078214 
L 895.694058 87.895795 
L 894.8185 85.798672 
L 893.942943 85.178618 
L 893.067385 85.721611 
L 892.191827 87.285719 
L 891.316269 89.87233 
L 890.440712 93.673536 
L 889.565154 99.29436 
L 888.689596 108.862132 
L 887.814038 169.867699 
L 886.938481 110.725178 
L 886.062923 102.553544 
L 885.187365 98.274086 
L 884.311807 95.609277 
L 883.43625 93.839739 
L 882.560692 92.640253 
L 881.685134 91.834209 
L 880.809576 91.314208 
L 879.934019 91.009764 
L 879.058461 90.872022 
L 877.307345 90.964617 
L 875.55623 91.402497 
L 873.805114 92.072547 
L 871.178441 93.36312 
L 867.67621 95.407498 
L 863.298422 98.242092 
L 856.29396 103.067749 
L 842.285036 113.059955 
L 800.258264 143.426489 
L 743.347011 184.598331 
L 742.471454 185.117153 
L 740.720338 186.646368 
L 739.84478 186.98205 
L 738.969223 187.816771 
L 738.093665 188.128658 
L 737.218107 189.314896 
L 736.342549 189.646751 
L 735.466992 190.127216 
L 734.591434 191.39211 
L 733.715876 191.353069 
L 732.840318 191.698697 
L 731.964761 192.477622 
L 731.089203 193.907745 
L 730.213645 194.885951 
L 729.338087 195.59595 
L 728.46253 194.677914 
L 727.586972 196.467502 
L 726.711414 196.2128 
L 725.835857 197.007268 
L 724.960299 198.137464 
L 724.084741 198.720592 
L 723.209183 197.786909 
L 722.333626 201.154974 
L 721.458068 201.775759 
L 720.58251 202.709408 
L 719.706952 203.84063 
L 718.831395 205.278999 
L 717.955837 201.169698 
L 717.080279 203.768564 
L 716.204721 202.298342 
L 715.329164 204.040881 
L 714.453606 203.894941 
L 713.578048 203.519412 
L 712.70249 205.396474 
L 711.826933 203.711196 
L 710.951375 213.546037 
L 710.075817 216.568798 
L 709.200259 214.009054 
L 708.324702 216.257351 
L 707.449144 210.781256 
L 706.573586 209.26423 
L 705.698029 234.750052 
L 703.946913 210.604427 
L 703.071355 210.799686 
L 702.195798 210.58627 
L 701.32024 231.935787 
L 700.444682 244.779071 
L 699.569124 217.653565 
L 698.693567 232.091119 
L 697.818009 214.636543 
L 696.942451 202.679615 
L 696.066893 208.340785 
L 695.191336 215.209247 
L 694.315778 225.635536 
L 693.44022 224.089007 
L 692.564662 208.908268 
L 691.689105 211.142244 
L 690.813547 202.132387 
L 689.937989 209.363014 
L 689.062431 214.432132 
L 688.186874 203.797343 
L 687.311316 219.572145 
L 686.435758 200.179747 
L 685.5602 204.687645 
L 683.809085 220.174429 
L 682.933527 200.286729 
L 682.05797 196.822044 
L 681.182412 215.021205 
L 680.306854 215.522898 
L 679.431296 198.821177 
L 678.555739 205.166567 
L 677.680181 201.812845 
L 676.804623 199.71281 
L 675.929065 238.905635 
L 675.053508 212.056931 
L 674.17795 210.923218 
L 673.302392 197.199502 
L 672.426834 199.348839 
L 671.551277 193.667968 
L 670.675719 189.526312 
L 669.800161 190.651032 
L 668.924603 239.387688 
L 668.049046 190.365185 
L 667.173488 188.798532 
L 665.422372 197.818807 
L 663.671257 214.03264 
L 662.795699 190.095558 
L 661.920142 187.03 
L 661.044584 192.673269 
L 660.169026 225.020316 
L 659.293468 232.666084 
L 658.417911 185.146588 
L 657.542353 213.675571 
L 656.666795 211.384266 
L 655.791237 182.606697 
L 654.91568 193.863822 
L 654.040122 180.055793 
L 653.164564 198.999704 
L 652.289006 182.374607 
L 651.413449 231.782277 
L 650.537891 182.029909 
L 649.662333 195.634508 
L 648.786775 172.643094 
L 647.911218 172.043927 
L 647.03566 188.348163 
L 646.160102 173.374641 
L 645.284544 175.356447 
L 644.408987 195.414334 
L 643.533429 179.548147 
L 642.657871 179.503573 
L 641.782314 190.940561 
L 640.906756 171.345919 
L 640.031198 167.157105 
L 639.15564 166.351555 
L 638.280083 178.776137 
L 637.404525 169.13464 
L 636.528967 188.18319 
L 635.653409 214.546208 
L 634.777852 179.562284 
L 633.902294 163.353081 
L 633.026736 186.073053 
L 632.151178 162.607786 
L 630.400063 164.303648 
L 629.524505 160.237808 
L 628.648947 163.80173 
L 627.77339 187.755275 
L 626.897832 157.857743 
L 626.022274 171.4597 
L 625.146716 174.008419 
L 624.271159 161.984111 
L 623.395601 158.679191 
L 622.520043 159.295142 
L 621.644486 165.112182 
L 620.768928 196.440781 
L 619.89337 157.663667 
L 619.017812 157.419337 
L 618.142255 166.199773 
L 617.266697 155.461096 
L 616.391139 156.915412 
L 615.515581 176.025744 
L 614.640024 153.116088 
L 613.764466 148.468385 
L 612.01335 158.102558 
L 611.137793 161.192143 
L 610.262235 160.493406 
L 609.386677 156.209515 
L 607.635562 144.855522 
L 606.760004 145.123253 
L 605.884446 154.720267 
L 605.008888 166.482384 
L 604.133331 144.57359 
L 603.257773 145.43218 
L 602.382215 174.264885 
L 601.506657 140.666796 
L 600.6311 151.896232 
L 599.755542 145.016441 
L 598.879984 144.953051 
L 598.004427 145.833453 
L 597.128869 144.150792 
L 596.253311 141.739019 
L 595.377753 149.568675 
L 594.502196 135.191314 
L 593.626638 168.351703 
L 592.75108 136.765609 
L 591.875522 138.411364 
L 590.999965 160.089393 
L 590.124407 133.627077 
L 589.248849 135.874231 
L 588.373291 182.915866 
L 587.497734 135.96394 
L 586.622176 128.81542 
L 585.746618 139.171763 
L 584.87106 156.553069 
L 583.995503 133.074141 
L 583.119945 125.172887 
L 582.244387 131.901017 
L 581.368829 147.885422 
L 580.493272 142.505577 
L 579.617714 129.280506 
L 578.742156 122.586579 
L 577.866599 125.466597 
L 576.991041 132.420814 
L 576.115483 149.836875 
L 575.239925 141.300922 
L 574.364368 128.806808 
L 573.48881 122.286381 
L 572.613252 117.771694 
L 571.737694 119.849581 
L 570.862137 123.634238 
L 569.986579 129.310409 
L 568.235463 152.721899 
L 567.359906 132.318822 
L 566.484348 124.415536 
L 565.60879 119.32087 
L 564.733232 115.50517 
L 563.857675 112.423745 
L 562.982117 111.070638 
L 562.106559 112.510937 
L 561.231001 114.21519 
L 560.355444 116.280179 
L 559.479886 118.867384 
L 558.604328 122.277672 
L 557.728771 127.17934 
L 556.853213 135.65529 
L 555.977655 176.41632 
L 555.102097 136.211149 
L 554.22654 126.506601 
L 553.350982 120.773186 
L 552.475424 116.630274 
L 551.599866 113.350062 
L 550.724309 110.611884 
L 548.973193 106.150665 
L 547.222078 102.534382 
L 545.470962 99.447511 
L 543.719847 96.722311 
L 542.844289 96.254429 
L 132.207709 96.254429 
L 132.207709 96.254429 
" clip-path="url(#pa4f6850c6f)" style="fill: none; stroke: #ff0000; stroke-width: 4"/>
   </g>
   <g id="patch_3">
    <path d="M 88.4736 505.14624 
L 88.4736 65.18016 
" style="fill: none; stroke: #f0f0f0; stroke-width: 3; stroke-linejoin: miter; stroke-linecap: square"/>
   </g>
   <g id="patch_4">
    <path d="M 1050.624 505.14624 
L 1050.624 65.18016 
" style="fill: none; stroke: #f0f0f0; stroke-width: 3; stroke-linejoin: miter; stroke-linecap: square"/>
   </g>
   <g id="patch_5">
    <path d="M 88.4736 505.14624 
L 1050.624 505.14624 
" style="fill: none; stroke: #f0f0f0; stroke-width: 3; stroke-linejoin: miter; stroke-linecap: square"/>
   </g>
   <g id="patch_6">
    <path d="M 88.4736 65.18016 
L 1050.624 65.18016 
" style="fill: none; stroke: #f0f0f0; stroke-width: 3; stroke-linejoin: miter; stroke-linecap: square"/>
   </g>
   <g id="patch_7">
    <path d="M 533.412565 180.330647 
Q 615.994522 212.194441 698.054938 243.857001 
" style="fill: none; stroke: #000000; stroke-width: 0.5; stroke-linecap: round"/>
    <path d="M 693.838295 239.228835 
L 698.054938 243.857001 
L 691.82242 244.453416 
" style="fill: none; stroke: #000000; stroke-width: 0.5; stroke-linecap: round"/>
   </g>
   <g id="text_18">
    <!-- najmniejszy bd dla float  4.739e-06 -->
    <g transform="translate(372.876563 174.698054) scale(0.14 -0.14)">
     <defs>
      <path id="DejaVuSans-6e" d="M 3513 2113 
L 3513 0 
L 2938 0 
L 2938 2094 
Q 2938 2591 2744 2837 
Q 2550 3084 2163 3084 
Q 1697 3084 1428 2787 
Q 1159 2491 1159 1978 
L 1159 0 
L 581 0 
L 581 3500 
L 1159 3500 
L 1159 2956 
Q 1366 3272 1645 3428 
Q 1925 3584 2291 3584 
Q 2894 3584 3203 3211 
Q 3513 2838 3513 2113 
z
" transform="scale(0.015625)"/>
      <path id="DejaVuSans-61" d="M 2194 1759 
Q 1497 1759 1228 1600 
Q 959 1441 959 1056 
Q 959 750 1161 570 
Q 1363 391 1709 391 
Q 2188 391 2477 730 
Q 2766 1069 2766 1631 
L 2766 1759 
L 2194 1759 
z
M 3341 1997 
L 3341 0 
L 2766 0 
L 2766 531 
Q 2569 213 2275 61 
Q 1981 -91 1556 -91 
Q 1019 -91 701 211 
Q 384 513 384 1019 
Q 384 1609 779 1909 
Q 1175 2209 1959 2209 
L 2766 2209 
L 2766 2266 
Q 2766 2663 2505 2880 
Q 2244 3097 1772 3097 
Q 1472 3097 1187 3025 
Q 903 2953 641 2809 
L 641 3341 
Q 956 3463 1253 3523 
Q 1550 3584 1831 3584 
Q 2591 3584 2966 3190 
Q 3341 2797 3341 1997 
z
" transform="scale(0.015625)"/>
      <path id="DejaVuSans-6a" d="M 603 3500 
L 1178 3500 
L 1178 -63 
Q 1178 -731 923 -1031 
Q 669 -1331 103 -1331 
L -116 -1331 
L -116 -844 
L 38 -844 
Q 366 -844 484 -692 
Q 603 -541 603 -63 
L 603 3500 
z
M 603 4863 
L 1178 4863 
L 1178 4134 
L 603 4134 
L 603 4863 
z
" transform="scale(0.015625)"/>
      <path id="DejaVuSans-6d" d="M 3328 2828 
Q 3544 3216 3844 3400 
Q 4144 3584 4550 3584 
Q 5097 3584 5394 3201 
Q 5691 2819 5691 2113 
L 5691 0 
L 5113 0 
L 5113 2094 
Q 5113 2597 4934 2840 
Q 4756 3084 4391 3084 
Q 3944 3084 3684 2787 
Q 3425 2491 3425 1978 
L 3425 0 
L 2847 0 
L 2847 2094 
Q 2847 2600 2669 2842 
Q 2491 3084 2119 3084 
Q 1678 3084 1418 2786 
Q 1159 2488 1159 1978 
L 1159 0 
L 581 0 
L 581 3500 
L 1159 3500 
L 1159 2956 
Q 1356 3278 1631 3431 
Q 1906 3584 2284 3584 
Q 2666 3584 2933 3390 
Q 3200 3197 3328 2828 
z
" transform="scale(0.015625)"/>
      <path id="DejaVuSans-69" d="M 603 3500 
L 1178 3500 
L 1178 0 
L 603 0 
L 603 3500 
z
M 603 4863 
L 1178 4863 
L 1178 4134 
L 603 4134 
L 603 4863 
z
" transform="scale(0.015625)"/>
      <path id="DejaVuSans-65" d="M 3597 1894 
L 3597 1613 
L 953 1613 
Q 991 1019 1311 708 
Q 1631 397 2203 397 
Q 2534 397 2845 478 
Q 3156 559 3463 722 
L 3463 178 
Q 3153 47 2828 -22 
Q 2503 -91 2169 -91 
Q 1331 -91 842 396 
Q 353 884 353 1716 
Q 353 2575 817 3079 
Q 1281 3584 2069 3584 
Q 2775 3584 3186 3129 
Q 3597 2675 3597 1894 
z
M 3022 2063 
Q 3016 2534 2758 2815 
Q 2500 3097 2075 3097 
Q 1594 3097 1305 2825 
Q 1016 2553 972 2059 
L 3022 2063 
z
" transform="scale(0.015625)"/>
      <path id="DejaVuSans-73" d="M 2834 3397 
L 2834 2853 
Q 2591 2978 2328 3040 
Q 2066 3103 1784 3103 
Q 1356 3103 1142 2972 
Q 928 2841 928 2578 
Q 928 2378 1081 2264 
Q 1234 2150 1697 2047 
L 1894 2003 
Q 2506 1872 2764 1633 
Q 3022 1394 3022 966 
Q 3022 478 2636 193 
Q 2250 -91 1575 -91 
Q 1294 -91 989 -36 
Q 684 19 347 128 
L 347 722 
Q 666 556 975 473 
Q 1284 391 1588 391 
Q 1994 391 2212 530 
Q 2431 669 2431 922 
Q 2431 1156 2273 1281 
Q 2116 1406 1581 1522 
L 1381 1569 
Q 847 1681 609 1914 
Q 372 2147 372 2553 
Q 372 3047 722 3315 
Q 1072 3584 1716 3584 
Q 2034 3584 2315 3537 
Q 2597 3491 2834 3397 
z
" transform="scale(0.015625)"/>
      <path id="DejaVuSans-7a" d="M 353 3500 
L 3084 3500 
L 3084 2975 
L 922 459 
L 3084 459 
L 3084 0 
L 275 0 
L 275 525 
L 2438 3041 
L 353 3041 
L 353 3500 
z
" transform="scale(0.015625)"/>
      <path id="DejaVuSans-79" d="M 2059 -325 
Q 1816 -950 1584 -1140 
Q 1353 -1331 966 -1331 
L 506 -1331 
L 506 -850 
L 844 -850 
Q 1081 -850 1212 -737 
Q 1344 -625 1503 -206 
L 1606 56 
L 191 3500 
L 800 3500 
L 1894 763 
L 2988 3500 
L 3597 3500 
L 2059 -325 
z
" transform="scale(0.015625)"/>
      <path id="DejaVuSans-20" transform="scale(0.015625)"/>
      <path id="DejaVuSans-62" d="M 3116 1747 
Q 3116 2381 2855 2742 
Q 2594 3103 2138 3103 
Q 1681 3103 1420 2742 
Q 1159 2381 1159 1747 
Q 1159 1113 1420 752 
Q 1681 391 2138 391 
Q 2594 391 2855 752 
Q 3116 1113 3116 1747 
z
M 1159 2969 
Q 1341 3281 1617 3432 
Q 1894 3584 2278 3584 
Q 2916 3584 3314 3078 
Q 3713 2572 3713 1747 
Q 3713 922 3314 415 
Q 2916 -91 2278 -91 
Q 1894 -91 1617 61 
Q 1341 213 1159 525 
L 1159 0 
L 581 0 
L 581 4863 
L 1159 4863 
L 1159 2969 
z
" transform="scale(0.015625)"/>
      <path id="DejaVuSans-142" d="M 622 4863 
L 1197 4863 
L 1197 2981 
L 1588 3263 
L 1825 2931 
L 1197 2491 
L 1197 0 
L 622 0 
L 622 2081 
L 238 1806 
L 6 2138 
L 622 2578 
L 622 4863 
z
" transform="scale(0.015625)"/>
      <path id="DejaVuSans-105" d="M 2194 1759 
Q 1497 1759 1228 1600 
Q 959 1441 959 1056 
Q 959 750 1161 570 
Q 1363 391 1709 391 
Q 2188 391 2477 730 
Q 2766 1069 2766 1631 
L 2766 1759 
L 2194 1759 
z
M 3341 1997 
L 3341 0 
L 2766 0 
L 2766 531 
Q 2569 213 2275 61 
Q 1981 -91 1556 -91 
Q 1019 -91 701 211 
Q 384 513 384 1019 
Q 384 1609 779 1909 
Q 1175 2209 1959 2209 
L 2766 2209 
L 2766 2266 
Q 2766 2663 2505 2880 
Q 2244 3097 1772 3097 
Q 1472 3097 1187 3025 
Q 903 2953 641 2809 
L 641 3341 
Q 956 3463 1253 3523 
Q 1550 3584 1831 3584 
Q 2591 3584 2966 3190 
Q 3341 2797 3341 1997 
z
M 2775 0 
L 3147 0 
Q 3006 -191 2939 -328 
Q 2872 -466 2872 -563 
Q 2872 -706 2958 -778 
Q 3044 -850 3213 -850 
Q 3313 -850 3409 -826 
Q 3506 -803 3603 -756 
L 3603 -1172 
Q 3484 -1203 3378 -1218 
Q 3272 -1234 3178 -1234 
Q 2797 -1234 2617 -1098 
Q 2438 -963 2438 -672 
Q 2438 -522 2520 -358 
Q 2603 -194 2775 0 
z
" transform="scale(0.015625)"/>
      <path id="DejaVuSans-64" d="M 2906 2969 
L 2906 4863 
L 3481 4863 
L 3481 0 
L 2906 0 
L 2906 525 
Q 2725 213 2448 61 
Q 2172 -91 1784 -91 
Q 1150 -91 751 415 
Q 353 922 353 1747 
Q 353 2572 751 3078 
Q 1150 3584 1784 3584 
Q 2172 3584 2448 3432 
Q 2725 3281 2906 2969 
z
M 947 1747 
Q 947 1113 1208 752 
Q 1469 391 1925 391 
Q 2381 391 2643 752 
Q 2906 1113 2906 1747 
Q 2906 2381 2643 2742 
Q 2381 3103 1925 3103 
Q 1469 3103 1208 2742 
Q 947 2381 947 1747 
z
" transform="scale(0.015625)"/>
      <path id="DejaVuSans-6c" d="M 603 4863 
L 1178 4863 
L 1178 0 
L 603 0 
L 603 4863 
z
" transform="scale(0.015625)"/>
      <path id="DejaVuSans-6f" d="M 1959 3097 
Q 1497 3097 1228 2736 
Q 959 2375 959 1747 
Q 959 1119 1226 758 
Q 1494 397 1959 397 
Q 2419 397 2687 759 
Q 2956 1122 2956 1747 
Q 2956 2369 2687 2733 
Q 2419 3097 1959 3097 
z
M 1959 3584 
Q 2709 3584 3137 3096 
Q 3566 2609 3566 1747 
Q 3566 888 3137 398 
Q 2709 -91 1959 -91 
Q 1206 -91 779 398 
Q 353 888 353 1747 
Q 353 2609 779 3096 
Q 1206 3584 1959 3584 
z
" transform="scale(0.015625)"/>
      <path id="DejaVuSans-74" d="M 1172 4494 
L 1172 3500 
L 2356 3500 
L 2356 3053 
L 1172 3053 
L 1172 1153 
Q 1172 725 1289 603 
Q 1406 481 1766 481 
L 2356 481 
L 2356 0 
L 1766 0 
Q 1100 0 847 248 
Q 594 497 594 1153 
L 594 3053 
L 172 3053 
L 172 3500 
L 594 3500 
L 594 4494 
L 1172 4494 
z
" transform="scale(0.015625)"/>
      <path id="DejaVuSans-2248" d="M 4684 1947 
L 4684 1388 
Q 4356 1144 4076 1036 
Q 3797 928 3494 928 
Q 3150 928 2694 1113 
Q 2663 1125 2641 1134 
Q 2622 1141 2575 1159 
Q 2091 1350 1797 1350 
Q 1522 1350 1253 1231 
Q 984 1113 678 850 
L 678 1409 
Q 1006 1653 1286 1761 
Q 1566 1869 1869 1869 
Q 2213 1869 2672 1684 
Q 2706 1669 2722 1663 
Q 2741 1656 2788 1638 
Q 3272 1447 3566 1447 
Q 3834 1447 4098 1564 
Q 4363 1681 4684 1947 
z
M 4684 3163 
L 4684 2606 
Q 4356 2359 4076 2251 
Q 3797 2144 3494 2144 
Q 3150 2144 2694 2328 
Q 2663 2341 2641 2350 
Q 2622 2356 2575 2375 
Q 2091 2566 1797 2566 
Q 1522 2566 1253 2447 
Q 984 2328 678 2069 
L 678 2625 
Q 1006 2869 1286 2976 
Q 1566 3084 1869 3084 
Q 2213 3084 2672 2900 
Q 2703 2888 2719 2881 
Q 2741 2872 2788 2853 
Q 3272 2663 3566 2663 
Q 3834 2663 4098 2780 
Q 4363 2897 4684 3163 
z
" transform="scale(0.015625)"/>
      <path id="DejaVuSans-2e" d="M 684 794 
L 1344 794 
L 1344 0 
L 684 0 
L 684 794 
z
" transform="scale(0.015625)"/>
      <path id="DejaVuSans-33" d="M 2597 2516 
Q 3050 2419 3304 2112 
Q 3559 1806 3559 1356 
Q 3559 666 3084 287 
Q 2609 -91 1734 -91 
Q 1441 -91 1130 -33 
Q 819 25 488 141 
L 488 750 
Q 750 597 1062 519 
Q 1375 441 1716 441 
Q 2309 441 2620 675 
Q 2931 909 2931 1356 
Q 2931 1769 2642 2001 
Q 2353 2234 1838 2234 
L 1294 2234 
L 1294 2753 
L 1863 2753 
Q 2328 2753 2575 2939 
Q 2822 3125 2822 3475 
Q 2822 3834 2567 4026 
Q 2313 4219 1838 4219 
Q 1578 4219 1281 4162 
Q 984 4106 628 3988 
L 628 4550 
Q 988 4650 1302 4700 
Q 1616 4750 1894 4750 
Q 2613 4750 3031 4423 
Q 3450 4097 3450 3541 
Q 3450 3153 3228 2886 
Q 3006 2619 2597 2516 
z
" transform="scale(0.015625)"/>
      <path id="DejaVuSans-39" d="M 703 97 
L 703 672 
Q 941 559 1184 500 
Q 1428 441 1663 441 
Q 2288 441 2617 861 
Q 2947 1281 2994 2138 
Q 2813 1869 2534 1725 
Q 2256 1581 1919 1581 
Q 1219 1581 811 2004 
Q 403 2428 403 3163 
Q 403 3881 828 4315 
Q 1253 4750 1959 4750 
Q 2769 4750 3195 4129 
Q 3622 3509 3622 2328 
Q 3622 1225 3098 567 
Q 2575 -91 1691 -91 
Q 1453 -91 1209 -44 
Q 966 3 703 97 
z
M 1959 2075 
Q 2384 2075 2632 2365 
Q 2881 2656 2881 3163 
Q 2881 3666 2632 3958 
Q 2384 4250 1959 4250 
Q 1534 4250 1286 3958 
Q 1038 3666 1038 3163 
Q 1038 2656 1286 2365 
Q 1534 2075 1959 2075 
z
" transform="scale(0.015625)"/>
      <path id="DejaVuSans-2d" d="M 313 2009 
L 1997 2009 
L 1997 1497 
L 313 1497 
L 313 2009 
z
" transform="scale(0.015625)"/>
     </defs>
     <use xlink:href="#DejaVuSans-6e"/>
     <use xlink:href="#DejaVuSans-61" x="63.378906"/>
     <use xlink:href="#DejaVuSans-6a" x="124.658203"/>
     <use xlink:href="#DejaVuSans-6d" x="152.441406"/>
     <use xlink:href="#DejaVuSans-6e" x="249.853516"/>
     <use xlink:href="#DejaVuSans-69" x="313.232422"/>
     <use xlink:href="#DejaVuSans-65" x="341.015625"/>
     <use xlink:href="#DejaVuSans-6a" x="402.539062"/>
     <use xlink:href="#DejaVuSans-73" x="430.322266"/>
     <use xlink:href="#DejaVuSans-7a" x="482.421875"/>
     <use xlink:href="#DejaVuSans-79" x="534.912109"/>
     <use xlink:href="#DejaVuSans-20" x="594.091797"/>
     <use xlink:href="#DejaVuSans-62" x="625.878906"/>
     <use xlink:href="#DejaVuSans-142" x="689.355469"/>
     <use xlink:href="#DejaVuSans-105" x="717.773438"/>
     <use xlink:href="#DejaVuSans-64" x="779.052734"/>
     <use xlink:href="#DejaVuSans-20" x="842.529297"/>
     <use xlink:href="#DejaVuSans-64" x="874.316406"/>
     <use xlink:href="#DejaVuSans-6c" x="937.792969"/>
     <use xlink:href="#DejaVuSans-61" x="965.576172"/>
     <use xlink:href="#DejaVuSans-20" x="1026.855469"/>
     <use xlink:href="#DejaVuSans-66" x="1058.642578"/>
     <use xlink:href="#DejaVuSans-6c" x="1093.847656"/>
     <use xlink:href="#DejaVuSans-6f" x="1121.630859"/>
     <use xlink:href="#DejaVuSans-61" x="1182.8125"/>
     <use xlink:href="#DejaVuSans-74" x="1244.091797"/>
     <use xlink:href="#DejaVuSans-20" x="1283.300781"/>
     <use xlink:href="#DejaVuSans-2248" x="1315.087891"/>
     <use xlink:href="#DejaVuSans-20" x="1398.876953"/>
     <use xlink:href="#DejaVuSans-34" x="1430.664062"/>
     <use xlink:href="#DejaVuSans-2e" x="1494.287109"/>
     <use xlink:href="#DejaVuSans-37" x="1526.074219"/>
     <use xlink:href="#DejaVuSans-33" x="1589.697266"/>
     <use xlink:href="#DejaVuSans-39" x="1653.320312"/>
     <use xlink:href="#DejaVuSans-65" x="1716.943359"/>
     <use xlink:href="#DejaVuSans-2d" x="1778.466797"/>
     <use xlink:href="#DejaVuSans-30" x="1814.550781"/>
     <use xlink:href="#DejaVuSans-36" x="1878.173828"/>
    </g>
   </g>
   <g id="patch_8">
    <path d="M 382.678845 378.419961 
Q 443.375081 376.997358 503.512453 375.587853 
" style="fill: none; stroke: #000000; stroke-width: 0.5; stroke-linecap: round"/>
    <path d="M 497.848382 372.919839 
L 503.512453 375.587853 
L 497.979599 378.518301 
" style="fill: none; stroke: #000000; stroke-width: 0.5; stroke-linecap: round"/>
   </g>
   <g id="text_19">
    <!-- najmniejszy bd dla double  2.183e-10 -->
    <g transform="translate(90.556177 385.753418) scale(0.14 -0.14)">
     <defs>
      <path id="DejaVuSans-75" d="M 544 1381 
L 544 3500 
L 1119 3500 
L 1119 1403 
Q 1119 906 1312 657 
Q 1506 409 1894 409 
Q 2359 409 2629 706 
Q 2900 1003 2900 1516 
L 2900 3500 
L 3475 3500 
L 3475 0 
L 2900 0 
L 2900 538 
Q 2691 219 2414 64 
Q 2138 -91 1772 -91 
Q 1169 -91 856 284 
Q 544 659 544 1381 
z
M 1991 3584 
L 1991 3584 
z
" transform="scale(0.015625)"/>
     </defs>
     <use xlink:href="#DejaVuSans-6e"/>
     <use xlink:href="#DejaVuSans-61" x="63.378906"/>
     <use xlink:href="#DejaVuSans-6a" x="124.658203"/>
     <use xlink:href="#DejaVuSans-6d" x="152.441406"/>
     <use xlink:href="#DejaVuSans-6e" x="249.853516"/>
     <use xlink:href="#DejaVuSans-69" x="313.232422"/>
     <use xlink:href="#DejaVuSans-65" x="341.015625"/>
     <use xlink:href="#DejaVuSans-6a" x="402.539062"/>
     <use xlink:href="#DejaVuSans-73" x="430.322266"/>
     <use xlink:href="#DejaVuSans-7a" x="482.421875"/>
     <use xlink:href="#DejaVuSans-79" x="534.912109"/>
     <use xlink:href="#DejaVuSans-20" x="594.091797"/>
     <use xlink:href="#DejaVuSans-62" x="625.878906"/>
     <use xlink:href="#DejaVuSans-142" x="689.355469"/>
     <use xlink:href="#DejaVuSans-105" x="717.773438"/>
     <use xlink:href="#DejaVuSans-64" x="779.052734"/>
     <use xlink:href="#DejaVuSans-20" x="842.529297"/>
     <use xlink:href="#DejaVuSans-64" x="874.316406"/>
     <use xlink:href="#DejaVuSans-6c" x="937.792969"/>
     <use xlink:href="#DejaVuSans-61" x="965.576172"/>
     <use xlink:href="#DejaVuSans-20" x="1026.855469"/>
     <use xlink:href="#DejaVuSans-64" x="1058.642578"/>
     <use xlink:href="#DejaVuSans-6f" x="1122.119141"/>
     <use xlink:href="#DejaVuSans-75" x="1183.300781"/>
     <use xlink:href="#DejaVuSans-62" x="1246.679688"/>
     <use xlink:href="#DejaVuSans-6c" x="1310.15625"/>
     <use xlink:href="#DejaVuSans-65" x="1337.939453"/>
     <use xlink:href="#DejaVuSans-20" x="1399.462891"/>
     <use xlink:href="#DejaVuSans-2248" x="1431.25"/>
     <use xlink:href="#DejaVuSans-20" x="1515.039062"/>
     <use xlink:href="#DejaVuSans-32" x="1546.826172"/>
     <use xlink:href="#DejaVuSans-2e" x="1610.449219"/>
     <use xlink:href="#DejaVuSans-31" x="1642.236328"/>
     <use xlink:href="#DejaVuSans-38" x="1705.859375"/>
     <use xlink:href="#DejaVuSans-33" x="1769.482422"/>
     <use xlink:href="#DejaVuSans-65" x="1833.105469"/>
     <use xlink:href="#DejaVuSans-2d" x="1894.628906"/>
     <use xlink:href="#DejaVuSans-31" x="1930.712891"/>
     <use xlink:href="#DejaVuSans-30" x="1994.335938"/>
    </g>
   </g>
   <g id="patch_9">
    <path d="M 322.317259 412.169297 
Q 487.20305 448.4439 651.54288 484.598393 
" style="fill: none; stroke: #000000; stroke-width: 0.5; stroke-linecap: round"/>
    <path d="M 646.675277 480.66057 
L 651.54288 484.598393 
L 645.47206 486.129781 
" style="fill: none; stroke: #000000; stroke-width: 0.5; stroke-linecap: round"/>
   </g>
   <g id="text_20">
    <!-- dla symmetrycznego przyblienia double  5.052e-14 -->
    <g transform="translate(90.556177 406.827899) scale(0.14 -0.14)">
     <defs>
      <path id="DejaVuSans-72" d="M 2631 2963 
Q 2534 3019 2420 3045 
Q 2306 3072 2169 3072 
Q 1681 3072 1420 2755 
Q 1159 2438 1159 1844 
L 1159 0 
L 581 0 
L 581 3500 
L 1159 3500 
L 1159 2956 
Q 1341 3275 1631 3429 
Q 1922 3584 2338 3584 
Q 2397 3584 2469 3576 
Q 2541 3569 2628 3553 
L 2631 2963 
z
" transform="scale(0.015625)"/>
      <path id="DejaVuSans-63" d="M 3122 3366 
L 3122 2828 
Q 2878 2963 2633 3030 
Q 2388 3097 2138 3097 
Q 1578 3097 1268 2742 
Q 959 2388 959 1747 
Q 959 1106 1268 751 
Q 1578 397 2138 397 
Q 2388 397 2633 464 
Q 2878 531 3122 666 
L 3122 134 
Q 2881 22 2623 -34 
Q 2366 -91 2075 -91 
Q 1284 -91 818 406 
Q 353 903 353 1747 
Q 353 2603 823 3093 
Q 1294 3584 2113 3584 
Q 2378 3584 2631 3529 
Q 2884 3475 3122 3366 
z
" transform="scale(0.015625)"/>
      <path id="DejaVuSans-67" d="M 2906 1791 
Q 2906 2416 2648 2759 
Q 2391 3103 1925 3103 
Q 1463 3103 1205 2759 
Q 947 2416 947 1791 
Q 947 1169 1205 825 
Q 1463 481 1925 481 
Q 2391 481 2648 825 
Q 2906 1169 2906 1791 
z
M 3481 434 
Q 3481 -459 3084 -895 
Q 2688 -1331 1869 -1331 
Q 1566 -1331 1297 -1286 
Q 1028 -1241 775 -1147 
L 775 -588 
Q 1028 -725 1275 -790 
Q 1522 -856 1778 -856 
Q 2344 -856 2625 -561 
Q 2906 -266 2906 331 
L 2906 616 
Q 2728 306 2450 153 
Q 2172 0 1784 0 
Q 1141 0 747 490 
Q 353 981 353 1791 
Q 353 2603 747 3093 
Q 1141 3584 1784 3584 
Q 2172 3584 2450 3431 
Q 2728 3278 2906 2969 
L 2906 3500 
L 3481 3500 
L 3481 434 
z
" transform="scale(0.015625)"/>
      <path id="DejaVuSans-70" d="M 1159 525 
L 1159 -1331 
L 581 -1331 
L 581 3500 
L 1159 3500 
L 1159 2969 
Q 1341 3281 1617 3432 
Q 1894 3584 2278 3584 
Q 2916 3584 3314 3078 
Q 3713 2572 3713 1747 
Q 3713 922 3314 415 
Q 2916 -91 2278 -91 
Q 1894 -91 1617 61 
Q 1341 213 1159 525 
z
M 3116 1747 
Q 3116 2381 2855 2742 
Q 2594 3103 2138 3103 
Q 1681 3103 1420 2742 
Q 1159 2381 1159 1747 
Q 1159 1113 1420 752 
Q 1681 391 2138 391 
Q 2594 391 2855 752 
Q 3116 1113 3116 1747 
z
" transform="scale(0.015625)"/>
      <path id="DejaVuSans-17c" d="M 1378 4863 
L 1953 4863 
L 1953 4134 
L 1378 4134 
L 1378 4863 
z
M 1672 3584 
L 1672 3584 
z
M 353 3500 
L 3084 3500 
L 3084 2975 
L 922 459 
L 3084 459 
L 3084 0 
L 275 0 
L 275 525 
L 2438 3041 
L 353 3041 
L 353 3500 
z
" transform="scale(0.015625)"/>
     </defs>
     <use xlink:href="#DejaVuSans-64"/>
     <use xlink:href="#DejaVuSans-6c" x="63.476562"/>
     <use xlink:href="#DejaVuSans-61" x="91.259766"/>
     <use xlink:href="#DejaVuSans-20" x="152.539062"/>
     <use xlink:href="#DejaVuSans-73" x="184.326172"/>
     <use xlink:href="#DejaVuSans-79" x="236.425781"/>
     <use xlink:href="#DejaVuSans-6d" x="295.605469"/>
     <use xlink:href="#DejaVuSans-6d" x="393.017578"/>
     <use xlink:href="#DejaVuSans-65" x="490.429688"/>
     <use xlink:href="#DejaVuSans-74" x="551.953125"/>
     <use xlink:href="#DejaVuSans-72" x="591.162109"/>
     <use xlink:href="#DejaVuSans-79" x="632.275391"/>
     <use xlink:href="#DejaVuSans-63" x="691.455078"/>
     <use xlink:href="#DejaVuSans-7a" x="746.435547"/>
     <use xlink:href="#DejaVuSans-6e" x="798.925781"/>
     <use xlink:href="#DejaVuSans-65" x="862.304688"/>
     <use xlink:href="#DejaVuSans-67" x="923.828125"/>
     <use xlink:href="#DejaVuSans-6f" x="987.304688"/>
     <use xlink:href="#DejaVuSans-20" x="1048.486328"/>
     <use xlink:href="#DejaVuSans-70" x="1080.273438"/>
     <use xlink:href="#DejaVuSans-72" x="1143.75"/>
     <use xlink:href="#DejaVuSans-7a" x="1184.863281"/>
     <use xlink:href="#DejaVuSans-79" x="1237.353516"/>
     <use xlink:href="#DejaVuSans-62" x="1296.533203"/>
     <use xlink:href="#DejaVuSans-6c" x="1360.009766"/>
     <use xlink:href="#DejaVuSans-69" x="1387.792969"/>
     <use xlink:href="#DejaVuSans-17c" x="1415.576172"/>
     <use xlink:href="#DejaVuSans-65" x="1468.066406"/>
     <use xlink:href="#DejaVuSans-6e" x="1529.589844"/>
     <use xlink:href="#DejaVuSans-69" x="1592.96875"/>
     <use xlink:href="#DejaVuSans-61" x="1620.751953"/>
     <use xlink:href="#DejaVuSans-20" x="1682.03125"/>
     <use xlink:href="#DejaVuSans-64" x="1713.818359"/>
     <use xlink:href="#DejaVuSans-6f" x="1777.294922"/>
     <use xlink:href="#DejaVuSans-75" x="1838.476562"/>
     <use xlink:href="#DejaVuSans-62" x="1901.855469"/>
     <use xlink:href="#DejaVuSans-6c" x="1965.332031"/>
     <use xlink:href="#DejaVuSans-65" x="1993.115234"/>
     <use xlink:href="#DejaVuSans-20" x="2054.638672"/>
     <use xlink:href="#DejaVuSans-2248" x="2086.425781"/>
     <use xlink:href="#DejaVuSans-20" x="2170.214844"/>
     <use xlink:href="#DejaVuSans-35" x="2202.001953"/>
     <use xlink:href="#DejaVuSans-2e" x="2265.625"/>
     <use xlink:href="#DejaVuSans-30" x="2297.412109"/>
     <use xlink:href="#DejaVuSans-35" x="2361.035156"/>
     <use xlink:href="#DejaVuSans-32" x="2424.658203"/>
     <use xlink:href="#DejaVuSans-65" x="2488.28125"/>
     <use xlink:href="#DejaVuSans-2d" x="2549.804688"/>
     <use xlink:href="#DejaVuSans-31" x="2585.888672"/>
     <use xlink:href="#DejaVuSans-34" x="2649.511719"/>
    </g>
   </g>
   <g id="legend_1">
    <g id="patch_10">
     <path d="M 98.2736 498.14624 
L 285.099225 498.14624 
Q 287.899225 498.14624 287.899225 495.34624 
L 287.899225 414.54874 
Q 287.899225 411.74874 285.099225 411.74874 
L 98.2736 411.74874 
Q 95.4736 411.74874 95.4736 414.54874 
L 95.4736 495.34624 
Q 95.4736 498.14624 98.2736 498.14624 
z
" style="fill: #f0f0f0; opacity: 0.8; stroke: #cccccc; stroke-width: 0.5; stroke-linejoin: miter"/>
    </g>
    <g id="line2d_35">
     <path d="M 101.0736 423.086553 
L 115.0736 423.086553 
L 129.0736 423.086553 
" style="fill: none; stroke: #00bfbf; stroke-width: 4"/>
    </g>
    <g id="text_21">
     <!-- symetryczna double -->
     <g transform="translate(140.2736 427.986553) scale(0.14 -0.14)">
      <use xlink:href="#DejaVuSans-73"/>
      <use xlink:href="#DejaVuSans-79" x="52.099609"/>
      <use xlink:href="#DejaVuSans-6d" x="111.279297"/>
      <use xlink:href="#DejaVuSans-65" x="208.691406"/>
      <use xlink:href="#DejaVuSans-74" x="270.214844"/>
      <use xlink:href="#DejaVuSans-72" x="309.423828"/>
      <use xlink:href="#DejaVuSans-79" x="350.537109"/>
      <use xlink:href="#DejaVuSans-63" x="409.716797"/>
      <use xlink:href="#DejaVuSans-7a" x="464.697266"/>
      <use xlink:href="#DejaVuSans-6e" x="517.1875"/>
      <use xlink:href="#DejaVuSans-61" x="580.566406"/>
      <use xlink:href="#DejaVuSans-20" x="641.845703"/>
      <use xlink:href="#DejaVuSans-64" x="673.632812"/>
      <use xlink:href="#DejaVuSans-6f" x="737.109375"/>
      <use xlink:href="#DejaVuSans-75" x="798.291016"/>
      <use xlink:href="#DejaVuSans-62" x="861.669922"/>
      <use xlink:href="#DejaVuSans-6c" x="925.146484"/>
      <use xlink:href="#DejaVuSans-65" x="952.929688"/>
     </g>
    </g>
    <g id="line2d_36">
     <path d="M 101.0736 443.635928 
L 115.0736 443.635928 
L 129.0736 443.635928 
" style="fill: none; stroke: #bf00bf; stroke-width: 4"/>
    </g>
    <g id="text_22">
     <!-- symetryczna float -->
     <g transform="translate(140.2736 448.535928) scale(0.14 -0.14)">
      <use xlink:href="#DejaVuSans-73"/>
      <use xlink:href="#DejaVuSans-79" x="52.099609"/>
      <use xlink:href="#DejaVuSans-6d" x="111.279297"/>
      <use xlink:href="#DejaVuSans-65" x="208.691406"/>
      <use xlink:href="#DejaVuSans-74" x="270.214844"/>
      <use xlink:href="#DejaVuSans-72" x="309.423828"/>
      <use xlink:href="#DejaVuSans-79" x="350.537109"/>
      <use xlink:href="#DejaVuSans-63" x="409.716797"/>
      <use xlink:href="#DejaVuSans-7a" x="464.697266"/>
      <use xlink:href="#DejaVuSans-6e" x="517.1875"/>
      <use xlink:href="#DejaVuSans-61" x="580.566406"/>
      <use xlink:href="#DejaVuSans-20" x="641.845703"/>
      <use xlink:href="#DejaVuSans-66" x="673.632812"/>
      <use xlink:href="#DejaVuSans-6c" x="708.837891"/>
      <use xlink:href="#DejaVuSans-6f" x="736.621094"/>
      <use xlink:href="#DejaVuSans-61" x="797.802734"/>
      <use xlink:href="#DejaVuSans-74" x="859.082031"/>
     </g>
    </g>
    <g id="line2d_37">
     <path d="M 101.0736 464.185303 
L 115.0736 464.185303 
L 129.0736 464.185303 
" style="fill: none; stroke: #0000ff; stroke-width: 4"/>
    </g>
    <g id="text_23">
     <!-- double -->
     <g transform="translate(140.2736 469.085303) scale(0.14 -0.14)">
      <use xlink:href="#DejaVuSans-64"/>
      <use xlink:href="#DejaVuSans-6f" x="63.476562"/>
      <use xlink:href="#DejaVuSans-75" x="124.658203"/>
      <use xlink:href="#DejaVuSans-62" x="188.037109"/>
      <use xlink:href="#DejaVuSans-6c" x="251.513672"/>
      <use xlink:href="#DejaVuSans-65" x="279.296875"/>
     </g>
    </g>
    <g id="line2d_38">
     <path d="M 101.0736 484.734678 
L 115.0736 484.734678 
L 129.0736 484.734678 
" style="fill: none; stroke: #ff0000; stroke-width: 4"/>
    </g>
    <g id="text_24">
     <!-- float -->
     <g transform="translate(140.2736 489.634678) scale(0.14 -0.14)">
      <use xlink:href="#DejaVuSans-66"/>
      <use xlink:href="#DejaVuSans-6c" x="35.205078"/>
      <use xlink:href="#DejaVuSans-6f" x="62.988281"/>
      <use xlink:href="#DejaVuSans-61" x="124.169922"/>
      <use xlink:href="#DejaVuSans-74" x="185.449219"/>
     </g>
    </g>
   </g>
  </g>
 </g>
 <defs>
  <clipPath id="pa4f6850c6f">
   <rect x="88.4736" y="65.18016" width="962.1504" height="439.96608"/>
  </clipPath>
 </defs>
</svg>
