<svg width="1000" height="500" viewBox="0 0 1000 500" xmlns="http://www.w3.org/2000/svg">
<rect x="0" y="0" width="1000" height="500" opacity="1" fill="#FFFFFF" stroke="none"/>
<line opacity="0.1" stroke="#000000" stroke-width="1" x1="60" y1="439" x2="60" y2="0"/>
<line opacity="0.1" stroke="#000000" stroke-width="1" x1="71" y1="439" x2="71" y2="0"/>
<line opacity="0.1" stroke="#000000" stroke-width="1" x1="83" y1="439" x2="83" y2="0"/>
<line opacity="0.1" stroke="#000000" stroke-width="1" x1="94" y1="439" x2="94" y2="0"/>
<line opacity="0.1" stroke="#000000" stroke-width="1" x1="106" y1="439" x2="106" y2="0"/>
<line opacity="0.1" stroke="#000000" stroke-width="1" x1="117" y1="439" x2="117" y2="0"/>
<line opacity="0.1" stroke="#000000" stroke-width="1" x1="129" y1="439" x2="129" y2="0"/>
<line opacity="0.1" stroke="#000000" stroke-width="1" x1="141" y1="439" x2="141" y2="0"/>
<line opacity="0.1" stroke="#000000" stroke-width="1" x1="152" y1="439" x2="152" y2="0"/>
<line opacity="0.1" stroke="#000000" stroke-width="1" x1="164" y1="439" x2="164" y2="0"/>
<line opacity="0.1" stroke="#000000" stroke-width="1" x1="175" y1="439" x2="175" y2="0"/>
<line opacity="0.1" stroke="#000000" stroke-width="1" x1="187" y1="439" x2="187" y2="0"/>
<line opacity="0.1" stroke="#000000" stroke-width="1" x1="199" y1="439" x2="199" y2="0"/>
<line opacity="0.1" stroke="#000000" stroke-width="1" x1="210" y1="439" x2="210" y2="0"/>
<line opacity="0.1" stroke="#000000" stroke-width="1" x1="222" y1="439" x2="222" y2="0"/>
<line opacity="0.1" stroke="#000000" stroke-width="1" x1="233" y1="439" x2="233" y2="0"/>
<line opacity="0.1" stroke="#000000" stroke-width="1" x1="245" y1="439" x2="245" y2="0"/>
<line opacity="0.1" stroke="#000000" stroke-width="1" x1="257" y1="439" x2="257" y2="0"/>
<line opacity="0.1" stroke="#000000" stroke-width="1" x1="268" y1="439" x2="268" y2="0"/>
<line opacity="0.1" stroke="#000000" stroke-width="1" x1="280" y1="439" x2="280" y2="0"/>
<line opacity="0.1" stroke="#000000" stroke-width="1" x1="291" y1="439" x2="291" y2="0"/>
<line opacity="0.1" stroke="#000000" stroke-width="1" x1="303" y1="439" x2="303" y2="0"/>
<line opacity="0.1" stroke="#000000" stroke-width="1" x1="315" y1="439" x2="315" y2="0"/>
<line opacity="0.1" stroke="#000000" stroke-width="1" x1="326" y1="439" x2="326" y2="0"/>
<line opacity="0.1" stroke="#000000" stroke-width="1" x1="338" y1="439" x2="338" y2="0"/>
<line opacity="0.1" stroke="#000000" stroke-width="1" x1="349" y1="439" x2="349" y2="0"/>
<line opacity="0.1" stroke="#000000" stroke-width="1" x1="361" y1="439" x2="361" y2="0"/>
<line opacity="0.1" stroke="#000000" stroke-width="1" x1="373" y1="439" x2="373" y2="0"/>
<line opacity="0.1" stroke="#000000" stroke-width="1" x1="384" y1="439" x2="384" y2="0"/>
<line opacity="0.1" stroke="#000000" stroke-width="1" x1="396" y1="439" x2="396" y2="0"/>
<line opacity="0.1" stroke="#000000" stroke-width="1" x1="407" y1="439" x2="407" y2="0"/>
<line opacity="0.1" stroke="#000000" stroke-width="1" x1="419" y1="439" x2="419" y2="0"/>
<line opacity="0.1" stroke="#000000" stroke-width="1" x1="430" y1="439" x2="430" y2="0"/>
<line opacity="0.1" stroke="#000000" stroke-width="1" x1="442" y1="439" x2="442" y2="0"/>
<line opacity="0.1" stroke="#000000" stroke-width="1" x1="454" y1="439" x2="454" y2="0"/>
<line opacity="0.1" stroke="#000000" stroke-width="1" x1="465" y1="439" x2="465" y2="0"/>
<line opacity="0.1" stroke="#000000" stroke-width="1" x1="477" y1="439" x2="477" y2="0"/>
<line opacity="0.1" stroke="#000000" stroke-width="1" x1="488" y1="439" x2="488" y2="0"/>
<line opacity="0.1" stroke="#000000" stroke-width="1" x1="500" y1="439" x2="500" y2="0"/>
<line opacity="0.1" stroke="#000000" stroke-width="1" x1="512" y1="439" x2="512" y2="0"/>
<line opacity="0.1" stroke="#000000" stroke-width="1" x1="523" y1="439" x2="523" y2="0"/>
<line opacity="0.1" stroke="#000000" stroke-width="1" x1="535" y1="439" x2="535" y2="0"/>
<line opacity="0.1" stroke="#000000" stroke-width="1" x1="546" y1="439" x2="546" y2="0"/>
<line opacity="0.1" stroke="#000000" stroke-width="1" x1="558" y1="439" x2="558" y2="0"/>
<line opacity="0.1" stroke="#000000" stroke-width="1" x1="570" y1="439" x2="570" y2="0"/>
<line opacity="0.1" stroke="#000000" stroke-width="1" x1="581" y1="439" x2="581" y2="0"/>
<line opacity="0.1" stroke="#000000" stroke-width="1" x1="593" y1="439" x2="593" y2="0"/>
<line opacity="0.1" stroke="#000000" stroke-width="1" x1="604" y1="439" x2="604" y2="0"/>
<line opacity="0.1" stroke="#000000" stroke-width="1" x1="616" y1="439" x2="616" y2="0"/>
<line opacity="0.1" stroke="#000000" stroke-width="1" x1="628" y1="439" x2="628" y2="0"/>
<line opacity="0.1" stroke="#000000" stroke-width="1" x1="639" y1="439" x2="639" y2="0"/>
<line opacity="0.1" stroke="#000000" stroke-width="1" x1="651" y1="439" x2="651" y2="0"/>
<line opacity="0.1" stroke="#000000" stroke-width="1" x1="662" y1="439" x2="662" y2="0"/>
<line opacity="0.1" stroke="#000000" stroke-width="1" x1="674" y1="439" x2="674" y2="0"/>
<line opacity="0.1" stroke="#000000" stroke-width="1" x1="686" y1="439" x2="686" y2="0"/>
<line opacity="0.1" stroke="#000000" stroke-width="1" x1="697" y1="439" x2="697" y2="0"/>
<line opacity="0.1" stroke="#000000" stroke-width="1" x1="709" y1="439" x2="709" y2="0"/>
<line opacity="0.1" stroke="#000000" stroke-width="1" x1="720" y1="439" x2="720" y2="0"/>
<line opacity="0.1" stroke="#000000" stroke-width="1" x1="732" y1="439" x2="732" y2="0"/>
<line opacity="0.1" stroke="#000000" stroke-width="1" x1="743" y1="439" x2="743" y2="0"/>
<line opacity="0.1" stroke="#000000" stroke-width="1" x1="755" y1="439" x2="755" y2="0"/>
<line opacity="0.1" stroke="#000000" stroke-width="1" x1="767" y1="439" x2="767" y2="0"/>
<line opacity="0.1" stroke="#000000" stroke-width="1" x1="778" y1="439" x2="778" y2="0"/>
<line opacity="0.1" stroke="#000000" stroke-width="1" x1="790" y1="439" x2="790" y2="0"/>
<line opacity="0.1" stroke="#000000" stroke-width="1" x1="801" y1="439" x2="801" y2="0"/>
<line opacity="0.1" stroke="#000000" stroke-width="1" x1="813" y1="439" x2="813" y2="0"/>
<line opacity="0.1" stroke="#000000" stroke-width="1" x1="825" y1="439" x2="825" y2="0"/>
<line opacity="0.1" stroke="#000000" stroke-width="1" x1="836" y1="439" x2="836" y2="0"/>
<line opacity="0.1" stroke="#000000" stroke-width="1" x1="848" y1="439" x2="848" y2="0"/>
<line opacity="0.1" stroke="#000000" stroke-width="1" x1="859" y1="439" x2="859" y2="0"/>
<line opacity="0.1" stroke="#000000" stroke-width="1" x1="871" y1="439" x2="871" y2="0"/>
<line opacity="0.1" stroke="#000000" stroke-width="1" x1="883" y1="439" x2="883" y2="0"/>
<line opacity="0.1" stroke="#000000" stroke-width="1" x1="894" y1="439" x2="894" y2="0"/>
<line opacity="0.1" stroke="#000000" stroke-width="1" x1="906" y1="439" x2="906" y2="0"/>
<line opacity="0.1" stroke="#000000" stroke-width="1" x1="917" y1="439" x2="917" y2="0"/>
<line opacity="0.1" stroke="#000000" stroke-width="1" x1="929" y1="439" x2="929" y2="0"/>
<line opacity="0.1" stroke="#000000" stroke-width="1" x1="941" y1="439" x2="941" y2="0"/>
<line opacity="0.1" stroke="#000000" stroke-width="1" x1="952" y1="439" x2="952" y2="0"/>
<line opacity="0.1" stroke="#000000" stroke-width="1" x1="964" y1="439" x2="964" y2="0"/>
<line opacity="0.1" stroke="#000000" stroke-width="1" x1="975" y1="439" x2="975" y2="0"/>
<line opacity="0.1" stroke="#000000" stroke-width="1" x1="987" y1="439" x2="987" y2="0"/>
<line opacity="0.1" stroke="#000000" stroke-width="1" x1="999" y1="439" x2="999" y2="0"/>
<line opacity="0.1" stroke="#000000" stroke-width="1" x1="60" y1="396" x2="999" y2="396"/>
<line opacity="0.1" stroke="#000000" stroke-width="1" x1="60" y1="381" x2="999" y2="381"/>
<line opacity="0.1" stroke="#000000" stroke-width="1" x1="60" y1="373" x2="999" y2="373"/>
<line opacity="0.1" stroke="#000000" stroke-width="1" x1="60" y1="367" x2="999" y2="367"/>
<line opacity="0.1" stroke="#000000" stroke-width="1" x1="60" y1="362" x2="999" y2="362"/>
<line opacity="0.1" stroke="#000000" stroke-width="1" x1="60" y1="359" x2="999" y2="359"/>
<line opacity="0.1" stroke="#000000" stroke-width="1" x1="60" y1="355" x2="999" y2="355"/>
<line opacity="0.1" stroke="#000000" stroke-width="1" x1="60" y1="353" x2="999" y2="353"/>
<line opacity="0.1" stroke="#000000" stroke-width="1" x1="60" y1="350" x2="999" y2="350"/>
<line opacity="0.1" stroke="#000000" stroke-width="1" x1="60" y1="348" x2="999" y2="348"/>
<line opacity="0.1" stroke="#000000" stroke-width="1" x1="60" y1="348" x2="999" y2="348"/>
<line opacity="0.1" stroke="#000000" stroke-width="1" x1="60" y1="334" x2="999" y2="334"/>
<line opacity="0.1" stroke="#000000" stroke-width="1" x1="60" y1="325" x2="999" y2="325"/>
<line opacity="0.1" stroke="#000000" stroke-width="1" x1="60" y1="319" x2="999" y2="319"/>
<line opacity="0.1" stroke="#000000" stroke-width="1" x1="60" y1="315" x2="999" y2="315"/>
<line opacity="0.1" stroke="#000000" stroke-width="1" x1="60" y1="311" x2="999" y2="311"/>
<line opacity="0.1" stroke="#000000" stroke-width="1" x1="60" y1="308" x2="999" y2="308"/>
<line opacity="0.1" stroke="#000000" stroke-width="1" x1="60" y1="305" x2="999" y2="305"/>
<line opacity="0.1" stroke="#000000" stroke-width="1" x1="60" y1="303" x2="999" y2="303"/>
<line opacity="0.1" stroke="#000000" stroke-width="1" x1="60" y1="300" x2="999" y2="300"/>
<line opacity="0.1" stroke="#000000" stroke-width="1" x1="60" y1="300" x2="999" y2="300"/>
<line opacity="0.1" stroke="#000000" stroke-width="1" x1="60" y1="286" x2="999" y2="286"/>
<line opacity="0.1" stroke="#000000" stroke-width="1" x1="60" y1="278" x2="999" y2="278"/>
<line opacity="0.1" stroke="#000000" stroke-width="1" x1="60" y1="272" x2="999" y2="272"/>
<line opacity="0.1" stroke="#000000" stroke-width="1" x1="60" y1="267" x2="999" y2="267"/>
<line opacity="0.1" stroke="#000000" stroke-width="1" x1="60" y1="263" x2="999" y2="263"/>
<line opacity="0.1" stroke="#000000" stroke-width="1" x1="60" y1="260" x2="999" y2="260"/>
<line opacity="0.1" stroke="#000000" stroke-width="1" x1="60" y1="257" x2="999" y2="257"/>
<line opacity="0.1" stroke="#000000" stroke-width="1" x1="60" y1="255" x2="999" y2="255"/>
<line opacity="0.1" stroke="#000000" stroke-width="1" x1="60" y1="253" x2="999" y2="253"/>
<line opacity="0.1" stroke="#000000" stroke-width="1" x1="60" y1="253" x2="999" y2="253"/>
<line opacity="0.1" stroke="#000000" stroke-width="1" x1="60" y1="238" x2="999" y2="238"/>
<line opacity="0.1" stroke="#000000" stroke-width="1" x1="60" y1="230" x2="999" y2="230"/>
<line opacity="0.1" stroke="#000000" stroke-width="1" x1="60" y1="224" x2="999" y2="224"/>
<line opacity="0.1" stroke="#000000" stroke-width="1" x1="60" y1="220" x2="999" y2="220"/>
<line opacity="0.1" stroke="#000000" stroke-width="1" x1="60" y1="216" x2="999" y2="216"/>
<line opacity="0.1" stroke="#000000" stroke-width="1" x1="60" y1="213" x2="999" y2="213"/>
<line opacity="0.1" stroke="#000000" stroke-width="1" x1="60" y1="210" x2="999" y2="210"/>
<line opacity="0.1" stroke="#000000" stroke-width="1" x1="60" y1="207" x2="999" y2="207"/>
<line opacity="0.1" stroke="#000000" stroke-width="1" x1="60" y1="205" x2="999" y2="205"/>
<line opacity="0.1" stroke="#000000" stroke-width="1" x1="60" y1="205" x2="999" y2="205"/>
<line opacity="0.1" stroke="#000000" stroke-width="1" x1="60" y1="191" x2="999" y2="191"/>
<line opacity="0.1" stroke="#000000" stroke-width="1" x1="60" y1="182" x2="999" y2="182"/>
<line opacity="0.1" stroke="#000000" stroke-width="1" x1="60" y1="177" x2="999" y2="177"/>
<line opacity="0.1" stroke="#000000" stroke-width="1" x1="60" y1="172" x2="999" y2="172"/>
<line opacity="0.1" stroke="#000000" stroke-width="1" x1="60" y1="168" x2="999" y2="168"/>
<line opacity="0.1" stroke="#000000" stroke-width="1" x1="60" y1="165" x2="999" y2="165"/>
<line opacity="0.1" stroke="#000000" stroke-width="1" x1="60" y1="162" x2="999" y2="162"/>
<line opacity="0.1" stroke="#000000" stroke-width="1" x1="60" y1="160" x2="999" y2="160"/>
<line opacity="0.1" stroke="#000000" stroke-width="1" x1="60" y1="158" x2="999" y2="158"/>
<line opacity="0.1" stroke="#000000" stroke-width="1" x1="60" y1="158" x2="999" y2="158"/>
<line opacity="0.1" stroke="#000000" stroke-width="1" x1="60" y1="143" x2="999" y2="143"/>
<line opacity="0.1" stroke="#000000" stroke-width="1" x1="60" y1="135" x2="999" y2="135"/>
<line opacity="0.1" stroke="#000000" stroke-width="1" x1="60" y1="129" x2="999" y2="129"/>
<line opacity="0.1" stroke="#000000" stroke-width="1" x1="60" y1="124" x2="999" y2="124"/>
<line opacity="0.1" stroke="#000000" stroke-width="1" x1="60" y1="121" x2="999" y2="121"/>
<line opacity="0.1" stroke="#000000" stroke-width="1" x1="60" y1="117" x2="999" y2="117"/>
<line opacity="0.1" stroke="#000000" stroke-width="1" x1="60" y1="115" x2="999" y2="115"/>
<line opacity="0.1" stroke="#000000" stroke-width="1" x1="60" y1="112" x2="999" y2="112"/>
<line opacity="0.1" stroke="#000000" stroke-width="1" x1="60" y1="110" x2="999" y2="110"/>
<line opacity="0.1" stroke="#000000" stroke-width="1" x1="60" y1="110" x2="999" y2="110"/>
<line opacity="0.1" stroke="#000000" stroke-width="1" x1="60" y1="96" x2="999" y2="96"/>
<line opacity="0.1" stroke="#000000" stroke-width="1" x1="60" y1="87" x2="999" y2="87"/>
<line opacity="0.1" stroke="#000000" stroke-width="1" x1="60" y1="81" x2="999" y2="81"/>
<line opacity="0.1" stroke="#000000" stroke-width="1" x1="60" y1="77" x2="999" y2="77"/>
<line opacity="0.1" stroke="#000000" stroke-width="1" x1="60" y1="73" x2="999" y2="73"/>
<line opacity="0.1" stroke="#000000" stroke-width="1" x1="60" y1="70" x2="999" y2="70"/>
<line opacity="0.1" stroke="#000000" stroke-width="1" x1="60" y1="67" x2="999" y2="67"/>
<line opacity="0.1" stroke="#000000" stroke-width="1" x1="60" y1="65" x2="999" y2="65"/>
<line opacity="0.1" stroke="#000000" stroke-width="1" x1="60" y1="62" x2="999" y2="62"/>
<line opacity="0.1" stroke="#000000" stroke-width="1" x1="60" y1="62" x2="999" y2="62"/>
<line opacity="0.1" stroke="#000000" stroke-width="1" x1="60" y1="48" x2="999" y2="48"/>
<line opacity="0.1" stroke="#000000" stroke-width="1" x1="60" y1="40" x2="999" y2="40"/>
<line opacity="0.1" stroke="#000000" stroke-width="1" x1="60" y1="34" x2="999" y2="34"/>
<line opacity="0.1" stroke="#000000" stroke-width="1" x1="60" y1="29" x2="999" y2="29"/>
<line opacity="0.1" stroke="#000000" stroke-width="1" x1="60" y1="25" x2="999" y2="25"/>
<line opacity="0.1" stroke="#000000" stroke-width="1" x1="60" y1="22" x2="999" y2="22"/>
<line opacity="0.1" stroke="#000000" stroke-width="1" x1="60" y1="19" x2="999" y2="19"/>
<line opacity="0.1" stroke="#000000" stroke-width="1" x1="60" y1="17" x2="999" y2="17"/>
<line opacity="0.1" stroke="#000000" stroke-width="1" x1="60" y1="15" x2="999" y2="15"/>
<line opacity="0.1" stroke="#000000" stroke-width="1" x1="60" y1="15" x2="999" y2="15"/>
<line opacity="0.1" stroke="#000000" stroke-width="1" x1="60" y1="0" x2="999" y2="0"/>
<text x="0" y="220" dy="0.76em" text-anchor="middle" font-family="sans-serif" font-size="9.67741935483871" opacity="1" fill="#000000" transform="rotate(270, 0, 220)">
||x⁽ᵏ⁾ - x||
</text>
<text x="530" y="500" dy="-0.5ex" text-anchor="middle" font-family="sans-serif" font-size="9.67741935483871" opacity="1" fill="#000000">
k
</text>
<line opacity="0.2" stroke="#000000" stroke-width="1" x1="60" y1="439" x2="60" y2="0"/>
<line opacity="0.2" stroke="#000000" stroke-width="1" x1="175" y1="439" x2="175" y2="0"/>
<line opacity="0.2" stroke="#000000" stroke-width="1" x1="291" y1="439" x2="291" y2="0"/>
<line opacity="0.2" stroke="#000000" stroke-width="1" x1="407" y1="439" x2="407" y2="0"/>
<line opacity="0.2" stroke="#000000" stroke-width="1" x1="523" y1="439" x2="523" y2="0"/>
<line opacity="0.2" stroke="#000000" stroke-width="1" x1="639" y1="439" x2="639" y2="0"/>
<line opacity="0.2" stroke="#000000" stroke-width="1" x1="755" y1="439" x2="755" y2="0"/>
<line opacity="0.2" stroke="#000000" stroke-width="1" x1="871" y1="439" x2="871" y2="0"/>
<line opacity="0.2" stroke="#000000" stroke-width="1" x1="987" y1="439" x2="987" y2="0"/>
<line opacity="0.2" stroke="#000000" stroke-width="1" x1="60" y1="396" x2="999" y2="396"/>
<line opacity="0.2" stroke="#000000" stroke-width="1" x1="60" y1="348" x2="999" y2="348"/>
<line opacity="0.2" stroke="#000000" stroke-width="1" x1="60" y1="300" x2="999" y2="300"/>
<line opacity="0.2" stroke="#000000" stroke-width="1" x1="60" y1="253" x2="999" y2="253"/>
<line opacity="0.2" stroke="#000000" stroke-width="1" x1="60" y1="205" x2="999" y2="205"/>
<line opacity="0.2" stroke="#000000" stroke-width="1" x1="60" y1="158" x2="999" y2="158"/>
<line opacity="0.2" stroke="#000000" stroke-width="1" x1="60" y1="110" x2="999" y2="110"/>
<line opacity="0.2" stroke="#000000" stroke-width="1" x1="60" y1="62" x2="999" y2="62"/>
<line opacity="0.2" stroke="#000000" stroke-width="1" x1="60" y1="15" x2="999" y2="15"/>
<polyline fill="none" opacity="1" stroke="#000000" stroke-width="1" points="59,0 59,439 "/>
<text x="50" y="396" dy="0.5ex" text-anchor="end" font-family="sans-serif" font-size="9.67741935483871" opacity="1" fill="#000000">
1e-6
</text>
<polyline fill="none" opacity="1" stroke="#000000" stroke-width="1" points="54,396 59,396 "/>
<text x="50" y="348" dy="0.5ex" text-anchor="end" font-family="sans-serif" font-size="9.67741935483871" opacity="1" fill="#000000">
9.999999999999999e-6
</text>
<polyline fill="none" opacity="1" stroke="#000000" stroke-width="1" points="54,348 59,348 "/>
<text x="50" y="300" dy="0.5ex" text-anchor="end" font-family="sans-serif" font-size="9.67741935483871" opacity="1" fill="#000000">
9.999999999999999e-5
</text>
<polyline fill="none" opacity="1" stroke="#000000" stroke-width="1" points="54,300 59,300 "/>
<text x="50" y="253" dy="0.5ex" text-anchor="end" font-family="sans-serif" font-size="9.67741935483871" opacity="1" fill="#000000">
0.001
</text>
<polyline fill="none" opacity="1" stroke="#000000" stroke-width="1" points="54,253 59,253 "/>
<text x="50" y="205" dy="0.5ex" text-anchor="end" font-family="sans-serif" font-size="9.67741935483871" opacity="1" fill="#000000">
0.01
</text>
<polyline fill="none" opacity="1" stroke="#000000" stroke-width="1" points="54,205 59,205 "/>
<text x="50" y="158" dy="0.5ex" text-anchor="end" font-family="sans-serif" font-size="9.67741935483871" opacity="1" fill="#000000">
0.1
</text>
<polyline fill="none" opacity="1" stroke="#000000" stroke-width="1" points="54,158 59,158 "/>
<text x="50" y="110" dy="0.5ex" text-anchor="end" font-family="sans-serif" font-size="9.67741935483871" opacity="1" fill="#000000">
1.0
</text>
<polyline fill="none" opacity="1" stroke="#000000" stroke-width="1" points="54,110 59,110 "/>
<text x="50" y="62" dy="0.5ex" text-anchor="end" font-family="sans-serif" font-size="9.67741935483871" opacity="1" fill="#000000">
10.0
</text>
<polyline fill="none" opacity="1" stroke="#000000" stroke-width="1" points="54,62 59,62 "/>
<text x="50" y="15" dy="0.5ex" text-anchor="end" font-family="sans-serif" font-size="9.67741935483871" opacity="1" fill="#000000">
100.0
</text>
<polyline fill="none" opacity="1" stroke="#000000" stroke-width="1" points="54,15 59,15 "/>
<polyline fill="none" opacity="1" stroke="#000000" stroke-width="1" points="60,440 999,440 "/>
<text x="60" y="450" dy="0.76em" text-anchor="middle" font-family="sans-serif" font-size="9.67741935483871" opacity="1" fill="#000000">
0
</text>
<polyline fill="none" opacity="1" stroke="#000000" stroke-width="1" points="60,440 60,445 "/>
<text x="175" y="450" dy="0.76em" text-anchor="middle" font-family="sans-serif" font-size="9.67741935483871" opacity="1" fill="#000000">
10
</text>
<polyline fill="none" opacity="1" stroke="#000000" stroke-width="1" points="175,440 175,445 "/>
<text x="291" y="450" dy="0.76em" text-anchor="middle" font-family="sans-serif" font-size="9.67741935483871" opacity="1" fill="#000000">
20
</text>
<polyline fill="none" opacity="1" stroke="#000000" stroke-width="1" points="291,440 291,445 "/>
<text x="407" y="450" dy="0.76em" text-anchor="middle" font-family="sans-serif" font-size="9.67741935483871" opacity="1" fill="#000000">
30
</text>
<polyline fill="none" opacity="1" stroke="#000000" stroke-width="1" points="407,440 407,445 "/>
<text x="523" y="450" dy="0.76em" text-anchor="middle" font-family="sans-serif" font-size="9.67741935483871" opacity="1" fill="#000000">
40
</text>
<polyline fill="none" opacity="1" stroke="#000000" stroke-width="1" points="523,440 523,445 "/>
<text x="639" y="450" dy="0.76em" text-anchor="middle" font-family="sans-serif" font-size="9.67741935483871" opacity="1" fill="#000000">
50
</text>
<polyline fill="none" opacity="1" stroke="#000000" stroke-width="1" points="639,440 639,445 "/>
<text x="755" y="450" dy="0.76em" text-anchor="middle" font-family="sans-serif" font-size="9.67741935483871" opacity="1" fill="#000000">
60
</text>
<polyline fill="none" opacity="1" stroke="#000000" stroke-width="1" points="755,440 755,445 "/>
<text x="871" y="450" dy="0.76em" text-anchor="middle" font-family="sans-serif" font-size="9.67741935483871" opacity="1" fill="#000000">
70
</text>
<polyline fill="none" opacity="1" stroke="#000000" stroke-width="1" points="871,440 871,445 "/>
<text x="987" y="450" dy="0.76em" text-anchor="middle" font-family="sans-serif" font-size="9.67741935483871" opacity="1" fill="#000000">
80
</text>
<polyline fill="none" opacity="1" stroke="#000000" stroke-width="1" points="987,440 987,445 "/>
<polyline fill="none" opacity="1" stroke="#86F9BD" stroke-width="1" points="60,7 71,13 83,18 94,24 106,29 117,35 129,41 141,46 152,52 164,57 175,63 187,68 199,74 210,79 222,85 233,90 245,96 257,102 268,107 280,113 291,118 303,124 315,129 326,135 338,140 349,146 361,151 373,157 384,162 396,168 407,173 419,179 430,184 442,190 454,195 465,201 477,207 488,212 500,218 512,223 523,229 535,234 546,240 558,245 570,251 581,256 593,262 604,267 616,273 628,278 639,284 651,289 662,295 674,300 686,306 697,311 709,317 720,322 732,328 743,333 755,339 767,344 778,350 790,356 801,361 813,367 825,372 836,378 848,383 859,389 871,394 883,400 894,405 906,411 917,416 929,422 941,427 952,433 964,438 "/>
<polyline fill="none" opacity="1" stroke="#A8F986" stroke-width="1" points="60,7 71,13 83,18 94,24 106,29 117,35 129,41 141,46 152,52 164,57 175,63 187,68 199,74 210,79 222,85 233,90 245,96 257,102 268,107 280,113 291,118 303,124 315,129 326,135 338,140 349,146 361,151 373,157 384,162 396,168 407,173 419,179 430,184 442,190 454,196 465,201 477,207 488,212 500,218 512,223 523,229 535,234 546,240 558,245 570,251 581,256 593,262 604,267 616,273 628,278 639,284 651,289 662,295 674,300 686,306 697,311 709,317 720,322 732,328 743,334 755,339 767,345 778,350 790,356 801,361 813,367 825,372 836,378 848,383 859,389 871,394 883,400 894,405 906,411 917,416 929,422 941,427 952,433 964,438 "/>
<polyline fill="none" opacity="1" stroke="#86F9F7" stroke-width="1" points="60,7 71,13 83,18 94,24 106,29 117,35 129,41 141,46 152,52 164,57 175,63 187,68 199,74 210,79 222,85 233,90 245,96 257,102 268,107 280,113 291,118 303,124 315,129 326,135 338,140 349,146 361,151 373,157 384,162 396,168 407,173 419,179 430,184 442,190 454,196 465,201 477,207 488,212 500,218 512,223 523,229 535,234 546,240 558,245 570,251 581,256 593,262 604,267 616,273 628,278 639,284 651,289 662,295 674,300 686,306 697,311 709,317 720,322 732,328 743,334 755,339 767,345 778,350 790,356 801,361 813,367 825,372 836,378 848,383 859,389 871,394 883,400 894,405 906,411 917,416 929,422 941,427 952,433 964,438 "/>
<polyline fill="none" opacity="1" stroke="#9DF986" stroke-width="1" points="60,7 71,13 83,18 94,24 106,29 117,35 129,40 141,46 152,52 164,57 175,63 187,68 199,74 210,79 222,85 233,90 245,96 257,102 268,107 280,113 291,118 303,124 315,129 326,135 338,140 349,146 361,151 373,157 384,162 396,168 407,173 419,179 430,184 442,190 454,195 465,201 477,207 488,212 500,218 512,223 523,229 535,234 546,240 558,245 570,251 581,256 593,262 604,267 616,273 628,278 639,284 651,289 662,295 674,300 686,306 697,311 709,317 720,322 732,328 743,333 755,339 767,344 778,350 790,356 801,361 813,367 825,372 836,378 848,383 859,389 871,394 883,400 894,405 906,411 917,416 929,422 941,427 952,433 964,438 "/>
<polyline fill="none" opacity="1" stroke="#86F9C3" stroke-width="1" points="60,7 71,13 83,18 94,24 106,29 117,35 129,41 141,46 152,52 164,57 175,63 187,68 199,74 210,79 222,85 233,90 245,96 257,102 268,107 280,113 291,118 303,124 315,129 326,135 338,140 349,146 361,151 373,157 384,162 396,168 407,173 419,179 430,184 442,190 454,196 465,201 477,207 488,212 500,218 512,223 523,229 535,234 546,240 558,245 570,251 581,256 593,262 604,267 616,273 628,278 639,284 651,289 662,295 674,300 686,306 697,311 709,317 720,322 732,328 743,334 755,339 767,345 778,350 790,356 801,361 813,367 825,372 836,378 848,383 859,389 871,394 883,400 894,405 906,411 917,416 929,422 941,427 952,433 964,438 "/>
<polyline fill="none" opacity="1" stroke="#F986D4" stroke-width="1" points="60,7 71,33 83,59 94,85 106,111 117,137 129,161 141,185 152,208 164,229 175,250 187,270 199,290 210,310 222,330 233,349 245,369 257,388 268,408 280,427 "/>
<polyline fill="none" opacity="1" stroke="#C786F9" stroke-width="1" points="60,7 71,33 83,59 94,86 106,111 117,137 129,161 141,185 152,208 164,230 175,250 187,271 199,291 210,310 222,330 233,350 245,369 257,389 268,408 280,428 "/>
<polyline fill="none" opacity="1" stroke="#D386F9" stroke-width="1" points="60,7 71,33 83,59 94,86 106,111 117,137 129,161 141,185 152,208 164,229 175,250 187,270 199,290 210,310 222,330 233,349 245,369 257,388 268,408 280,427 "/>
<polyline fill="none" opacity="1" stroke="#F986E0" stroke-width="1" points="60,7 71,33 83,59 94,86 106,111 117,137 129,162 141,186 152,208 164,230 175,251 187,271 199,291 210,311 222,331 233,351 245,370 257,390 268,409 280,429 "/>
<polyline fill="none" opacity="1" stroke="#F986BB" stroke-width="1" points="60,7 71,33 83,59 94,86 106,111 117,137 129,162 141,185 152,208 164,230 175,251 187,271 199,291 210,311 222,330 233,350 245,370 257,389 268,409 280,428 "/>
<rect x="887" y="138" width="108" height="164" opacity="0.8" fill="#FFFFFF" stroke="none"/>
<rect x="887" y="138" width="108" height="164" opacity="1" fill="none" stroke="#000000"/>
<text x="927" y="148" dy="0.76em" text-anchor="start" font-family="sans-serif" font-size="9.67741935483871" opacity="1" fill="#000000">
Jacobi
</text>
<text x="927" y="163" dy="0.76em" text-anchor="start" font-family="sans-serif" font-size="9.67741935483871" opacity="1" fill="#000000">
Jacobi
</text>
<text x="927" y="178" dy="0.76em" text-anchor="start" font-family="sans-serif" font-size="9.67741935483871" opacity="1" fill="#000000">
Jacobi
</text>
<text x="927" y="193" dy="0.76em" text-anchor="start" font-family="sans-serif" font-size="9.67741935483871" opacity="1" fill="#000000">
Jacobi
</text>
<text x="927" y="208" dy="0.76em" text-anchor="start" font-family="sans-serif" font-size="9.67741935483871" opacity="1" fill="#000000">
Jacobi
</text>
<text x="927" y="223" dy="0.76em" text-anchor="start" font-family="sans-serif" font-size="9.67741935483871" opacity="1" fill="#000000">
Gauss-Seidel
</text>
<text x="927" y="238" dy="0.76em" text-anchor="start" font-family="sans-serif" font-size="9.67741935483871" opacity="1" fill="#000000">
Gauss-Seidel
</text>
<text x="927" y="253" dy="0.76em" text-anchor="start" font-family="sans-serif" font-size="9.67741935483871" opacity="1" fill="#000000">
Gauss-Seidel
</text>
<text x="927" y="268" dy="0.76em" text-anchor="start" font-family="sans-serif" font-size="9.67741935483871" opacity="1" fill="#000000">
Gauss-Seidel
</text>
<text x="927" y="283" dy="0.76em" text-anchor="start" font-family="sans-serif" font-size="9.67741935483871" opacity="1" fill="#000000">
Gauss-Seidel
</text>
<polyline fill="none" opacity="1" stroke="#86F9BD" stroke-width="1" points="897,152 917,152 "/>
<polyline fill="none" opacity="1" stroke="#A8F986" stroke-width="1" points="897,167 917,167 "/>
<polyline fill="none" opacity="1" stroke="#86F9F7" stroke-width="1" points="897,182 917,182 "/>
<polyline fill="none" opacity="1" stroke="#9DF986" stroke-width="1" points="897,197 917,197 "/>
<polyline fill="none" opacity="1" stroke="#86F9C3" stroke-width="1" points="897,212 917,212 "/>
<polyline fill="none" opacity="1" stroke="#F986D4" stroke-width="1" points="897,227 917,227 "/>
<polyline fill="none" opacity="1" stroke="#C786F9" stroke-width="1" points="897,242 917,242 "/>
<polyline fill="none" opacity="1" stroke="#D386F9" stroke-width="1" points="897,257 917,257 "/>
<polyline fill="none" opacity="1" stroke="#F986E0" stroke-width="1" points="897,272 917,272 "/>
<polyline fill="none" opacity="1" stroke="#F986BB" stroke-width="1" points="897,287 917,287 "/>
</svg>
